<svg id="SvgjsSvg1080" width="288" height="288" xmlns="http://www.w3.org/2000/svg" version="1.1" xmlns:xlink="http://www.w3.org/1999/xlink" xmlns:svgjs="http://svgjs.com/svgjs"><defs id="SvgjsDefs1081"></defs><g id="SvgjsG1082"><svg xmlns="http://www.w3.org/2000/svg" width="288" height="288" version="1.0" viewBox="0 0 900 900"><g transform="matrix(.1 0 0 -.1 0 900)" fill="#daa520" class="color000 svgShape"><path d="M5930 6678c-11-18-35-82-54-143-152-486-149-481-192-464-15 5-101 45-193 88-182 87-231 104-276 99-29-3-30-5-30-54 1-45 15-80 113-279 62-124 112-233 112-240 0-18-66-75-234-202-148-113-265-217-255-227 15-16 145-26 400-32l275-7 78-271c89-309 116-388 133-393 21-7 80 127 133 303 28 93 61 187 74 209l22 40 99-1c76-1 137-10 256-37 180-42 294-61 309-52 21 13-60 140-238 375-53 69-99 130-104 136-8 11 81 81 334 262 134 96 168 148 111 170-55 21-102 25-357 31l-259 6-24 85c-76 270-177 607-185 618-16 19-27 15-48-20zM3496 6447c-49-54-138-195-230-367-37-69-79-137-94-152-44-47-84-35-227 67-182 131-315 215-340 215-26 0-17-59 46-310 59-235 60-243 42-262-30-33-130-100-273-183-164-95-280-173-280-190 0-38 79-55 425-93l250-28 7-169c4-94 10-260 14-369l6-199 58 89c32 49 114 177 183 284l124 195 47-1c39 0 85-20 279-117 248-125 323-157 363-157 19 0 24 4 21 18-3 9-8 35-12 57-4 22-39 139-80 260-40 121-76 234-79 250-6 29-3 32 111 105 140 90 321 219 347 249 17 19 18 23 5 36-25 26-168 54-373 75-110 11-203 20-207 20-4 0-9 143-11 318-5 347-11 394-57 400-17 3-34-8-65-41zM5019 3893c-18-21-16-259 5-433 8-69 13-126 12-128-2-1-90-13-197-27-272-35-343-59-308-102 22-26 141-77 287-122 190-60 197-79 87-257-71-115-122-213-126-244-4-22-1-25 26-22 44 4 145 39 275 94 126 54 212 80 236 71 8-3 39-42 69-87 100-150 272-346 305-346 27 0 32 57 26 270-4 118-9 238-13 266l-5 51 118 7c175 10 315 25 352 37 82 27 20 81-276 241-92 49-168 91-170 93-2 1 24 71 58 155 59 148 110 305 110 339 0 9-4 22-9 30-19 29-121-26-349-187-73-52-137-91-141-86-5 5-39 52-76 104-101 141-183 238-228 271-47 34-50 34-68 12z" fill="#daa520" class="color000 svgShape"></path></g></svg></g></svg>