<svg id="SvgjsSvg1054" width="288" height="288" xmlns="http://www.w3.org/2000/svg" version="1.1" xmlns:xlink="http://www.w3.org/1999/xlink" xmlns:svgjs="http://svgjs.com/svgjs"><defs id="SvgjsDefs1055"></defs><g id="SvgjsG1056"><svg xmlns="http://www.w3.org/2000/svg" width="288" height="288" version="1.0" viewBox="0 0 2000 2000"><g transform="matrix(.1 0 0 -.1 0 2000)" fill="#daa520" class="color000 svgShape"><path d="M8105 18055c-241-53-402-215-451-455-66-328 133-645 456-726 96-24 272-15 362 18 187 70 326 211 390 397 33 95 33 277 0 373-86 250-331 410-620 407-43 0-104-7-137-14zM11196 16994c-238-43-447-153-622-328-141-141-225-278-290-471-180-537 29-1098 520-1395 392-238 903-234 1273 9 257 170 427 412 508 723 36 138 46 377 21 513-93 503-468 867-979 950-114 18-326 18-431-1zM9006 14939c-92-12-217-56-313-110-106-60-272-225-330-329-178-319-129-675 131-948 102-108 259-202 411-248 76-23 110-27 220-28 138-1 199 11 317 58 94 38 165 85 254 169 184 173 274 378 274 622 0 236-67 400-230 566-139 142-308 223-515 248-101 12-121 12-219 0zM4235 12879c-178-6-225-11-310-33-310-80-507-269-586-561-31-115-32-345-1-460 90-330 353-550 732-609 84-13 428-36 545-36 40 0 45-3 74-48 17-27 31-51 31-55 0-3-69-59-152-124-171-131-389-344-563-547-763-891-1152-1909-1122-2931 12-393 74-742 197-1107 145-430 343-799 661-1229 344-467 537-807 663-1169 120-345 166-652 150-1000-17-350-9-414 62-550 100-191 283-334 520-406 81-25 104-28 249-28 187-1 240 10 380 80 162 80 284 199 365 356 58 111 80 182 135 433 27 121 50 222 51 224 2 1 62-20 134-49 954-375 1902-600 2890-686 249-21 946-30 1206-15 1030 60 2026 277 3011 655 94 36 172 66 174 66 2 0 4-64 5-143 1-220 35-372 120-537 137-267 380-420 694-437 171-9 346 31 477 108 67 40 189 152 238 219 47 64 108 190 134 275 56 181 80 529 61 886-18 345 7 510 109 725 82 173 160 277 371 499 682 717 1051 1494 1167 2455 21 182 25 714 5 890-90 804-354 1468-841 2114-151 202-282 347-635 707-198 203-362 374-364 379-2 6 143 9 395 8 434-2 513 5 672 58 381 127 591 464 551 883-20 206-77 346-192 466-131 139-295 217-548 262-88 16-501 17-5900 18-3193 1-5899-2-6015-6z" fill="#daa520" class="color000 svgShape"></path></g></svg></g></svg>