<svg id="SvgjsSvg1091" width="288" height="288" xmlns="http://www.w3.org/2000/svg" version="1.1" xmlns:xlink="http://www.w3.org/1999/xlink" xmlns:svgjs="http://svgjs.com/svgjs"><defs id="SvgjsDefs1092"></defs><g id="SvgjsG1093"><svg xmlns="http://www.w3.org/2000/svg" xmlns:svgjs="http://svgjs.com/svgjs" xmlns:xlink="http://www.w3.org/1999/xlink" width="288" height="288"><svg xmlns="http://www.w3.org/2000/svg" width="288" height="288" version="1.0" viewBox="0 0 543 645"><path fill="#daa520" d="M2767 6402 c-13 -15 -17 -67 -22 -367 -6 -347 -7 -350 -32 -410 l-26-59 21 -91 c30 -132 33 -166 19 -221 -13 -49 -407 -747 -957 -1694 -40 -69-95 -165 -122 -215 -28 -49 -83 -146 -123 -215 -64 -111 -299 -520 -761 -1326
-79 -138 -144 -256 -144 -263 0 -8 266 -11 1020 -11 561 0 1020 -2 1020 -4 0
-2 -11 -28 -24 -57 -47 -106 -41 -210 18 -314 67 -117 76 -233 31 -405 -39
-150 -43 -246 -15 -338 26 -84 23 -122 -15 -208 -33 -75 -33 -133 1 -173 l26
-31 125 0 c124 0 125 0 154 29 37 37 38 83 4 166 -38 90 -41 132 -16 215 33
106 31 206 -5 306 -26 71 -29 92 -29 204 0 133 1 137 64 270 30 65 35 85 35
150 0 62 -4 84 -27 127 -15 29 -27 55 -27 58 0 3 459 5 1019 5 561 0 1022 4
1025 8 6 10 -22 61 -216 397 -85 149 -331 576 -545 950 -215 374 -502 874
-638 1110 -136 237 -351 610 -477 830 l-230 400 8 105 c12 168 10 287 -9 401
-13 81 -17 169 -17 371 0 253 -1 267 -21 292 -24 31 -68 35 -92 8z m-35 -1574
c3 -65 -4 -102 -27 -142 -37 -66 -39 -94 -10 -182 14 -43 30 -113 36 -154 12
-91 1 -341 -15 -345 -6 -1 -63 -12 -126 -24 -133 -26 -270 -74 -389 -138 -46
-24 -85 -42 -88 -39 -3 3 46 94 109 203 63 109 200 345 303 526 104 180 193
327 197 327 5 0 9 -15 10 -32z m231 -60 c30 -51 106 -183 169 -293 63 -110
174 -303 247 -428 72 -126 131 -230 131 -232 0 -2 -43 17 -97 41 -134 63 -278
110 -408 132 l-110 19 0 234 0 234 28 49 c15 27 27 56 27 65 0 9 -11 63 -25
121 -14 58 -27 115 -30 128 -11 46 16 19 68 -70z m-237 -955 c-3 -10 -16 -61
-30 -114 l-24 -97 21 -73 c19 -69 21 -103 25 -505 l3 -432 -26 -85 c-30 -95
-30 -124 1 -242 15 -56 18 -109 18 -270 0 -110 -3 -212 -7 -228 -10 -35 -40
-36 -173 -2 -375 95 -678 411 -766 797 -24 108 -29 297 -9 393 68 330 267 605
551 758 110 60 290 114 383 116 32 1 37 -2 33 -16z m404 -20 c373 -107 692
-488 741 -883 17 -142 1 -314 -43 -450 -67 -209 -209 -402 -394 -536 -127 -91
-343 -175 -479 -186 -37 -3 -40 -1 -47 32 -5 19 -9 107 -9 195 -1 134 3 181
25 288 14 71 26 139 26 151 0 12 -12 60 -26 107 l-26 84 0 395 -1 395 31 84
c18 47 32 94 32 106 0 12 -18 70 -40 129 -23 58 -38 112 -34 117 10 17 144 1
244 -28z m1182 -1373 c127 -223 257 -448 288 -500 31 -52 71 -121 89 -152 l32
-58 -652 0 -652 0 59 42 c223 157 366 323 462 535 63 138 102 319 102 474 0
91 7 111 28 82 7 -10 117 -200 244 -423z m-2735 374 c9 -156 14 -199 32 -275
40 -173 111 -329 206 -454 70 -93 201 -220 298 -288 l88 -62 -642 -3 c-353 -1
-644 0 -646 2 -7 7 642 1135 651 1133 5 -2 11 -25 13 -53z" class="color000 svgShape color0433ff" transform="matrix(.1 0 0 -.1 0 645)"></path></svg></svg></g></svg>