<svg id="SvgjsSvg1017" width="288" height="288" xmlns="http://www.w3.org/2000/svg" version="1.1" xmlns:xlink="http://www.w3.org/1999/xlink" xmlns:svgjs="http://svgjs.com/svgjs"><defs id="SvgjsDefs1018"></defs><g id="SvgjsG1019"><svg xmlns="http://www.w3.org/2000/svg" xmlns:svgjs="http://svgjs.com/svgjs" xmlns:xlink="http://www.w3.org/1999/xlink" width="288" height="288"><svg xmlns="http://www.w3.org/2000/svg" width="288" height="288" fill-rule="evenodd" clip-rule="evenodd" image-rendering="optimizeQuality" shape-rendering="geometricPrecision" text-rendering="geometricPrecision" viewBox="0 0 1208 907"><path fill="#daa520" d="M569 0c38,85 70,173 104,259 -42,-8 -84,-16 -127,-23 14,64 29,129 42,194 -36,-77 -69,-155 -100,-234 48,7 95,14 143,22 -20,-73 -44,-145 -62,-218z" class="color131011 svgShape color3a0ca3"></path><path fill="#daa520" d="M118 430c85,-57 204,-56 287,3 57,37 93,99 111,164 59,0 118,0 177,0 18,-72 61,-139 128,-175 85,-50 198,-45 278,14 89,61 131,182 98,284 -27,93 -110,166 -205,183 -104,18 -217,-36 -269,-129 -24,-41 -31,-88 -34,-135 -56,0 -112,1 -168,1 -3,73 -30,147 -86,197 -74,70 -192,88 -284,45 -75,-35 -131,-106 -146,-187 -21,-101 27,-210 113,-265zm67 16l0 0c-95,33 -156,139 -136,239 17,115 141,198 254,171 117,-21 198,-152 163,-266 -29,-118 -168,-189 -281,-144zm685 2l0 0c-80,30 -136,112 -135,198 -4,121 111,229 232,213 122,-5 218,-132 192,-251 -19,-129 -169,-213 -289,-160z" class="color131011 svgShape color3a0ca3"></path></svg></svg></g></svg>