<svg id="SvgjsSvg1067" width="288" height="288" xmlns="http://www.w3.org/2000/svg" version="1.1" xmlns:xlink="http://www.w3.org/1999/xlink" xmlns:svgjs="http://svgjs.com/svgjs"><defs id="SvgjsDefs1068"></defs><g id="SvgjsG1069"><svg xmlns="http://www.w3.org/2000/svg" xmlns:svgjs="http://svgjs.com/svgjs" xmlns:xlink="http://www.w3.org/1999/xlink" width="288" height="288"><svg xmlns="http://www.w3.org/2000/svg" width="288" height="288" viewBox="0 0 80 80"><path fill="#daa520" d="M 34.6875 12.109375 C 34.421875 12.421875 34.5625 13.78125 35.171875 16.703125 C 37.25 26.75 40.8125 33.8125 45.359375 36.90625 C 45.859375 37.25 47.515625 38.109375 49.03125 38.8125 C 50.546875 39.515625 51.921875 40.15625 52.0625 40.25 C 52.234375 40.34375 51.515625 40.390625 49.953125 40.390625 C 47.28125 40.40625 46.078125 40.65625 44.03125 41.625 L 42.90625 42.15625 L 41.828125 41.234375 C 41.21875 40.734375 39.359375 39.328125 37.671875 38.125 C 29.8125 32.515625 25.921875 28.71875 24.125 24.953125 C 22.671875 21.875 22.40625 17.625 23.453125 13.765625 C 23.796875 12.484375 23.703125 12.1875 22.96875 12.1875 C 22.578125 12.1875 22.4375 12.359375 21.671875 13.71875 C 19.4375 17.65625 17.234375 22.625 16.25 25.9375 C 15.015625 30.109375 14.75 34.265625 15.515625 37.21875 C 16.9375 42.671875 21.21875 46.125 28.234375 47.5 C 29.65625 47.78125 33.578125 48.0625 36.96875 48.125 C 37.3125 48.125 37.3125 48.125 36.875 49.25 C 36.25 50.875 35.9375 52.5625 35.9375 54.375 C 35.9375 60.8125 40.171875 66.296875 46.484375 68.015625 C 47.5 68.296875 48.15625 68.359375 50 68.359375 C 52.71875 68.359375 53.75 68.125 56.03125 67.03125 C 59.734375 65.234375 62.359375 62.15625 63.515625 58.203125 C 63.984375 56.59375 64.1875 53.921875 63.9375 52.453125 C 63.828125 51.71875 63.84375 51.515625 64 51.453125 C 64.3125 51.34375 64.859375 50.390625 65.015625 49.71875 C 65.296875 48.484375 64.5625 46.90625 63.40625 46.25 C 63.0625 46.046875 62.375 45.84375 61.890625 45.796875 L 61.015625 45.703125 L 60.875 45 C 60.109375 40.984375 58.765625 37.59375 56.328125 33.59375 C 52.296875 26.953125 45.46875 19.703125 36.921875 13 C 35.484375 11.859375 35.046875 11.6875 34.6875 12.109375 Z M 37.046875 14.78125 C 37.265625 15.046875 37.265625 15.15625 36.9375 16.015625 C 36.5625 17.03125 36.515625 17 36.25 15.546875 C 36.15625 15.03125 36.046875 14.4375 36 14.25 L 35.921875 13.875 L 36.359375 14.1875 C 36.59375 14.359375 36.90625 14.625 37.046875 14.78125 Z M 39.125 16.453125 L 39.71875 16.953125 L 38.8125 19.53125 C 37.9375 22.015625 37.90625 22.078125 37.71875 21.625 C 37.609375 21.375 37.4375 20.734375 37.328125 20.21875 C 37.140625 19.3125 37.15625 19.25 37.734375 17.609375 C 38.0625 16.6875 38.375 15.9375 38.4375 15.9375 C 38.5 15.9375 38.8125 16.171875 39.125 16.453125 Z M 21.484375 18 C 21.390625 19.1875 21.203125 19.6875 19.03125 24.875 C 17.734375 27.953125 16.640625 30.4375 16.609375 30.40625 C 16.390625 30.1875 17.703125 25.390625 18.609375 23.0625 C 19.328125 21.265625 21.40625 16.71875 21.53125 16.71875 C 21.5625 16.71875 21.546875 17.296875 21.484375 18 Z M 41.859375 18.8125 L 42.390625 19.359375 L 41.078125 23.1875 C 40.359375 25.3125 39.734375 27.03125 39.6875 27.03125 C 39.578125 27.03125 38.59375 24.4375 38.59375 24.171875 C 38.59375 23.984375 40.5625 18.34375 40.71875 18.109375 C 40.828125 17.90625 41.234375 18.15625 41.859375 18.8125 Z M 43.84375 26.921875 C 43.03125 29.5625 42.34375 31.765625 42.296875 31.8125 C 42.234375 31.875 41.21875 30.265625 40.734375 29.296875 C 40.515625 28.859375 40.5625 28.6875 41.890625 24.765625 C 42.65625 22.53125 43.328125 20.59375 43.375 20.484375 C 43.421875 20.3125 43.71875 20.515625 44.375 21.1875 L 45.296875 22.109375 Z M 21.875 22.21875 C 21.875 22.328125 22.0625 23.03125 22.28125 23.78125 L 22.703125 25.140625 L 20 31.4375 C 18.515625 34.90625 17.25 37.796875 17.1875 37.859375 C 17.046875 38.015625 16.625 36.5 16.46875 35.34375 C 16.375 34.546875 16.421875 34.390625 19 28.28125 C 21.359375 22.671875 21.875 21.578125 21.875 22.21875 Z M 47.046875 30.1875 C 46.234375 32.875 45.53125 35.140625 45.453125 35.21875 C 45.296875 35.40625 43.21875 33.34375 43.328125 33.078125 C 43.359375 32.984375 44.046875 30.6875 44.859375 28.015625 L 46.328125 23.125 L 47.40625 24.21875 L 48.5 25.296875 Z M 50.546875 27.734375 C 51.0625 28.359375 51.5 28.953125 51.53125 29.046875 C 51.578125 29.1875 49.40625 37.3125 49.296875 37.46875 C 49.1875 37.59375 46.5625 36.171875 46.609375 36.03125 C 46.65625 35.9375 47.296875 33.765625 48.0625 31.21875 C 48.828125 28.65625 49.484375 26.5625 49.53125 26.578125 C 49.578125 26.578125 50.03125 27.09375 50.546875 27.734375 Z M 24.359375 27.890625 C 24.90625 28.625 25.140625 29.09375 25.09375 29.296875 C 24.9375 29.921875 19.703125 41.796875 19.5625 41.84375 C 19.46875 41.875 19.0625 41.421875 18.625 40.84375 C 17.859375 39.828125 17.84375 39.765625 18.03125 39.3125 C 18.796875 37.484375 23.328125 26.921875 23.390625 26.828125 C 23.484375 26.671875 23.421875 26.59375 24.359375 27.890625 Z M 28.28125 32.375 C 28.28125 32.5 23 44.234375 22.90625 44.34375 C 22.796875 44.4375 20.609375 42.96875 20.671875 42.84375 C 20.703125 42.78125 21.953125 39.90625 23.453125 36.453125 L 26.171875 30.15625 L 27.21875 31.203125 C 27.8125 31.78125 28.28125 32.3125 28.28125 32.375 Z M 53.640625 31.796875 L 54.546875 33.125 L 53.8125 36.046875 C 53.40625 37.671875 53.03125 39.046875 52.96875 39.109375 C 52.8125 39.28125 50.453125 38.09375 50.515625 37.890625 C 50.546875 37.8125 51.03125 36.09375 51.578125 34.09375 C 52.125 32.109375 52.609375 30.46875 52.65625 30.46875 C 52.703125 30.46875 53.140625 31.078125 53.640625 31.796875 Z M 30.59375 34.328125 C 31.171875 34.828125 31.65625 35.234375 31.6875 35.25 C 31.703125 35.265625 30.671875 37.59375 29.375 40.4375 C 28.09375 43.28125 27.03125 45.6875 27.03125 45.78125 C 27.03125 45.859375 26.96875 45.9375 26.90625 45.9375 C 26.71875 45.9375 24.59375 45.203125 24.3125 45.046875 C 24.125 44.953125 24.578125 43.84375 26.671875 39.171875 C 28.09375 36.015625 29.328125 33.4375 29.40625 33.4375 C 29.5 33.4375 30.03125 33.84375 30.59375 34.328125 Z M 56.375 36.25 L 57 37.421875 L 56.515625 39.171875 L 56.046875 40.9375 L 55.140625 40.4375 C 54.625 40.15625 54.21875 39.875 54.21875 39.796875 C 54.21875 39.65625 55.28125 35.359375 55.40625 35.015625 C 55.515625 34.703125 55.65625 34.890625 56.375 36.25 Z M 34.296875 37.28125 C 34.953125 37.765625 35.46875 38.265625 35.4375 38.375 C 35.40625 38.484375 34.515625 40.40625 33.4375 42.625 L 31.484375 46.671875 L 30.859375 46.609375 C 30.515625 46.578125 29.765625 46.46875 29.1875 46.390625 L 28.125 46.21875 L 28.421875 45.65625 C 28.578125 45.328125 29.609375 43.09375 30.703125 40.65625 C 32.109375 37.53125 32.765625 36.25 32.90625 36.3125 C 33.03125 36.359375 33.65625 36.796875 34.296875 37.28125 Z M 37.96875 39.9375 C 38.65625 40.40625 39.25 40.859375 39.296875 40.9375 C 39.34375 41.015625 38.75 42.34375 37.96875 43.90625 L 36.5625 46.71875 L 34.765625 46.71875 C 33.78125 46.71875 32.96875 46.671875 32.96875 46.625 C 32.96875 46.484375 36.609375 39.0625 36.671875 39.0625 C 36.703125 39.0625 37.28125 39.453125 37.96875 39.9375 Z M 58.59375 41.21875 C 58.859375 42.03125 59.0625 42.71875 59.03125 42.75 C 58.984375 42.78125 57.625 41.953125 57.21875 41.640625 C 57.171875 41.59375 57.53125 40.1875 57.75 39.53125 C 57.859375 39.203125 57.96875 39.421875 58.59375 41.21875 Z M 51.875 41.71875 C 54.0625 42.0625 56.5 43.109375 56.46875 43.6875 C 56.453125 43.84375 56.359375 44.75 56.25 45.703125 C 56.03125 47.6875 56.125 50.390625 56.484375 51.84375 C 57.03125 54.125 58.40625 55.953125 59.96875 56.5 C 60.421875 56.65625 60.78125 56.828125 60.78125 56.875 C 60.78125 56.921875 60.578125 57.046875 60.328125 57.15625 C 59.46875 57.546875 58.46875 58.578125 57.9375 59.65625 C 57.4375 60.65625 57.421875 60.765625 57.40625 62.6875 C 57.40625 64 57.328125 64.75 57.203125 64.90625 C 56.609375 65.625 53.234375 66.859375 51.25 67.09375 C 50.421875 67.1875 50.46875 67.140625 52.375 66.09375 C 53.90625 65.25 55.234375 64.09375 55.46875 63.359375 C 55.609375 62.9375 55.59375 62.734375 55.390625 62.34375 C 55.046875 61.671875 54.15625 61.3125 52.09375 61.015625 C 46.484375 60.203125 41.96875 58.875 39.421875 57.265625 C 38.203125 56.484375 37.1875 55.484375 37.1875 55.046875 C 37.1875 54.734375 37.28125 54.765625 38.21875 55.484375 C 42.15625 58.453125 48.234375 59.328125 51.546875 57.390625 C 53.8125 56.0625 55.15625 53.65625 55.15625 50.9375 C 55.15625 49.359375 54.828125 48.46875 53.890625 47.421875 C 53 46.453125 52.234375 45.96875 50.671875 45.421875 C 49.671875 45.0625 46.859375 44.53125 45.9375 44.53125 C 45.609375 44.53125 44.0625 43.375 44.0625 43.125 C 44.0625 42.96875 45.65625 42.265625 46.5625 42.03125 C 48.25 41.578125 50.21875 41.46875 51.875 41.71875 Z M 41.15625 42.375 L 41.734375 42.890625 L 40.625 43.890625 C 40.015625 44.421875 39.171875 45.34375 38.75 45.90625 C 38.3125 46.46875 37.96875 46.875 37.96875 46.828125 C 37.96875 46.640625 40.390625 41.875 40.484375 41.875 C 40.53125 41.875 40.828125 42.109375 41.15625 42.375 Z M 44.484375 45.34375 C 45.296875 46.140625 46.171875 47.046875 46.421875 47.359375 L 46.859375 47.921875 L 45.5 47.71875 C 44.75 47.59375 43.125 47.390625 41.875 47.25 C 40.625 47.125 39.578125 46.984375 39.546875 46.9375 C 39.421875 46.8125 42.484375 43.90625 42.734375 43.90625 C 42.875 43.90625 43.65625 44.5625 44.484375 45.34375 Z M 59.21875 45.59375 C 60.546875 46.96875 61.5 48.5625 62.109375 50.34375 C 62.5625 51.734375 62.859375 53.625 62.78125 54.765625 L 62.734375 55.546875 L 62.109375 55.59375 C 61.171875 55.671875 60.234375 55.34375 59.4375 54.640625 C 58.078125 53.4375 57.46875 51.5625 57.4375 48.4375 C 57.421875 46.140625 57.609375 44.375 57.859375 44.375 C 57.96875 44.375 58.578125 44.921875 59.21875 45.59375 Z M 49.296875 46.34375 C 53.140625 47.296875 54.625 49.53125 53.59375 52.875 C 53.28125 53.84375 52.515625 55.046875 51.8125 55.65625 C 51.1875 56.1875 49.953125 56.75 48.84375 56.984375 C 46.734375 57.4375 43.328125 56.84375 40.796875 55.59375 C 39.234375 54.828125 37.34375 53.125 37.34375 52.46875 C 37.34375 51.890625 37.9375 49.890625 38.359375 49.046875 C 38.828125 48.140625 38.609375 48.15625 42.1875 48.59375 C 43.609375 48.765625 44.859375 48.90625 44.96875 48.90625 C 45.09375 48.90625 45.03125 49.09375 44.78125 49.421875 C 43.078125 51.640625 44.71875 54.703125 47.5 54.5 C 48.75 54.40625 49.578125 53.84375 50.09375 52.765625 C 50.6875 51.46875 50.515625 50.234375 49.5625 49.234375 C 49.265625 48.921875 48.96875 48.546875 48.875 48.390625 C 48.796875 48.234375 48.34375 47.65625 47.875 47.109375 C 47.40625 46.546875 47.03125 46.0625 47.03125 46 C 47.03125 45.890625 48.046875 46.046875 49.296875 46.34375 Z M 62.9375 47.4375 C 63.640625 47.921875 64 49.375 63.59375 50 C 63.46875 50.1875 63.421875 50.171875 63.34375 49.875 C 63.28125 49.671875 63 49.015625 62.71875 48.421875 C 62.421875 47.8125 62.1875 47.28125 62.1875 47.25 C 62.1875 47.109375 62.609375 47.203125 62.9375 47.4375 Z M 48.53125 50.015625 C 49.71875 51.140625 48.90625 53.28125 47.28125 53.28125 C 46.1875 53.28125 45.171875 52.09375 45.390625 51.078125 C 45.515625 50.53125 46.03125 49.859375 46.46875 49.671875 C 47.015625 49.4375 48.109375 49.609375 48.53125 50.015625 Z M 40.09375 59.109375 C 42.453125 60.296875 46.390625 61.421875 50.3125 62.03125 C 54.234375 62.640625 54.375 62.6875 54.0625 63.265625 C 53.8125 63.734375 51.484375 65.21875 49.53125 66.15625 L 47.75 67 L 46.65625 66.6875 C 44.453125 66.09375 42.4375 64.90625 40.859375 63.296875 L 40.078125 62.5 L 41.25 62.890625 C 43.96875 63.8125 49.140625 64.828125 49.703125 64.53125 C 50.015625 64.359375 50.109375 63.6875 49.84375 63.515625 C 49.765625 63.46875 48.6875 63.25 47.453125 63.046875 C 43.703125 62.421875 40.78125 61.546875 39.296875 60.609375 C 38.578125 60.15625 38.046875 59.28125 37.75 58.078125 L 37.640625 57.640625 L 38.3125 58.09375 C 38.6875 58.34375 39.484375 58.796875 40.09375 59.109375 Z M 61.9375 58.859375 C 61.296875 60.578125 59.234375 63.59375 58.71875 63.59375 C 58.46875 63.59375 58.65625 61.140625 58.953125 60.453125 C 59.3125 59.59375 60.296875 58.59375 61.171875 58.1875 C 62.34375 57.625 62.390625 57.671875 61.9375 58.859375 Z M 61.9375 58.859375 " class="color000 svgShape color0433ff"></path></svg></svg></g></svg>