<svg id="SvgjsSvg1024" width="288" height="288" xmlns="http://www.w3.org/2000/svg" version="1.1" xmlns:xlink="http://www.w3.org/1999/xlink" xmlns:svgjs="http://svgjs.com/svgjs"><defs id="SvgjsDefs1025"></defs><g id="SvgjsG1026"><svg xmlns="http://www.w3.org/2000/svg" xmlns:svgjs="http://svgjs.com/svgjs" xmlns:xlink="http://www.w3.org/1999/xlink" width="288" height="288"><svg xmlns="http://www.w3.org/2000/svg" width="288" height="288" fill-rule="evenodd" stroke-linejoin="round" stroke-miterlimit="2" clip-rule="evenodd" viewBox="0 0 8334 8334"><path fill="#ff0000" d="M6401.07,5582.45C6418.24,5545.29 6463.95,5532.01 6522.65,5529.59C6557.89,5528.14 6620.31,5470.73 6657.25,5437.6C6693.65,5404.94 6689.78,5464.75 6632.07,5523.86C6603.57,5553.05 6630.79,5579.83 6716.88,5524.44C6784.43,5480.98 6830.95,5481.96 6840.37,5566.52C6847.14,5602.04 6855.56,5636.56 6873.72,5665.16C6826.85,5704.94 6776.94,5737.8 6723.47,5762.51C6722.46,5692.15 6697.73,5645.79 6651.9,5631.6C6615.41,5620.29 6607.81,5816.48 6612.36,5925.66C6616.44,6023.41 6620.63,6082 6691.31,6119.37C6747.36,6151.18 6759.23,6207.67 6666.38,6173.06C6597.6,6125.52 6480.02,6119.66 6357.61,6117.9C6318.94,6117.35 6342.55,6072.64 6405.07,6060.64C6432.84,6039.84 6445.69,5996.16 6447.82,5936.07C6477.71,5915.76 6483.38,5894.38 6453.66,5871.43C6433.49,5802.09 6453.11,5693.47 6466.06,5604.33C6424.56,5606.45 6400.37,5613.72 6401.07,5582.45ZM6355.81,5765.64C6370.94,5813.54 6374.89,5865.5 6370.23,5920.59C6308.57,6077.05 6201.8,6115.9 6073.48,6103.17C6004.9,6068.78 5951.76,6017.44 5920.14,5942.48L5920.9,5723.43C5950.93,5709.46 5953.35,5689.3 5932.92,5663.99C5975.06,5527.87 6052.99,5445.37 6191.55,5453.73C6296.42,5460.05 6400.39,5565.06 6392.9,5749.79C6371.56,5746.02 6355.52,5748.09 6355.81,5765.64ZM6157.32,6010.85C6131.04,6017.68 6118.45,5995.11 6121.44,5970.97C6106.16,5975.03 6092.95,5975.08 6086.18,5962.54C6087.06,5947.32 6096.17,5933.29 6098.41,5919.08C6103.82,5884.81 6105.15,5852.42 6114.22,5820.87C6124.36,5666.06 6106.38,5613.21 6171.51,5522.11C6197.18,5538.82 6258.08,5984.64 6157.32,6010.85ZM5945.66,6084.15L5847.9,5945.51C5849.95,5662.56 5870,5398.22 5967.22,5179C5983.56,5164.31 6005.37,5157.62 6034.77,5162.08C6103,5110.45 5916.01,5092.68 5720.23,5133.74C5624.12,5081.17 5589.6,5151.86 5709.6,5193.3C5745.8,5205.8 5734.12,5213.46 5725.67,5268.38C5721.3,5296.78 5737.47,5329.8 5761.04,5347.53C5735.58,5353.23 5721.31,5396.37 5712.92,5437.57C5668.23,5395.62 5624.12,5366.39 5581.71,5375.11C5470.75,5397.95 5375.39,5645.79 5389.61,5776.37C5407.46,5940.15 5426.43,6050.53 5503.18,6018.3L5659.59,5984.71L5662.03,6027.82C5771.85,6022.98 5862.35,6048.02 5945.66,6084.15ZM5658.52,5893.53C5705.18,5764.15 5728.57,5625.79 5689.57,5486.25C5644.72,5458.87 5619.34,5540.3 5587.88,5631.15C5554.25,5728.26 5567.24,5921.93 5658.52,5893.53ZM5373.31,5985.83C5366.44,5945.61 5349.79,5926.58 5302.11,5894.05C5290.41,5882.34 5285.12,5878.85 5294.42,5853.44C5323.47,5774.07 5344.03,5659.7 5311.02,5621.53C5345.75,5529.68 5344.86,5434.05 5319.6,5335.83C5265.87,5330.45 5179.72,5366.28 5151.2,5386.68C5120.49,5408.65 5122.93,5410.06 5082.2,5409.22L5080.92,5317.94C5026.11,5317.04 4964.8,5401.54 4915.88,5413.69C4813.07,5439.24 4810.52,5461.06 4908.6,5501.09C4890.95,5594.09 4888.29,5667.34 4932.51,5678.83C4875.23,5711.46 4874.95,5791.55 4882.22,5870.02C4800.42,5933.31 4757.92,5970.13 4860.22,5954.92C4932.77,5939.9 5004.23,5930.05 5074.69,5924.91C5102.68,5900.6 5081.92,5872.7 5040.77,5843.31C5040.68,5653.96 5057.2,5468.3 5170.92,5463.1L5155.68,5663.98C5187.11,5696.73 5179.25,5722.67 5144.52,5743.96C5155.55,5825.96 5134.8,5909.06 5077.88,5993.41C5180.58,5975.29 5278.72,5974.01 5373.31,5985.83ZM4629.12,5347.65C4680.73,5304.67 4735.11,5268.56 4800.19,5258.91L4792.76,5378.73L4746.81,5451.54L4761.53,5689.61C4748.15,5734.87 4746.51,5777.21 4750.8,5818.08C4768.21,5838.4 4783.83,5860.15 4797.81,5883.18C4802.62,5920.44 4702.05,5909.75 4605.73,5901L4494.32,5894.31C4491.2,5863.14 4530.99,5829.72 4573.69,5796.15C4571.47,5720.85 4582.9,5647.74 4623.97,5618.76C4559.67,5587.73 4586.19,5587.19 4590.32,5463.43C4591.35,5432.53 4573.04,5416.03 4549.25,5401.04C4510.03,5376.32 4574.46,5356.6 4629.12,5347.65ZM4600.57,5177.94L4663.32,5281C4711.39,5254.61 4754.66,5226.69 4791.28,5196.64L4736.11,5047.56C4681.41,5091.63 4636.63,5135.07 4600.57,5177.94ZM4634.89,5011.54C4781.51,4977.6 4682.23,5044 4542.06,5127.1C4535.41,4972.12 4443.11,5076.38 4472.27,5226.69C4510.34,5226.91 4549.25,5212.06 4588.28,5195.05C4609.31,5212.78 4598.23,5243.17 4557.91,5285.08C4575.87,5311.5 4554.31,5322.31 4500.01,5320.18C4448.17,5318.15 4442.15,5374.69 4453.12,5422.57C4464.37,5471.62 4456.82,5500.35 4417,5517.85C4459.41,5558.28 4456.36,5562.99 4453.03,5709.42C4462.24,5950.31 4368.03,6064.3 4193.65,6054.96C4122.12,5987.51 4098.26,5932.25 4198.66,5878.48L4200.36,5960.73C4248.92,5959.19 4260.57,5865.49 4254.63,5727.88C4273.46,5687.6 4284.35,5651.12 4266.38,5628.42L4279.71,5433.88C4251.45,5426.77 4222.29,5455.96 4193.04,5488.72C4158.27,5437.88 4196.19,5393.68 4283.83,5337.92L4309.55,5104.58C4353.92,5050.95 4419.66,5010.05 4501.9,4978.95C4571.05,4962.77 4615.38,4973.63 4634.89,5011.54ZM4053.37,5005.46C4124.75,4969.55 4235.18,4990.41 4289.76,5035.51C4242.26,5079.55 4192.55,5120.87 4129.56,5145.9C4097.84,4966.2 4050.28,5107.63 4049.56,5268.55C4115.52,5249.93 4182.84,5229.8 4235.55,5225.73C4187.18,5275.7 4161.02,5326.13 4146.54,5376.8C4019.11,5256.48 4020.5,5447.82 4033.61,5645.78C4046.97,5737.45 4032.46,5818.37 3984.29,5886.33L4001.13,5942.82C3925.31,6049.04 3828.71,6079.91 3772.17,6054.57C3707.96,6025.8 3672.35,5994.37 3665.84,5931.86L3730.48,5851.06C3754.6,5858.15 3743.34,5887.97 3725.15,5941.6C3754.15,5994.33 3807.21,5950.73 3838.45,5825.78C3865.76,5716.52 3868.65,5544.03 3868.33,5421.32L3758.94,5467.4L3752.98,5391.88L3866.38,5339.35C3888.31,5206.93 3873.93,5095.71 4053.37,5005.46ZM3234.81,5360.78C3194.71,5332.51 3159.16,5298.45 3194.89,5295.7C3266.4,5290.21 3338.59,5281.65 3415.88,5249.75C3474.1,5212.82 3527.92,5224.57 3504.17,5242.03C3406.06,5314.13 3403.94,5333.21 3437.64,5410.14C3461.91,5465.57 3484.27,5557.03 3493.21,5515.73C3501.46,5477.68 3518.9,5424.78 3561.57,5376.78C3521.46,5364.24 3483.71,5325.93 3506.3,5326.45C3615.53,5329 3715.04,5305.57 3795.04,5239.31C3718.79,5388.57 3619.14,5551.64 3521.78,5713.36C3481.4,5711.94 3461.62,5733.63 3455.85,5767.24C3440.51,5856.63 3361.7,5945.09 3289.99,5974.8C3215.97,6005.48 3154.85,6038.81 3093.64,6097.38L2942.57,5930.11C3123.37,5942.5 3279.88,5900.47 3365.04,5754.61C3320.35,5663.96 3278.66,5570.27 3310.31,5521.49C3277.51,5492.44 3249.31,5448.64 3234.81,5360.78ZM2782.28,5417.68C2743.98,5425.94 2707.42,5423.79 2719.88,5401.46C2811.32,5341.35 2897.81,5279.05 2949.59,5201.44L2966.13,5328.9C3064.22,5199.22 3122.05,5240.04 3190.56,5400.25C3145.59,5424.85 3098.43,5483.43 3051.17,5543.48C3044.2,5441.92 3021.53,5364.68 3005.07,5389.68C2950.93,5471.9 2968.31,5667.99 2978.45,5836.96C3028.2,5846.17 3045.38,5855.64 3034.72,5876.23L2742.39,5892C2710.03,5882.93 2719.29,5854.87 2778.78,5803.89C2787.42,5664.42 2793.06,5527.88 2782.28,5417.68ZM2462.15,6303.98C2253.34,6296.01 2078.7,6346.51 1952.95,6480.67C1782.5,6282.46 1631.75,5902.83 1638.12,5640.22C1661.86,5466.23 1806.33,4987.84 1900.34,4891.07C1983.88,4886.25 2085.24,4837.74 2187.37,4787.33L2396.31,4952.57C2456.44,5037.33 2524.01,5032.53 2543.7,4944.02C2558.68,4876.7 2537.74,4653.95 2592.82,4688.32L2584.69,4986.87C2542.24,5067.48 2486.36,5127.88 2395.5,5135.58C2345.38,5223.22 2294.11,5308.44 2207.42,5319.65C2161.42,5325.6 2199.7,5258.68 2239.56,5197.5C2286.98,5124.7 2250.45,5083.37 2176.11,5053.1C2125.99,5032.69 2127.89,4929.16 2064.06,4952.34C2005.87,4973.47 1900.12,5184.98 1875.37,5350.86L1887.16,5695.05C1844.53,5779.65 1839.22,5823.82 1908.28,5812.19C1945.03,6019.23 2016.59,6286.84 2146.11,6282.62C2237.95,6279.63 2212.08,6104.66 2217.06,5950.86C2196.08,5922.75 2172.63,5908.44 2143.99,5890.84C2156.73,5875.6 2173.25,5866.98 2194.34,5866.33C2160.64,5846.35 2117.78,5838.85 2067.35,5841.67C2094.89,5811.45 2147.34,5788.73 2211.68,5777.09C2174.88,5741.17 2114.47,5747.83 2048.02,5769.3C2031.14,5739.19 2036.73,5708.87 2052.54,5678.45C2262.36,5619.44 2422.11,5569.13 2532.01,5616.82C2553.93,5626.33 2532.05,5642.54 2480.3,5654.87C2464.03,5658.75 2470.5,5738.02 2482.31,5784.44C2413.24,5829.33 2429.02,5902.69 2429.99,6066.07C2430.43,6140.52 2467.82,6180.5 2507.88,6164.6C2521.91,6229.77 2526.19,6288.71 2462.15,6303.98ZM4408.18,7506.5C4523.23,7432.5 4605.4,7577.46 4388.96,7569.84C4435.01,7596.82 4487.25,7603.94 4533.9,7569.75C4640.07,7491.93 4558.32,7418.19 4468.99,7435.77C4535.47,7308.65 4344.41,7251.32 4321.35,7339.91C4321.35,7404.01 4378.37,7407.33 4364.99,7375.43C4322.46,7273.96 4481.64,7323.07 4408.65,7439.73C4286.14,7575.66 4207.02,7563.36 4172.45,7432.35C4154.32,7513.06 4123.04,7560.54 4052.26,7517.71C3888.02,7418.35 3997.71,7242.4 4056.39,7434.33C4076.7,7386.95 4060.94,7293.73 3970.59,7301.82C3920.85,7306.28 3902.02,7389.88 3935.45,7465.25C3848.85,7463.77 3821.65,7493.36 3811.62,7521.01C3801.05,7550.18 3808.9,7593.53 3837.35,7621.18C3889.84,7672.17 3975.54,7665 3958.47,7579.28C3908.58,7684.38 3821.43,7565.05 3898.81,7525.1C3999.48,7473.13 4102.63,7607.77 4169.73,7850.63C4171.1,7724.96 4268.37,7596.43 4408.18,7506.5ZM4624.85,7060.64C4658.85,7079.01 4623.7,7112.63 4566.92,7156.68C4536.21,7180.51 4504.24,7270.09 4453.55,7251.95C4434.1,7206.63 4479.07,7168.01 4543.4,7132.48C4581.78,7111.28 4590.83,7072.49 4624.85,7060.64ZM6266.52,4484.97C6255.67,4464.43 6249.98,4437.67 6262.98,4388.3C6271.17,4340.57 6291.82,4297.38 6304.37,4311.53C6337.45,4348.86 6320.89,4386.5 6290.26,4436.1C6282.07,4449.36 6271.18,4469.23 6266.52,4484.97ZM6575.26,4496.84C6620.45,4472.36 6655.11,4337.66 6619.53,4314.61C6583.5,4291.27 6555.88,4353.57 6574.79,4423.57C6580.08,4443.17 6581.13,4478.99 6575.26,4496.84ZM6756.15,3116.76C6760.21,3277.34 6753.08,3443.28 6688.03,3419.17C6645.03,3403.23 6715.43,3218.77 6756.15,3116.76ZM6424.81,3141.3C6457.75,3264.03 6524.63,3437.86 6453.41,3434.26C6394.3,3431.28 6412.28,3306.13 6424.81,3141.3ZM6464.13,2954.2C6593.66,2832.77 6574.76,2741.76 6477.77,2666.77C6437.19,2751.39 6439.74,2849.41 6464.13,2954.2ZM6743.59,2676.16C6805.79,2776.95 6760.24,2882.81 6724.27,2985.96C6630.94,2892.37 6628.21,2789.14 6743.59,2676.16ZM6802.58,2505.75C6809.66,2410.98 6836.88,2237.21 6792.11,2232.43C6730.09,2225.81 6767.81,2419.38 6802.58,2505.75ZM6490.96,2278.15C6529.56,2288.01 6491.95,2436.85 6441.72,2552.29C6448.16,2444.71 6449.6,2267.6 6490.96,2278.15ZM6579.44,3467.2C6440.03,3115.11 6385.21,3122.61 6595.45,2849.62C6794.45,3126.58 6726.69,3101.78 6579.44,3467.2ZM6645.18,2209.33C6478.24,2483.9 6451.77,2588.83 6605.08,2771.16C6772.96,2619.44 6800.71,2461.55 6645.18,2209.33ZM6462.72,1964.2C6324.94,2100.41 6238.36,1839.66 6420.35,1826.24C6345.71,1694.04 6572.74,1631.44 6588.83,1763.86C6549.09,1739.24 6504.31,1725.14 6489.03,1756.52C6452.7,1831.14 6602.11,1908.12 6768.28,1836.12C6680.13,1942.26 6629.06,2110.45 6745.38,2128.44C6804.39,2137.57 6815.3,2065.45 6795.47,2005.19C6847.05,2040.4 6862.55,2158.21 6767.51,2187.19C6709.82,2204.79 6676.53,2168.4 6651.04,2110.34C6590.51,2386.24 6376.66,2179.86 6529.25,2085.91C6480.34,2272.87 6647.92,2161.43 6630.25,2018.7C6625.31,1978.76 6524.25,2024.92 6466.61,2061.83C6502.8,1996.15 6563.01,1914.57 6528.13,1892.52C6370.1,1792.61 6318.59,1995.69 6462.72,1964.2ZM6218.52,1553.25C6279.62,1617.27 6420.43,1667.35 6417.46,1677.18C6390.3,1767.34 6253.53,1652.64 6218.52,1553.25ZM5964.08,1309.69C6080.18,1380.17 6104.59,1380.43 6099.82,1549.05C5970.95,1510.43 5928.64,1458.98 5964.08,1309.69ZM5727.28,1402.18C5783.79,1421 5853.33,1451.06 5925.13,1492.22C5940.27,1563.67 5943.88,1633.47 5939.04,1702.07C5829.69,1641.38 5752.39,1541.14 5727.28,1402.18ZM5915.44,1221.25L5920.58,1438.79C5854.84,1424.47 5779.4,1377.09 5706.91,1335.63C5695.05,1234.74 5688.36,1127.07 5700.42,994.713C5776.14,1063.57 5847.45,1139.68 5915.44,1221.25ZM5890.38,1069.54C5921.95,1131.22 5956.04,1172.68 5991.18,1205.7C5991.07,1154.63 5987.66,1105.58 5973.12,1063.32C5945.97,1057.24 5918.48,1057.44 5890.38,1069.54ZM5416.54,577.172C5351.28,584.813 5275.2,620.499 5279.73,666.632C5288.61,757.315 5353.19,739.563 5425.98,732.337C5376.68,716.404 5326.98,671.99 5357.83,655.083C5456.35,601.09 5713.1,606.232 5676.8,674.966C5652.13,721.661 5626.72,765.028 5600.07,802.865C5668.35,790.777 5733.8,780.77 5765.18,795.825C5733.69,907.217 5711.41,925.057 5668.04,853.207C5662.71,980.33 5707.84,968.841 5778,902.148C5862.07,1121.23 5999.95,943.136 5917.03,856.339C5926.11,938.086 5862.83,968.053 5845.04,908.904C5803.68,771.427 5864.27,662.616 5939.65,575.651C5730.76,633.803 5533.97,604.162 5346.05,475.492C5323.16,444.264 5374.16,436.774 5458.92,442.036C5429.43,410.68 5283.14,345.2 5279.31,467.396C5277.74,517.372 5356.06,556.221 5416.54,577.172ZM4963.06,693.94C5061.53,668.043 5155.22,658.125 5229.61,712.722C5276.86,747.397 5058.14,733.587 4963.06,693.94ZM4976.71,395.053C5070.35,431.092 5217.24,458.776 5225.21,435.232C5317.33,399.179 5071.71,380.498 4976.71,395.053ZM4416.05,524C4648.93,365.607 4902.32,359.707 5218.7,558.241C4814.94,703.349 4736.53,708.292 4562.57,601.746C4525.32,578.929 4475.29,544.778 4416.05,524ZM4129.3,400.306C4277.7,362.74 4425.34,355.967 4572.07,385.491C4508.32,423.506 4402.99,494.771 4363.16,486.765C4279.96,470.047 4203.02,439.036 4129.3,400.306ZM4175.97,651.375C4232.37,612.442 4293.71,577.014 4365.94,549.296C4448.59,577.129 4514.16,612.364 4561.82,655.354C4454.45,675.551 4334.66,683.159 4175.97,651.375ZM4302.49,509.994C4225.03,477.92 4128.64,434.289 4033.75,398.648C3949.44,366.982 3554.87,425.472 3375.16,526.994C3477.87,575.205 3592.42,604.03 3737.11,583.433C3843.92,650.934 4012.91,689.096 4161.63,616.553C4214.14,590.94 4262.03,549.906 4302.49,509.994ZM3308.43,490.352C3405.82,469.148 3494.8,440.316 3577.3,405.598C3505.88,393.31 3419.63,384.583 3350.79,407.048C3323.26,434.635 3307.6,462.382 3308.43,490.352ZM3402.01,612.007C3514.51,627.741 3643.54,669.802 3726.01,685.533C3650.7,709.525 3579.11,711.838 3469.39,706.413C3460.76,684.148 3418.89,628.892 3402.01,612.007ZM1844.82,3267.82C1863.97,3329.8 1880.87,3394.11 1888.14,3468.35C1866.01,3490.25 1839.29,3471.94 1836.1,3434.23M1832.7,2641.89C1876.01,2670.33 1912.24,2720.05 1933.17,2811.74C1883.06,2899.32 1845.48,2966.28 1826.14,2989.93C1770.16,2933.58 1800.19,2780.02 1832.7,2641.89ZM1968.07,2238.28C1936.48,2382.66 1897.15,2478.73 1844.64,2570.01C1891.37,2632.63 1940.84,2720.14 1968.39,2797.68C2003.68,2763.56 2045.13,2685.57 2081.21,2587.47C2074.61,2448.93 2021.2,2341.28 1968.07,2238.28ZM1847.46,2233.35C1844.7,2340.12 1828.36,2481.02 1797.6,2553.34C1765.29,2504.06 1765.48,2387.88 1785.86,2260.4C1799.97,2235.74 1821.17,2228.34 1847.46,2233.35ZM2930.76,1175.64C2959.6,1112.18 3004.05,1003.1 2958.11,1010.92C2915.33,1018.2 2907.47,1113.61 2930.76,1175.64ZM2688.4,1024.35C2738.7,1019.03 2672.8,1122.74 2635.69,1194C2633.55,1124.49 2658.08,1027.55 2688.4,1024.35ZM3022.97,795.754C2957.84,796.311 2891.73,782.285 2824.95,758.281L2844.67,874.872C2858.62,925.332 2885.72,949.621 2920.55,928.805C2949.44,855.755 2983.18,862.131 2983.18,905.35C2951.86,1023.12 2855.02,1003.06 2807.58,926.129C2730.57,1061.54 2639.3,966.326 2669.5,865.996C2694.66,807.424 2714.6,792.491 2728.23,830.224C2692,894.968 2694.11,950.625 2714.83,927.878C2809.4,824.068 2785.79,704.05 2667.69,571.07C2864.21,593.292 3044.12,605.816 3174.12,537.341C3254.76,494.859 3090.24,426.758 3036.26,526.142C3028.5,458.417 3102.2,366.954 3216.88,438.304C3260.59,465.501 3239.53,534.057 3205.11,572.099C3335.58,591.969 3415.29,635.285 3341.63,731.306C3283.24,807.422 3156.67,767.494 3139.41,664.27C3170.96,706.572 3218.33,724.553 3268.3,700.452C3313.09,678.847 3265.76,626.827 3146,617.752L2950.61,635.278C2942.24,701.601 2978.02,750.487 3022.97,795.754ZM2832.46,988.33C2775.48,1068.02 2707.26,1169.34 2627.93,1240.05C2656.13,1309.2 2683.47,1391.17 2684.13,1467.15C2756.4,1442.44 2821.6,1399.95 2879.74,1339.68C2879.33,1224.82 2871.16,1095.98 2832.46,988.33ZM2607,1294.1C2567.36,1376.46 2524.36,1456.39 2466.02,1525.18C2514.02,1537.11 2573.96,1526.65 2640.55,1503.7C2641.46,1433.61 2636.59,1363.63 2607,1294.1ZM2854.97,1416.06C2795.29,1442.05 2737.57,1470.28 2696.16,1517.15L2681.7,1699.77C2796.67,1635.75 2861.61,1545.01 2854.97,1416.06ZM2590.09,1814.46C2537.84,1870.88 2481.5,1920.56 2403.53,1934.48C2366.42,1882.08 2488.91,1867.01 2590.09,1814.46ZM2282.14,1798.26C2329.91,1729.75 2383.06,1647.68 2437.05,1563.51C2510.62,1573.53 2585.33,1557.1 2660.15,1538.05C2657.48,1615.01 2649.08,1689.06 2622.7,1754C2507.91,1797.18 2380.18,1819.73 2282.14,1798.26ZM2429.82,1527.11C2385.5,1584.88 2309.98,1681.67 2268.63,1667.67C2206.32,1646.57 2314.52,1583.73 2429.82,1527.11ZM2202.53,1821.01C2305.78,1703.71 2154.24,1605.18 2075.53,1707.12C2040.51,1752.47 2101.89,1784.69 2112.22,1753.17C2121.13,1725.98 2142.33,1702.9 2162.67,1725.6C2238.52,1810.25 2060.8,1911 1840.92,1760.87C1947.38,1884.72 1993.76,2012.46 1908.89,2111.62C1849.02,2171.49 1800.21,2096.29 1873.93,2038.53C1806.78,2051.6 1756.67,2070.11 1789.35,2160.67C1811.35,2221.63 1888.72,2189.76 1932.12,2129.34C1976.8,2234.77 2098.41,2282.94 2118.29,2174.07C2141.05,2049.4 1979.75,2015.41 2021.68,2146.52C2044.25,2056.69 2128.79,2200.17 2054.49,2193.36C1966.51,2185.29 1978.44,2027.6 1996.12,1970.54L2130.83,2030.34L2077.84,1870.41C2145.97,1855.36 2293.62,1859.11 2286.37,1923.53C2280.76,1973.35 2228.76,1931.77 2195.29,1898.94C2172.16,1876.27 2156.09,1989.02 2256.31,1990.94C2362.71,1992.98 2396.06,1808.34 2202.53,1821.01ZM6142.71,2957.03L6215.55,3181.59L6133.48,3371.75L6041.4,3175.54L6142.71,2957.03ZM3533.99,4091.59L3619.53,4243.18L3540.76,4408.7L3448.14,4249.39L3533.99,4091.59ZM3157.55,4088.11L3250.53,4257.68L3157.54,4454.72L3060.25,4267.2L3157.55,4088.11ZM2539.06,4090.49L2636.79,4250.29L2557.6,4456.45L2443.54,4266.76L2539.06,4090.49ZM2270.88,4371.61C2268.48,4286.76 2256.55,4200.21 2225.76,4110.28C2171.7,4158.44 2211.21,4307.91 2270.88,4371.61ZM5786.97,3688.62C5550.94,3610.64 5340.8,3580.51 5196.65,3672.37C5345.31,3632.04 5504.26,3639.76 5674.51,3700.24C5741.19,3723.93 5796.2,3715.37 5786.97,3688.62ZM5851.03,3781.23C5887.63,3704.69 5945.45,3661.59 6065.53,3716.54C5996.25,3716.17 5925.07,3734.51 5851.03,3781.23ZM5879.01,3834.24C5860.07,3809.79 5937.75,3778.95 5990.87,3770.26C5973.91,3806.36 5897.79,3858.48 5879.01,3834.24ZM4402.63,4344.5C4450.84,4091.26 4626.9,3893.39 4919.36,3745.95C4718.11,3819.71 4531.52,3953.06 4386.71,4202.68C4367.83,4111.05 4399.32,4017.66 4493.81,3922.05C4383.56,3964.53 4314.84,4047.9 4309.05,4193.26L4347.46,4144.44C4339.75,4224.18 4345.4,4297.22 4402.63,4344.5ZM4235.03,4195.97C4279.32,4040.92 4338.2,3895.35 4491.57,3811.12C4432.88,3827.97 4371.61,3853.74 4299.34,3917.64C4335.91,3828.58 4386.06,3746.99 4460.57,3678.81C4402.41,3692.73 4346.84,3748.39 4279.4,3849.9C4266.74,3798.98 4307.07,3722.61 4402.91,3619.56C4252.86,3698.99 4205.23,3838.91 4265.26,3927.32C4223.41,4029.03 4206,4121.39 4235.03,4195.97ZM4055.01,3227.86C4088.7,3347.58 4130.7,3462.88 4222.69,3551.59C4112.17,3541.54 4067.43,3413.64 4055.01,3227.86ZM3949.62,3097.01C3945.7,3230.58 3962,3355.35 4046.36,3450.48C3921.75,3389.18 3914.6,3256 3949.62,3097.01ZM3850.22,3067.14C3851.77,3169.05 3864.26,3260.72 3899.71,3330.94C3821.62,3277 3810.19,3186.27 3850.22,3067.14ZM5922.79,2340.28C5951.96,2378.19 5967.43,2423.2 5958.32,2480.96C5925.45,2447.78 5915.34,2399.76 5922.79,2340.28ZM5887.72,2246.13C5833.33,2330.86 5835.98,2414.63 5898.43,2497.4L5887.72,2246.13ZM5881.38,2081.49C5824.44,2222.94 5819.96,2352.43 5822.97,2480.21C5781.13,2343.7 5788.42,2210.08 5881.38,2081.49ZM5139.88,1548.6C5076.41,1582.7 5018.47,1620.78 4966.53,1663.18C5040.05,1650.59 5099.93,1615.81 5139.88,1548.6ZM4910.44,1644.62C4958.38,1603.46 5010.84,1566.39 5066.4,1536.31C5027.45,1587.7 4974.77,1622.99 4910.44,1644.62ZM4849.02,1625.05C4892.26,1585.94 4942.06,1552.18 5007.55,1531.21C4963.88,1569.7 4911.18,1601.09 4849.02,1625.05ZM4804.25,1592.09C4843.65,1552.69 4875.65,1528.81 4928.44,1510.98C4904.02,1551.12 4860.62,1576.62 4804.25,1592.09ZM4532.82,1477.17C4635.16,1527.73 4732.13,1565.57 4784.38,1497.77L4843.6,1488.97C4758.87,1344.4 4653.17,1356.15 4532.82,1477.17ZM4551.06,1408.23C4496.51,1391.89 4461.89,1416.15 4434.93,1455.99C4480.01,1464.7 4519.57,1452.06 4551.06,1408.23ZM4369.59,1445.23C4387.93,1405.33 4409.8,1384.66 4437.64,1396.57C4416.63,1432.16 4393.75,1446.1 4369.59,1445.23ZM4413.61,1554C4458.03,1616.43 4497.47,1681.11 4502.1,1761.55C4436.64,1720.88 4410.87,1648.74 4413.61,1554ZM4554.59,1726.28C4552.65,1757.43 4543,1783.64 4522.61,1802.98C4566.62,1798.01 4578.35,1773.09 4554.59,1726.28ZM4545.49,1905.84C4564.61,1819.92 4615.03,1762.9 4712.91,1749.68C4657.79,1788.32 4602.16,1837.08 4545.49,1905.84ZM4617,2051.52C4630.99,1944.41 4685.1,1861.34 4751.11,1785.42C4613.69,1874.34 4551.55,1963.08 4617,2051.52ZM3679.79,1419.24C3664.24,1453.7 3638.18,1479.21 3597.75,1492.45C3655.53,1505.06 3684.84,1483.04 3679.79,1419.24ZM3562.46,1604.4C3663.24,1553.31 3754.24,1493.02 3801.98,1392.06C3782.3,1517.57 3710.02,1595.22 3562.46,1604.4ZM3543.51,1722.22C3681.82,1651.84 3796.55,1556.35 3868.06,1414.82C3835.26,1580.2 3723.91,1680.02 3543.51,1722.22ZM3486.31,2256.12C3473.09,2372.17 3386.39,2464.57 3257.55,2543.4C3400.07,2496.45 3507.3,2423.51 3486.31,2256.12ZM3746.97,2106.72C3760.62,2248.62 3721.47,2384.73 3622.25,2514.27C3696.41,2454.71 3748.52,2386.77 3766.53,2305.87C3779.64,2246.95 3774.67,2181.16 3746.97,2106.72ZM2406.67,2859.74C2319.36,2784.26 2226.79,2777.71 2128.98,2840.1C2218.89,2827.68 2309.9,2827.18 2406.67,2859.74ZM2109.49,2908.03C2166.41,2853.18 2244.43,2837.07 2362.23,2894C2283.64,2893.02 2201.01,2892.96 2109.49,2908.03ZM2057.01,3019.04C2092.5,2943.69 2161.88,2905.11 2291.39,2930.3C2224.15,2948.6 2147.33,2974.68 2057.01,3019.04ZM2134.31,3047.2C2154.24,3018.45 2182.42,2999.35 2226.9,2999.35C2204.58,3025.14 2176.16,3043.91 2134.31,3047.2ZM5398.24,1887.23L5500.73,2109.25L5395.07,2317.67L5302.95,2100.58L5398.24,1887.23ZM5394.58,917.948L5480,1083.59L5393.76,1308.31L5304.03,1106.84L5394.58,917.948ZM6704.06,1504.73C6787.2,1647.12 6871,1800.39 7012.25,1963.18C6978.14,2029.08 6954.41,2092.26 6957.19,2194.35C6958.42,2239.25 6945.28,2280.71 6923.38,2301.48C6979.31,2359.91 6933.34,2397.98 6933.34,2461.15C6933.34,2832.64 6916.92,3215.94 6858.69,3582.83C7278.56,3458.23 7476.24,3972.26 7128.78,4254.86C7061.65,4309.46 6982.22,4303.87 6925.13,4297.93C6864.83,4291.66 6876.22,4276.4 6816.6,4232.94C6839.25,4284.45 6885.21,4347.65 6989.11,4411.64C6897.86,4420.89 6711.85,4515.92 6693.94,4533.21C6727.73,4583.5 6742.45,4677.65 6706.29,4796.52C6764.07,4839.53 6832.55,4846.67 6922.64,4853.11C7012.62,4859.54 7048.65,4870.6 7060.76,4910.16C7219.21,4898.91 7425.93,4920.3 7593.62,5043.86C7410.56,5118.32 7214.4,5233.23 7211.59,5447.78C7205.54,5909.8 7158.91,6385.56 7204.76,6896.04L6487.61,6726.32C6384.14,6747.74 6255.97,6714.24 6099.57,6636.34C6014.42,6593.93 5889.03,6685.6 5830.65,6798.26C5677.85,6972.43 5507.96,7125.11 5342.32,7287.07C5306.96,7321.65 5262.59,7363.57 5243.09,7404.23C5189.39,7516.2 5143.1,7354.27 5103.88,7240.2C4988.72,7352.16 4875.13,7462.66 4746.77,7503.86C4552.77,7687.13 4341.47,7900.96 4186.35,8118.69C4069.14,8019.07 3981.74,7903.76 3867.68,7788.16C3694.75,7612.89 3494.54,7459.05 3332.28,7253.28L3194.19,7430.22L2847.38,7083.75L2852.78,7001.65L2791.63,7022.44L2503.92,6653.21C2121.11,6686.44 1750.32,6734.05 1427.78,6839.37L1469.82,6710.63C1349.68,6742.24 1257.11,6785.55 1189.64,6839.53C1289.58,6656.09 1308.65,6379.99 1289.61,6060.24C1285.1,5984.43 1304.33,5918.23 1337.93,5879.21C1247.01,5845.65 1285.53,5797.05 1309.71,5682.74C1300.56,5508.58 1300.52,5323.7 1349.35,5198.73C1253.06,5064.84 1126.89,4992.43 972.713,4977.66C1023.77,4901.53 1185.34,4836.38 1519.12,4788.34L1514.11,4659.15L1790.75,4648.5C1769.57,4558.62 1766.91,4478.81 1813.57,4463.38C1763.47,4371.62 1684.72,4321.07 1594.36,4287.21C1600.78,4245.76 1614.63,4226.05 1652.81,4196.71C1047.71,4300.35 1177.06,3352.41 1719.94,3522.2L1662.94,2480.28C1669.21,2266.28 1667.98,1953.89 1617.53,1870.48C1711.94,1768.33 1799.25,1640.17 1881.02,1491.76C2151.73,1624.38 2405.31,1466.05 2506.79,1190.31C2579.13,993.761 2554.8,743.012 2492.25,470.733C3479.95,130.22 4869,125.224 6196.28,480.122C5972.83,1163.59 6311.2,1751.87 6704.06,1504.73ZM6309.4,4712.86L6261.56,4568.23C6352.45,4496.31 6421.56,4403.26 6472.19,4292.28C6505.99,4429.2 6551.37,4632.61 6520.67,4659.05C6469.87,4702.79 6434.12,4733.84 6416.85,4788.39C6470.85,4793.69 6494.77,4764.2 6522.21,4729.55C6554.12,4780.41 6578.78,4847.36 6612.63,4806.7C6688.81,4715.22 6682.88,4611.26 6616.87,4512.9C6693.36,4464.21 6778.27,4431.24 6844.47,4386.02C6784.55,4316.86 6686.32,4167.99 6710.77,4021.22C6742.16,3832.78 6852.62,3785.54 6988.7,3805.18C7060.2,3815.5 7127.88,3880.39 7113.88,3986.18C7101.57,4079.16 6901.63,4146.14 6898.2,4005.73C6964.62,4049.14 7049.09,3999.29 7028.25,3928.55C6978.72,3760.41 6686.77,3969.3 6794.94,4126.79C6907.9,4291.26 7067.19,4228.89 7135.32,4141.63C7212.34,4042.98 7247.06,3877.32 7204.32,3795.16C7117.67,3628.59 7029.65,3571.49 6778.09,3708.82C6778.09,3492.54 6836.14,3350.51 6855.88,3223.02C6875.19,3098.23 6876.41,2675.49 6874.27,2557.12C6906.01,2540.67 6897.31,2498.31 6862.27,2433.06C6901.55,2402.18 6905.49,2360.11 6863.63,2303.53C6911,2285.16 6928.27,2241.11 6918,2174.04C6903.4,2078.73 6925.21,2008.83 6961.29,1967.67C6836.17,1872.86 6753.73,1750.12 6681.83,1613.13C6072.61,1738.69 5959.57,998.734 6095.2,544.5C5769.66,414.717 5354.4,367.204 4917.63,315.063C4757.81,303.892 4613.97,283.757 4308.56,280.14C3979.48,282.385 3640.46,300.809 3291.58,344.966C3081.2,371.593 2827.65,404.4 2568.28,494.111C2757.31,1138.64 2495.51,1679.97 1917.79,1580.42L1691.86,1885.1C1711.55,2383.7 1733.61,2869.63 1769.83,3323.78C1813.07,3387.36 1831.96,3436.34 1795.99,3518.5L1787.29,3666.46C1500.65,3382.1 1229.06,3774.88 1369.64,4044.77C1457.89,4214.19 1867.3,4169.53 1717.54,3820.61C1587.19,3719.53 1449.82,3807.11 1559.07,3943.91C1594.74,3988.57 1624.33,3962.75 1655.03,3891.13C1711.45,3990.09 1584.25,4129.01 1488.41,3968.68C1420.58,3855.21 1511.18,3621.9 1712.04,3745.78C1863.06,3838.91 1816.45,4076.96 1694.48,4252.3C1794.35,4311.5 1863.8,4389.99 1918.31,4477.96C1827.72,4554.8 1809.77,4607.35 1864.44,4635.64C1893.55,4650.7 1929.24,4618.86 1953.35,4584.39C2086.46,4672.4 2107.04,4608.77 1972.24,4528.85C1963.11,4448.63 2000.48,4259.99 2094.2,4139.79L2265.17,4475.23C2256.63,4517.02 2231.99,4552.34 2199.21,4584.39C2253.67,4554.96 2311.25,4541.74 2356.37,4576.81C2343.69,4470.65 2327.52,4371.34 2322.24,4277.7C2276.52,4082.51 2244.28,3847.27 2240.76,3633.08C2189.17,3633.38 2140.26,3622.58 2098.18,3583.52C2030.54,3643.27 2046.81,3686.09 2204.12,3755.87L2039.17,3840.41C2015.73,3992.33 2196.68,4140.18 2149.08,3913.37C2297.91,4055.51 2092.76,4200.07 2026.96,3998.11C2029.27,4314.4 1737.25,4254.68 1852.73,4046.8C1895.55,4240.17 1999.57,4101.69 1976.54,3844.85L1850.57,3750.11C2049.02,3703.51 2049.99,3557.74 1917.58,3600.24C1877.22,3613.19 1906.73,3651.49 1937.71,3653.45C1883.7,3723.84 1765.34,3575.49 1908.31,3517.19C1947.08,3501.37 1992.08,3549.19 2031.03,3603.79C2064.3,3592.54 2043.22,3552.68 1993.74,3481.14C1965.77,3440.68 1963.29,3365.27 1966.54,3305.83C1939.18,3323.56 1925.41,3355.66 1919.51,3381.54C1898.45,3332.47 1902.56,3255.18 1917.74,3200.3L1872.38,3254.59C1876.44,3188.03 1900.76,3138.92 1933.68,3091.89L1869.88,3127.79C1887.84,2959.27 1889.53,2829.67 2156.92,2709.43L2149.86,2206.31C2168.07,2111.2 2173.38,2085.52 2267.64,2081.64C2391.98,2076.51 2524.15,2014.28 2594.97,1906.27C2582.2,1836.45 2606.83,1874.49 2686.25,1839.64C2804.2,1674.47 2929.18,1520.25 2955.71,1212.91C3018.73,1116.65 3043.47,1004.18 3031.67,876.228C3465.52,669.27 4958.09,711.508 5599.38,883.8C5566.15,1228.66 5667.52,1515.14 5844.45,1768.83C5893.51,1839.16 5971.83,1811.06 6009.05,1763.88C5982.61,1697.02 5968.99,1627.88 5975.5,1555.15L6161.98,1597.96L6336.61,1821.34L6250.94,1834.76C6300.28,1910.76 6313.27,1994.03 6296.16,2083.31L6425.13,2118.05L6345.15,3612.27L6506.7,3792.47C6610.22,3603.08 6476.42,3431.91 6455.34,3634.85C6357.04,3576.43 6478.99,3409.46 6571.44,3558.79C6673.53,3311.49 6865.88,3616.55 6661.36,3650.4C6811.21,3500.55 6564.82,3449.78 6586.23,3711.23C6619.94,3764.66 6665.06,3801.69 6712.55,3835.31L6593.29,3886.98C6560.88,3905.71 6541.78,4028 6565.98,4151.9C6587.28,4260.97 6737.68,4190.13 6610.66,4120.86C6693.62,4116.15 6761.81,4215.9 6662.99,4261.78C6600.66,4290.72 6546.47,4247.06 6507.75,4152.89C6448.3,4270.6 6389.07,4320.75 6330.25,4244.36C6415.66,4242.17 6463.59,4196.17 6462.92,4093.41C6406.54,4147.89 6344.69,4190.39 6273.02,4211.42L6247.3,4177.23C6226.65,4372.71 6204.51,4576.87 6120.07,4748.3C6157.1,4781.91 6187.95,4728.42 6223.18,4667.68C6236.4,4680.02 6249.42,4703.41 6256.2,4741.11C6267.34,4803.1 6323.55,4784.45 6309.4,4712.86ZM2557.18,6628.53L2805.38,6950.45L2888.45,6961.79L2897.27,7059.1L3171.38,7353.38L3336.89,7118.59C3399.3,7197.78 3454.85,7323.53 3528.14,7395.49C3742.64,7606.06 3959.16,7793.7 4167.34,8041.55C4302.04,7814.98 4508.16,7625.32 4718.42,7437.81C4765.44,7479.64 4928.15,7330.94 5114.87,7142.7C5157.08,7196.87 5186.52,7274.44 5210.16,7362.65C5419.71,7110.55 5647.47,6908.27 5860.86,6660.66C5925.77,6585.33 5866.32,6572.14 5752.13,6685.77C5742.02,6695.82 5720.99,6722.24 5701.81,6707.11C5677.84,6688.2 5772.74,6603.9 5717.21,6578.38C5691.96,6566.78 5648.12,6668.57 5647.73,6741.13C5501.66,6742.12 5432.43,6849.82 5456.3,7030.46C5360.65,7038.8 5274.54,7047.39 5197.09,7092.56C5243.7,6987.14 5074.11,7043.34 4975.12,7118.81C4843.8,7218.93 4690.51,7396.73 4544.64,7359.46C4543.14,7241.84 4626.82,7135.09 4732.63,7026.48C4769.71,6988.42 4645.06,6964.15 4546.65,7071.53L4195.71,7387.94L3969.47,7185.78C3883.75,7066.71 3828.66,7123.26 3932.98,7214.38C3980.09,7255.53 3895.07,7313.42 3862.34,7194.63C3842.91,7124.11 3807.81,7095.11 3774.71,7122.79C3831.15,7216.07 3861.49,7307.81 3862.15,7397.77C3750.99,7388.8 3613.06,7295.06 3455.55,7139.34C3470.88,7060.1 3424.27,7049.32 3341.15,7025.16C3226.53,6991.85 3148.43,6905.62 3106.55,6808.37L3035.47,6787.92C3220.66,7001.47 2974.08,7156.91 2943.61,6962.52C3071.9,7102.38 3062.96,6869.97 2951.39,6763.51C2891.82,6706.67 2823.09,6690.32 2747.71,6673.41C2759.6,6622.63 2765.47,6557.59 2746.02,6520.13L2643.73,6536.11L2683.69,6617.95L2557.18,6628.53ZM3584.91,4699.76C3286.43,4718.07 2983.15,4719.2 2709,4753.32L2709.2,4721.81C3521.07,4658.22 4318.99,4608.28 5160.63,4680.58L5241.69,4762.32L5330.9,4707.96L6162.12,4788.4L6317.15,4865.72L6405.54,4835.97C6620.96,4858 6849.63,4867.31 7003.09,4948.73C7174.9,4949.65 7362.98,4955.35 7493.9,5027.01L7340.34,5072.06C7081.67,4986.98 6793.72,4939.65 6489.16,4913.74C6776.24,4967.14 7066.46,5015.14 7319.29,5127.32C7129.44,5078.15 6939.84,5049.66 6750.43,5035.83C6952.24,5079.48 7139.65,5129.2 7225.02,5194.13L7067.22,5218.24L7189.78,5266.69L7170.77,5339.95L7029.32,5353.11L7157.34,5393.66L7159.15,5476.07L7044.99,5484.21L7154.89,5528.22L7149.09,5591.76L7042.04,5606.39L7144.26,5644.07L7150.18,5713.6L7054.36,5722.16L7145.89,5759.93L7149.59,6665.98L6621.79,6538.55C6810.99,6613.1 6989.03,6680.07 7159.43,6741.86L6596.66,6610.84L7152.3,6791.82L7159.53,6847.88C6934.6,6801.34 6712.58,6726.79 6470.97,6680.08C6395.74,6665.53 6320.44,6706.15 6221.85,6620.35C6122.98,6534.3 5923.75,6517.46 5722.33,6494.92L4824.15,6422.76L4575.19,6399.99C4508.66,6360.97 4455.1,6359.9 4418.34,6408.02C4315.33,6374.57 4206.1,6382.91 4093.89,6411.16L2624.96,6483.16L2637.64,6432.7L3488.97,6368.84L2628.28,6384.17C3176.75,6312.21 3731.77,6267.46 4296.38,6262.46L2623.69,6312.85L2629.29,6265.21C2916.7,6257.75 3209.76,6258.97 3439.77,6163.23C3474.45,6179.81 3493.14,6188.44 3539.48,6191.52C3854.54,6212.46 4210.11,6225.25 4515.9,6162.58L4574.98,6205.33C4949.95,6204.26 5330.68,6217.96 5740.3,6305.85C5980.69,6368.96 6203.79,6444.47 6333.34,6374.51C6379.16,6441.95 6471.44,6467.59 6607.66,6465.22C6706.67,6518.73 6815.16,6554.43 6937.21,6564.66L6939.65,6491.79L7046.53,6486.63C7084.7,6453.12 7026.95,6438.08 6961.52,6427.4C6938.92,6407 6931.32,6380.99 6940.19,6348.81C7030.26,6328.23 7010.25,6314.23 6938.78,6301.41C6923.09,6275.38 6926.12,6253.4 6940.21,6233.81C6977.41,6235.88 7016.43,6235.32 7060.17,6227.89C7047.12,6191.32 7005.84,6195.18 6954.54,6182.08C6930.21,6154.08 6925.05,6117.23 6939.05,6071.51C6988.33,6085.47 7037.61,6087.94 7086.9,6076.54C7041.81,6072.46 6995.56,6056.57 6948.14,6028.87C6940.33,6010.09 6943.16,5990.44 6954.82,5970.06L7057.18,5955.52L6964.46,5913.54L6958.74,5873.23L7072.99,5846.34L6978.55,5800.37C6958.48,5574.17 6952.27,5359.67 7016.09,5204.24C6856.5,5095.41 6713.64,5050.93 6608.35,5150.96C6645.28,5077.53 6499.72,5054.09 6336,5026.43C5616.77,4900.54 4823.64,4833.13 3927.66,4847.12C3872.45,4900.36 3816.57,4896.51 3758.85,4854.01L3168.3,4881.53C3099.74,4951.92 3109.4,4907 3047.49,4884.73L2716.4,4914.47L2721.45,4878.33C3081.21,4845.06 3444.81,4816.48 3819.69,4801.65L2715.92,4842.41L2713.9,4798.41L3584.91,4699.76ZM6939.4,5194.63C6879.45,5166.29 6783.07,5153.58 6691.07,5153.23L6532.98,5251.99C6534.45,5193.05 6477.11,5194.83 6425.84,5190.22C6464.8,5170.86 6495.21,5165.24 6546.24,5170.22C6521,5138.76 6390.89,5127.59 6274.95,5113.67C6366.12,5111.72 6457.5,5110.72 6550.9,5119.49C6363.05,5066.56 6170.18,5042.97 5977.73,5016.92C5794.25,4983.83 5606.54,4964.43 5414.92,4957.7L4889.17,4931.31L3916.03,4903.26L3763.88,4984.03L3758.64,4900.91L3185,4928.47L3086.7,5028.34L3044.24,4946.21L2746.66,4974.13C2680.49,5006.89 2677.79,5028.42 2809.97,5028.43C2833.94,5028.43 2826.43,5056.52 2784.52,5057.07C2693.41,5058.28 2682.1,5110.59 2790.8,5102.64C2875.48,5104.89 2895,5129.05 2793.35,5135.6C2693.23,5116.67 2685.92,5193.79 2763.75,5171.37C2791.02,5163.51 2804.5,5202.85 2751.95,5206.87C2702.6,5210.66 2690.15,5207.33 2696.99,5259.97L2657.37,5961.97L2742.42,5963.79L2661.91,6006.49L2662.15,6040.64C2694.19,6034.88 2739.49,6030.34 2774.03,6039.49C2729.76,6044.68 2689.38,6056.37 2653.69,6075.94L2657.54,6134.74C2690.43,6147.41 2750.35,6133.14 2787.28,6131.18C2818.37,6129.52 2827.31,6127.99 2858.66,6134.57L2660.85,6170.9L2658.25,6201.14L3212.06,6184.97C3288.34,6184.97 3297.07,6186.24 3364.94,6151.42C3388.83,6139.16 3445.39,6080.11 3467.05,6082.5C3505.29,6086.72 3495.85,6105.47 3494.04,6132.68C3579.77,6144.77 3679.63,6139.64 3780.5,6133.28L4446.89,6144.76L4538.85,6098.24L4610.68,6146.86C5002.4,6173.36 5392.9,6202.86 5768.76,6268.55C5823.28,6305.86 5857.29,6310.48 5946.74,6305.48C6027.45,6300.97 6121.15,6333.24 6192.52,6359.73C6240.28,6377.45 6321.01,6355.94 6371.46,6324.47C6425.86,6433.49 6483.38,6401.6 6618.1,6401.6C6660.07,6475.28 6770.11,6498.19 6896.9,6507.36L6875,6384.77C6833.02,6400.52 6747.33,6381.84 6743.72,6351.83C6741.95,6337.11 6845.07,6377.14 6888.12,6352.48C6922.44,6332.83 6889.45,6315.94 6806.55,6314.98C6754.27,6314.37 6759.25,6275.01 6822.9,6277.41C6909.42,6280.68 6916.4,6256.51 6852.4,6226.43C6844.19,6207.74 6848.29,6191.19 6894.68,6175.6C6933.44,6162.58 6896.99,6099.1 6841.73,6052.66C6910.85,6002.45 6911.35,5879.68 6914.7,5736.31C6917.06,5634.99 6929.38,5499.27 6925.57,5389.2C6898.99,5371.82 6843.73,5380.32 6777.33,5368.38L6927.07,5342.83C6840.78,5318.2 6758.58,5313.86 6679.17,5323.39C6758.56,5295.83 6843.99,5291.5 6933.85,5304.16L6939.4,5194.63ZM1403.2,5653.61C1443.85,5667.82 1483.99,5673.17 1523.34,5664.59L1520.16,5737.94L1412.75,5776.84C1454.63,5791.79 1491,5801.12 1519.66,5802.63L1518.15,5873.56L1414.25,5917.77C1452.65,5927.55 1489.15,5930.64 1523.17,5925.07L1514.78,5986.15L1398.67,6042.76C1444.15,6047.64 1484.82,6047.76 1517.34,6039.81L1512.8,6098.1L1414.82,6139.49C1455.96,6153.98 1491.17,6155.97 1519.87,6144.24L1511.26,6224.93L1413.22,6289.35C1448.49,6296.5 1484.01,6297.78 1518.59,6287.84L1520.65,6319.62L1414.46,6363.67C1449.98,6378.22 1484.42,6383.53 1517.68,6378.69L1505.87,6443.48C1467.36,6479.42 1420.27,6499.78 1369.27,6513.05C1413.07,6528.96 1457.31,6526.39 1497.97,6505.62L1497.03,6554.4C1473.18,6585.03 1436.9,6591.49 1395.87,6588.69C1427.03,6613.05 1458.47,6620.92 1490.19,6612.31C1463.25,6664.96 1387.72,6686.4 1309.37,6706.03C1340.29,6514.47 1357.48,6299.03 1359.31,6056.88C1350.88,5992.22 1362.35,5916.43 1401.11,5881.76C1423.52,5861.72 1397.78,5811.72 1358.23,5808.37C1363.94,5603.81 1381.54,5404.4 1423.89,5215.73L1539.46,5202.29C1564.67,5258.37 1521.38,5296.4 1449.17,5314.79C1570.68,5347.31 1551.87,5404.07 1416.18,5424.95C1443.8,5449.32 1474.77,5452.97 1506.81,5450.01C1537.91,5501.56 1490.63,5526.88 1403.7,5538.94L1501.34,5567.52C1548.3,5613.91 1481.37,5635.01 1403.2,5653.61ZM1371.07,5071.03C1416.43,5079.96 1463.99,5076.45 1511.38,5073.84C1548.18,5076.27 1557.96,5101.18 1545.17,5121.65C1534.78,5138.27 1512.16,5162.85 1474.38,5159.15C1399.62,5144.33 1348.4,5082.66 1294.84,5032.55C1256.99,4997.14 1224.69,4962.04 1178.34,4938.89L1466.23,4867.6C1534.18,4826.77 1587.59,4918.88 1485.21,4918.88L1383.49,4937.1C1321.75,4940.88 1327.31,4976.82 1386.22,4975.93L1518.23,4959.84C1576.68,4959 1603.13,5026.33 1503.28,5025.82C1439.83,5030.63 1345.71,5038.71 1371.07,5071.03ZM2663.08,4605.23C2657.17,4796.36 2658.62,5208.06 2630.33,5231.38C2594.9,5260.57 2582.68,5281.22 2610.33,5285.15C2635.08,5288.66 2644.99,5307.78 2642.61,5339.84C2620.23,5358.63 2589.62,5366.29 2553.39,5366.34C2585.64,5377.1 2616.94,5377.49 2647.58,5370.77C2623.2,5392.6 2595.19,5409.81 2563.2,5421.94C2584.49,5435.5 2609.01,5430.52 2630.34,5419.78C2621.71,5438.67 2598.91,5454.45 2566.41,5468.11C2584.17,5482.1 2605.17,5486.26 2630.07,5478.56L2586.5,6571.35C2465.45,6587.12 2322.04,6594.57 2169.21,6597.17C2120.83,6629.73 2084.68,6642.23 2011.18,6639.44C1925.62,6636.2 1840.76,6645.14 1757.95,6689.78L1748.13,6632.71C1706.28,6696.24 1625.63,6733.64 1521.66,6755.32C1578.43,6237.57 1610.24,5683.11 1598.76,5095.36C1676.5,5031.29 1633.88,4973.88 1589.44,4892.32C1569.66,4856.01 1588.17,4759.15 1595.04,4717.36C1888.16,4721.84 2176.09,4689.77 2458.95,4622.02C2488.16,4636.95 2493.93,4667.35 2487.39,4705.9C2528.61,4639.02 2583.26,4597.95 2663.08,4605.23ZM6378.86,2149.97L6310.73,3584.36C6119.6,3602.65 5923.03,3602.86 5731.73,3574.65C5761.17,3525.24 5809.57,3463.56 5824.62,3416.4C5870.72,3271.98 5824.2,3146.34 5905.77,2858.17L5854.8,2855.76C5912.55,2712.9 6003.56,2630.28 6105.73,2583.27C6104.42,2426.61 6192.59,2258.83 6276.91,2127.57L6378.86,2149.97ZM4396.84,788.91L4409.05,1018.09C4470.16,1049.17 4523.57,1066.89 4570.61,1073.54C4661.38,1186.6 4737.42,1277.04 4838.04,1262.12C4821.88,1209.64 4781.81,1145.57 4761.01,1081.82C4794.52,1030.08 4831.71,963.038 4870.64,903.869C4896.12,974.622 4925.79,1034.74 4950.2,1083.63C4928.01,1139.82 4895.37,1199.25 4863.64,1259.02C4894.01,1303.27 4936.36,1342.76 4970.93,1354.86C5098.79,1399.59 5223.04,1437.04 5340.37,1488.31C5343.31,1510.88 5348.91,1538.44 5342.26,1555.96C5336.02,1572.42 5322.39,1585.76 5319.73,1597.52C5280.03,1773.22 5269.87,1966.26 5152.42,2068.4C5175.8,2106.17 5192.52,2168.22 5175.48,2214.94C5144.05,2301.12 5128.69,2352.1 5137.38,2415.47C5024.09,2438.72 4931.02,2467.75 4882.37,2509.49C5103.41,2557.89 5260.76,2679.59 5325.29,2890.47L5257.58,2864.05C5312.96,2919.32 5320.3,2937.85 5358.92,3011.28C5555,2700.87 5744.71,2439.83 5685.55,2202.46C5720.03,2074.8 5788.25,1944.08 5865.81,1858.62C5732.7,1696.33 5480.01,1444.5 5559.78,908.093C5178.9,817.01 4738.81,818.548 4396.84,788.91ZM4241.04,770.656L4100.29,1005.51C4159.77,1005.1 4216.15,1007.21 4274.35,1024.22L4277.65,982.049L4363.67,987.141C4355.6,929.342 4341.98,849.094 4342.88,774.156L4241.04,770.656ZM4195.64,774.69C4038.66,776.388 3880.09,795.602 3700.91,803.649C3671.14,804.986 3627.12,800.139 3627.03,821.381L3745.74,1115.07L3867.63,1096.31L3825.05,1024.1C3801.01,987.582 3817.82,963.563 3842.5,973.056C3903.16,996.389 3969.49,1009.24 4054.84,1013.26L4195.64,774.69ZM3298.14,1409.1L3533.37,1254.89C3539.13,1204.9 3594.67,1158.45 3698.56,1130.64C3691.23,1049.42 3639.62,927.862 3600.16,812.084L3565.38,815.106C3516.74,948.592 3445.81,1084.75 3336.01,1225.59C3330.32,1283.37 3351.69,1295.07 3273.66,1339.19L3298.14,1409.1ZM3251.84,1308.84C3357.29,1148.77 3466.66,989.197 3518.65,822.338C3381.94,819.574 3234.72,853.648 3086.97,889.584C3115.58,1039.27 3166.4,1180.58 3251.84,1308.84ZM2968.5,1871.7C3050.39,1700.8 3125.78,1532.06 3229.26,1353.99C3166.02,1264.5 3139.47,1154.74 3087.47,1048.63L2872.84,1644.58L2968.5,1871.7ZM2685.47,2399.05L2940.79,1926.27C2911.35,1840.76 2876.55,1759.76 2829.5,1689.13C2754.83,1825.81 2653.41,1952.33 2535.45,2072.57L2685.47,2399.05ZM2187.03,2425.12C2223.95,2491.04 2265.09,2577.28 2315.51,2708.27L2476.62,2744.8L2659.35,2446.73C2603.03,2327.63 2545.12,2194.57 2466.83,2083.76C2379.14,2118.33 2294.11,2149.28 2200.55,2150.13C2203.26,2246.82 2220.53,2347.64 2187.03,2425.12ZM2866.87,3149.76L2964.99,2993.35L2674.63,2493.82L2513.9,2770.07C2609.07,2926.54 2727.92,3051.51 2866.87,3149.76ZM3075.99,3716.52C3054.12,3531.25 3020.33,3348.41 2895.87,3184.05L2981.78,3035.97L3211.89,3472.5C3180.72,3562.07 3125.46,3637.61 3075.99,3716.52ZM2667.39,3460.92L2477.99,3148.77C2652.88,3160.95 2804.03,3329.78 2667.39,3460.92ZM2817.61,3710.57L2686.33,3498.43C2713.45,3455.81 2739.8,3420.48 2747.7,3384.41C2806.68,3467.66 2824.92,3588.02 2817.61,3710.57ZM2472.7,3887.41C2534.45,3750.25 2602.3,3611.04 2642.23,3481.22C2574.18,3360.51 2503.6,3259 2429.17,3186.58L2287.76,3262.8C2246.64,3522.07 2265.87,3642.05 2419.22,3524.17C2432.95,3559.55 2362.3,3608.5 2279.71,3630.04C2355.25,3712.14 2417.21,3798.71 2472.7,3887.41ZM3183.21,1779.44C3157.48,1870.62 3115.05,1959.74 3042.07,2018.24L2997.62,1924.81L3197.86,1522.15L3313.09,1543.55C3259,1609.62 3214.46,1686.8 3183.21,1779.44ZM3217.9,1481.05L3272.83,1450.02L3252.62,1396.57L3217.9,1481.05ZM4980.29,1997.49C4909.46,1948.87 4839.89,1943.84 4797.48,1950.32C4733.46,1960.1 4741.15,2131.31 4790.48,2138.51C4856.57,2133.57 4906.51,2134.71 4956.68,2148.07C4991.54,2120.24 4991.15,2065.05 4980.29,1997.49ZM2959.52,1958.02L2702.69,2435.87L2991.12,2957.53L3159.63,2641.63C3132.86,2626.31 3113.07,2606.04 3095.51,2584.19C3008.38,2592.85 2943.05,2562.26 2885.82,2517.1C2990.46,2555.98 3067.67,2544.86 3102.4,2473.05C3057.02,2487.82 3010.26,2495.94 2959.96,2487.09C3066,2427.03 3135.18,2344.58 3163.16,2237.06C3081.19,2247.35 3000.51,2235.49 2970.42,2181.97C3001.84,2187.4 3028.96,2175.16 3056.04,2157.51C3027.18,2088.19 2994.92,2021.77 2959.52,1958.02ZM3282.82,2733.49C3251.07,2712.58 3218.46,2694.6 3180.38,2686.04L3008.77,2992.61L3263.22,3431.15L3430.29,3116.52C3427.86,3032.49 3367.69,2961.23 3311.22,2889.16C3276.47,2844.81 3275.51,2790.82 3282.82,2733.49ZM3455.16,3150.04L3291.54,3460.41L3551.91,3874.69C3566.33,3842.69 3580,3816.19 3595.64,3790.04C3692.97,3627.33 3741.12,3581.99 3701.66,3479.36C3625.74,3360.36 3546.42,3231.26 3455.16,3150.04ZM3254.59,3485.98L3521.39,3927.34L3057.93,3939.29C3038.79,3793.3 3093.41,3779.19 3254.59,3485.98ZM3719.38,3662.55C3659.5,3747.94 3601.57,3829.48 3572.49,3930.92L3748.99,3932.14C3753.98,3842.6 3750.06,3747.55 3719.38,3662.55ZM2500.14,3934.45L2657.47,3540.78C2773.27,3676.21 2835.22,3807.77 2785.04,3931.28L2500.14,3934.45ZM2295.58,3740.5C2291.77,3801.44 2297.54,3869.04 2304.03,3935.38L2426.37,3932.05C2394.76,3859.19 2350.34,3792.92 2295.58,3740.5ZM2531.72,4604.06C2559.06,4559.54 2608.77,4524 2704.66,4539.85L2784.62,3984.09L2308.61,3993.39L2404.68,4574.78C2464.9,4564.19 2510.82,4550.75 2531.72,4604.06ZM5952.71,4104.54C5996.75,4219.62 6049.93,4324.86 6119.5,4412.44C6173.38,4352.52 6209.94,4282.52 6199.86,4210.27C6148.66,4197.24 6115.65,4220.03 6090.22,4244.07C6101.7,4199.67 6098.78,4147.49 6084.45,4111.39L5952.71,4104.54ZM6083.83,4443.16L5926.95,4709.63L5711.82,4678.65L5589.44,4425.95L5841.2,4036.94C5925.39,4153.92 6000.2,4302.41 6083.83,4443.16ZM6107,4483.98L5978.33,4720.72L6074.63,4735.12L6133.54,4638.98L6135.65,4511.87L6107,4483.98ZM5533.09,4442.05L5342.99,4027.89L5096.48,4417.51L5187.28,4631.92L5230.13,4638.91L5261.41,4687.29L5303.62,4645.28L5386.53,4645.12L5533.09,4442.05ZM5039.38,4446.21C5085.1,4509.19 5117.78,4569.73 5119.31,4624.44L4895.82,4607.56C4897.26,4566.75 4960.76,4508.6 5039.38,4446.21ZM3037.31,3996.25C2992.72,4207.05 2960.53,4416.66 3015.89,4630.37L3448.51,4599.49C3647.8,4381.37 3744.2,4180.8 3730.87,3998.96C3559.13,3979.88 3392.95,3970.14 3271.95,4036.4L3233.25,3984.9L3037.31,3996.25ZM5795.08,4023.21C5647.58,3981.89 5504.59,3981.21 5363.18,3994.76L5564.99,4389.28L5795.08,4023.21ZM5558.75,4465.87C5599.16,4531.31 5635.41,4599.56 5665.86,4671.72C5588.04,4676.49 5510.9,4669.03 5434.36,4650.8L5558.75,4465.87ZM3711.21,6483.56C3879.31,6464.23 4050.42,6437.88 4196.82,6469.29L4164.33,7278.16L3999.01,7141.93C4024.23,7115.3 4062.07,7099.43 4110.39,7072.42L4146.9,6918.33C4152.93,6835.76 3990.46,6702.36 3883.29,6623.55L3788.3,6636.37C3729.53,6586.14 3696.79,6535.43 3711.21,6483.56ZM2922.6,6517.18C3007.43,6473.66 3191.44,6626.05 3118.46,6760.88C3003.69,6748.66 2939.93,6665.31 2922.6,6517.18ZM4240.57,6904.94L4376.1,7160.34L4213.45,7309.73L4240.57,6904.94ZM4250.12,6785.58L4358.66,6591.64L4256.02,6549.94L4250.12,6785.58ZM4258.57,6859.2L4412.37,7118.62L4543.53,6901.36C4537.51,6773.18 4498.85,6668.42 4385.36,6617.36L4258.57,6859.2ZM4616.48,6955.04L4510.91,7035.47C4538.96,6934.54 4585.65,6922.19 4616.48,6955.04ZM4980.85,6475.51L5406.94,6516.06C5378.99,6569.42 5336.25,6613.72 5284.1,6652.25C5223.17,6617.05 5218.75,6568.15 5143.24,6568.15C5035.09,6568.15 4990.66,6535.41 4980.85,6475.51ZM5637.19,6569.36C5506.74,6515.37 5400.81,6571.01 5310.48,6696.35L5440.55,6798.19C5506.85,6749.43 5523.82,6684.15 5514.46,6610.06C5569.96,6612.53 5614.24,6602.67 5637.19,6569.36ZM4340.38,6500.41C4587.43,6486.48 4881.86,6413.16 4999.7,6596.9C4959.99,6647.75 4890.76,6600.96 4811.76,6562.95C4753.81,6535.07 4783.31,6653.16 5022.23,6643.97L5185.18,6639.36C5225.08,6701.49 5247.93,6734.79 5302.12,6774.84C5365.98,6822.03 5383.04,6942.7 5320.9,6978.86C5312.66,6871.6 5274.1,6815.79 5230.49,6768.53C5249.64,6843.18 5254.05,6913.15 5227.52,6973.25L5108.61,6983.6C5165.17,6891.78 5094.28,6807.35 5008.16,6733.16C5062.5,6878.64 5054.97,6982.48 4845.02,6962.5C4751.44,6953.59 4673.68,6934.21 4603.07,6849.43C4641.69,6657.89 4507.73,6579.42 4340.38,6500.41ZM3478.36,6633.3C3537.24,6754.06 3647.94,6765.21 3827.45,6720.12C4058.95,6815.2 4090.45,6915.77 4063.7,7004.45C4043.64,6928.47 4008.88,6870.45 3958.74,6855.96C3997.36,6961.53 4001.17,7048.56 3842.83,7031.75C3863.67,6929.09 3815.51,6872.13 3742.57,6831.57C3764.2,6924.06 3781.04,7010.1 3725.91,7011.68C3525.24,7018.08 3399.63,6999.27 3352.67,6954.04C3295.4,6891.49 3287.43,6864.67 3217.48,6835.58C3240.02,6742.08 3242.45,6647.28 3177.21,6548.08C3270.93,6505.46 3368.51,6492.03 3483.9,6492.73C3499.03,6555.53 3519.42,6608.81 3591.35,6632.56C3636.78,6647.55 3611.81,6614.8 3574.23,6567.05C3550.2,6536.53 3549.97,6512.09 3576.06,6499.69C3629.04,6574.22 3686.99,6634.76 3760.01,6679.98C3669.53,6741.81 3573.84,6685.17 3478.36,6633.3ZM2032.46,3445.86C2014.81,3401.2 1997.36,3355.85 2002.35,3229.58C1977.93,3238.92 1957.36,3256.6 1937.68,3276.23C1934.97,3210.11 1965.28,3151.9 2019.74,3099.47C1995.18,3100.54 1971.81,3112.6 1948.73,3127.23C1981.48,3057.82 2016.01,3022.47 2059.35,2973.6C2014.7,2983.19 1974.23,3004.29 1935.09,3029.07C1966.15,2936.1 2016.47,2863.56 2095.1,2817.15C2256.4,2721.93 2462.3,2747.78 2608.28,3016.66C2559.94,3021.49 2558.17,3016.58 2490.09,3052.56C2390.8,3105.03 2236.14,3225.46 2174.65,3284.49C2105.72,3350.67 2117.09,3465.37 2144.72,3505.13C2037.88,3391.69 2066.52,3268.36 2164.89,3139.93C2056.22,3198.07 2024.26,3322.89 2032.46,3445.86ZM2208.51,3333.11C2146,3395.85 2158.11,3448.47 2235.81,3519.34L2208.51,3333.11ZM3711.32,3243.25C3617.23,3115.4 3649.82,3017.38 3677.68,2918.25C3671.69,3016 3685.17,3076.59 3713.69,3108.5C3716.31,3044.7 3730.52,2989.11 3748.88,2936.47C3716.31,2838.49 3742.98,2766.73 3775.5,2697.56C3767.81,2820.98 3781.91,2901.48 3835.11,2904.98L3941.16,2626.38C3875.26,2487.59 3886.32,2360.78 3918.97,2237.34C3952.29,2440.47 3983.36,2613.9 4064.37,2592.56C3999.47,2486.6 3991.71,2388.42 3998.76,2292.26C4015.71,2409.18 4056.88,2501.65 4120.36,2571.6C4084.13,2454.02 4093.18,2370.75 4121.15,2301.83C4119.72,2411.69 4135.44,2510.5 4175.06,2593.9C4155.14,2450.18 4167.64,2356.41 4215.75,2317.48C4223.59,2589.13 4278.54,2757.32 4411.83,2753.43C4375.07,2685.87 4369.19,2631.01 4375.16,2581.03C4454.39,2732.76 4566.2,2842.07 4713.81,2904.8C4632.93,2747.33 4767.05,2858.5 4897.86,2965.54C4845.96,2816.66 5025.2,2969.11 5127.26,3134.56C4967.06,2985.26 4933.05,2999.11 4962.87,3095.49C4766.96,2880.06 4722.87,2888.68 4763.4,3022.18C4447.1,2767.34 4333.66,2714.28 4497.69,2937.17C4188.04,2632.87 4016.38,2591.39 3945.6,2742.09C4084.88,2715.68 4149.51,2742.31 4196.69,2781.33C4116.1,2753.87 4045.92,2761.26 3981.54,2788.05C4049.41,2785.98 4100.92,2799.46 4132.69,2831.71C4015.07,2809.33 3957.54,2832.7 3907.91,2862.08C3996.01,2845.78 4043.1,2856.81 4065.97,2883.97C3992.37,2874.44 3937.04,2895.18 3894.82,2937.64C3883.51,2967.61 3885.21,2996.32 3895.81,3024.16C3860.76,3016.94 3825.7,2994.72 3790.64,2969C3729.1,3102.8 3779.96,3450.47 3821.65,3653.35C3848.14,3782.28 3833.28,3779.47 3828.87,3879.64C3816.74,4155.25 3734.99,4390.11 3529.64,4582.5L3566.23,4585.4L3786.48,4339L3616.97,4583.69L3650.68,4583.22L3800.41,4412.39L3703.67,4578.42L3741.75,4579.8L3826.9,4496.7L3811.26,4576.19C4131.87,4562.14 4460.62,4581.97 4791.14,4609.22C4818.08,4532.9 4873.23,4528.81 4938.25,4448.01C4968.12,4410.89 4981.12,4288.11 4992.07,4195.68C5014.15,4238.15 5024.88,4281.18 5025.98,4324.69C5054.92,4254.62 5041.72,4147.76 5014.39,4028.56C5059.44,4089.73 5080.86,4161.78 5077.98,4261.54C5123.79,4193.16 5132.72,4047.33 5062.8,3996.88C4872.48,3973.56 4711.87,4065.86 4539.35,4180C4525.57,4052.89 4630.73,3962.3 4819.02,3897.24C4755.27,3949.62 4699.14,3998.58 4654.15,4042.55C4697.65,4041.09 4825.93,3968 4980.33,3872.84C5094.29,3802.61 5242.27,3791.43 5338.35,3863.09C5207.47,3857.99 5081.86,3868 4976.53,3936.21C5122.65,3973.39 5347.45,3920.89 5633.91,3909.68C5750.4,3905.12 5875.58,3940.23 5919.44,4024.16L6132.71,4080.99C6190.48,4030.69 6165.52,3953.05 6133.69,3873.13C6188.79,3909.65 6232.64,3966.67 6225.08,4117.4C6335.81,4082.46 6370.17,3995.85 6328.17,3857.58C6366.57,3903.53 6391.36,3975.09 6391.71,4092.6C6499.05,3962.62 6529.52,3835 6263.28,3628.45C5841.03,3667.6 5379.88,3570.99 4777.14,3373.21C4740.29,3303.52 4681.07,3220.75 4612.1,3132.26C4709.93,3191.88 4771.15,3312.29 4881.7,3354.93C4854.31,3297.63 4816.89,3240.74 4778.75,3183.88C4869.49,3290.09 4957.76,3385.81 5022.3,3380.62C4980.64,3302.82 4907.67,3218.07 4836.51,3133.72C4941.88,3220.53 5023.87,3311.37 5077.96,3407.96C5183.4,3480.51 5154.1,3412.91 4990.06,3205.17C5069.13,3266.19 5115.73,3310.06 5181.49,3403.45C5218.29,3442.12 5263.25,3470.09 5316.76,3486.82C5296.67,3150.86 5043.93,2880.96 4808.72,2775.66C4997.56,2811.73 5196.91,2976.52 5356.39,3254.19C5332.56,3001.08 5183.99,2782.25 4829.41,2620.05C4961.4,2658.38 5097.51,2698.48 5222.12,2780.45C5118.7,2662.64 5057.26,2559.04 4724.9,2548.77C4401.54,2434.89 4313.94,2269.31 4358.15,2093.74L4244.07,2214.04C4252.85,2168.84 4271.59,2126.29 4309.99,2088.98C4177.84,2096.71 4168.94,1973.35 4219.25,1809.52C4168.31,1871.36 4127.1,1950.61 4093.38,2043.3C4095.05,1989.7 4100.41,1934.8 4127.94,1871.96C4060.99,1870.11 4044.12,1912.08 4013.02,1971.4L4017.95,1863.51C3965.49,1847.89 3944.1,1885.86 3914.06,1931.61C3925.59,1775.91 3882.19,1779.63 3809.88,1867.2C3824.9,1766.16 3918.4,1683.92 3855.31,1658.37L3884.78,1573.59C3887.58,1419.24 3894.43,1435.52 4039.52,1445.85C4132.09,1452.44 4007.93,1366.24 3942.24,1342.51C3865.64,1314.84 3878.89,1252.66 4017.54,1327.55C4140.19,1376.77 4314.98,1358.39 4114.94,1273.35C4057.64,1248.99 4076.79,1195.62 4160.89,1252.74C4235.14,1306.06 4305.91,1335.83 4365.79,1291.94C4331.7,1269.64 4286.23,1219.99 4270.36,1187.67C4324.8,1241.7 4571.14,1311.24 4620.54,1301.92C4583.44,1316.75 4528.24,1322.6 4460.66,1322.3C4419.92,1322.12 4412.92,1315.07 4367.49,1353.38C4289.41,1344.04 4217.94,1373.39 4149.47,1420.35C4026.55,1504.63 4098.82,1579.57 4298.43,1606.45C4164.31,1651.02 4101.4,1616.31 4030.15,1494.61C3995.23,1434.98 3933.59,1503.58 3927.25,1578.69C3949.77,1641.65 3962.68,1702.11 3908.41,1745.08C3876.52,1818.91 3954.5,1788.5 3999.89,1727.55C4006.48,1718.7 3999.57,1779.49 3999.57,1779.49C4002.48,1852.16 4033.35,1814.38 4104.16,1717.14C4163.04,1651.83 4180.69,1649.44 4128.44,1753.69C4057.87,1894.51 4151.95,1800.8 4217.11,1739.44C4250.83,1707.69 4278.35,1733.59 4265.44,1856.43C4245.48,2046.28 4273.82,2112.16 4422.13,1987.81C4439.37,2029.48 4421.62,2033.7 4401.68,2091.1C4356.29,2286.21 4496.78,2409.47 4732.22,2510.34C4845.89,2459.98 4975.21,2408.91 5097.34,2376.81C5097.34,2324.01 5113.15,2257.07 5144.85,2183.46C4889.57,2247.67 4678.24,2295.2 4679.64,2050.12C4680.47,1905.22 4729.41,1773.66 4968.11,1897.23C5073.55,1951.81 5269.21,1875.16 5240.64,1658.09C5222.76,1637.21 5188.51,1627.75 5111.61,1648.03C5168.2,1605.5 5207.32,1536.33 5239.88,1487.42C5146.23,1474.67 5026.29,1433.38 4915.65,1418.48C4888.25,1317.23 4807.28,1309.76 4744.13,1294.54C4669.43,1276.53 4628.68,1219.42 4575.74,1138.54L4399.21,1067.02L4441.27,1171.01C4307.24,1089.18 4140.39,1057.23 3941.49,1073.99C4017.68,1094.44 4081.59,1120.08 4107.07,1161.95C3915.2,1130.87 3746.17,1144.88 3610.51,1224.72C3699.65,1216.14 3769.56,1223.9 3799.12,1265.96C3604.1,1210.13 3518.37,1314.27 3393.54,1465.4C3536.11,1383.53 3671.09,1322.44 3777.71,1339.05C3417.7,1464.86 3229.6,1682.98 3181.42,1976.23C3247.82,1962.02 3336.83,1890.15 3430.11,1807.39C3371.73,1925.53 3260.26,2048.92 3107.46,2176.4C3228.3,2147.47 3382.69,1998.41 3468.55,1904.18C3573.28,1789.24 3725.12,1766.47 3768.69,1680.62C3798.94,1781.86 3512.87,1866.3 3345.41,2106.91C3295.01,2194.3 3215.99,2295.83 3128.5,2398.05C3168.25,2388.35 3187,2391.05 3226.26,2372.43C3218.24,2432.02 3175.73,2496.85 3116.79,2543.74C3284.5,2639.29 3424.78,2540.12 3551.83,2404.68C3534.7,2499.3 3474.13,2586.84 3283.88,2653.28C3343.38,2686.83 3418.96,2684.58 3516.91,2632.51C3530.9,2678.8 3462.85,2719.64 3331.5,2756.28C3342.6,2819.11 3368.32,2839.4 3403.22,2879.56C3424.12,2819.46 3458.25,2769.15 3514.79,2735.44C3473.94,2819.51 3452.02,2912.46 3469.85,3024.04L3530.27,3115.3C3492.92,2950.14 3525.12,2783.33 3656.85,2614.17C3462.76,3067.16 3589.12,3264.49 3727.96,3413.03L3711.32,3243.25ZM5105.09,3993.17C5138.92,4035.12 5154.38,4110.44 5157.99,4199.49C5208.39,4125.77 5196.54,3984.49 5105.09,3993.17ZM5389.96,3064.4C5414.8,3153.87 5428.36,3238.39 5432.03,3318.55L5388.58,3303.82C5405.84,3416.47 5430.14,3514.85 5496.76,3527.39C5498.22,3479.28 5510.78,3437.98 5535.36,3405.02C5528.03,3470.84 5537.92,3522.43 5581.87,3545.91C5570.83,3472.03 5572.05,3404.36 5607.42,3353.98C5601.26,3440.21 5607.24,3514.01 5647.04,3553.22C5641.51,3449.68 5651.48,3353.52 5697,3274.28C5683.7,3345.88 5682.56,3408.43 5699.19,3457.77C5757.37,3329.87 5801.2,3134.84 5838.93,2913.12L5790.22,2904.15C5893,2662.14 5976.34,2603.75 6064.04,2559C6064.75,2410.28 6132.55,2335.44 6182.92,2212.5C6220.91,2119.79 6074.7,2221.99 6019.91,2119.56C6070.37,2083.41 6140.82,2082.61 6223.97,2104.29C6304.38,1907.95 6211.97,1899.48 6064.34,1951.04C6069.31,1900.27 6108.3,1872 6184.68,1868.44C6201.82,1767.61 6075.63,1823.96 6003.22,1864.28C5928.07,1906.12 5909.34,1870.86 5842.03,2004.78C5762.17,2143.6 5729.63,2287.89 5760.06,2439.48C5639.15,2651.84 5520.25,2867.52 5389.96,3064.4ZM2191.55,2517.98L2275.64,2701.68L2202.59,2704.49L2191.55,2517.98ZM2800.71,4500.81C2790.91,4579.19 2783.7,4639.32 2812.8,4645.8C2852.14,4654.56 2830.97,4544.88 2800.71,4500.81ZM2873.71,4177.14L2821.45,4217.9C2973.58,3641 2899.81,3204.68 2502.15,3092.63C2552.93,3060.14 2590.86,3048.99 2639.07,3041C3070.7,3224.76 3058.98,3791.55 2952.95,4217.76C2906.49,4404.51 2906.65,4516.97 2966.48,4644.85L2890.7,4649.14C2805.21,4546.15 2806.77,4377.76 2873.71,4177.14ZM5231.13,1883.07C5225.44,1942.14 5199.59,1991.4 5153.02,2035.04C5154.55,2004.62 5155.92,1984.87 5140.32,1962.34C5168.75,1946.14 5199.56,1916.72 5231.13,1883.07ZM5005.07,2043.22C5015.05,2085.51 5013.03,2126.38 4970.61,2162.48C5002.89,2160.92 5036.16,2167.26 5074.31,2154.13C5080.66,2105.25 5047.01,2072.56 5005.07,2043.22ZM5066.08,2061.13C5087.1,2032.41 5098.59,2003.92 5101.4,1975.62C5063.8,1996.31 5028.51,1997.97 4993.77,1995.2C5021.26,2014.33 5054.11,2032.04 5066.08,2061.13ZM5102.79,2051.01C5120.18,2093.25 5123.14,2133.92 5101.63,2171.92L5161.03,2159.02C5155.87,2117.57 5139.71,2070.83 5102.79,2051.01Z" class="color000 svgShape colorfff"></path></svg></svg></g></svg>