<svg id="SvgjsSvg1105" width="288" height="288" xmlns="http://www.w3.org/2000/svg" version="1.1" xmlns:xlink="http://www.w3.org/1999/xlink" xmlns:svgjs="http://svgjs.com/svgjs"><defs id="SvgjsDefs1106"></defs><g id="SvgjsG1107"><svg xmlns="http://www.w3.org/2000/svg" fill-rule="evenodd" stroke-linejoin="round" stroke-miterlimit="2" clip-rule="evenodd" viewBox="0 0 8334 8334" width="288" height="288"><path d="M1337.08,4900.67C1307.43,4906 1280.74,4919.38 1262.97,4930.48C914.415,5148.26 1013.79,5472.83 1350.28,5543.45C1353.2,5807.15 1350.34,6022.07 1336.63,6095.13C1492.1,6112.66 1648.14,6128.62 1815.55,6113.43C1874.24,6759.06 2211.23,7148.14 2828.14,7279.17C3472.7,7416.08 4059.57,7621.85 4257.98,8150.34C4486.27,7733.13 4893.59,7428.8 5552.8,7300.76C5576.88,7207 5586.15,7210.97 5677.47,7265.99C6323.17,7077.63 6644.1,6686.16 6621.65,6079.94C6575.85,6037.48 6572.72,5992.1 6636.73,5942.13C6565.02,5563.12 6539.44,5178.73 6568.98,4787.93C6746.87,4847.56 6802.03,4961.5 6716.94,5373.92C6645.68,5719.27 7161.67,5707.29 7225.27,5401.51C7256.06,5253.45 7184.07,4990.16 7123.55,4673.96C7072.83,4409 7164.6,4109.12 7288.3,3836.05C7242.49,3563.16 6947.85,3378.31 6628.23,3224.18L6611.62,3064.96C6544.51,3041.08 6565.68,3009.44 6617.06,2961.86C6652.65,2651.19 6752.07,2266.36 6860.65,1862.84C6306.49,1846.8 6302.55,1315.24 6498.87,1033.87L5724.33,759.907C5648.21,849.938 5612,842.952 5588.92,731.311C5377.6,678.815 5170,647.977 4931.28,615.147L4978.84,466.503C4595.3,609.758 4343.9,498.241 4198.16,182.997C4008.95,463.669 3739.55,577.621 3384.59,513.747L3438.92,645.908C3290.6,647.543 3145.78,673.733 3007.26,743.976C2653.61,784.334 2252.95,933.035 1864.71,1110.86C2081,1504.58 2031.36,1849.11 1560.85,1945.43C1633.51,2091.31 1686.43,2235.74 1725.55,2379.17C1785.54,2375.92 1808.18,2412.8 1739.81,2481.17C1820.38,2974.29 1833.08,3419.25 1837.49,3857.44C1746.44,3926.66 1710.5,4029.54 1689.27,4117.57C1551.73,4158.62 1428.76,4136.57 1304.88,4128.9C1312.03,4244.28 1326.48,4554.01 1337.08,4900.67ZM7018.54,5138.77C6982.22,4970.74 6910.64,4875.9 6783.05,4941.66C6782.75,4973.45 6834.53,4953.38 6886.36,4964.62C6856.36,4981.06 6819.02,4986.78 6811.27,5020.03C6813.11,5056.81 6810.47,5051.8 6860.12,5012.55C6888.63,5005.23 6912.79,5005.24 6923.32,5024.07C6895.39,5047.92 6862.52,5067.95 6825.16,5084.5C6793.06,5130.34 6802.53,5136.45 6860.78,5111.44C6909.93,5090.33 6973.39,5112.21 7018.54,5138.77ZM6922.54,5157.65C6946.19,5151.89 7108.8,5219.79 6930.99,5377.6C6919.42,5314.9 6918.45,5239.34 6922.54,5157.65ZM6824.03,5244.1C6843.04,5248.86 6861.26,5248.94 6878.62,5243.86C6896.03,5220.93 6886.59,5202.4 6852.53,5189.35C6840.19,5211.18 6827.74,5226.36 6824.03,5244.1ZM6791.82,5267.46C6823.28,5271.25 6854.97,5278.98 6887.17,5302.68C6888.98,5373.95 6854.85,5375.92 6783.05,5300.17C6777.98,5285.35 6781.73,5274.85 6791.82,5267.46ZM6868.63,5433.59C6880.26,5456.98 7060.57,5363.59 7178.57,5303.42C7155.54,5357.14 7107.77,5415.6 7044.31,5443.16C6996.53,5463.92 6953.16,5477.06 6926.42,5499.9C6965.88,5511.64 7015.57,5510.64 7043.16,5489.52C7092.33,5451.89 7120.42,5430.07 7110.02,5467.29C7090.59,5536.83 7026.2,5562.69 6907.54,5557.77C6819.08,5554.1 6791.01,5536.54 6797.64,5496.13C6886.2,5504.21 6886.42,5476.51 6844.76,5466.09C6790.63,5452.56 6738.42,5439.96 6755.48,5377.6C6805.17,5361.37 6842.52,5381.11 6868.63,5433.59ZM7153.76,5196.54C7101.01,5207.2 7053.5,5229.97 7034.9,5319.44C7087.87,5326.52 7123.73,5272.03 7153.76,5196.54ZM5741.39,6259.02L5958.2,6495.31C6016.91,6420.05 6045.82,6311.29 6058.69,6200.41C5924.47,6194.55 5800.86,6207.2 5741.39,6259.02ZM5396.34,6746.73C5497.4,6736.85 5598.85,6717.28 5664.16,6665.27L5448.45,6400.98C5352.31,6391.46 5261.05,6417.42 5185.75,6457.57L5396.34,6746.73ZM5072.26,6851.21L4810.24,6485.17C4509.41,6483.89 4489.73,6356.56 4628.18,6213.55C4523.44,6054.16 4410.33,6006.28 4342.14,6161.94C4490.67,6404.24 4657.51,6647.58 4865.05,6893.25L5072.26,6851.21ZM4260.86,6611.15C4400.13,6826.21 4693.18,7013.36 4485.63,7096.85L4380.27,7146.35C4281.47,7045.99 4247.42,6852.33 4260.86,6611.15ZM5980.1,5090.93L5959.48,4813.91L5793.62,4815.44C5850.23,4919.75 5910.01,5016.92 5980.1,5090.93ZM5463.99,4917.25C5483.24,4967.66 5536.72,5059.68 5569.03,5038.07C5602.67,5029.02 5526.95,4925.9 5463.99,4917.25ZM5502.46,4868.99C5535.44,4901.43 5584,4954.01 5597.88,4945.57C5627.98,4927.27 5552.92,4874.47 5502.46,4868.99ZM5896.99,6140.93C5883.74,6110.78 5980.13,6091.61 6052.92,6095.53C6018.43,6118.16 5900.73,6149.44 5896.99,6140.93ZM4690.95,6261.06C4609.05,6259.05 4583.6,6356.56 4608.73,6371.44C4614.69,6374.97 4739.94,6262.27 4690.95,6261.06ZM4761.9,6406.79C4797.59,6365.57 4866.66,6297.21 4835.99,6289.42C4796.02,6279.27 4749.83,6354.68 4761.9,6406.79ZM4965.88,6330.23C4933.45,6303.27 4888.07,6391.1 4885.46,6451.48C4937.02,6417.47 4993.31,6353.03 4965.88,6330.23ZM5151.94,6353.26C5117.91,6324.15 5051.78,6426.72 5056.69,6484.23C5096.14,6448.32 5173.81,6371.97 5151.94,6353.26ZM4062.34,1257.03C4104.53,1296.27 4129.64,1338.04 4162.72,1403.14L4171.15,1686.37C4057.38,1551.1 3948.02,1411.27 3844.31,1265.58L4062.34,1257.03ZM3438.07,1263.98C3667.3,1622.33 3902.51,1971.67 4166.53,2277.57L4174.3,2509.83C4118.89,2519.93 4044.52,2469.37 4036.51,2381.64C4024.41,2249.29 3925.54,2193.01 3817.17,2125.52C3827.5,1941.9 3733.61,1814.05 3618.09,1697.78C3569.95,1723.61 3532.19,1758.77 3506.66,1804.89C3379.53,1669.13 3254.49,1500.17 3163.06,1311.13C3241.6,1286.35 3341.81,1275.23 3438.07,1263.98ZM2767.53,1412.5C2937.74,1603.06 3093.93,1807.03 3226.35,2033.76L3014.61,2111.19C2861.29,1928.94 2712.55,1713.24 2554.73,1469.72C2631,1467.77 2696.44,1446.37 2767.53,1412.5ZM2512.68,1992.28C2491.69,2131.85 2486.57,2283.22 2497.51,2422.04C2438.6,2355.8 2387.48,2282.65 2343.44,2203.2L2463.51,1975.98L2512.68,1992.28ZM2374.74,2872.84L2776.8,3386.53L2666.97,3601.49C2444,3400.4 2356.42,3277.64 2374.74,2872.84ZM3967.03,3329.43C3943.72,3286.65 3935.91,3254.14 3946.8,3234.03C3978.01,3270.87 4003.78,3284.45 4025.83,3282.11C3945.65,3186.82 4076.68,3204.17 4131.59,3182.86C4137.35,3130.28 4182.07,3102.15 4251.56,3089.57C4318.01,3011.28 4376.52,2916.2 4351.73,2884.44C4295.11,2811.88 4246.94,2792.99 4231,2735.75C4295.54,2755.67 4393.38,2797.04 4399.02,2835.89C4406.74,2889.01 4440.64,2931.66 4481.74,2971.43C4475.1,3002.86 4475.22,3033.56 4492.98,3062.37C4556.51,3248.28 4673.73,3258.4 4625.94,3201.61C4557.48,3120.25 4529.51,3064.93 4560.75,3047.67C4539.5,2997.94 4504.82,2950.01 4459.79,2903.47C4477.93,2894.96 4496.9,2895.65 4516.71,2905.53C4424.47,2785.89 4296.85,2707.59 4162.48,2637.18C4490.19,2716.43 4802.28,2900.17 5033.72,3249.86C5036.9,3341.56 4823.58,3049.4 4594.81,2867C4716.41,2994.11 4836.09,3122.45 4917.91,3275.23C4834.53,3175.01 4752.72,3099.57 4671.92,3039.89C4745.69,3119.86 4813.56,3202.99 4847.77,3304.07C4806.26,3254.17 4755.47,3216.1 4696.98,3187.81C4741.02,3238.73 4776.34,3292.43 4782.3,3355.5C4757.83,3327.67 4726.88,3302.62 4683.12,3283.05C4714.25,3321.27 4732.13,3359.26 4723.83,3396.82C4650.09,3414.75 4574.29,3426.71 4497.34,3435.36C4453.9,3429.59 4422.37,3412.42 4395.4,3390.88L4395.31,3441.87C4336.67,3410.13 4275.75,3358.73 4214.51,3304.53C4245.48,3364.22 4300.35,3419.66 4349.18,3468.03C4321.15,3478.52 4287.32,3471.46 4248.19,3448.41C4252.31,3476.23 4272.3,3504.82 4293.11,3518.79C4213.54,3524.03 4098.23,3465.29 4022.98,3384.99C3983.81,3453.76 3877.59,3349.52 3851.24,3256.41C3838.34,3210.86 3861.02,3197.12 3889.54,3224.2C3916.34,3249.64 3911.25,3309.96 3967.03,3329.43ZM3516.43,2054.3C3601.97,2080.2 3683.74,2109.06 3753.68,2147.14C3768.22,1988.07 3716.75,1871.04 3607.28,1790.95C3598.95,1895.48 3573.74,1987.12 3516.43,2054.3ZM3782.75,2187.23C3802.35,2226.43 3821.16,2264.35 3837.87,2298.92C3907.87,2202.7 3830.07,2166.89 3782.75,2187.23ZM3956.68,2331.94C3947.24,2304.67 3932.41,2276.75 3890.7,2266.23C3816.63,2333.77 3812.62,2416.11 3889.18,2457.22C3880.43,2392.38 3889.14,2340.44 3956.68,2331.94ZM5461.43,7150.17C5531.92,7133.88 5607.33,7139.15 5685.98,7158.64C5740.98,7098.09 5813.08,7038.09 5897.7,6978.49C5987.04,6943.61 6079.79,6931.75 6174.27,6931.53C6203.74,6829.67 6250.29,6724.07 6299.28,6617.94C6356.48,6526.06 6431.27,6443.77 6542.41,6365.08C6478.23,6279.28 6449.33,6187.01 6435.49,6080.51C6449.12,5975.38 6487.66,5874.39 6549.96,5777.35C6480.9,5679 6418.37,5599.17 6393.14,5527.6C6408.96,5413.46 6435.78,5324.16 6486.18,5247.67C6306.36,5075.96 6292.59,4825.98 6388.47,4831.16C6467.2,4835.41 6504.97,4888.26 6506.57,4999.72L6597.94,5935.22C6585.02,5965.86 6554.35,5982.45 6510.93,5988.94C6551.04,6009.54 6574.78,6041.09 6586.77,6080.51C6595.65,6371.81 6506.87,6616.15 6354.56,6829.93C6180.82,6989.66 5972.5,7143.92 5710.03,7220.31C5573.31,7173.77 5508.14,7191.85 5505.38,7272.29C5096.44,7307.71 4365.81,7734.01 4265.81,8085.76C4086.95,7703.4 3754.95,7508.72 3321.12,7380.98C2999.98,7286.41 2642.95,7213.73 2390.18,7079.38C2154.19,6953.96 1986.34,6727.39 1894.66,6387.74C1859.17,6233.2 1945.72,6081.27 2015.72,6199.62C2041.9,6243.89 1993.41,6355.41 1942.12,6418.65C2042.86,6480.36 2133.49,6568.89 2213.52,6685.53C2273.02,6766.89 2283.63,6867.86 2287.23,6966.85C2408.53,6956.42 2517.39,6974.26 2624.41,7006.76C2703.44,7052.67 2771.12,7111.12 2825.99,7180.49L3048.77,7170.87C3116.81,7202.65 3195.76,7258.01 3255.51,7324.94C3352.51,7318.81 3445.95,7303.65 3537.04,7282.55C3602.69,7323.84 3676.75,7409.01 3755.78,7520.07L3975.38,7539.81C4116.51,7639.41 4198.15,7774.85 4244.14,7922.95C4303.49,7786.84 4392.89,7656.25 4500.02,7528.91C4602.28,7505.92 4702.19,7494.26 4798.4,7500.42C4835.06,7410.79 4883.97,7333.04 4952.13,7273.99C5056.01,7248.88 5168.06,7274.29 5258.4,7316C5312.11,7253.14 5374.58,7195.04 5461.43,7150.17ZM2348.93,6183.67C2382.69,6572.64 2889.85,6893.16 3568.5,6970.78C3626.61,7123.42 3634.63,7049.88 3703.13,7015.24C3949.72,7095.68 4108.09,7232.61 4242.19,7385.08C4420.87,7181.09 4714.1,7017.99 4954.5,6938.86C5075.45,6899.05 5127.37,6897.1 5162.88,6947.5C5173,6889.64 5250.96,6854.54 5383.17,6837.64C5754.68,6773.94 6024.26,6611.44 6082.39,6390.42C6154.14,6117.63 6133.73,5862.2 6111.12,5607.19C6117.3,5570.07 6136.9,5542.48 6167.61,5522.78C6106.62,5502.09 6086.39,5470.29 6074.93,5382.97C6043.87,5146.38 6029.4,4823.94 6069.18,4831.08L6129.95,5356.56L6141.56,4799.59C6291.85,4864.48 6337.03,5124.27 6184.44,5258.3C6249.31,5320.82 6290.74,5385.21 6320.91,5481.29C6366.4,5626.08 6309.57,5750.47 6213.88,5802.61C6299.01,5871.51 6368.52,5951.76 6371.18,6080.51C6373.48,6191.81 6305.17,6277.13 6184.31,6337.56C6254.08,6408.46 6277.14,6501.04 6253.5,6615.3C6193.11,6668.26 6110.21,6689.34 6009.3,6684.93C5990.25,6785.89 5957.02,6880.82 5872.23,6953.85C5826.23,6970.88 5747.45,6925.25 5647.18,6871.68C5595.33,6947.9 5540.88,7031.34 5464,7085.64C5387.81,7090.48 5298.26,7062.28 5205.03,7024.99C5134.11,7096.96 5051.27,7165.31 4937.35,7224.25C4855.49,7242.63 4764.95,7231.83 4671.44,7211.08C4567.13,7369.11 4519.52,7524.85 4281.66,7541.48C4404.52,7296.07 4696.53,7148.49 5019.26,7018.69C5067.67,6999.22 5045.59,6965.83 4959.48,6994.63C4761.83,7060.72 4530.9,7141.4 4242.19,7459.76C4226.91,7476.6 4213.96,7467.26 4203.46,7452.66C4092.18,7297.97 3928.22,7166.62 3736.92,7092.1C3706.93,7080.42 3714.29,7125.99 3807.9,7162.86C3914.77,7204.94 4114.79,7349.05 4198.2,7537.43L4006.81,7528.47C3949.65,7436.25 3896.55,7337.18 3845.77,7234.19C3754.56,7255.79 3652.87,7259.72 3545.58,7254.2C3467.08,7193.94 3395.35,7126.48 3335.76,7046.07C3275.91,7084.71 3204.64,7115.91 3084.51,7115.29C2987.55,7091.01 2918.9,7032.62 2884.4,6933.07C2812.14,6955.69 2728.92,6960.03 2632.8,6942.85C2552.44,6873.19 2499.88,6778.99 2477.69,6677.97C2382.15,6677.97 2286.26,6673.4 2223.35,6598.03C2195.05,6488.12 2207.72,6392.55 2267.01,6313.28C2184.26,6286.13 2121.33,6237.38 2110.69,6163.94L2257.93,6162.91C2294.06,6345.85 2355.89,6491.69 2460.46,6575.82C2387.23,6465.42 2345.32,6345.44 2318.8,6220.76C2302.47,6144 2344.7,6135.02 2348.93,6183.67ZM6401.47,3167.69L6570.71,3181.24L6574.01,3099.5L6519.15,3019.49L6575.19,2946.32C6591.85,2622.28 6700.88,2245.96 6788.05,1935.95L6520.32,2137.02C6515.59,2231.5 6548.36,2332.53 6610.59,2406.18C6545.39,2489.58 6489.13,2575.72 6461.88,2670.72C6465.62,2743.49 6491.34,2825.93 6537.3,2917.29L6401.47,3167.69ZM6342.26,3156.16C6335.68,3078.53 6298.78,3009.3 6239.9,2937.67C6309.43,2870.83 6359.02,2777.17 6403.44,2676.55C6414.84,2572.96 6394.23,2478.54 6329.85,2396.69C6409.65,2330.82 6449.44,2256.22 6451.06,2173.29C6231.98,2159.94 6045.74,2705.68 6158.65,2872.14C6190.91,2659.26 6205.8,2453.21 6291.29,2322.14C6255.79,2502.44 6225.24,2682 6199.86,2860.78C6133.06,2965.66 6094.28,3046.4 6106.95,3138.87L6142.29,3139.76C6146.17,3088.79 6163.38,3036.31 6185.16,2971.41C6187.18,3029.77 6191.61,3092.68 6213.51,3141.01L6342.26,3156.16ZM3958.91,2452.31C4005.94,2449.89 4025,2467.23 4016.09,2504.31C3984.54,2545.68 3940.98,2503.37 3958.91,2452.31ZM3102.61,2473.79C3085.91,2649.17 3125.77,2778.23 3218.63,2863.85C2995.78,2815.85 3074.93,3027.08 3173.79,3142.99L3182.85,3098.56C3220.88,3143.91 3267.19,3196.45 3317.6,3236.18C3406.12,3211.69 3492.34,3219.23 3573.72,3293.98C3666.03,3232.66 3791.66,3195.78 3761.49,3165.15C3608.48,3121.7 3536.89,3055.22 3593.7,3061.71C3633.06,3066.21 3660.42,3089.84 3697.99,3105.92C3766.4,3135.18 3845.77,3155.58 3896.56,3133.6C3847.85,3101.07 3805.32,3050.73 3801.66,3010.8C3794.48,2932.45 3791.97,2899.12 3741.22,2916.98C3647.83,2949.85 3558.45,2935.38 3497.38,2887.69C3440.13,2842.99 3464.91,2806.99 3496.55,2834.94C3536.89,2870.56 3559.68,2886.61 3591.14,2883.56C3493.15,2760.65 3474.69,2777.86 3363.68,2777.99C3336.69,2742.61 3329.51,2713.36 3332.74,2687.34C3395.6,2723.16 3454.78,2753.98 3534.65,2747.08C3604.75,2737.41 3590.05,2668.49 3555.38,2684.02C3461.81,2725.92 3426.26,2721.06 3362.1,2660.18C3437.93,2532.61 3475.3,2578.72 3567.78,2659.34C3620.96,2682.43 3592.26,2631.13 3528.99,2554.9C3430.55,2474.45 3407.08,2596.89 3293.44,2648.34C3188.87,2695.68 3217.89,2556.59 3343.31,2510.12C3320.39,2536.81 3292.47,2574.57 3292.07,2598.05C3335.89,2582.83 3381.58,2537.84 3394.87,2478.88C3398.94,2460.83 3432.61,2461.85 3457.62,2488.54C3479.83,2512.23 3527.98,2524.01 3560.91,2518.03C3497.63,2416.95 3299.58,2351.86 3091.24,2309.01C3019.79,2294.32 2974.61,2298.45 2895.56,2303.78C2911.74,2326.21 2936.49,2341.26 2965.66,2358.84C2812.41,2376.53 2724.55,2354.98 2726.1,2279.73C2780.12,2327.47 2861.09,2303.73 2791.29,2247.39C2717.29,2178.54 2639.45,2129.22 2553.55,2120.92C2534.62,2345.68 2542.18,2557.87 2690.26,2703.31C2694.87,2633.12 2727.74,2641.68 2732.51,2751.09C2814.01,2683.5 2882.33,2583.13 2937.77,2475.79C2983.89,2493.1 3037.88,2494.39 3102.61,2473.79ZM3570.11,3746.92C3560.55,3771.69 3599.5,3782.38 3615.14,3748.18C3628.6,3718.77 3648.62,3690.98 3661.17,3713.16C3660.9,3748.05 3664.19,3767.98 3698.56,3754.92C3868.78,3690.24 4103.13,3621.47 4061.07,3582.69C4014.23,3585.37 3965.7,3583.36 3936.95,3562.83C4076.64,3561.07 4084.11,3439.92 4017.66,3472.54C3962.29,3499.72 3936.89,3510.51 3886.52,3507.21C3925.99,3485.01 3960.37,3462.05 3943.34,3431.26C3902.41,3426.61 3868.04,3445.05 3835.03,3468.28C3856.57,3434.43 3879.7,3400.07 3855.93,3369.55C3783.72,3328.46 3700.65,3334.11 3616.16,3345.9C3588.88,3398.21 3556.23,3387.75 3469.6,3362.3C3353.15,3430.34 3293.24,3501.68 3253.53,3566.17C3334.08,3555.76 3306.28,3582.38 3236.91,3623.22C3274.49,3638.76 3299.7,3659.55 3297.94,3689.93C3355.49,3634.02 3439.5,3595.12 3424.07,3668.84C3407.85,3746.39 3421.58,3859.51 3493.17,3691.96C3513.74,3643.84 3603.95,3659.26 3570.11,3746.92ZM3220.62,3663.81C3174.3,3651.67 3118.12,3819.12 3161.04,3914.37C3207.66,3823.4 3276.62,3678.48 3220.62,3663.81ZM3369,3683.17C3293.12,3688.96 3282.8,3789.53 3327.91,3852.3C3351.97,3793.55 3399.98,3680.81 3369,3683.17ZM3539.63,3709.43C3506.61,3702.9 3465.72,3801.92 3476.89,3850.63C3515.77,3808.47 3578.41,3717.09 3539.63,3709.43ZM1857.4,3977.93C1816.06,4005.02 1779.36,4043.19 1748.55,4075.99C1751.18,4038.41 1784.68,4003.14 1817.68,3982.58L1780.12,3993.6C1794.82,3961.25 1816.71,3942.47 1844.56,3934.94C1906.73,3925.97 1948.75,3908.15 1990.55,3872.39C2040.09,3814.59 2060.55,3800.08 2098.13,3814.59C2175.06,3839.81 2189.32,3838.12 2225.74,3820.39C2375.75,3782.16 2505.31,3802.14 2625.94,3847.51C2734.43,3904.88 2832.75,3972.71 2921.81,4050.06C2882.93,4081.53 2830.36,4060.39 2771.28,4014.18C2786.92,4047.26 2795.41,4077.14 2791.79,4101.6C2767.42,4055.39 2745.29,4089.45 2712.26,4146.54C2655.79,4193.73 2648.25,4169.63 2649.57,4006.33C2650.34,3911.56 2566.18,3896.63 2484.44,4005.9C2464.84,4032.11 2448.95,4009.19 2409.75,3969.41C2372.01,3931.1 2330.6,3984.91 2291.25,4045.26C2266.63,4083.01 2263,4072.14 2274.87,3986C2218.8,3928.85 2141.94,3968.89 2093.25,4056.89C2085.22,3999.74 2060.43,3942.79 2028.38,3946.42C1983.55,3951.49 1956.59,3982.31 1926.42,4040.86C1911.23,3998.66 1884.64,3960.09 1857.4,3977.93ZM2197.62,3776.17C2239.42,3723.88 2269.1,3660.12 2287.22,3585.4L2323.66,3694.14C2358.73,3614.47 2302.7,2964.91 2295.4,2727.36C2182.99,2707.72 2191.25,2682.97 2254.9,2632.29C2245.3,2499.75 2239.82,2374.51 2194.8,2285.82C2166.15,2364.34 2195.46,2480.44 2205.39,2590.79C2168.56,2477.98 2135.93,2367.95 2105.01,2259.04C2027.08,2166.02 1918.13,2185.91 2011.78,2311.14C2037.17,2356.63 2074.44,2395.76 2116.81,2432.87C2068.62,2509.91 2044.11,2602.89 2054.2,2719.17C2083.72,2816.72 2136.46,2907.03 2224.38,2986.35C2158.91,3056.53 2106.89,3142.27 2102.81,3283.5C2115.08,3386.07 2159.08,3474.25 2247.27,3542.41C2171.85,3638.67 2113.56,3729.6 2197.62,3776.17ZM1937.32,3532.62C2034.32,3448.78 2057.67,3363.48 2039.96,3277.36C2034.53,3141.81 1976.14,3066.67 1894.66,3017.87C1979.58,2924.81 2002.45,2826.45 1990.74,2725.15C1978.31,2590.15 1912.4,2526.87 1836.4,2477.1C1910.21,2402.34 1941.26,2297.32 1922.33,2156.94C1819.65,2094.33 1722.95,2043.29 1631.69,2002.8C1681.28,2106.08 1721.79,2226.11 1754.41,2344.7L1851.47,2373.77L1781.57,2499.02C1840.14,2865.49 1899.59,3435.95 1895.33,3855.99C2107.48,3766.25 2063.46,3661.12 1937.32,3532.62ZM3449.89,569.413C3720.45,598.283 3984.31,558.851 4183.45,284.637C4308.01,491.397 4493.97,647.328 4901.57,550.475C4817.65,763.091 4727.35,974.71 4677.59,1197.51C4358.62,1152.95 4039.62,1156.93 3718.38,1229.41L3449.89,569.413ZM3969.45,2665.29C4154.79,2874.49 4190.61,2864.55 4217.66,2827.94C4056.71,2726.91 3900.33,2571.69 3746.32,2388.59C3626.05,2269.18 3495.97,2218.7 3360.27,2207.75C3357.57,2236.95 3376.5,2251.37 3425.52,2245.2C3419.6,2292.8 3491.22,2330.38 3508.32,2290.82C3566.09,2343.53 3611.06,2377.36 3683.06,2385.82C3758.08,2521.77 3850.4,2645.24 3969.45,2665.29ZM4031.57,2786.37C4072.37,2803.16 4096.78,2834.16 4104.8,2879.38C4076.69,2851.4 4052.28,2820.39 4031.57,2786.37ZM3586.45,2751.26C3596.52,2771.62 3599.65,2794.18 3591.03,2820.47C3542.52,2803.99 3546.57,2770.03 3586.45,2751.26ZM1764.2,4228.95C1740.35,4152.99 1804.02,4006.51 1868.06,4014.84C1933.91,4023.41 1823.07,4163.24 1764.2,4228.95ZM2012.27,3988.92C2076.47,3989.68 1992.53,4138.82 1930.36,4217.64C1928.22,4132.74 1964.15,3988.35 2012.27,3988.92ZM2097.3,4194.02C2098.64,4108.52 2138.02,3981.92 2213.25,3992.31C2283.36,4002 2171.52,4118.74 2097.3,4194.02ZM2748.03,2943.11C2715.16,2890.04 2662.95,2865.32 2612.67,2830.86C2631.62,2822.61 2662.54,2810.92 2687.41,2825.04C2671.26,2791.77 2649.77,2768.3 2622.92,2754.62C2703.52,2749.27 2746.94,2795.67 2753.2,2893.83C2788.73,2856.94 2801.49,2905.98 2802.27,3000.23C2839.58,3042.58 2886.06,3079.97 2963.74,3137.7C2988.03,3190.18 3043.73,3232.12 3126.07,3265.13C3224.68,3323.05 3280.87,3393.23 3271.04,3474.17C3211.16,3404.42 3144.37,3355.96 3071.72,3325.57C3159.54,3407.03 3219.79,3486.22 3203.28,3559.05L3110.71,3484.57C3135.81,3567.37 3146.67,3645.17 3114.88,3740.62C3095.91,3825.9 3111.28,3899.16 3147.31,3965.19C3095.43,4035.92 2909.75,4026.17 2855.31,3894.15L2804.73,3891.09C2828.99,3864.9 2845.66,3828.51 2834.7,3796.42L2762.02,3838.4C2786.62,3806.55 2804.41,3763.43 2801.52,3732.74C2777.87,3756.59 2748.58,3777.18 2711.04,3793.02C2758.79,3742.59 2796.54,3689.03 2803.06,3625.68C2771.17,3662.34 2734.04,3694.55 2681.27,3713.52C2685.57,3649.41 2743.74,3601.4 2814.5,3557.16C2850.98,3534.35 2863.18,3505.92 2876.3,3477.32C2853.79,3493.14 2830.47,3507.93 2793.28,3509.9C2753.48,3512 2881.42,3433.48 2944.52,3360.46C2912.8,3381.72 2884.05,3395.17 2845.41,3388.46C2814.74,3383.14 2867.96,3331.09 2903.27,3312.39C2875.52,3300.95 2844.67,3298.75 2805.74,3320.64C2774.93,3272.6 2816.07,3247.13 2962.39,3254.64C2902.13,3197.76 2824.75,3162.5 2738.23,3138.78C2740.62,3106.76 2765.54,3093.43 2805.9,3092.9C2797.13,3074.1 2777.36,3059.29 2728.94,3054.85C2709.43,3017.53 2734.24,3009.31 2785.2,3018.28C2763.12,2990.38 2724.06,2975.07 2662.62,2957.84C2627.38,2947.96 2674.45,2919.94 2748.03,2943.11ZM5927.74,1435.6C5906.9,1839.74 5984.77,2132.41 6236.57,2228.66L6269.73,2188.93C5937.84,1985.89 5952.78,1699.81 6001.96,1405.54C5842.85,1317.81 5658.84,1271.14 5479.03,1217.56C5662.41,1246.87 5846.32,1287.8 6031.53,1357.38C6066.79,1318.5 6102.39,1286.81 6152.12,1248.21C6065,1238.77 5973.8,1256.1 5904.4,1288.98C5883.67,1173.77 5822.7,1101.39 5740.26,1051.88C5626.12,1043.52 5547.55,1103.52 5473.25,1171.76C5444.69,1070.36 5373.53,997.592 5267.09,948.548C5138.92,930.23 5062,987.312 4992.4,1055.16L4832.17,889.446L4796.51,1051.78C4931.84,1067.81 5029.47,1085.77 5102.12,1120.86C5000.01,1099.99 4901.86,1093.74 4807.5,1101.42L4785.57,1134.13C5172.99,1191.44 5570.38,1265.38 5927.74,1435.6ZM5545.43,769.674C5617.07,894.442 5641.6,902.606 5739.36,816.829C5971.02,883.528 6195.36,974.944 6423.27,1070.57L6218.26,1201.14C6105.02,1189.93 6058.69,1096.55 6013.09,984.43C5920.91,997.782 5835.28,1004.13 5755.08,1004.67C5657.59,994.109 5579.77,928.027 5513.55,829.182C5438.4,864.477 5363.34,886.969 5288.41,890.75C5201.52,903.768 5141.84,829.545 5043.98,709.481C4980.1,737.87 4927.6,746.766 4885.44,737.916L4921.87,658.873C5121.11,681.666 5327.19,716.551 5545.43,769.674ZM6272.14,1372.95C6286,1380.96 6259.55,1425.1 6250.37,1445.77C6188.01,1586.34 6233.78,1640.25 6350.27,1620.72C6314.36,1473.31 6323.79,1330.03 6357.54,1181.91C6256.08,1242.27 6150.69,1316.26 6040.55,1406.71C6008.88,1756.98 6013.97,2080.24 6346.86,2162.53C6496.52,2100.15 6629.43,2018.68 6736.23,1907.46C6595.62,1881.09 6488.34,1801.34 6399.22,1692.46C6321.26,1700.99 6270.7,1887.58 6492.11,1865.15C6621.72,1852.02 6492.25,2109.13 6282.28,2020.24C6232.17,1999.03 6218.86,1946.47 6191.92,1882.02C6157,1874.4 6124.84,1888.04 6093.74,1909.85C6056.61,1845.38 6075.84,1788.55 6110.58,1733.83C6045.3,1530.24 6120.45,1285.29 6272.14,1372.95ZM5161.49,5408.1C5111.32,5447.76 5010.18,5242.81 4961.36,5122.48C5044.56,5208.15 5187.37,5387.64 5161.49,5408.1ZM5045.01,5370.95C5087.8,5425.31 5191.48,5538.01 5176.44,5564.08C5157.54,5596.87 5058.28,5460.91 5045.01,5370.95ZM5509.74,5731.88C5564.45,5817.22 5579.32,6032.27 5530.81,6024.77C5497.37,6019.6 5512.25,5839.2 5509.74,5731.88ZM5453.68,5890.29C5483.5,5941.78 5464.41,6037.98 5433.02,6022.88C5406.51,6010.12 5431.9,5934 5453.68,5890.29ZM5228.86,6016.3C5224.61,5965.19 5181.7,5886.42 5161.16,5893.49C5127.9,5904.95 5175.57,5998.98 5228.86,6016.3ZM4678.07,5480.99C4738.64,5548.31 4776.9,5660.65 4735.14,5682.8C4693.89,5704.68 4685.95,5560.35 4678.07,5480.99ZM4479.27,5293.34C4578.16,5361.97 4667.88,5439.96 4619.26,5581.36C4608.85,5544.11 4596.66,5507.59 4572.02,5476.07L4551.86,5534.88C4502.75,5481.09 4483.82,5394.92 4479.27,5293.34ZM4398.29,5275.31C4439.97,5334.68 4490.95,5468.74 4457.13,5477.05C4409.21,5488.82 4406.53,5360.19 4398.29,5275.31ZM4365.47,5425.91C4334.36,5380.36 4308.75,5283.99 4335.02,5275.62C4370.88,5264.18 4376.14,5371.51 4365.47,5425.91ZM3998.64,6248.88C4146.08,6162.15 4267.4,6081.29 4313.21,5973.61C4330.59,5932.77 4291.06,5921.98 4274.46,5959.21C4227.59,6064.31 4015.89,6186.8 3998.64,6248.88ZM4229.92,5964.83C4208.21,6044.31 4141.3,6085.73 4056.76,6113.14C4107.81,6058.19 4171.52,6015.91 4229.92,5964.83ZM4030.94,5591.48C4059.34,5599.88 4086.71,5613.3 4115.66,5614.29C4077.96,5647.81 4051.62,5635.98 4030.94,5591.48ZM3950.74,5632.72C3963.36,5612.08 4052.67,5660.27 4105.62,5698.84C4047.34,5714.73 3931.25,5664.62 3950.74,5632.72ZM4019.68,5763.28C3968.72,5700.32 3857.83,5640.44 3840.73,5674.47C3816.86,5721.94 3959.1,5773.9 4019.68,5763.28ZM3718.5,5582.87C3770.42,5680.97 3833.13,5764.44 3917.81,5818.12C3858.53,5904.5 3631.29,5814.87 3655.22,5658.75C3695.77,5719.31 3737.98,5780.84 3808.41,5796.95C3727.97,5707.26 3707.47,5639.34 3718.5,5582.87ZM3748.02,5933.15C3720.57,5905.7 3648.91,5992.4 3621.84,6056.36C3685.43,6027.16 3773.92,5959.06 3748.02,5933.15ZM6196.18,5702.01C6205.52,6398.61 6181.71,6725.04 5274.86,6905.57C6032.8,6871.76 6323.8,6457.44 6196.18,5702.01ZM2555.56,6673.69C2822.22,6887.49 3120.99,7006.12 3508.27,7035.21C3159.25,6948.1 2868.07,6834.81 2555.56,6673.69ZM5643.49,2236.56C5680.58,2236.94 5684.61,2294.84 5646.8,2296.62C5602.15,2298.72 5600.65,2236.12 5643.49,2236.56ZM5093.82,2168.16C5130.91,2168.54 5134.94,2226.44 5097.13,2228.22C5052.49,2230.32 5050.99,2167.72 5093.82,2168.16ZM4593.69,2131.08C4630.78,2131.46 4634.81,2189.36 4597,2191.14C4552.36,2193.24 4550.86,2130.64 4593.69,2131.08ZM4314.54,1557.37C4351.63,1557.75 4355.66,1615.65 4317.85,1617.43C4273.21,1619.53 4271.71,1556.93 4314.54,1557.37ZM4823.75,1566.64C4860.84,1567.02 4864.86,1624.92 4827.06,1626.7C4782.41,1628.8 4780.91,1566.2 4823.75,1566.64ZM5927.75,2768.25C5964.84,2768.63 5968.87,2826.53 5931.06,2828.31C5886.42,2830.41 5884.92,2767.81 5927.75,2768.25ZM5362.01,2750.18C5399.1,2750.56 5403.12,2808.46 5365.32,2810.24C5320.67,2812.34 5319.17,2749.74 5362.01,2750.18ZM4855.8,2726.57C4892.89,2726.95 4896.91,2784.85 4859.11,2786.63C4814.46,2788.73 4812.96,2726.13 4855.8,2726.57ZM5425.97,1665.25C5463.06,1665.63 5467.09,1723.54 5429.28,1725.31C5384.64,1727.41 5383.14,1664.82 5425.97,1665.25ZM2900.62,6104.74C2937.71,6105.12 2941.73,6163.02 2903.93,6164.8C2859.28,6166.9 2857.78,6104.3 2900.62,6104.74ZM3732.98,6772.75C3770.07,6773.13 3774.1,6831.03 3736.29,6832.81C3691.64,6834.91 3690.14,6772.31 3732.98,6772.75ZM5943.2,2280.72C6053.94,2335.47 6082.84,2242.86 5930.36,2191.01C5938.47,2028.08 5843.21,2031.34 5851.31,2197.93C5730.49,2204.84 5711.78,2364.18 5848.12,2288.49C5859.79,2282.02 5866.01,2313.47 5864.3,2331.4C5842.88,2555.72 5965.82,2557.27 5931.34,2325.5C5929.79,2315.1 5930.9,2289.78 5943.2,2280.72ZM4037.57,6776.41C4148.31,6831.16 4177.21,6738.56 4024.73,6686.7C4032.84,6523.77 3937.58,6527.04 3945.67,6693.63C3824.86,6700.53 3806.15,6859.88 3942.49,6784.19C3954.16,6777.71 3960.38,6809.17 3958.67,6827.09C3937.25,7051.42 4060.18,7052.97 4025.71,6821.2C4024.16,6810.8 4025.27,6785.48 4037.57,6776.41ZM3190.04,6153.64C3300.78,6208.39 3329.68,6115.78 3177.21,6063.93C3185.32,5901 3090.06,5904.26 3098.15,6070.86C2977.34,6077.76 2958.62,6237.1 3094.96,6161.42C3106.63,6154.94 3112.85,6186.39 3111.14,6204.32C3089.72,6428.64 3212.66,6430.19 3178.18,6198.42C3176.64,6188.03 3177.75,6162.7 3190.04,6153.64ZM5434.43,2236.51C5545.17,2291.26 5574.07,2198.66 5421.59,2146.8C5429.7,1983.87 5334.44,1987.14 5342.53,2153.73C5221.72,2160.64 5203.01,2319.98 5339.35,2244.29C5351.02,2237.81 5357.24,2269.27 5355.53,2287.2C5334.11,2511.52 5457.05,2513.07 5422.57,2281.3C5421.02,2270.9 5422.13,2245.58 5434.43,2236.51ZM4882.68,2188.88C4993.42,2243.63 5022.32,2151.02 4869.84,2099.17C4877.95,1936.24 4782.69,1939.51 4790.78,2106.1C4669.97,2113 4651.26,2272.34 4787.6,2196.66C4799.27,2190.18 4805.49,2221.63 4803.78,2239.56C4782.36,2463.88 4905.3,2465.43 4870.82,2233.66C4869.27,2223.26 4870.38,2197.94 4882.68,2188.88ZM5163.54,2757.13C5274.28,2811.88 5303.18,2719.28 5150.71,2667.42C5158.82,2504.49 5063.56,2507.76 5071.65,2674.35C4950.84,2681.26 4932.12,2840.59 5068.46,2764.91C5080.13,2758.43 5086.35,2789.89 5084.64,2807.81C5063.22,3032.14 5186.16,3033.69 5151.68,2801.92C5150.14,2791.52 5151.25,2766.2 5163.54,2757.13ZM5682.14,2787.53C5792.88,2842.28 5821.78,2749.68 5669.3,2697.82C5677.41,2534.89 5582.15,2538.16 5590.24,2704.75C5469.43,2711.66 5450.72,2870.99 5587.06,2795.31C5598.73,2788.83 5604.95,2820.29 5603.24,2838.21C5581.82,3062.54 5704.75,3064.09 5670.28,2832.32C5668.73,2821.92 5669.84,2796.6 5682.14,2787.53ZM5747.42,1768.15C5858.16,1822.9 5887.06,1730.3 5734.58,1678.44C5742.69,1515.51 5647.43,1518.78 5655.53,1685.37C5534.71,1692.27 5516,1851.61 5652.34,1775.93C5664.01,1769.45 5670.23,1800.91 5668.52,1818.83C5647.1,2043.16 5770.04,2044.7 5735.56,1812.93C5734.01,1802.54 5735.13,1777.22 5747.42,1768.15ZM5187.82,1653.3C5298.57,1708.05 5327.46,1615.45 5174.99,1563.59C5183.1,1400.66 5087.84,1403.93 5095.93,1570.52C4975.12,1577.42 4956.4,1736.76 5092.74,1661.08C5104.41,1654.6 5110.64,1686.06 5108.92,1703.98C5087.5,1928.31 5210.44,1929.85 5175.96,1698.08C5174.42,1687.69 5175.53,1662.37 5187.82,1653.3ZM4630.55,1595.78C4741.29,1650.53 4770.18,1557.93 4617.71,1506.07C4625.82,1343.14 4530.56,1346.41 4538.65,1513C4417.84,1519.9 4399.13,1679.24 4535.46,1603.56C4547.14,1597.08 4553.36,1628.54 4551.65,1646.46C4530.22,1870.79 4653.16,1872.34 4618.68,1640.57C4617.14,1630.17 4618.25,1604.85 4630.55,1595.78ZM3624.09,847.895C3565.16,778.407 3536.14,700.707 3525.09,618.069C3603.8,617.27 3687.45,611.151 3792.38,592.99C3727.26,639.999 3648.17,645.246 3584.25,659.946C3570.86,724.742 3600.06,786.323 3624.09,847.895ZM4649.54,611.099C4715.2,614.782 4766.08,610.217 4830.64,597.673C4809.68,682.791 4772.4,758.501 4714.69,822.448C4720.41,956.456 4701.64,1071.22 4606.26,1125.79C4574.81,1133.8 4546.38,1129.09 4519.11,1119.51C4564.53,1115.29 4604.16,1104.39 4625.66,1072.58C4672.49,986.709 4683.62,899.918 4674.85,812.613C4719.56,766.335 4759.42,701.642 4775.69,638.542C4724.42,640.115 4682.37,630.967 4649.54,611.099ZM3679.38,991.637C3693.71,1055.02 3709.71,1117.33 3737.41,1172.14C3830.82,1172.97 3921.63,1162.73 4010.3,1143.33C3940.62,1139.14 3868.03,1131.87 3786.36,1114.93C3732.31,1089.45 3706.41,1040.06 3679.38,991.637ZM4192.38,1110.44C4048.34,943.916 3947.91,829.033 3836.11,1024.9C3557.34,928.024 3821.34,411.622 4088.58,623.223L4168.73,394.41L4285.89,618.233C4552.87,535.914 4764.03,802.69 4520.83,1048.46C4451.53,803.873 4222.6,961.709 4192.38,1110.44ZM3647.74,1914.79C3619.79,1953.67 3652.8,1988.32 3683.94,2034.74C3691.38,2045.83 3703.04,2072.82 3693.77,2085.46L3580.43,2037.18C3590.44,1922.12 3617.66,1909.9 3647.74,1914.79ZM4542.89,3244.4C4550.07,3284.42 4564.77,3326.81 4595.72,3325.09C4634.57,3322.91 4595.66,3239.04 4542.89,3244.4ZM3511.66,3646.29C3588.82,3628.03 3664.99,3588.73 3740.75,3540.63C3663.78,3541.05 3586.84,3542.35 3511.66,3646.29ZM3449.84,3641.16C3503.57,3620.63 3538.47,3582.28 3566.62,3537.52C3485.14,3508.57 3416.81,3564.43 3449.84,3641.16ZM3494.89,3408.45C3417.52,3431.16 3370.63,3476.1 3358.89,3519.6C3432.52,3535.26 3474.14,3477.51 3494.89,3408.45ZM2756.13,2392.64C2760.74,2352.39 2744.05,2344.78 2697.86,2360.68C2693.53,2390.92 2711.61,2402.67 2756.13,2392.64ZM3045.92,2461.24C3021.21,2446.34 3003.05,2453.03 2983.5,2449.26C3017.58,2405.2 3047.87,2410.66 3045.92,2461.24ZM2128.07,3853.66C2080.89,3824.5 2040.09,3853.09 2001.97,3905.84C2018.01,3932.98 2085.31,3909.88 2128.07,3853.66ZM3466.49,6892.24C3434.5,6885.49 3402.96,6873.42 3381.87,6871.7C3371.55,6827.23 3312.2,6814.35 3265.85,6841.96C3227.77,6803.74 3222.7,6751.54 3136.14,6805.15C3101.27,6758.76 3080.46,6705.3 3035.85,6699.56C3010.56,6696.31 3014.96,6738.78 2989.27,6738.32C2956.34,6737.73 2963.28,6705.7 2953.24,6655C2943.73,6606.95 2890.18,6614.03 2878.18,6695.9C2601.41,6660.65 2409.61,6374.45 2419.85,6078.08C2480.64,6063.15 2551.73,6032.32 2644.83,6004.66C2640.42,6024.41 2638.3,6049.94 2639.82,6081.24C2519,6088.14 2500.29,6247.48 2636.63,6171.8C2648.3,6165.32 2654.52,6196.78 2652.81,6214.7C2631.39,6439.03 2754.33,6440.57 2719.85,6208.81C2718.3,6198.41 2719.41,6173.09 2731.71,6164.02C2842.45,6218.77 2871.35,6126.17 2718.87,6074.31C2723.76,5976.14 2691.12,5938.3 2666.17,5960.18L2668.78,5819.68L2874.21,5742.06C2885.58,5747.33 2888.19,5757.94 2888.2,5767.53C2888.28,5903.15 2965.16,5873.24 2937.57,5747.34C2935.66,5738.62 2934.67,5725.19 2939.89,5714.33C3030.49,5690.74 3106.77,5707.04 3150.24,5600.89C3220.77,5622.67 3287.04,5595.3 3351.51,5547.16C3395.97,5554.28 3409.01,5582.07 3407.71,5680.57C3406.62,5763.24 3501.94,5769.07 3470.93,5666.87C3453.27,5608.69 3451.47,5562.99 3479.03,5530.6C3506.55,5651.91 3554.18,5769.75 3632.66,5868.28C3557.93,5973.39 3430.53,6047.02 3318.91,6132.22C3278.94,6162.73 3193.46,6265.41 3191.42,6302.55C3184.35,6431.44 3201.72,6481.44 3326.5,6514.73C3475.53,6551.71 3702.32,6520.92 3999.96,6432.77C4057.45,6337.12 4116.32,6249.03 4191.73,6251.96L4238.78,7245.73C4007.02,7099.51 3737.95,6918.96 3651.27,6979.19C3643.32,6945.88 3590.36,6920.7 3530.57,6902.34C3532.73,6889.32 3532.98,6872.31 3532.02,6853.45C3531.48,6842.96 3531.59,6817.74 3543.88,6808.67C3654.62,6863.42 3683.52,6770.82 3531.04,6718.96C3539.15,6556.03 3443.89,6559.3 3451.99,6725.89C3331.17,6732.79 3312.46,6892.13 3448.8,6816.45C3460.47,6809.97 3466.35,6841.4 3464.98,6859.35C3464.1,6870.94 3465.62,6882.8 3466.49,6892.24ZM2384.14,4004.83C2449.26,4022.68 2359.85,4109.75 2281.56,4178.4C2286.63,4116.9 2342.99,3993.56 2384.14,4004.83ZM3635.67,6487.44C3694.82,6429.92 3746.77,6340.32 3724.65,6325.31C3688.21,6300.58 3620.95,6427.09 3635.67,6487.44ZM3464.88,6468.75C3461.03,6407.13 3536.58,6276.96 3573.98,6307.37C3600.39,6328.84 3510.69,6435.48 3464.88,6468.75ZM3432.13,6292.52C3462.77,6306.18 3379.28,6407.76 3338.42,6463.1C3313.63,6390.95 3385.94,6271.93 3432.13,6292.52ZM3219.36,6377.27C3217.8,6314.21 3287.71,6228.13 3321.53,6276.16C3329.75,6287.84 3238.49,6381.6 3219.36,6377.27ZM1955.12,1142.49L2091.13,1069.22C2154.02,1092.58 2201.59,1091.34 2201.2,1013.12C2482.33,913.183 2762.31,819.376 3030.18,790.321C3166.96,721.686 3302.8,666.206 3431.08,717.572C3497.6,815.903 3449.94,795.306 3336.86,756.13C3308.16,840.433 3233.33,899.978 3112.38,934.764C3018.11,951.54 2907.13,937.56 2822.01,882.842C2793.31,966.556 2735.27,1035.72 2619.96,1094.92C2527.22,1102.47 2436.21,1081.88 2346.93,1033.15C2300.25,1172.54 2242.13,1254.74 2168.08,1257.28L1955.12,1142.49ZM3445.58,1049.57C3441.31,1034.31 3536.34,909.425 3532.02,939.809C3530.25,952.251 3565.62,1054.99 3565.62,1054.99C3412.19,1091.26 3284.75,1149.06 3159.17,1208.4C3324.62,1161.42 3482.31,1137.64 3630.84,1141.21C3457.12,1174.71 3295.74,1216.98 3135.87,1260.31C3043.36,1143.4 3056.26,1195.28 3034.57,1290.15L2459.31,1452.03C2639.39,1353.24 2784.16,1300.55 2921.19,1257.97C2766.98,1266.73 2588.01,1331.45 2404.32,1406.86L2221.54,1299.43C2320.47,1289.19 2416.88,1282.96 2487.68,1317.28C2509.15,1242.04 2547.47,1175.76 2636.08,1136.18C2737.67,1116.25 2824.6,1130.11 2895.43,1181.08C2986.49,1100.41 3051.74,1005.29 3156.72,954.22C3263.08,949.598 3362.88,968.69 3445.58,1049.57ZM1682.45,1970.77C1793.6,1900.7 1919.39,1860.4 1994.29,1730.04C2125.07,1742.67 2058.89,1930.63 1882.51,1951.97C1862.62,2048.45 1983.24,2089.31 2076.93,2090.03C2169.34,1988.77 2207.58,1897.44 2321.64,1930.38C2312.71,2073.76 2196.19,2137.35 2022.24,2158.36C2022.24,2158.36 1678.26,1973.41 1682.45,1970.77ZM2365.6,1433.21C2234.75,1343.09 2097.15,1267.06 1955.57,1199.34C2049.73,1388.99 2052.05,1546.15 2014.94,1668.85C2212.31,1732.35 2223.96,1633.71 2132.21,1432.13C2311.48,1399.29 2419.9,1652.15 2274.62,1776.9C2299.64,1825.67 2326.03,1868.02 2352.8,1908.59C2353.3,2016.1 2259.21,2132.89 2140.89,2237.12C2348.66,2189.06 2508.66,1969.66 2475.18,1551.16L2439.8,1494.99C2443.52,1598.04 2428.02,1706.51 2399.84,1818.56C2410.45,1691.73 2411.38,1564.18 2365.6,1433.21ZM5298.18,3274.07C5248.61,3283.05 5192.9,3295.99 5133.04,3310.75C5064.57,3181.04 4959.85,3049.24 4831.65,2940.68C4774.29,2891.07 4716.47,2847.16 4657.98,2806.27C4666.07,2796.34 4672.04,2780.34 4674.01,2757.04C4784.75,2811.79 4813.64,2719.19 4661.17,2667.33C4669.28,2504.4 4574.02,2507.67 4582.11,2674.26C4547.14,2687.17 4527.49,2696.95 4514.99,2708.95C4434.91,2663.21 4347.79,2626.46 4255.49,2588.95C4245.74,2462.45 4240.78,2337.61 4237.19,2210.31C4253.15,2210 4277.47,2202.85 4303.84,2188.21C4315.52,2181.73 4321.74,2213.19 4320.02,2231.11C4298.6,2455.44 4421.54,2456.99 4387.07,2225.22C4385.52,2214.82 4386.63,2189.5 4398.93,2180.43C4509.67,2235.18 4538.56,2142.58 4386.09,2090.72C4394.2,1927.79 4298.94,1931.06 4307.03,2097.65C4275.41,2099.46 4250.66,2109.29 4233.98,2125.03C4228.3,1835.22 4235.06,1543.78 4243.2,1252.17L4277.14,1244.48C4334.08,1384.44 4341.93,1324.12 4384.55,1254.35C4466.31,1243.79 4568.55,1257.28 4669.93,1280.81C4722.05,1280.81 4725.21,1189.7 4770.91,1214.74C4800.89,1231.17 4799.54,1237.34 4805.87,1291.69C4812.36,1347.34 4871.59,1314.54 4891.09,1214.55C5030.77,1217.95 5174.57,1250.72 5427.03,1324.8C5404.9,1477.96 5485.18,1465.63 5521.44,1337.69C5628.16,1359.71 5749.41,1411.71 5874.21,1477.35C5852.33,1891.54 5957.45,2149.63 6181.64,2261.38C6107.53,2686.18 5978.87,2927.77 6118.31,2890.53C6066.46,2962.92 6053.78,3052.25 6054.46,3147.36C5909.02,3167.61 5977.62,3088.22 5917.07,3027.68C5884.45,3041.49 5876.71,3101.46 5867.99,3158.79C5714.16,3172.24 5575.12,3195.43 5495.93,3294.85C5474.43,3266.47 5432.77,3259.48 5377.66,3263.13C5380.78,3251.32 5383.4,3237.45 5385.37,3221.37C5430.25,3243.56 5461.69,3241.54 5473.06,3227.85C5489.74,3207.75 5463.21,3162.5 5372.53,3131.66C5380.64,2968.73 5285.38,2971.99 5293.47,3138.58C5214.07,3143.12 5178.77,3213.5 5202.61,3239.74C5212.7,3250.85 5233.41,3254.03 5265.86,3240.95C5273.37,3237.92 5289.57,3219.13 5290.29,3229.14C5291.49,3245.93 5294.27,3261.09 5298.18,3274.07ZM6470.25,4497.88C6450.05,4558.31 6446.66,4433.36 6388.84,4461.04C6342.49,4483.23 6420.96,4620.48 6519.42,4570.29C6677.13,4489.89 6642.08,4159.42 6642.08,3818.76C6691.91,3798.32 6744.93,3782.64 6802.41,3773.57C6793.52,3887.69 6799.1,3981.8 6859.11,4043.64C7054.24,3927.98 6918.68,3611.51 6654.4,3743.45L6645.38,3471.85C6682.32,3426.75 6716.44,3462.81 6746.04,3590.02C6849.23,3634.55 6866.16,3511.3 6802.99,3414.2C6619.65,3297.15 6454.04,3510.26 6465.16,3551.75C6466.48,3659.91 6474.86,3743.61 6458.41,3800.48C6449.99,3829.63 6419.69,3829.65 6394.19,3858.98C6364.62,3892.99 6433.44,3916.26 6468.85,3879.97C6477.21,4083.4 6492.59,4284.58 6470.25,4497.88ZM5894.36,4489.54C5904.94,4515.23 5924.35,4533.06 5945.73,4550.71C6020.65,4541.19 6030.06,4131.77 5977.26,3875.3C5872.74,3875.3 5878.66,3813.74 5981.36,3803.66C5931.76,3597.97 5993.85,3441.55 6211.47,3353.74C6304.54,3347.31 6387.59,3365.5 6416.97,3461.41L6275.81,3548.93C6260.1,3520.14 6249.74,3496.24 6233.7,3464.26C6204.12,3405.31 6168.82,3568.01 6181.34,3707.84C6224.79,3666.44 6268.09,3629.11 6310.23,3625.62C6328.99,3633.57 6330.61,3660.1 6325.88,3718.75L6184.03,3791.47C6214.97,4031.48 6215.29,4286.27 6175.94,4560.21C6080.26,4617.65 5992.66,4639.42 5916.87,4635.9C5856.6,4567.25 5851.58,4518.11 5894.36,4489.54ZM5830.8,4170.79C5833.74,4205.77 5876.39,4198.54 5916.34,4176.02C5857.02,4306.63 5702.33,4364.39 5645.58,4250.32C5541.9,4338.06 5387.73,4384.27 5384.08,4295.94C5377.17,4128.77 5378.57,3963.08 5326.24,3787.77C5393.17,3798.88 5465.24,3736.39 5548.5,3671.26C5524.23,3980.6 5505.65,4307.52 5607.11,4222.72C5697.9,4083.33 5687.48,3932.31 5616.28,3761.59C5716.12,3682.42 5825.88,3572.2 5861.99,3586.32C5817.66,3780.43 5814.38,3975.41 5830.8,4170.79ZM4005.3,4895.79C4078.47,4838.92 4158,4792.78 4260.25,4784.93C4296.08,4782.18 4276.78,4726.49 4210.34,4725.89C4197.17,4409.15 4192.2,4096.4 4213.3,3796.37C4158.96,3800.72 4092.32,3904.3 4015.05,4028.8C4057.1,4209.85 4053.25,4485.48 4044.09,4771.86C3983.08,4877.16 3965.47,4899.06 4005.3,4895.79ZM3606.86,4468.14C3681.26,4352.65 3675.57,4194.52 3660.89,4031.6C3737.95,3942.3 3805.29,3873.79 3870.25,3829.72C3923.06,3819.56 3973.9,3819.24 4018.83,3848.24C3995.1,3913.23 3954.06,3971.96 3898.69,4025.52L3856.92,3971.9C3810.4,4015.35 3805.61,4095.7 3825.45,4197.82L3901.86,4146.92C3935.71,4163.85 3928.14,4229.11 3923.21,4291.28L3843.1,4320.37C3846.34,4584 3828.83,4841.93 3809.81,5099.44C3744.03,5182.49 3660.35,5230.98 3564.27,5244.04C3665.63,4982.56 3717.13,4722.7 3606.86,4468.14ZM3464.83,4119.14C3447.84,4189.47 3448.69,4274.38 3465.01,4336.65C3503.91,4307.41 3549.33,4275.13 3582.24,4283.08C3587.64,4323.17 3578.82,4361.94 3560.25,4399.82C3511.7,4391.31 3476.18,4423.01 3448.34,4478.42C3459.93,4636.18 3474.82,4740.7 3449.82,4764.89C3541.59,5169.63 3357.87,5417.16 3163.03,5343.91C3308.13,5268.7 3292.12,4966.76 3272.47,4615.43C3212.32,4600.69 3192.05,4578.1 3272.24,4508.88C3275.44,4209.57 3370.68,3878.62 3617.54,4052.53C3615.69,4118.48 3586.04,4174.72 3538.72,4224.79C3507.31,4211.37 3486.1,4160.81 3464.83,4119.14ZM2901.64,4625L2697.94,4710C2726.93,4751.75 2731.19,4841.29 2729.4,4924.78C2719.38,5084.38 2740.46,5243.52 2783.18,5246.95C2832.88,5267.91 2892.26,5209.97 2973.6,5163.25C3003.76,5145.93 3029.67,5124.17 3038.8,5144.92C3054.83,5181.35 3058.06,5202.17 3086.93,5209.51C3151.11,5157.65 3200.52,5095.51 3230.79,5020.06C3176.84,5009.16 3146.93,4938.12 3169.37,4819.88C3170.09,4702.33 3181.07,4579.65 3203.5,4451.22C3131.92,4473.87 3053.99,4525.86 2970.6,4602.97C3035.85,4778.98 3060.34,4950.2 2976.08,5080.51C2870.28,5133.29 2859.12,4862.42 2901.64,4625ZM5035.19,4284.95C5173.23,4302.13 5128.93,3808.14 5026.35,3856.58C4966.59,3884.81 4985.62,3990.7 4989.7,4090.98C4993.61,4187.04 4980.11,4278.09 5035.19,4284.95ZM4666.96,4473.94C4604.56,4489.83 4604.05,4544.81 4571.82,4643.7C4541.99,4735.23 4478.2,4714.2 4476.22,4561.29C4488.22,4418.14 4614.14,4311.01 4765,4211.77C4694.84,4083.76 4624.56,3980.4 4553.73,3989.61C4499.57,3996.66 4403.99,4105.52 4333.12,4196.71C4341.62,4317.29 4334.35,4437.81 4305.26,4555.51C4331.68,4784.35 4514.57,4840.68 4640.37,4714.13C4726.71,4627.29 4789.68,4499.42 4666.96,4473.94ZM4467.98,4369.83C4520.4,4360.1 4564.03,4314.66 4599.48,4257.44C4582.48,4168.64 4548.32,4109.06 4511.12,4103.92C4479.4,4182.58 4467.92,4285.3 4467.98,4369.83ZM4737.7,5057.28C4737.41,5086.08 4742.51,5111.22 4751.5,5133.74C4759.58,5104.64 4770.25,5076.56 4781.34,5049.81C4822.83,5040.42 4870.65,5029.41 4916.87,5018.81C4992.3,5095.26 5059.98,5164.1 5119.53,5224.98C5076.38,5153.2 5043.39,5062.24 5053.82,4973.23C5086.82,4960.46 5131.94,4986.12 5174.29,5031.71C5172.32,5015.11 5166.15,4994.67 5156.51,4971.06C5182.1,4987.99 5203.84,5005.43 5222.63,5023.26C5220.15,5002.35 5212.11,4981.11 5197.35,4959.49C5222.94,4981.18 5247.45,5005.26 5269.57,5034.6C5271.41,5009.59 5262.48,4979.45 5246.16,4945.8C5296.6,4997.64 5343.27,5048.8 5380.93,5098.33C5372.81,5056.61 5353.27,5008.34 5329.63,4957.71C5394.21,5029.68 5451.2,5104.53 5487.78,5187.14C5488.41,5121.64 5444.41,5047.62 5399.68,4971.21C5399.05,4913.57 5530.18,5036.23 5607.04,5159.72C5578.22,5125.9 5547.66,5101.06 5515.19,5086.09C5632.86,5268.49 5682.2,5480.99 5664.8,5722.87C5663.16,5745.71 5644.81,5741.59 5645.06,5715.82L5636.56,5638.83C5626.48,5489.42 5606.7,5350.76 5554.57,5289.02C5582.4,5402.01 5585.76,5511.36 5585.15,5616.13C5576.43,5570.36 5563.08,5520.86 5533.99,5471.6C5532.54,5620.44 5571.35,5730.28 5631.19,5838.83C5645.06,5863.99 5654.49,5893.21 5644.52,5913.01C5627.01,5897.38 5614.03,5870.38 5603.94,5836.14C5588.39,5923.89 5598.11,6095.12 5630.75,6091.84C5679.76,6086.92 5692.98,5920.84 5686.44,5757.21C5705.73,5687.6 5751.01,5629.65 5794.61,5569.75C5785.85,5530.77 5787.57,5492.44 5812.34,5455.51C5834.23,5460.24 5835.63,5488.86 5840.1,5521.36C5916.03,5461.93 5904.92,5236.59 5995.8,5280.49C6060.12,5311.55 5932.35,5509.22 5831.41,5636.28C5875.04,5635.31 5921.44,5576.91 5992.76,5482.45C6020.27,5446 6095,5515.45 5988.8,5583.33C5906,5640.62 5844.03,5698.99 5801.77,5769.99C5884.49,5701.88 5957.36,5652.64 6038.25,5625.46C6093.38,5625.46 5954.67,5738.79 5866.75,5798.1C5925.11,5794.4 5959.03,5758.26 6021.47,5740.9C6121.33,5713.14 5997.96,5898.79 5868.74,5958.64C5925.38,5950.49 5958.41,5925.92 6034.96,5895.29C6102.38,5868.32 6084.01,5981.57 6015.18,6060.11C5988.91,6040.36 5980.49,6016.04 6011.31,5981.65C5975.56,5977.97 5953.72,6023.48 5920.67,6079.62C5910.53,6052.36 5909.53,6031.87 5934.96,5986.33C5889.14,5990.04 5831.08,6073.36 5779.79,6140.2C5779.82,6105.25 5793.12,6064.92 5819.67,6019.22C5749.4,6099.23 5681.71,6168.28 5632.06,6160.53C5612.32,6184.14 5620.32,6207.53 5638.95,6230.84C5579.28,6212.56 5529.28,6277.07 5468.5,6341.99C5420.92,6392.82 5399.01,6330.81 5456.4,6275.34C5394.61,6248.22 5302.17,6326.32 5212.83,6377.47C5190.08,6390.49 5200.76,6318.31 5157.43,6325.4C5117.64,6331.91 5097.06,6344.57 5049.75,6386.09C5011.84,6419.35 5009.48,6404.18 5003.29,6343.35C4994.51,6257.16 4958.74,6292.57 4870.15,6367.38C4819.63,6410.06 4825.72,6363.32 4867.9,6290.86C4902.24,6231.85 4799.54,6249.35 4730.55,6357.7C4701.78,6402.89 4664.43,6370.84 4713.43,6301.19C4755.23,6241.77 4703.5,6226.34 4648.49,6245.13C4676.04,6204.71 4730.43,6195.6 4855.9,6177.77C4911.88,6169.81 4920.01,6142.66 4890.74,6099.98C4856.61,6050.18 4994.89,6078.06 5142.1,6041.67C5129.55,5976.65 5002.23,5879.22 4875.76,5736.12C4872.51,5830.29 4916.69,5887.14 5014.03,5958.04C5062.24,5993.16 4984.94,6058.22 4937.45,5979.87L4886.44,5903.78C4874.9,5950.61 4881.31,5984.63 4915.35,6020.51C4927.37,6096.71 4839.58,5982.26 4814.89,5966.84C4836.88,5997.67 4842.82,6032.82 4833.43,6072.09C4824.79,6108.21 4754.65,6035.07 4721.36,5992.99C4730.98,6030.25 4731.77,6063.77 4721.91,6092.78C4671.11,6060.63 4613.67,5996.22 4560.93,5944.29C4577.31,5978.3 4586.23,6009.2 4580.96,6034.16C4548.33,5976.42 4502.3,5932.64 4441.57,5904.2C4476.82,5939.47 4505.57,5986.59 4509.32,6020.08C4409.28,5936.55 4334.88,5858.9 4267.59,5864.02C4358.36,5949.41 4424.27,5994.84 4352.57,6062.24C4229.44,6178 4048.32,6210.44 3989.5,6376.84C3923.2,6363.6 3837.94,6382.44 3747.67,6420.93C3768.61,6252.81 3725.44,6248.02 3614.17,6400.12C3592.85,6429.27 3569.91,6406.24 3598.49,6340.38C3637.83,6249.76 3533.15,6265.55 3480.38,6347.59C3460.92,6377.83 3425.28,6370.63 3464.51,6307.22C3503.03,6268.7 3414.34,6232.9 3355.69,6319.16C3332.26,6353.62 3302.05,6328.6 3346.15,6292.82C3371.61,6272.16 3341.28,6248.32 3292.64,6238.66C3243.59,6228.91 3292.78,6189.33 3411.82,6151.83L3548.11,6116.53C3554.33,6032.58 3599.93,5948.69 3711.05,5894.81C3643.52,5779.87 3578.83,5659.96 3548.78,5521.93C3561.69,5496.51 3585.04,5490.95 3610.16,5488.8C3634.62,5523.76 3632.51,5569.48 3624.89,5617.43C3649.48,5587.89 3672.81,5540.7 3674,5498.48L3690.37,5570.33C3718.53,5530 3734.64,5474.19 3717.45,5440.34C3966.21,5349.46 4211.26,5156.55 4281.88,5295.83C4255.62,5177.1 4417.77,5130.17 4737.7,5057.28ZM4796.7,5013.35C4861.49,4968.97 4937.34,4941.36 5025.42,4933.41C5153.24,4931.66 5209.09,4900.74 5221.98,4824.07C5231.32,4864.93 5273.24,4870.07 5334.38,4854.13C5523.19,4806.87 5715.26,4766.28 5914.47,4740.27C6465.29,4655.56 6823.95,4734.62 7125.09,5041.97C7079.15,4868.84 6888.75,4742.4 6657.8,4629.06C6812.71,4657.04 6956.81,4715.14 7089.36,4805.34C7048.02,4691.53 6926.76,4599.81 6795.1,4499.9C6911.64,4527.48 6998.74,4579.18 7077.75,4637.53C7006.78,4535.77 6885.35,4430.56 6745.79,4324.11C6884.88,4370.05 6992.61,4444.76 7078.85,4539.19C7041.36,4451.49 6967.19,4366.07 6884.99,4281.16L7067.86,4391.74C7043.75,4318.79 6996.27,4273.23 6919.27,4197.42L7079.06,4286.5L6990.93,4086.97L7103.45,4166.67C7108.85,4089.03 7080,3999.82 7032.88,3904.44L7147.95,4022.37C7137.09,3906.89 7074.23,3782.18 6970.87,3650.28C7050.64,3702.13 7115.54,3764.4 7169.76,3834.15C7088.73,3518.37 6864.64,3346.55 6545.76,3270.12C6183.93,3183.4 5874.01,3209.1 5594.96,3266.97C5491.37,3370.56 5524.7,3368.19 5422.47,3315.11C5197.27,3345.91 4954.38,3403.04 4741.53,3462.93C4171.07,3637.72 3618.74,3836.91 3084.76,4060.77C2754.11,4200.72 2584.08,4300.56 2664.36,4337.88C2884.1,4241.6 3058.53,4162.79 3205.2,4138.55C2899.97,4251.35 2731.56,4340.93 2677.68,4411.05C2830.42,4338.38 2955.32,4297.11 3038.01,4303.43C2831.32,4385.03 2661.72,4465.08 2670.8,4537.61C2770.98,4497.76 2848.66,4464.82 2919.99,4462.17C2825.6,4506.02 2734.77,4550.83 2649.36,4597.09C2642.31,4831.7 2652.36,5041.21 2680.97,5223.46C2625.45,5265.69 2622.49,5299 2746.9,5270.45C2669.47,5320.57 2621.66,5371.47 2678.89,5390.9C2828.36,5348.59 2921.96,5309.31 2911.05,5334.66C2766.33,5390.59 2654.69,5442.21 2694.23,5474.06C2902.45,5395.5 3033.33,5342.98 3028.84,5376.31C2823.53,5450.62 2663.27,5516.69 2708.84,5545.15C2807.41,5514.81 2877.68,5486.78 2857.19,5525.51C2725.6,5557.11 2667.79,5591.41 2691.01,5628.69C2745.63,5616.16 2813.59,5591.86 2835.87,5601.25C2744.99,5648.99 2648.57,5711.27 2678.17,5740.85L4194.52,5170.44C4367.46,5118.07 4542.87,5069.71 4733.81,5029.18C4740.79,4974.49 4771.74,4906.15 4822.78,4821.67C4829.38,4516.64 4859.02,4178.86 4772.49,3955.22C4813.44,3856.83 4889.74,3804.73 4975.29,3753.25C4967.38,3804.34 4980.78,3859.02 5004.2,3830.62C5055.37,3768.56 5087.41,3721.33 5120.57,3723.06C5354.48,3810.41 5293.28,4327.8 5156.69,4382.34C5082.56,4358.59 5026.41,4340.16 5016.2,4367.04C4984.84,4476.05 4968.97,4584.49 4974.69,4692.15C5040.68,4719.86 5120.4,4764.83 5073.49,4778.64C4938.09,4818.48 4851.42,4902.84 4796.7,5013.35ZM1340.42,5027.03C1342.95,5117.67 1343.94,5203.6 1345.27,5287.23C1310.61,5311.5 1276.52,5321.26 1241.41,5313.35C1109.08,5246.1 1198.4,5091.8 1340.42,5027.03ZM1416.2,5000.84C1458.01,4992.77 1500.66,4995.4 1542.71,5008.14C1551.04,5118.13 1560.47,5240.08 1568.74,5338.11C1635.5,5380.29 1616.74,5403.55 1577.97,5518.96C1588.09,5708.78 1570.78,5868.79 1462.74,5966.26C1543.57,5980.81 1648.48,5913.28 1761.47,5818.24C1863.48,5789.98 1893.66,5797.91 1946.16,5747.54C1838.93,5541.18 1842.15,5296.4 1852.86,5049.02L2137.4,5120.05L2132.58,5367.05C2193.18,5413.57 2172.6,5436.07 2120.66,5513.69C2124.54,5609.69 2139.8,5688.63 2106.3,5818.46C2052.81,5864.95 2020.58,5894.46 2031.53,5931.87C2169.33,5840.52 2328.43,5768.78 2494.78,5703.73C2400.8,5587 2385.9,5413.75 2399.39,5220.2C2517.06,5262.76 2537.45,5209.96 2500.55,5159.61L2395,5111.55L2354.49,4429.59C2358.38,4363.97 2388.34,4309.86 2422.03,4257.39C2424.8,4188.54 2176.33,4368.63 2027.41,4467.32C2027.2,4495.68 2055.9,4508.94 2104.83,4523.91C2114.64,4589.4 2106.07,4677.93 2095.28,4769.23C2167.05,4841.98 2176,4833.24 2120.65,4922.31L2124.46,5016.27C2044.55,5007.96 1952.35,4974.86 1849.98,4921.22C1828.55,4708.04 1843.91,4499.63 1941.89,4301.89C1840.56,4317.08 1741.68,4380.67 1634.53,4476.15C1582.49,4492.67 1530.84,4500.71 1477,4497.8C1546.26,4635.92 1565.55,4779.27 1547.11,4906.2C1505.27,4895.68 1410.99,4898.07 1410.99,4898.07C1407.42,4810.28 1404.49,4731.96 1404,4677.07C1402.23,4478.34 1381.79,4336.64 1362.15,4195.47L1644.41,4196.72C1767.38,4212.67 1735.43,4331.19 1837.26,4190.25C1865.99,4150.49 1891.05,4190.56 1910.87,4250.27C1921.15,4281.25 1965.6,4227.79 2002.54,4184.91C2028.59,4154.69 2054.75,4189.48 2076.47,4244.45C2087.56,4272.49 2131.32,4210.86 2176.32,4163.86C2212.79,4125.78 2236.16,4151.99 2257.75,4217.55C2270.45,4256.13 2333.5,4170.59 2453.55,4098.79C2497.55,4072.47 2542.24,4056.19 2583.15,4055.31L2592.29,5928.18C2260.44,6067.2 1886.93,6057.88 1419.05,6037.02C1444.04,5866.72 1421.27,5620.36 1425.25,5437.67C1425.46,5427.91 1425.61,5409.58 1425.7,5399.07C1456.75,5319 1468.14,5243.81 1463.86,5172.47C1450.22,5187 1436.66,5202.26 1423.01,5216.23C1421.04,5148.06 1419.03,5070.46 1416.2,5000.84Z" fill="#ffffff" class="color000 svgShape"></path></svg></g></svg>