<svg id="SvgjsSvg1060" width="288" height="288" xmlns="http://www.w3.org/2000/svg" version="1.1" xmlns:xlink="http://www.w3.org/1999/xlink" xmlns:svgjs="http://svgjs.com/svgjs"><defs id="SvgjsDefs1061"></defs><g id="SvgjsG1062"><svg xmlns="http://www.w3.org/2000/svg" xmlns:svgjs="http://svgjs.com/svgjs" xmlns:xlink="http://www.w3.org/1999/xlink" width="288" height="288"><svg xmlns="http://www.w3.org/2000/svg" xmlns:svgjs="http://svgjs.com/svgjs" xmlns:xlink="http://www.w3.org/1999/xlink" width="288" height="288"><svg xmlns="http://www.w3.org/2000/svg" width="288" height="288" version="1.0" viewBox="0 0 2000 2000"><path fill="#daa520" d="M2961 13204 c-83 -22 -170 -73 -236 -139 -154 -152 -181 -309 -86-500 85 -171 318 -374 565 -491 103 -48 223 -85 595 -180 141 -36 262 -67 270-70 8 -3 -15 -24 -59 -55 -122 -83 -154 -99 -277 -131 -109 -29 -131 -31 -293-32 -338 -2 -512 61 -923 333 -388 257 -680 421 -849 475 -119 39 -222 35
-322 -12 -89 -42 -190 -142 -234 -232 -90 -185 -33 -347 206 -586 108 -108
186 -156 355 -219 254 -94 827 -268 1218 -370 282 -74 353 -107 395 -187 29
-56 9 -121 -48 -156 -53 -33 -186 -72 -245 -72 -86 0 -732 166 -1003 258 -160
55 -252 94 -529 226 -430 207 -500 231 -636 224 -107 -6 -186 -41 -255 -114
-28 -30 -60 -75 -72 -100 -99 -225 84 -540 407 -699 178 -88 272 -108 990
-210 701 -99 794 -120 985 -213 114 -55 160 -96 190 -163 30 -71 22 -108 -39
-169 -38 -38 -63 -53 -117 -69 -107 -33 -238 -51 -379 -51 -271 0 -473 42
-995 206 -315 100 -492 139 -675 150 -161 11 -250 -27 -311 -132 -61 -104 -38
-232 62 -342 155 -171 355 -275 709 -365 280 -72 532 -109 1280 -187 264 -28
498 -55 520 -61 111 -29 159 -88 158 -194 0 -99 -44 -174 -126 -217 -60 -30
-198 -42 -522 -42 -337 -1 -339 0 -730 85 -478 104 -589 101 -700 -23 -71 -79
-92 -184 -61 -308 80 -328 363 -543 841 -639 292 -59 625 -55 1045 10 170 27
574 37 741 20 346 -36 572 -98 1042 -282 720 -284 1120 -383 1592 -396 553
-15 1077 104 1452 332 220 134 537 389 769 620 301 300 506 580 680 927 31 62
76 142 99 178 51 77 161 186 228 224 126 74 287 103 479 86 384 -33 584 -177
703 -503 119 -326 378 -706 720 -1056 451 -461 915 -706 1512 -798 154 -24
570 -23 748 0 389 52 790 167 1474 421 475 177 805 249 1211 263 196 6 359 -5
621 -42 389 -56 848 -40 1123 40 299 87 498 261 607 530 40 101 51 221 25 290
-35 89 -124 153 -255 181 -122 26 -149 22 -616 -90 -212 -51 -433 -90 -605
-107 -183 -18 -331 3 -463 64 -90 42 -130 76 -167 141 -49 85 -38 138 46 219
60 58 110 77 227 89 426 40 1804 244 1922 283 124 42 382 191 436 253 110 125
119 333 19 454 -17 20 -56 49 -88 65 -51 25 -67 28 -157 28 -121 -1 -234 -28
-675 -165 -545 -169 -749 -212 -1005 -213 -232 0 -375 32 -488 110 -73 50 -80
97 -30 196 39 77 88 117 198 160 210 81 384 120 995 221 466 77 727 128 830
162 220 73 431 240 509 404 34 70 36 81 36 170 -1 78 -5 103 -24 142 -60 123
-183 204 -324 215 -147 11 -195 -5 -742 -253 -451 -203 -633 -279 -810 -337
-249 -81 -463 -112 -681 -96 -118 8 -176 30 -220 82 -31 37 -29 75 11 143 22
38 40 51 118 91 128 64 311 121 597 188 535 123 723 178 885 255 167 80 389
232 469 321 116 130 157 343 92 485 -83 182 -339 314 -531 274 -124 -26 -325
-130 -559 -292 -447 -307 -532 -359 -705 -432 -59 -25 -154 -58 -211 -73 -98
-26 -118 -28 -305 -28 -178 0 -209 3 -284 23 -132 36 -284 122 -354 200 -18
20 -18 20 55 37 204 46 649 171 799 223 447 157 710 582 553 896 -98 198 -327
274 -606 202 -185 -47 -316 -116 -592 -310 -249 -174 -350 -239 -478 -305
-274 -140 -587 -236 -928 -285 -199 -29 -346 -37 -765 -46 -347 -7 -444 -12
-560 -30 -510 -77 -876 -227 -1380 -563 -467 -312 -827 -646 -1140 -1057 -114
-150 -151 -187 -235 -228 l-55 -26 -535 -10 c-593 -10 -618 -8 -733 47 -96 46
-160 100 -254 215 -242 297 -436 506 -637 686 -588 526 -1164 824 -1770 915
-192 29 -320 39 -731 56 -526 21 -714 41 -976 100 -464 104 -839 283 -1219
579 -184 144 -286 196 -513 262 -131 37 -198 42 -286 18z m3626 -2038 c505
-107 936 -406 1204 -836 266 -428 325 -953 163 -1439 -199 -597 -698 -1031
-1334 -1161 -193 -40 -539 -45 -717 -11 -346 66 -649 228 -902 482 -597 600
-686 1526 -212 2230 260 387 663 654 1116 738 157 29 161 29 370 26 156 -3
212 -8 312 -29z m7297 9 c779 -102 1377 -651 1500 -1378 23 -134 38 -496 25
-622 -35 -357 -197 -667 -495 -955 -269 -259 -596 -433 -953 -507 -102 -21
-155 -26 -281 -27 -165 0 -255 10 -415 51 -647 162 -1179 675 -1339 1293 -38
147 -50 242 -49 410 0 373 122 721 364 1043 93 124 271 298 400 389 156 112
380 219 549 263 208 55 466 70 694 40z" class="color000 svgShape color3a0ca3 color0433ff" transform="matrix(.1 0 0 -.1 0 2000)"></path></svg></svg></svg></g></svg>