<svg id="SvgjsSvg1136" width="288" height="288" xmlns="http://www.w3.org/2000/svg" version="1.1" xmlns:xlink="http://www.w3.org/1999/xlink" xmlns:svgjs="http://svgjs.com/svgjs"><defs id="SvgjsDefs1137"></defs><g id="SvgjsG1138"><svg xmlns="http://www.w3.org/2000/svg" xmlns:svgjs="http://svgjs.com/svgjs" xmlns:xlink="http://www.w3.org/1999/xlink" width="288" height="288"><svg xmlns="http://www.w3.org/2000/svg" width="288" height="288" fill-rule="evenodd" clip-rule="evenodd" image-rendering="optimizeQuality" shape-rendering="geometricPrecision" text-rendering="geometricPrecision" viewBox="0 0 2000 1876"><path fill="#0433ff" d="M851 0l10 0c16 32 31 65 46 98 4 12 10 25 9 39-6-3-12-8-17-12-24-23-48-45-73-67-8-8-16-17-27-20 2 6 6 12 11 16 25 29 54 56 78 86 6 6 12 13 12 22-8 0-16-4-23-7-20-10-38-22-58-33-18-9-35-21-54-28 5 5 11 10 17 14 29 20 58 39 87 59 8 6 17 11 22 19 0 4-3 8-7 8-13 0-24-5-36-8-30-10-60-22-90-31-6-2-12-4-18-4 6 4 13 8 20 11 30 13 60 24 89 36 10 5 20 9 29 14 0 2 0 5 0 6-9 4-19 4-28 4-37-3-74-10-111-14-13-2-26-4-40-2 6 3 11 5 17 6 43 10 87 12 130 21 9 3 19 5 26 11-4 6-11 6-17 8-49 10-100 14-149 26-4 1-8 3-12 6 17 2 34-2 50-4 37-6 74-13 112-16 8 0 21-2 24 8-10 9-24 14-36 20-33 14-66 28-99 43-5 3-10 6-14 10 10 0 18-4 27-7 37-14 73-30 109-45 6-2 11-4 17-4 1 2 4 4 4 7-2 5-5 9-9 13-14 14-29 27-45 39-22 18-45 36-66 56-3 3-5 6-7 9 8-1 15-6 22-10 36-25 68-54 104-78 4-3 8-2 12-1 0 5 0 10-2 14-7 16-17 29-26 43-17 27-35 53-53 79-5 8-11 15-13 24 9-5 15-14 22-21 23-27 43-57 66-84 6-6 12-14 21-14 2 7 3 14 0 21-21 55-50 107-72 162-2 5-3 10-4 15 5-4 9-9 12-15 23-38 43-78 65-117 4-5 6-11 11-15 3-1 4 1 5 3 2 6 1 12 0 18-3 20-9 40-14 61-11 42-23 84-37 126-2 7-5 14-4 21 4-2 6-7 8-11 14-33 25-66 37-100 8-23 16-47 27-69 3 7 6 14 8 21 6 18 12 37 13 56 2 33 2 65 1 98-1 49-2 97-3 146-2 51-2 103-3 154 0 24-2 47 0 71-6-4-7-11-10-17-65-158-122-320-187-479-7-15-13-30-21-44-14 4-20 19-27 30-16 28-30 57-45 85-42 79-84 159-122 240-8 15-9 36 5 47 14 12 33 11 50 15 0 33 0 65 0 98-140 0-280 0-420 0 8-26 17-51 25-75 4-10 8-20 16-27 9-7 20-10 29-16 14-9 28-18 36-33 34-55 66-111 99-167 41-71 82-143 122-214 35-62 71-124 105-187 6-13 14-26 19-40 9-25 12-53 7-80-3-20-11-39-25-53-9-10-23-13-32-24 10-22 23-44 35-66 10-2 21 0 31-1 66-2 131-1 197-3zM1371 0l16 0c11 24 24 47 35 71-11 8-23 14-33 24-11 12-19 28-23 44-6 27-3 55 6 81 9 22 21 43 32 65 40 76 83 152 126 227 41 73 81 145 122 218 19 32 37 64 57 95 11 16 22 33 39 43 10 6 22 7 31 13 8 4 12 12 16 20 8 21 14 42 21 63 2 6 3 12 4 18-43 2-86 3-130 3-97 1-194 0-291 1 0-33 0-67 0-100 12 0 23 1 34-3 12-4 24-12 31-23 4-10 1-22-3-31-17-36-35-71-53-107-34-64-68-129-104-192-10-17-19-35-32-50-2-3-5-7-9-5-8 6-11 16-16 24-23 56-44 112-66 168-33 88-65 176-99 263-9 25-18 51-30 75-4-26-3-53-4-80-3-54-3-107-5-161-1-65-2-129-2-194 0-27 3-54 12-79 4-10 7-21 16-28 2 9 3 18 6 26 13 42 29 84 45 125 3 9 6 18 12 25-3-22-10-42-16-63-11-41-25-80-35-121-2-12-6-25-2-38 1 0 4-1 5-1 27 39 47 83 72 124 6 9 11 19 19 27-2-10-7-20-11-30-20-46-44-90-63-136-3-8-7-16-7-25 0-6 4-12 7-17 6 5 10 11 15 17 28 33 52 69 80 102 3 3 6 5 10 6-2-8-7-14-11-21-25-37-51-73-74-112-5-8-11-17-10-28 9 1 17 6 25 11 28 19 54 41 81 61 11 8 22 16 34 21-4-7-10-12-15-17-29-26-60-49-88-75-9-9-19-17-26-28 2-2 3-4 4-6 23 5 44 16 66 24 29 11 58 25 88 32-8-8-19-12-29-17-33-15-66-28-98-44-8-4-18-8-22-17 8-6 18-5 27-4 36 4 71 10 106 15 15 1 30 6 46 4-6-6-14-6-21-8-46-10-94-13-139-25-4-1-14-3-10-9 5-5 13-6 19-8 46-9 92-11 137-21 4-1 6-4 9-6-23-3-47 3-70 7-29 4-58 10-87 10-5 0-10-1-15-3 3-9 11-12 19-16 35-19 73-30 109-47 3-2 7-4 10-7-4 0-7 1-11 2-38 10-74 27-111 39-9 2-19 6-27 1-1-1-1-4-1-6 39-34 83-60 124-91 2-2 4-5 6-7-10 3-19 10-28 15-29 18-58 37-88 52-9 3-18 8-27 7-1-9 5-16 11-23 14-17 29-32 44-48 17-17 35-34 49-54-3 2-5 3-8 5-28 22-53 47-80 70-10 6-18 15-30 18 2-15 9-29 15-43 13-28 26-56 40-83 14-2 28-1 42-1 60-2 120-1 180-3zM1002 252c1-4 1-9 6-10 2 6 3 12 4 18 4 37 4 73 6 110 1 45 4 89 4 134 2 57 3 115 5 172 2 46 2 92 3 138 2 54 3 108 4 162 0 34 1 67-4 101-2 16-15 28-24 40-9-10-16-22-24-33-2-3-6-6-5-10 2-107 4-215 7-322 1-42 2-84 3-126 2-46 2-92 4-138 1-31 1-61 2-92 2-27 2-55 4-82 1-21 2-41 5-62zM562 1085c4 0 5 5 6 8 2 10 2 20 0 29-2 7-11 8-15 3-2-5-2-12-7-15-9-6-21-7-32-7-5 0-9 2-12 5-2 7 3 11 8 14 10 7 23 7 34 10 10 3 20 7 26 16 6 7 7 18 4 27-7 20-30 29-50 28-12-1-22-7-33-11-1 3-2 6-4 9-6 4-13-1-14-7-3-11-3-23-1-34 1-8 11-9 17-5 8 5 10 16 17 21 11 7 25 9 37 7 4-1 7-4 8-7-1-6-6-11-12-13-17-10-38-12-54-24-14-14-7-42 11-49 13-5 28-6 41-4 8 2 13 7 19 11 2-4 1-10 6-12zM582 1085c39 0 78 0 118 0-1 16 3 33-5 48-2 0-5 1-7-1-7-8-8-21-17-27-4-4-11-1-12 4-3 12-2 25-3 37 1 11 0 22 3 33 4 8 14 3 21 8 0 4-1 7-5 9-15 6-33 5-49 4-6-1-14-1-19-6-1-8 8-10 14-11 6-13 4-28 4-41 0-13 1-28-7-39-8 4-10 14-14 21-2 5-6 11-12 11-6-2-8-10-9-15-2-12-1-24-1-35zM718 1087c23-4 47-3 70 0 9 2 20 4 27 12 8 7 10 20 5 29-5 7-14 10-19 18 6 6 12 11 15 18 2 6 2 12 3 19 3-6 3-12 8-16 2-2 5 0 8 0 2 10 1 23-7 31-13 10-36 2-40-14-2-8-1-17-6-24-4-9-15-16-26-12-2 2-3 6-2 10 0 8 1 16 6 22 3 5 13 3 13 10-1 1-1 2-2 3-17 8-37 7-55 6-5 0-12-5-10-10 3-7 13-3 15-10 5-12 3-25 4-37-1-12 1-25-5-36-3-3-7-3-11-5-2-2-3-6-3-9 4-2 8-5 12-5zm39 18l0 0c-2 0-4 2-4 4 0 7 3 16 11 18 8 1 17 2 25-2 6-6 5-20-5-21-9-1-19-2-27 1zM1093 1085c18-3 38 1 53 13 17 12 27 33 25 54-3 21-19 39-39 46-18 7-39 5-57-1-16-4-27-17-35-31-7-13-8-30-1-43 10-21 32-34 54-38zm-2 20l0 0c-6 1-12 4-15 10-3 8-5 18-5 27 0 10 0 22 6 31 11 15 35 19 50 6 13-12 13-31 11-47-2-9-4-19-12-24-11-5-24-6-35-3zM1210 1086c28-2 56-1 84-1 0 14 2 30-4 44-1 3-5 8-9 6-8-6-5-17-10-24-5-5-14-5-21-6-7-1-14-3-20 1-6 6-5 16-2 24 1 4 9 5 11 1 4-7 5-17 13-21 6-2 9 4 10 8 2 13 1 25 1 38-1 4-1 9-4 13-4 5-14 1-14-5-1-7-5-12-11-14-3-1-6 1-6 3-3 9-3 18 1 26 2 6 10 4 14 8 1 2 2 4 2 5-7 6-18 7-27 8-13 0-28 2-40-5 1-9 13-9 16-16 5-12 4-25 4-37 0-11 1-23-4-34-3-7-16-6-16-15 10-6 21-6 32-7zM0 1094c10-9 25-8 38-8 10 1 23 1 28 12 8 16 12 33 19 49 1 1 2 1 3 1 12-15 16-35 27-51 4-8 13-10 21-10 9-1 17-1 26-1 5 1 11 3 14 8-6 5-15 7-17 15-5 12-5 25-5 37 1 11 1 23 5 33 2 5 9 5 13 8 0 2 0 4 0 6-14 7-29 7-43 6-9-1-18-2-24-9 3-6 10-7 15-8 5-12 4-24 5-37 0-8 1-16 2-23-12 22-20 46-33 68-3 4-6 8-11 10-18-26-27-57-39-86 0 19-1 39 1 58 0 3 1 7 3 10 4 2 10 2 13 6 1 5-4 6-8 8-14 4-28 4-43 3-4 0-7-2-10-5l0-7c4-2 9-3 13-6 6-11 5-24 6-36 1-11 3-23 0-35-1-9-12-9-19-14l0-2zM180 1096c-2-5 4-9 8-10 15-2 29-2 44 0 5 1 11 4 9 10 1 7-9 7-9 14-4 23-4 46 0 68 0 6 10 7 10 14 0 5-6 7-10 8-12 1-24 1-35-1-7-1-14-1-18-7 2-7 9-8 15-10 5-14 4-29 4-44 0-11 0-22-4-33-5-2-13-2-14-9zM253 1087c12-3 25-3 37-1 9 0 16 7 22 14 14 21 27 42 41 62-1-17 1-34-2-51-2-10-14-9-20-14-3-3 2-7 5-8 12-5 25-4 38-4 5 1 12 1 15 6 1 3 1 6 0 9-2 3-6 3-7 6-3 11-4 23-4 34 0 19 0 39-3 58-11 3-24 0-32-9-21-22-34-50-51-74-1 11-1 23-1 35 1 11-1 22 5 32 5 2 15 3 14 11-4 6-12 5-18 7-13 0-27 1-40-2-4-1-5-7-3-11 3-3 8-3 11-4 4-3 5-9 5-13 2-17 1-35 0-52 0-5 0-10-4-13-4-2-9-2-12-6-2-4-1-11 4-12zM397 1096c-2-7 6-10 11-10 16-1 32-2 48 0 5 1 11 6 8 12-3 7-14 3-15 11-4 14-3 29-3 43 0 10 0 21 4 30 5 3 16 2 13 10-7 4-16 5-24 7-11 1-23 2-35 0-5 0-9-7-7-11 4-4 9-4 14-6 5-12 3-26 4-40-1-12 1-25-4-37-5-2-14-2-14-9zM831 1091c3-5 10-5 15-6 14 0 28 0 42 1 4 1 10 3 10 8 0 8-8 10-14 13 3 11 13 18 19 27 6-9 13-18 17-29-5-2-15-1-15-9-2-6 4-10 9-10 14-1 28-1 42 0 5 1 11 4 10 10-1 8-10 7-14 11-15 12-27 27-35 43-5 9-9 19-5 28 5 10 19 2 24 12-3 4-7 7-12 7-19 1-39 3-58 1-5 0-6-6-5-10 4-6 15-2 17-10 4-18-4-36-13-51-8-10-17-21-30-25-5-1-6-7-4-11zM1362 1090c12-5 25-4 38-4 7 1 14 2 19 7 4 5 6 10 9 16 6 15 11 31 18 47 8-18 15-37 24-55 3-6 8-14 16-15 12-2 25-2 37 1 6 1 8 8 5 12-3 5-9 3-13 6-2 5-3 10-3 15-1 17-1 35 0 52 0 6 1 13 7 17 6 2 12 2 18 0 6-2 9-8 12-14 12-25 19-53 33-77 4-9 17-13 26-8 6 5 10 13 13 21 11 22 19 45 32 66 4 6 14 9 12 18-12 6-26 5-39 5-9-2-18-2-25-7-3-1-3-5 0-6 5-4 12-3 18-5 2-8-4-14-12-15-10-2-22-2-32 2-5 3-6 9-4 14 6 1 12 0 17 3 3 2 3 7 0 8-9 4-19 3-28 4-29 2-59 2-88-2-4 0-8-2-11-4 5-6 13-5 19-10 4-3 5-9 5-14 1-18 1-36 0-54-10 23-17 48-30 71-3 6-6 12-12 15-8-7-12-17-17-26-9-22-17-44-26-67 0 21-1 41 0 61 1 5 0 12 5 15 7 1 15 0 19 7-3 3-5 6-9 6-15 4-31 5-46 1-3-1-8-3-7-7 2-5 9-6 15-8 5-12 3-27 4-40-1-11 1-23-3-33-4-9-15-7-21-13-1-3 2-5 5-6zm233 34l0 0c-4 5-9 11-9 18 3 8 14 4 21 4 0-8-5-18-12-22zM1701 1093c7-5 15-7 23-7 20 0 40 0 59 2-1 15 3 31-4 45-8 1-11-7-16-12-8-14-27-21-42-16-7 2-13 7-15 14-4 17-4 34 1 50 3 11 15 15 25 15 10-1 23-6 25-16 1-5 2-12-3-14-6-1-13-1-15-8 11-5 23-5 35-5 12 0 24 0 35 5-2 9-15 4-17 12-5 14 2 33-12 44-4-3-6-6-10-9-8 0-14 6-22 7-26 9-56-4-69-27-9-16-10-36-2-52 6-11 14-20 24-28z" class="color000 svgShape color3a0ca3"></path><path fill="#0433ff" d="M1808 1096c-1-6 5-9 10-10 15-2 29-1 44 0 5 0 10 1 13 5 1 3 1 8-2 10-3 2-7 2-10 4-4 4-4 10-5 15 0 13-1 25 0 38 1 8 0 17 4 24 6 2 15 3 14 12-13 7-28 7-42 6-8 0-17 0-23-5-3-2-2-5-3-8 5-4 14-2 16-9 3-11 2-23 2-34 0-12 1-23-2-35-1-8-15-4-16-13zM1900 1105c11-13 27-17 42-18 19-1 39 0 58 0l0 26c-1 7-1 16-7 21-2 0-5 0-7-2-7-6-8-17-16-22-10-6-24-9-35-3-8 4-11 12-13 20-3 15-3 31 4 45 10 18 39 16 49-1 4-9 11-18 21-18 2 2 3 5 4 7l0 3c-6 15-15 30-31 36-19 8-41 3-57-9-11-8-22-18-23-32-1-19-1-39 11-53zM521 1256c10 0 19-3 29-2 5 2 6 8 8 12 6 23 12 47 14 71-12-5-20-15-31-20-11-4-23-5-35-5-16 0-32 0-48 0 0 55 2 111 2 166 0 25 0 51-2 76-7-4-8-14-16-18-2 27 0 55 0 82-1 9 1 19-3 28-4-4-7-7-11-10-2 10-3 21-4 31-4 23-3 46-6 69-1 2-2 5-3 7-11-35-15-72-22-108-4-24-9-49-13-74-1-5-2-11-1-17 3 0 7 1 11 1 2-7 1-14 0-21-3-23-7-46-10-69-1-7-2-15 0-22 5-3 11 1 17 0 2-11-1-23-2-35-3-29-7-57-11-86-21-1-42 2-63 3-9 2-18 4-27 7-9 3-14 13-24 15 0-27 7-53 10-79 81 0 161 1 241-2zM596 1264c14-5 30-5 45-6-1 46-3 91-3 137 10-11 17-27 31-32 12-3 22 5 32 10 10 7 20 13 30 21 0 58 0 116 0 174 0 5 0 10-1 16-20 15-40 31-65 39-5 1-10 2-15 1 1-11 13-13 18-22 9-12 10-27 11-42 4-52 3-104-1-156-1-4 0-12-6-12-6 0-10 5-14 8-8 8-17 17-19 29-2 15-2 30-2 45 1 32 0 64 4 96 0 4 2 9-1 12-15 4-31 3-46 2-6-1-13 0-17-5-2-2 1-4 2-6 7-10 5-22 6-33 4-46 4-92 5-138 1-31 1-63 0-94 0-13 0-25-4-38 3-2 6-5 10-6zM1128 1322c13-6 28-3 41-3 19 2 39 3 56 10 1 1 1 2 1 3-11 7-11 22-11 34-1 43-1 85-1 128 1 25 1 51 6 76 1 5 3 10 7 14 5 3 10-2 14-5 13-16 26-34 27-56 2-27 1-55 2-83 1-12 2-25 9-35 8-12 17-23 26-33 7 30 7 61 9 92 1 27 3 54 6 81 1 10 2 20 9 28 4 6 7 12 10 18 3 4 6-2 9-3 12-13 22-28 32-42 2-17 0-35 1-52 0-31 0-61-1-92 0-11 0-22-3-33-3-9-11-14-16-21 8-4 17-2 25-3 26 1 53-1 78 5-4 4-10 5-15 6-5 9-4 20-5 30-2 50-1 100-2 150-12 17-24 33-37 49-13 18-26 35-41 51-4 4-9 8-14 11-6-3-12-7-17-12-15-16-27-35-41-53-14 20-29 40-48 56-6 6-13 12-22 15-14-9-25-24-36-37-10-13-21-26-30-40-1-69-2-139-5-208-1-10-1-19-5-28-4-8-17-8-18-18zM775 1331c8 0 17-1 25 1 5 3 5 11 5 16 1 13-1 28-10 39-5 6-15 8-22 4-9-6-14-16-18-26-1-7-2-15 1-21 3-8 11-12 19-13zM1507 1373c9-7 18-14 29-17 4-1 7 1 9 3 18 11 32 26 48 40 2 2 5 4 5 7 0 30-1 60 0 90 0 10 0 20 3 29 2 4 8 4 11 6-4 10-13 18-21 26-9 8-17 18-29 21-9 1-7-11-9-16-12 2-20 14-33 15-6-2-10-9-14-15-10-17-16-36-21-55-2-8-4-16 1-23 7-11 19-18 30-24 9-5 19-11 30-12-3 11-11 18-14 28-5 14-1 28 3 41 2 7 5 16 11 21 5 0 4-5 5-8 3-35 4-71 3-106-1-11-2-21-4-32-13 3-24 14-30 26-3 5 1 12-1 17-6 3-12-2-17-5-9-9-15-21-16-34 5-9 13-16 21-23z" class="color000 svgShape color3a0ca3"></path><path fill="#0433ff" d="M1718 1408c9-3 19-2 28-3 11 0 21 1 31 5-6 17-16 33-25 50-34 61-68 122-108 180-42 0-84 1-126-3-15-1-30-3-43-12-6-4-6-11-3-17 4-9 10-18 20-21 13-3 25-3 38 0 2 0 4 3 6 5-10 9-26 7-37 15 0 0 0 2 0 2 9 5 19 5 29 6 30 2 60 1 90 1 3 0 4-3 5-5 15-24 32-47 36-75 1-20-6-39-11-58-6-16-11-32-20-46-1-2-2-4-2-6 5-1 9-2 14-2 17 0 35 0 52 2-7 9-8 21-7 32 0 10 3 21 8 30 5-1 8-7 10-11 8-13 15-27 21-41 2-5 5-10 4-16-1-5-7-8-10-12zM901 1414c6-3 13-2 17 2 13 12 23 28 31 44 3 6 5 16-2 21-9 6-21 9-33 9-4-9-1-19-4-28-3-7-8-15-16-17-10-1-17 8-21 15 23 34 54 62 77 96 2 2 3 5 4 8-9 12-21 20-32 30-13 9-25 18-39 25-2 1-5 3-8 2-6-4-11-9-16-14-9-10-18-21-24-34-3-5-5-12-3-18 6-9 16-12 26-16 4-1 9-4 12 1 3 7 1 15 3 23 4 9 10 20 21 22 9 1 15-9 12-17-4-10-11-18-17-27-20-25-41-50-61-75 23-19 46-39 73-52zM756 1418c17 0 33-1 50 0-1 65-2 131-4 197-20 1-39 3-59 3 3-8 6-15 8-23 4-22 4-45 5-67 1-37 0-74 0-110zM1020 1470c8-5 18-5 26-7 12 0 25-1 35 6 7 9 3 21 3 31-4 28-4 57-4 86 1 36 1 72 4 108 1 24 2 48 4 72 11-21 20-44 33-65 3-5 7-12 13-12 6 0 10 5 13 10 5 7 10 14 13 23 3 8-3 15-7 21-16 23-31 47-45 71-12 21-23 42-37 62l-2 0c-14-12-26-27-38-41-22-30-43-61-61-93-5-11-11-21-14-32-2-6 4-10 7-13 11-9 24-15 38-17 2 3 4 6 6 9 10 26 14 54 30 77 4-12 2-25 3-38 1-43-3-85-6-127-4-39-7-78-15-116 0-5-3-11 1-15z" class="color000 svgShape color3a0ca3"></path></svg></svg></g></svg>