<svg id="SvgjsSvg1144" width="288" height="288" xmlns="http://www.w3.org/2000/svg" version="1.1" xmlns:xlink="http://www.w3.org/1999/xlink" xmlns:svgjs="http://svgjs.com/svgjs"><defs id="SvgjsDefs1145"></defs><g id="SvgjsG1146"><svg xmlns="http://www.w3.org/2000/svg" width="288" height="288" viewBox="0 0 400 400"><path fill="#0433ff" fill-rule="evenodd" d="M193.164 0.622 C 167.874 1.862,140.987 7.954,121.578 16.843 C 120.227 17.462,119.042 17.969,118.945 17.969 C 117.050 17.969,97.335 28.955,87.891 35.273 C 21.455 79.722,-11.673 160.318,4.126 239.063 C 25.599 346.092,128.766 416.425,235.047 396.491 C 262.608 391.322,287.373 381.225,310.836 365.590 C 315.239 362.656,323.589 356.599,324.219 355.882 C 324.326 355.760,325.117 355.136,325.977 354.496 C 341.097 343.236,360.355 320.916,372.659 300.391 C 407.890 241.622,408.048 161.914,373.053 101.758 C 371.928 99.824,370.685 97.682,370.291 96.998 C 366.720 90.807,358.240 78.754,353.165 72.656 C 323.865 37.457,286.572 14.491,243.154 4.908 C 239.490 4.100,236.823 3.629,227.539 2.155 C 221.216 1.151,200.879 0.244,193.164 0.622 M217.188 13.261 C 226.697 14.291,233.950 15.463,242.737 17.391 C 330.880 36.725,394.377 123.833,386.745 214.948 C 383.466 254.102,367.379 293.264,343.422 320.419 C 298.711 371.096,238.139 394.339,173.828 385.494 C 138.744 380.670,101.442 363.543,76.582 340.845 C 75.626 339.972,73.605 338.129,72.090 336.749 C 50.012 316.637,32.251 289.232,22.259 259.861 C -2.227 187.888,22.221 102.156,80.664 55.054 C 106.547 34.193,134.144 21.371,165.430 15.668 C 172.942 14.299,177.038 13.806,189.844 12.727 C 193.067 12.456,213.424 12.853,217.188 13.261 M266.406 53.732 C 265.869 53.823,263.936 54.097,262.109 54.340 C 245.088 56.607,233.630 67.536,236.544 78.727 C 238.536 86.379,242.500 89.850,249.241 89.846 C 261.690 89.838,268.128 77.905,259.855 70.173 C 258.624 69.022,256.650 67.174,255.469 66.065 L 253.320 64.048 254.293 63.233 C 260.344 58.163,269.451 58.512,275.488 64.047 C 285.906 73.598,286.683 99.553,276.778 107.084 C 273.437 109.624,270.684 110.124,259.866 110.155 C 259.379 110.156,257.031 113.112,257.031 113.723 C 257.031 114.630,260.379 115.645,265.110 116.172 C 279.281 117.752,284.179 124.010,284.098 140.430 C 283.979 164.202,272.562 176.307,256.824 169.347 C 251.034 166.787,250.974 166.383,255.693 161.711 C 263.007 154.470,263.567 148.589,257.556 142.163 C 248.251 132.215,231.279 143.538,234.532 157.523 C 237.642 170.886,253.365 179.022,272.841 177.345 C 296.486 175.308,310.354 163.626,311.213 145.019 C 311.880 130.560,303.544 121.383,284.104 115.173 C 278.162 113.275,278.212 113.397,282.703 111.731 C 301.660 104.700,307.787 98.310,307.807 85.547 C 307.832 69.197,298.046 57.923,280.848 54.489 C 277.972 53.915,268.309 53.408,266.406 53.732 M122.656 72.315 C 84.394 74.728,57.422 106.429,57.422 148.988 C 57.422 181.378,74.817 207.846,101.956 216.752 C 115.063 221.052,124.874 220.034,140.820 212.719 C 151.072 208.017,152.789 208.364,154.321 215.448 C 156.696 226.430,151.120 266.829,145.432 279.849 C 138.505 295.704,119.917 301.954,102.246 294.368 C 98.861 292.915,101.183 285.156,105.775 282.576 C 114.165 277.862,117.188 273.378,117.188 265.646 C 117.188 243.056,87.879 234.487,71.435 252.270 C 62.031 262.439,63.302 282.975,74.055 294.622 C 92.721 314.841,137.141 316.014,163.104 296.975 C 201.885 268.535,217.527 192.523,197.768 128.520 C 185.440 88.585,160.507 69.928,122.656 72.315 M136.914 86.218 C 147.216 91.568,151.817 104.270,153.510 132.031 C 156.233 176.703,147.471 204.468,130.644 204.488 C 114.073 204.507,105.891 182.242,106.760 139.496 C 107.383 108.821,114.799 89.727,127.732 85.499 C 129.581 84.894,135.215 85.336,136.914 86.218 M238.649 189.433 C 234.896 190.572,234.191 193.168,237.190 194.806 C 238.404 195.468,240.651 195.508,276.824 195.508 L 315.171 195.508 316.140 194.598 C 317.993 192.857,317.673 190.561,315.448 189.631 C 313.943 189.002,240.691 188.813,238.649 189.433 M271.866 213.574 C 268.034 221.264,260.417 233.943,243.765 260.352 C 232.564 278.116,230.664 282.695,229.867 293.848 L 229.595 297.656 240.906 297.656 C 247.128 297.656,255.938 297.772,260.484 297.914 L 268.750 298.171 268.750 303.007 C 268.750 316.788,267.354 319.950,260.938 320.703 C 252.907 321.646,251.000 322.392,251.242 324.499 C 251.633 327.896,265.077 330.186,284.961 330.241 C 303.325 330.292,308.725 328.935,309.266 324.135 C 309.533 321.769,309.151 321.576,303.876 321.422 C 295.756 321.184,294.508 319.030,294.393 305.056 L 294.336 298.127 300.000 297.961 C 307.740 297.735,309.015 296.981,309.036 292.620 C 309.057 288.219,308.223 287.736,300.293 287.565 L 294.141 287.431 294.096 260.806 C 294.071 246.161,294.010 234.004,293.960 233.789 C 293.910 233.574,293.842 227.642,293.809 220.605 L 293.750 207.813 284.244 207.813 L 274.738 207.813 271.866 213.574 M268.750 264.453 L 268.750 288.672 255.882 288.672 C 248.805 288.672,242.937 288.540,242.842 288.379 C 242.747 288.218,243.714 286.152,244.991 283.789 C 246.268 281.426,249.041 276.240,251.153 272.266 C 255.640 263.823,260.102 255.467,261.895 252.148 C 262.591 250.859,264.182 247.871,265.431 245.508 C 267.636 241.333,268.297 240.234,268.603 240.234 C 268.684 240.234,268.750 251.133,268.750 264.453 " class="color050505 svgShape"></path><path fill="#fbfbfb" fill-rule="evenodd" d="M0.055 94.629 C 0.086 148.248,0.250 187.396,0.433 184.961 C 8.018 84.088,89.583 5.429,191.797 0.416 C 195.127 0.253,153.335 0.093,98.926 0.060 L 0.000 0.000 0.055 94.629 M208.594 0.263 C 298.761 5.215,370.670 64.022,393.363 151.367 C 424.288 270.397,340.306 387.979,216.211 399.396 C 211.587 399.822,225.367 399.907,305.371 399.950 L 400.000 400.000 400.000 200.000 L 400.000 0.000 303.223 0.072 C 249.995 0.112,207.412 0.198,208.594 0.263 M188.281 13.151 C 150.356 15.817,117.200 28.041,86.938 50.515 C 76.466 58.292,65.067 69.257,56.003 80.273 C 6.418 140.539,-0.907 228.039,38.124 293.847 C 86.574 375.535,186.302 408.900,272.366 372.215 C 286.569 366.161,303.351 356.495,312.109 349.324 C 312.431 349.060,314.125 347.742,315.871 346.395 C 377.946 298.522,402.870 213.317,376.607 138.767 C 348.607 59.285,270.749 7.353,188.281 13.151 M281.516 54.332 C 299.448 58.217,309.168 70.423,308.084 87.695 C 307.369 99.085,300.706 105.559,283.105 111.965 C 279.559 113.256,279.476 113.405,281.934 114.079 C 302.352 119.681,312.337 130.134,311.581 145.117 C 310.607 164.448,295.049 176.881,270.888 177.635 C 251.726 178.234,238.826 171.771,234.753 159.531 C 229.260 143.026,251.046 129.588,259.641 144.180 C 263.613 150.923,262.745 155.206,256.030 162.010 C 251.704 166.392,251.869 165.886,254.244 167.505 C 261.553 172.487,271.732 171.456,277.095 165.190 C 281.907 159.570,284.576 148.337,283.815 136.914 C 282.895 123.105,277.945 117.861,264.453 116.403 C 257.416 115.643,255.908 114.566,257.864 111.700 C 259.368 109.496,259.553 109.426,262.687 109.891 C 275.396 111.775,282.660 104.386,283.109 89.118 C 283.752 67.251,271.643 54.660,257.031 62.004 C 253.346 63.856,253.349 63.873,257.805 67.727 C 262.709 71.967,263.867 73.836,263.867 77.508 C 263.867 89.773,245.420 95.282,238.867 84.975 C 227.095 66.457,252.670 48.082,281.516 54.332 M137.120 72.265 C 168.309 75.942,185.798 91.732,197.473 126.758 C 219.068 191.546,201.487 272.894,160.156 299.422 C 127.850 320.158,77.294 311.782,67.175 284.018 C 59.227 262.211,71.408 242.593,92.969 242.476 C 115.908 242.351,127.204 270.959,108.367 281.475 C 103.029 284.455,101.172 287.129,101.172 291.836 L 101.172 293.686 104.785 294.865 C 120.568 300.015,135.128 295.984,142.670 284.375 C 150.591 272.182,157.809 222.141,153.034 212.524 C 151.269 208.971,149.411 209.015,141.406 212.804 C 124.710 220.706,114.186 221.572,99.500 216.250 C 41.649 195.290,43.417 98.705,102.061 76.326 C 112.128 72.484,125.671 70.916,137.120 72.265 M128.807 85.559 C 112.525 89.634,103.943 120.434,107.641 161.523 C 110.016 187.919,115.027 199.465,125.902 203.597 C 146.304 211.350,158.273 172.964,152.114 119.531 C 149.405 96.024,140.258 82.693,128.807 85.559 M316.139 189.512 C 318.021 190.502,318.158 192.839,316.436 194.561 L 315.294 195.703 276.650 195.703 L 238.006 195.703 236.679 194.812 C 234.363 193.257,234.963 189.858,237.646 189.332 C 239.807 188.908,315.320 189.081,316.139 189.512 M294.182 240.234 C 294.311 258.174,294.443 276.060,294.474 279.980 L 294.531 287.109 299.707 287.112 C 307.800 287.115,309.033 287.738,309.302 291.953 C 309.411 293.661,309.275 294.763,308.856 295.573 C 307.743 297.726,307.383 297.837,300.820 298.047 L 294.727 298.242 294.768 305.078 C 294.852 318.855,295.955 320.762,304.032 321.094 C 309.797 321.330,309.931 321.397,309.638 323.870 C 309.341 326.380,308.850 327.198,307.116 328.075 C 297.137 333.123,251.777 330.513,250.690 324.829 C 250.245 322.500,252.622 321.335,259.390 320.563 C 267.229 319.668,268.318 317.663,268.347 304.058 L 268.359 298.546 266.309 298.300 C 265.181 298.165,256.479 298.052,246.973 298.050 L 229.688 298.047 229.688 294.313 C 229.688 284.667,232.626 277.150,242.353 261.914 C 244.136 259.121,247.057 254.463,248.844 251.563 C 250.631 248.662,253.638 243.828,255.526 240.820 C 264.225 226.962,271.616 214.036,273.283 209.766 C 274.191 207.440,273.288 207.617,284.247 207.617 L 293.945 207.617 294.182 240.234 M0.047 304.980 L 0.000 400.000 93.066 399.947 C 144.295 399.918,184.552 399.751,182.617 399.575 C 84.936 390.700,8.818 313.970,0.609 216.105 C 0.165 210.818,0.087 223.221,0.047 304.980 M263.672 249.557 C 257.260 261.594,254.668 266.448,248.525 277.930 L 243.090 288.086 255.589 288.189 C 262.464 288.246,268.150 288.230,268.227 288.153 C 268.303 288.077,268.320 277.464,268.265 264.570 L 268.164 241.125 263.672 249.557 " class="colorfbfbfb svgShape"></path><path fill="#9f9f9f" fill-rule="evenodd" d="M199.525 0.288 C 200.660 0.368,202.418 0.367,203.431 0.287 C 204.444 0.206,203.516 0.142,201.367 0.143 C 199.219 0.144,198.390 0.209,199.525 0.288 M189.160 0.660 C 189.536 0.758,190.151 0.758,190.527 0.660 C 190.903 0.562,190.596 0.481,189.844 0.481 C 189.092 0.481,188.784 0.562,189.160 0.660 M212.207 0.660 C 212.583 0.758,213.198 0.758,213.574 0.660 C 213.950 0.562,213.643 0.481,212.891 0.481 C 212.139 0.481,211.831 0.562,212.207 0.660 M198.340 12.786 C 199.253 12.868,200.747 12.868,201.660 12.786 C 202.573 12.704,201.826 12.636,200.000 12.636 C 198.174 12.636,197.427 12.704,198.340 12.786 M187.988 13.160 C 188.364 13.258,188.979 13.258,189.355 13.160 C 189.731 13.062,189.424 12.981,188.672 12.981 C 187.920 12.981,187.612 13.062,187.988 13.160 M210.645 13.160 C 211.021 13.258,211.636 13.258,212.012 13.160 C 212.388 13.062,212.080 12.981,211.328 12.981 C 210.576 12.981,210.269 13.062,210.645 13.160 M90.820 47.495 L 89.648 48.502 90.918 47.662 C 91.616 47.200,92.188 46.746,92.188 46.653 C 92.188 46.361,92.022 46.463,90.820 47.495 M66.186 51.660 L 65.039 52.930 66.309 51.782 C 67.492 50.713,67.758 50.391,67.456 50.391 C 67.389 50.391,66.817 50.962,66.186 51.660 M333.594 51.758 C 334.323 52.510,335.007 53.125,335.114 53.125 C 335.222 53.125,334.713 52.510,333.984 51.758 C 333.256 51.006,332.571 50.391,332.464 50.391 C 332.357 50.391,332.865 51.006,333.594 51.758 M269.434 53.411 C 270.347 53.493,271.841 53.493,272.754 53.411 C 273.667 53.329,272.920 53.261,271.094 53.261 C 269.268 53.261,268.521 53.329,269.434 53.411 M61.114 56.348 L 59.570 58.008 61.230 56.464 C 62.144 55.614,62.891 54.867,62.891 54.804 C 62.891 54.508,62.550 54.804,61.114 56.348 M55.656 61.816 L 52.148 65.430 55.762 61.922 C 57.749 59.993,59.375 58.367,59.375 58.309 C 59.375 58.025,58.914 58.460,55.656 61.816 M323.438 59.497 C 323.438 59.564,324.009 60.136,324.707 60.767 L 325.977 61.914 324.829 60.645 C 323.760 59.461,323.438 59.195,323.438 59.497 M73.614 61.426 L 72.070 63.086 73.730 61.542 C 74.644 60.693,75.391 59.945,75.391 59.882 C 75.391 59.586,75.050 59.882,73.614 61.426 M331.445 67.188 C 333.586 69.336,335.425 71.094,335.532 71.094 C 335.640 71.094,333.976 69.336,331.836 67.188 C 329.696 65.039,327.856 63.281,327.749 63.281 C 327.642 63.281,329.305 65.039,331.445 67.188 M49.389 68.457 L 48.242 69.727 49.512 68.579 C 50.695 67.510,50.961 67.188,50.659 67.188 C 50.592 67.188,50.021 67.759,49.389 68.457 M260.140 70.020 C 261.098 71.040,261.933 71.875,261.995 71.875 C 262.289 71.875,261.979 71.524,260.254 69.906 L 258.398 68.164 260.140 70.020 M120.801 72.144 C 121.177 72.243,121.792 72.243,122.168 72.144 C 122.544 72.046,122.236 71.966,121.484 71.966 C 120.732 71.966,120.425 72.046,120.801 72.144 M133.301 72.144 C 133.677 72.243,134.292 72.243,134.668 72.144 C 135.044 72.046,134.736 71.966,133.984 71.966 C 133.232 71.966,132.925 72.046,133.301 72.144 M283.344 87.109 C 283.344 89.150,283.410 89.985,283.490 88.965 C 283.571 87.944,283.571 86.274,283.490 85.254 C 283.410 84.233,283.344 85.068,283.344 87.109 M141.390 89.941 C 143.009 91.666,143.359 91.976,143.359 91.683 C 143.359 91.620,142.524 90.785,141.504 89.827 L 139.648 88.086 141.390 89.941 M120.313 90.430 C 119.364 91.396,118.675 92.188,118.783 92.188 C 118.890 92.188,119.754 91.396,120.703 90.430 C 121.652 89.463,122.340 88.672,122.233 88.672 C 122.126 88.672,121.261 89.463,120.313 90.430 M153.224 133.008 C 153.228 133.867,153.308 134.173,153.401 133.687 C 153.495 133.201,153.491 132.498,153.393 132.124 C 153.296 131.751,153.219 132.148,153.224 133.008 M106.752 137.305 C 106.755 138.379,106.831 138.772,106.921 138.178 C 107.011 137.584,107.008 136.706,106.916 136.225 C 106.823 135.745,106.749 136.230,106.752 137.305 M247.956 138.174 C 248.658 138.261,249.713 138.259,250.300 138.170 C 250.887 138.081,250.312 138.009,249.023 138.012 C 247.734 138.014,247.254 138.087,247.956 138.174 M153.675 146.875 C 153.675 150.420,153.734 151.870,153.806 150.098 C 153.879 148.325,153.879 145.425,153.806 143.652 C 153.734 141.880,153.675 143.330,153.675 146.875 M238.452 142.676 L 237.305 143.945 238.574 142.798 C 239.272 142.167,239.844 141.596,239.844 141.528 C 239.844 141.227,239.521 141.492,238.452 142.676 M106.747 150.391 C 106.747 151.357,106.823 151.753,106.916 151.270 C 107.009 150.786,107.009 149.995,106.916 149.512 C 106.823 149.028,106.747 149.424,106.747 150.391 M261.825 151.563 C 261.825 152.529,261.901 152.925,261.994 152.441 C 262.088 151.958,262.088 151.167,261.994 150.684 C 261.901 150.200,261.825 150.596,261.825 151.563 M57.122 153.906 C 57.122 154.658,57.202 154.966,57.301 154.590 C 57.399 154.214,57.399 153.599,57.301 153.223 C 57.202 152.847,57.122 153.154,57.122 153.906 M256.431 161.426 L 254.492 163.477 256.543 161.538 C 257.671 160.472,258.594 159.549,258.594 159.487 C 258.594 159.196,258.232 159.520,256.431 161.426 M240.625 168.945 C 241.354 169.697,242.038 170.313,242.145 170.313 C 242.253 170.313,241.744 169.697,241.016 168.945 C 240.287 168.193,239.603 167.578,239.495 167.578 C 239.388 167.578,239.896 168.193,240.625 168.945 M205.958 172.070 C 205.962 172.930,206.042 173.235,206.136 172.749 C 206.229 172.263,206.226 171.560,206.128 171.187 C 206.030 170.813,205.954 171.211,205.958 172.070 M206.414 186.328 C 206.414 190.518,206.471 192.231,206.541 190.137 C 206.611 188.042,206.611 184.614,206.541 182.520 C 206.471 180.425,206.414 182.139,206.414 186.328 M0.481 184.375 C 0.481 185.127,0.562 185.435,0.660 185.059 C 0.758 184.683,0.758 184.067,0.660 183.691 C 0.562 183.315,0.481 183.623,0.481 184.375 M13.372 189.844 C 13.372 190.596,13.452 190.903,13.551 190.527 C 13.649 190.151,13.649 189.536,13.551 189.160 C 13.452 188.784,13.372 189.092,13.372 189.844 M0.117 191.016 C 0.117 192.197,0.190 192.681,0.280 192.090 C 0.369 191.499,0.369 190.532,0.280 189.941 C 0.190 189.351,0.117 189.834,0.117 191.016 M386.836 193.359 C 386.836 194.541,386.909 195.024,386.999 194.434 C 387.088 193.843,387.088 192.876,386.999 192.285 C 386.909 191.694,386.836 192.178,386.836 193.359 M13.038 201.953 C 13.038 204.424,13.102 205.435,13.179 204.199 C 13.257 202.964,13.257 200.942,13.179 199.707 C 13.102 198.472,13.038 199.482,13.038 201.953 M140.796 200.098 L 139.648 201.367 140.918 200.220 C 141.616 199.589,142.188 199.018,142.188 198.950 C 142.188 198.649,141.865 198.914,140.796 200.098 M205.950 200.000 C 205.950 200.752,206.030 201.060,206.129 200.684 C 206.227 200.308,206.227 199.692,206.129 199.316 C 206.030 198.940,205.950 199.248,205.950 200.000 M77.148 201.953 C 78.424 203.242,79.556 204.297,79.663 204.297 C 79.770 204.297,78.815 203.242,77.539 201.953 C 76.263 200.664,75.132 199.609,75.024 199.609 C 74.917 199.609,75.873 200.664,77.148 201.953 M386.844 207.422 C 386.844 208.818,386.915 209.390,387.001 208.691 C 387.088 207.993,387.088 206.851,387.001 206.152 C 386.915 205.454,386.844 206.025,386.844 207.422 M0.117 208.203 C 0.117 209.385,0.190 209.868,0.280 209.277 C 0.369 208.687,0.369 207.720,0.280 207.129 C 0.190 206.538,0.117 207.021,0.117 208.203 M289.648 207.654 C 291.478 207.948,294.052 207.985,293.885 207.715 C 293.785 207.554,292.616 207.446,291.286 207.475 C 289.955 207.504,289.219 207.585,289.648 207.654 M399.309 211.328 C 399.309 212.080,399.390 212.388,399.488 212.012 C 399.586 211.636,399.586 211.021,399.488 210.645 C 399.390 210.269,399.309 210.576,399.309 211.328 M154.388 230.078 C 154.388 230.830,154.468 231.138,154.566 230.762 C 154.664 230.386,154.664 229.771,154.566 229.395 C 154.468 229.019,154.388 229.326,154.388 230.078 M268.263 256.152 C 268.317 264.692,268.408 275.459,268.466 280.078 C 268.524 284.697,268.611 277.710,268.660 264.551 C 268.710 251.392,268.618 240.625,268.457 240.625 C 268.296 240.625,268.208 247.612,268.263 256.152 M92.291 242.468 C 92.884 242.558,93.763 242.555,94.244 242.462 C 94.724 242.370,94.238 242.296,93.164 242.299 C 92.090 242.302,91.697 242.378,92.291 242.468 M72.052 250.879 L 70.508 252.539 72.168 250.995 C 73.712 249.559,74.008 249.219,73.712 249.219 C 73.648 249.219,72.901 249.966,72.052 250.879 M294.312 275.977 C 294.311 281.777,294.366 284.205,294.432 281.371 C 294.499 278.537,294.499 273.791,294.433 270.824 C 294.366 267.857,294.312 270.176,294.312 275.977 M103.686 284.473 L 102.539 285.742 103.809 284.595 C 104.992 283.525,105.258 283.203,104.956 283.203 C 104.889 283.203,104.317 283.774,103.686 284.473 M171.875 289.648 C 170.274 291.260,169.053 292.578,169.160 292.578 C 169.268 292.578,170.665 291.260,172.266 289.648 C 173.866 288.037,175.088 286.719,174.980 286.719 C 174.873 286.719,173.476 288.037,171.875 289.648 M298.161 287.399 C 299.620 287.475,301.905 287.474,303.239 287.398 C 304.573 287.322,303.379 287.260,300.586 287.261 C 297.793 287.262,296.702 287.324,298.161 287.399 M100.888 292.188 C 100.888 293.154,100.964 293.550,101.057 293.066 C 101.150 292.583,101.150 291.792,101.057 291.309 C 100.964 290.825,100.888 291.221,100.888 292.188 M74.984 296.191 C 75.941 297.212,76.776 298.047,76.839 298.047 C 77.132 298.047,76.822 297.696,75.098 296.077 L 73.242 294.336 74.984 296.191 M162.695 297.495 L 161.523 298.502 162.793 297.662 C 163.491 297.200,164.063 296.746,164.063 296.653 C 164.063 296.361,163.897 296.463,162.695 297.495 M233.105 297.947 C 235.093 298.018,238.345 298.018,240.332 297.947 C 242.319 297.876,240.693 297.818,236.719 297.818 C 232.744 297.818,231.118 297.876,233.105 297.947 M265.625 298.201 C 265.625 298.286,266.313 298.421,267.155 298.501 C 267.996 298.582,268.601 298.512,268.499 298.347 C 268.313 298.047,265.625 297.910,265.625 298.201 M115.332 310.836 C 116.567 310.913,118.589 310.913,119.824 310.836 C 121.060 310.758,120.049 310.695,117.578 310.695 C 115.107 310.695,114.097 310.758,115.332 310.836 M302.256 321.380 C 303.175 321.463,304.581 321.462,305.381 321.378 C 306.181 321.294,305.430 321.226,303.711 321.228 C 301.992 321.229,301.338 321.298,302.256 321.380 M59.375 323.560 C 59.375 323.627,59.946 324.198,60.645 324.829 L 61.914 325.977 60.767 324.707 C 59.697 323.524,59.375 323.258,59.375 323.560 M337.677 326.270 L 336.133 327.930 337.793 326.386 C 338.706 325.536,339.453 324.789,339.453 324.725 C 339.453 324.430,339.113 324.726,337.677 326.270 M67.383 332.031 C 69.307 333.965,70.970 335.547,71.077 335.547 C 71.185 335.547,69.698 333.965,67.773 332.031 C 65.849 330.098,64.186 328.516,64.079 328.516 C 63.971 328.516,65.458 330.098,67.383 332.031 M272.754 330.347 C 273.130 330.446,273.745 330.446,274.121 330.347 C 274.497 330.249,274.189 330.169,273.438 330.169 C 272.686 330.169,272.378 330.249,272.754 330.347 M282.539 330.760 C 284.429 330.832,287.417 330.831,289.179 330.759 C 290.941 330.687,289.395 330.628,285.742 330.629 C 282.090 330.629,280.648 330.688,282.539 330.760 M348.999 332.910 L 347.852 334.180 349.121 333.032 C 349.819 332.401,350.391 331.830,350.391 331.763 C 350.391 331.461,350.068 331.727,348.999 332.910 M56.445 339.453 C 58.154 341.172,59.640 342.578,59.747 342.578 C 59.855 342.578,58.545 341.172,56.836 339.453 C 55.127 337.734,53.641 336.328,53.534 336.328 C 53.427 336.328,54.737 337.734,56.445 339.453 M326.151 337.793 L 324.805 339.258 326.270 337.912 C 327.075 337.171,327.734 336.512,327.734 336.447 C 327.734 336.149,327.404 336.430,326.151 337.793 M341.399 340.918 L 337.695 344.727 341.504 341.023 C 345.041 337.584,345.490 337.109,345.207 337.109 C 345.149 337.109,343.435 338.823,341.399 340.918 M73.438 337.622 C 73.438 337.689,74.009 338.261,74.707 338.892 L 75.977 340.039 74.829 338.770 C 73.760 337.586,73.438 337.320,73.438 337.622 M62.891 345.898 C 64.058 347.080,65.100 348.047,65.208 348.047 C 65.315 348.047,64.448 347.080,63.281 345.898 C 62.114 344.717,61.072 343.750,60.964 343.750 C 60.857 343.750,61.724 344.717,62.891 345.898 M66.797 349.341 C 66.797 349.408,67.368 349.979,68.066 350.611 L 69.336 351.758 68.189 350.488 C 67.119 349.305,66.797 349.039,66.797 349.341 M330.639 350.879 L 329.492 352.148 330.762 351.001 C 331.460 350.370,332.031 349.799,332.031 349.732 C 332.031 349.430,331.709 349.696,330.639 350.879 M190.723 386.999 C 191.313 387.088,192.280 387.088,192.871 386.999 C 193.462 386.909,192.979 386.836,191.797 386.836 C 190.615 386.836,190.132 386.909,190.723 386.999 M206.934 386.994 C 207.417 387.088,208.208 387.088,208.691 386.994 C 209.175 386.901,208.779 386.825,207.813 386.825 C 206.846 386.825,206.450 386.901,206.934 386.994 M186.621 399.885 C 187.104 399.978,187.896 399.978,188.379 399.885 C 188.862 399.792,188.467 399.716,187.500 399.716 C 186.533 399.716,186.138 399.792,186.621 399.885 M208.891 399.886 C 209.377 399.979,210.080 399.976,210.454 399.878 C 210.827 399.780,210.430 399.704,209.570 399.708 C 208.711 399.712,208.405 399.792,208.891 399.886 " class="color9f9f9f svgShape"></path><path fill="#7c7c7c" fill-rule="evenodd" d="M264.160 170.972 C 264.536 171.071,265.151 171.071,265.527 170.972 C 265.903 170.874,265.596 170.794,264.844 170.794 C 264.092 170.794,263.784 170.874,264.160 170.972 M0.091 205.078 C 0.091 205.830,0.171 206.138,0.269 205.762 C 0.368 205.386,0.368 204.771,0.269 204.395 C 0.171 204.019,0.091 204.326,0.091 205.078 M293.896 212.305 C 293.897 214.668,293.961 215.584,294.039 214.341 C 294.117 213.098,294.116 211.164,294.037 210.044 C 293.959 208.924,293.895 209.941,293.896 212.305 M64.961 270.703 C 64.961 271.885,65.034 272.368,65.124 271.777 C 65.213 271.187,65.213 270.220,65.124 269.629 C 65.034 269.038,64.961 269.521,64.961 270.703 M252.854 288.573 C 255.391 288.641,259.434 288.641,261.838 288.573 C 264.243 288.504,262.168 288.448,257.227 288.449 C 252.285 288.449,250.318 288.505,252.854 288.573 M268.504 302.734 C 268.504 304.990,268.568 305.913,268.647 304.785 C 268.726 303.657,268.726 301.812,268.647 300.684 C 268.568 299.556,268.504 300.479,268.504 302.734 " class="color7c7c7c svgShape"></path><path fill="#747474" fill-rule="evenodd" d="M192.676 0.670 C 193.267 0.760,194.233 0.760,194.824 0.670 C 195.415 0.581,194.932 0.508,193.750 0.508 C 192.568 0.508,192.085 0.581,192.676 0.670 M207.324 0.673 C 208.022 0.760,209.165 0.760,209.863 0.673 C 210.562 0.587,209.990 0.516,208.594 0.516 C 207.197 0.516,206.626 0.587,207.324 0.673 M192.487 12.783 C 193.190 12.870,194.244 12.868,194.831 12.779 C 195.418 12.690,194.844 12.619,193.555 12.621 C 192.266 12.623,191.785 12.696,192.487 12.783 M205.176 12.780 C 205.767 12.869,206.733 12.869,207.324 12.780 C 207.915 12.690,207.432 12.617,206.250 12.617 C 205.068 12.617,204.585 12.690,205.176 12.780 M331.641 50.122 C 331.641 50.189,332.212 50.761,332.910 51.392 L 334.180 52.539 333.032 51.270 C 331.963 50.086,331.641 49.820,331.641 50.122 M63.068 54.785 L 61.523 56.445 63.184 54.901 C 64.097 54.052,64.844 53.305,64.844 53.241 C 64.844 52.945,64.504 53.241,63.068 54.785 M338.281 56.372 C 338.281 56.439,338.853 57.011,339.551 57.642 L 340.820 58.789 339.673 57.520 C 338.604 56.336,338.281 56.070,338.281 56.372 M325.781 61.523 C 326.510 62.275,327.194 62.891,327.302 62.891 C 327.409 62.891,326.901 62.275,326.172 61.523 C 325.443 60.771,324.759 60.156,324.651 60.156 C 324.544 60.156,325.052 60.771,325.781 61.523 M71.854 62.793 L 70.508 64.258 71.973 62.912 C 73.336 61.659,73.617 61.328,73.319 61.328 C 73.254 61.328,72.594 61.987,71.854 62.793 M298.438 62.622 C 298.438 62.689,299.009 63.261,299.707 63.892 L 300.977 65.039 299.829 63.770 C 298.760 62.586,298.438 62.320,298.438 62.622 M53.125 64.648 C 52.176 65.615,51.488 66.406,51.595 66.406 C 51.703 66.406,52.567 65.615,53.516 64.648 C 54.464 63.682,55.153 62.891,55.045 62.891 C 54.938 62.891,54.074 63.682,53.125 64.648 M275.765 64.551 C 276.723 65.571,277.558 66.406,277.620 66.406 C 277.914 66.406,277.604 66.056,275.879 64.437 L 274.023 62.695 275.765 64.551 M62.479 72.168 L 61.133 73.633 62.598 72.287 C 63.961 71.034,64.242 70.703,63.944 70.703 C 63.879 70.703,63.219 71.362,62.479 72.168 M124.322 72.155 C 124.916 72.245,125.794 72.243,126.275 72.150 C 126.755 72.057,126.270 71.984,125.195 71.987 C 124.121 71.990,123.728 72.066,124.322 72.155 M129.400 72.155 C 129.994 72.245,130.873 72.243,131.353 72.150 C 131.833 72.057,131.348 71.984,130.273 71.987 C 129.199 71.990,128.806 72.066,129.400 72.155 M263.763 77.344 C 263.763 78.096,263.843 78.403,263.941 78.027 C 264.039 77.651,264.039 77.036,263.941 76.660 C 263.843 76.284,263.763 76.592,263.763 77.344 M307.930 85.547 C 307.930 86.729,308.003 87.212,308.092 86.621 C 308.182 86.030,308.182 85.063,308.092 84.473 C 308.003 83.882,307.930 84.365,307.930 85.547 M176.156 89.551 C 177.774 91.275,178.125 91.586,178.125 91.292 C 178.125 91.230,177.290 90.395,176.270 89.437 L 174.414 87.695 176.156 89.551 M120.093 90.332 L 118.945 91.602 120.215 90.454 C 121.398 89.385,121.664 89.063,121.362 89.063 C 121.295 89.063,120.724 89.634,120.093 90.332 M141.016 89.185 C 141.016 89.252,141.587 89.823,142.285 90.454 L 143.555 91.602 142.407 90.332 C 141.338 89.149,141.016 88.883,141.016 89.185 M247.956 90.127 C 248.658 90.214,249.713 90.212,250.300 90.123 C 250.887 90.034,250.312 89.963,249.023 89.965 C 247.734 89.967,247.254 90.040,247.956 90.127 M277.905 105.957 L 276.758 107.227 278.027 106.079 C 278.726 105.448,279.297 104.877,279.297 104.810 C 279.297 104.508,278.975 104.774,277.905 105.957 M153.614 137.305 C 153.618 138.164,153.698 138.470,153.792 137.984 C 153.885 137.498,153.882 136.795,153.784 136.421 C 153.686 136.048,153.610 136.445,153.614 137.305 M284.109 139.453 C 284.109 140.850,284.180 141.421,284.267 140.723 C 284.354 140.024,284.354 138.882,284.267 138.184 C 284.180 137.485,284.109 138.057,284.109 139.453 M257.031 141.602 C 257.760 142.354,258.444 142.969,258.552 142.969 C 258.659 142.969,258.151 142.354,257.422 141.602 C 256.693 140.850,256.009 140.234,255.901 140.234 C 255.794 140.234,256.302 140.850,257.031 141.602 M238.651 142.871 L 237.305 144.336 238.770 142.990 C 240.133 141.737,240.414 141.406,240.116 141.406 C 240.050 141.406,239.391 142.065,238.651 142.871 M311.445 143.359 C 311.445 144.541,311.518 145.024,311.608 144.434 C 311.697 143.843,311.697 142.876,311.608 142.285 C 311.518 141.694,311.445 142.178,311.445 143.359 M57.159 148.242 C 57.161 149.746,57.232 150.313,57.316 149.503 C 57.401 148.693,57.399 147.462,57.313 146.769 C 57.227 146.075,57.158 146.738,57.159 148.242 M106.731 153.906 C 106.731 154.658,106.812 154.966,106.910 154.590 C 107.008 154.214,107.008 153.599,106.910 153.223 C 106.812 152.847,106.731 153.154,106.731 153.906 M153.622 156.641 C 153.622 157.607,153.698 158.003,153.791 157.520 C 153.884 157.036,153.884 156.245,153.791 155.762 C 153.698 155.278,153.622 155.674,153.622 156.641 M255.265 162.207 L 251.758 165.820 255.371 162.313 C 257.358 160.384,258.984 158.758,258.984 158.700 C 258.984 158.416,258.523 158.851,255.265 162.207 M305.469 162.109 C 305.010 162.754,304.722 163.281,304.830 163.281 C 304.937 163.281,305.400 162.754,305.859 162.109 C 306.318 161.465,306.606 160.938,306.499 160.938 C 306.391 160.938,305.928 161.465,305.469 162.109 M299.414 168.198 L 298.242 169.205 299.512 168.365 C 300.210 167.903,300.781 167.449,300.781 167.356 C 300.781 167.064,300.616 167.166,299.414 168.198 M205.950 175.391 C 205.950 176.143,206.030 176.450,206.129 176.074 C 206.227 175.698,206.227 175.083,206.129 174.707 C 206.030 174.331,205.950 174.639,205.950 175.391 M271.001 177.620 C 271.487 177.713,272.190 177.710,272.563 177.612 C 272.937 177.514,272.539 177.438,271.680 177.442 C 270.820 177.447,270.515 177.527,271.001 177.620 M13.002 194.336 C 13.005 195.410,13.081 195.803,13.171 195.209 C 13.261 194.616,13.258 193.737,13.166 193.256 C 13.073 192.776,12.999 193.262,13.002 194.336 M399.382 201.953 C 399.382 206.143,399.440 207.856,399.510 205.762 C 399.580 203.667,399.580 200.239,399.510 198.145 C 399.440 196.050,399.382 197.764,399.382 201.953 M0.149 199.414 C 0.150 201.992,0.213 202.996,0.290 201.645 C 0.366 200.294,0.365 198.184,0.288 196.957 C 0.211 195.730,0.148 196.836,0.149 199.414 M118.343 198.926 C 119.962 200.650,120.313 200.961,120.313 200.667 C 120.313 200.605,119.478 199.770,118.457 198.812 L 116.602 197.070 118.343 198.926 M76.367 200.781 C 77.206 201.641,77.981 202.344,78.088 202.344 C 78.196 202.344,77.597 201.641,76.758 200.781 C 75.919 199.922,75.144 199.219,75.037 199.219 C 74.929 199.219,75.528 199.922,76.367 200.781 M78.516 202.857 C 78.516 202.924,79.087 203.495,79.785 204.126 L 81.055 205.273 79.907 204.004 C 78.838 202.821,78.516 202.555,78.516 202.857 M13.008 208.984 C 13.008 210.166,13.081 210.649,13.170 210.059 C 13.260 209.468,13.260 208.501,13.170 207.910 C 13.081 207.319,13.008 207.803,13.008 208.984 M0.489 211.914 C 0.493 212.773,0.573 213.079,0.667 212.593 C 0.760 212.107,0.757 211.404,0.659 211.031 C 0.561 210.657,0.485 211.055,0.489 211.914 M386.809 211.719 C 386.809 212.471,386.890 212.778,386.988 212.402 C 387.086 212.026,387.086 211.411,386.988 211.035 C 386.890 210.659,386.809 210.967,386.809 211.719 M293.916 224.805 C 293.917 229.531,293.973 231.411,294.042 228.982 C 294.110 226.553,294.110 222.686,294.041 220.389 C 293.972 218.091,293.916 220.078,293.916 224.805 M114.551 219.428 C 115.571 219.508,117.241 219.508,118.262 219.428 C 119.282 219.347,118.447 219.281,116.406 219.281 C 114.365 219.281,113.530 219.347,114.551 219.428 M154.826 224.414 C 154.825 226.348,154.891 227.188,154.973 226.281 C 155.055 225.375,155.056 223.793,154.975 222.766 C 154.894 221.739,154.827 222.480,154.826 224.414 M71.875 251.367 C 70.926 252.334,70.238 253.125,70.345 253.125 C 70.453 253.125,71.317 252.334,72.266 251.367 C 73.214 250.400,73.903 249.609,73.795 249.609 C 73.688 249.609,72.824 250.400,71.875 251.367 M117.286 265.430 C 117.290 266.289,117.370 266.595,117.464 266.109 C 117.557 265.623,117.554 264.920,117.456 264.546 C 117.358 264.173,117.282 264.570,117.286 265.430 M171.672 289.551 L 168.164 293.164 171.777 289.657 C 175.133 286.399,175.568 285.938,175.285 285.938 C 175.227 285.938,173.601 287.563,171.672 289.551 M242.927 288.398 C 243.100 288.570,244.455 288.656,245.937 288.589 L 248.633 288.469 245.623 288.277 C 243.968 288.172,242.755 288.226,242.927 288.398 M116.699 297.548 C 117.397 297.635,118.540 297.635,119.238 297.548 C 119.937 297.462,119.365 297.391,117.969 297.391 C 116.572 297.391,116.001 297.462,116.699 297.548 M247.168 297.947 C 249.155 298.018,252.407 298.018,254.395 297.947 C 256.382 297.876,254.756 297.818,250.781 297.818 C 246.807 297.818,245.181 297.876,247.168 297.947 M294.258 305.078 C 294.258 306.260,294.331 306.743,294.420 306.152 C 294.510 305.562,294.510 304.595,294.420 304.004 C 294.331 303.413,294.258 303.896,294.258 305.078 M268.458 308.008 C 268.462 308.867,268.542 309.173,268.636 308.687 C 268.729 308.201,268.726 307.498,268.628 307.124 C 268.530 306.751,268.454 307.148,268.458 308.008 M250.834 324.269 C 250.805 324.834,251.088 325.536,251.465 325.831 C 252.060 326.298,252.090 326.291,251.698 325.781 C 251.450 325.459,251.166 324.756,251.067 324.219 L 250.888 323.242 250.834 324.269 M61.133 325.781 C 61.972 326.641,62.746 327.344,62.854 327.344 C 62.961 327.344,62.363 326.641,61.523 325.781 C 60.684 324.922,59.910 324.219,59.802 324.219 C 59.695 324.219,60.294 324.922,61.133 325.781 M337.088 327.246 L 335.742 328.711 337.207 327.365 C 338.570 326.112,338.851 325.781,338.553 325.781 C 338.488 325.781,337.829 326.440,337.088 327.246 M275.684 330.354 C 276.167 330.447,276.958 330.447,277.441 330.354 C 277.925 330.261,277.529 330.185,276.563 330.185 C 275.596 330.185,275.200 330.261,275.684 330.354 M327.734 336.523 C 326.786 337.490,326.097 338.281,326.205 338.281 C 326.312 338.281,327.176 337.490,328.125 336.523 C 329.074 335.557,329.762 334.766,329.655 334.766 C 329.547 334.766,328.683 335.557,327.734 336.523 M345.099 336.816 L 343.555 338.477 345.215 336.932 C 346.759 335.496,347.055 335.156,346.759 335.156 C 346.695 335.156,345.948 335.903,345.099 336.816 M72.266 336.841 C 72.266 336.908,72.837 337.479,73.535 338.111 L 74.805 339.258 73.657 337.988 C 72.588 336.805,72.266 336.539,72.266 336.841 M338.281 343.555 C 337.332 344.521,336.644 345.313,336.751 345.313 C 336.859 345.313,337.723 344.521,338.672 343.555 C 339.621 342.588,340.309 341.797,340.202 341.797 C 340.094 341.797,339.230 342.588,338.281 343.555 M64.258 346.875 C 65.097 347.734,65.871 348.438,65.979 348.438 C 66.086 348.438,65.488 347.734,64.648 346.875 C 63.809 346.016,63.035 345.313,62.927 345.313 C 62.820 345.313,63.419 346.016,64.258 346.875 M210.645 386.988 C 211.021 387.086,211.636 387.086,212.012 386.988 C 212.388 386.890,212.080 386.809,211.328 386.809 C 210.576 386.809,210.269 386.890,210.645 386.988 M198.730 387.392 C 199.429 387.479,200.571 387.479,201.270 387.392 C 201.968 387.305,201.396 387.234,200.000 387.234 C 198.604 387.234,198.032 387.305,198.730 387.392 M204.985 399.886 C 205.471 399.979,206.174 399.976,206.548 399.878 C 206.921 399.780,206.523 399.704,205.664 399.708 C 204.805 399.712,204.499 399.792,204.985 399.886 " class="color747474 svgShape"></path></svg></g></svg>