<svg id="SvgjsSvg1086" width="288" height="288" xmlns="http://www.w3.org/2000/svg" version="1.1" xmlns:xlink="http://www.w3.org/1999/xlink" xmlns:svgjs="http://svgjs.com/svgjs"><defs id="SvgjsDefs1087"></defs><g id="SvgjsG1088"><svg xmlns="http://www.w3.org/2000/svg" width="288" height="288" version="1.0" viewBox="0 0 1536 1152"><path d="M6900 10554 c-147 -10 -213 -24 -259 -53 -123 -80 -180 -184 -196-359 -9 -90 -16 -96 -145 -111 -220 -25 -302 -84 -344 -246 -25 -97 -39 -323
-32 -504 11 -270 40 -388 113 -463 49 -50 112 -75 232 -92 117 -16 146 -31
160 -83 12 -43 15 -272 3 -290 -15 -23 -64 -33 -165 -33 -175 0 -207 -20 -207
-126 0 -98 36 -123 179 -124 61 0 66 -2 101 -39 25 -27 44 -62 63 -119 46
-139 61 -249 61 -447 0 -191 -13 -274 -55 -342 -12 -18 -146 -127 -322 -259
-438 -330 -533 -404 -767 -598 -845 -701 -1337 -1319 -1529 -1919 -134 -418
-141 -858 -21 -1345 85 -344 244 -672 453 -935 95 -118 290 -307 409 -395 522
-387 1181 -603 2098 -689 225 -21 848 -24 1035 -5 328 33 547 69 795 132 850
212 1500 642 1876 1237 208 329 334 762 334 1147 0 58 4 116 9 129 12 31 41
42 283 111 107 30 231 69 274 86 209 83 309 191 333 361 11 74 -4 157 -94 518
-218 879 -545 2052 -593 2131 -28 45 -96 111 -150 146 -107 69 -629 319 -792
380 -102 37 -230 40 -307 7 -28 -13 -61 -23 -73 -23 -12 0 -64 40 -131 103
-392 363 -715 601 -1038 766 -150 77 -246 109 -352 117 -119 9 -119 10 -119
161 0 190 14 210 165 238 163 29 267 98 320 212 37 76 49 231 41 513 -9 332
-22 385 -113 472 -69 67 -160 100 -309 113 -39 4 -77 10 -84 15 -8 5 -18 51
-27 122 -16 138 -50 216 -121 278 -66 59 -108 78 -198 90 -78 11 -688 21 -794
14z m1105 -784 c170 -10 223 -25 258 -74 22 -31 22 -35 19 -311 -3 -288 -9
-340 -40 -368 -10 -9 -64 -26 -121 -37 -118 -24 -171 -43 -222 -79 -77 -54
-114 -141 -129 -303 -7 -73 -17 -123 -28 -143 -65 -111 -283 -173 -576 -162
-218 8 -347 47 -419 126 -32 35 -36 46 -42 117 -25 309 -122 419 -398 450 -76
8 -104 33 -116 99 -5 28 -11 165 -13 305 -3 289 0 309 61 339 54 27 85 33 211
40 172 10 1382 11 1555 1z m-380 -1723 c118 -38 135 -91 135 -437 0 -326 12
-465 46 -540 34 -76 85 -124 289 -270 355 -256 752 -568 871 -685 50 -48 65
-71 77 -115 32 -110 127 -470 181 -680 l55 -215 -397 -3 c-218 -2 -1085 1
-1927 7 -1825 12 -2001 7 -2107 -52 -75 -41 -317 -450 -401 -677 -151 -408
-157 -844 -16 -1247 167 -478 562 -904 1078 -1162 363 -183 753 -283 1306
-337 210 -21 715 -24 890 -5 400 42 729 118 1025 238 740 299 1191 796 1345
1483 14 63 29 118 33 122 9 9 356 98 383 98 10 0 20 -6 20 -12 7 -65 -31 -335
-70 -493 -242 -990 -1021 -1577 -2362 -1779 -207 -32 -502 -46 -947 -46 -357
0 -505 10 -772 51 -783 121 -1359 369 -1767 763 -358 344 -562 781 -628 1342
-86 737 168 1352 850 2053 339 349 743 689 1385 1170 173 129 343 263 378 297
117 117 131 183 132 639 0 367 14 429 102 473 68 34 150 41 473 38 232 -3 300
-7 340 -19z m613 -2 c127 -38 400 -201 659 -393 269 -201 548 -444 560 -489 9
-38 -21 -90 -201 -358 -89 -132 -180 -268 -201 -302 -21 -35 -43 -63 -49 -63
-6 0 -67 46 -136 101 -155 125 -552 423 -682 513 -111 76 -144 111 -155 164
-4 20 -8 199 -8 397 0 397 4 430 53 441 15 3 32 7 37 9 14 6 65 -3 123 -20z
m1783 -963 c102 -44 390 -177 536 -248 188 -92 222 -162 393 -799 50 -187 152
-560 225 -830 157 -572 191 -709 207 -838 14 -116 2 -185 -43 -240 -58 -70
-85 -79 -949 -303 -146 -38 -242 -58 -300 -61 -82 -5 -86 -4 -126 25 -38 28
-44 39 -82 153 -157 475 -622 2237 -622 2360 0 26 70 142 242 404 47 72 101
151 120 177 l34 48 26 -28 c14 -15 38 -44 53 -65 52 -71 149 -107 206 -77 26
14 49 62 49 102 0 24 -18 60 -70 136 -39 57 -70 110 -70 119 0 24 62 12 171
-35z" transform="matrix(.1 0 0 -.1 0 1152)" fill="#daa520" class="color000 svgShape"></path></svg></g></svg>