<svg id="SvgjsSvg1095" width="288" height="288" xmlns="http://www.w3.org/2000/svg" version="1.1" xmlns:xlink="http://www.w3.org/1999/xlink" xmlns:svgjs="http://svgjs.com/svgjs"><defs id="SvgjsDefs1096"></defs><g id="SvgjsG1097"><svg xmlns="http://www.w3.org/2000/svg" fill-rule="evenodd" stroke-linejoin="round" stroke-miterlimit="2" clip-rule="evenodd" viewBox="0 0 8334 8334" width="288" height="288"><path d="M1457.07,3413.83C1448.59,3591.08 1436.24,3759.41 1405.57,3926.79C1480.37,3862.3 1572.74,3815.14 1673.48,3776.24L1720.12,3968.77L1771.98,4015.05L1694.49,4109.92C1707.36,4674.48 1704.57,5263.59 1672.03,5802.93C1719.59,5857.11 1718.79,5854.57 1669.22,5901.19C1646.84,6211.37 1627.97,6505.04 1568.31,6783.43C1799.85,6866.9 2044.62,6971.37 2251.76,7132.81C2318.36,7080.33 2376.46,7069.44 2403.7,7209.71C2616.02,7289.07 2830.23,7373.58 3070.76,7530.16C3146.94,7521.11 3190.75,7542.43 3187.25,7608.15C3450.21,7739.05 3713.07,7888.37 3975.36,8153.7C4256.41,7951.3 4545.8,7754.95 4919.68,7620.05C4900.01,7551.25 4924.06,7514.63 5031.22,7539.18C5421.17,7308.82 5817.01,7024.82 6180.86,7032.45L6457.79,6906C6401.89,6798.87 6383.65,6664.38 6383.49,6516.74C6429.51,6448.46 6417.61,6337.57 6377.28,6205.77L6393.17,5985.72C6315.68,5974.43 6309.55,5920.26 6402.78,5806.36C6377.63,5064.48 6386.15,4311.98 6437.55,3545.97C6527.83,3583.36 6619.25,3644.02 6721.48,3695.81C6789.89,3428.92 6707.37,3474.18 6724.56,3387.59C6763.68,3190.62 6806.54,3026.18 6922.36,2824.14L6886.96,2748.96C7033.09,2531.34 7048.11,2310.08 7260.87,2175.41L6865.91,1899.66L6769.72,1931.97L6752.11,1857.04L6550.32,1781.13L6612.83,1473.94C6596.56,1410.78 6579.34,1395.23 6652.44,1397.9C6710.46,1227.95 6770.34,1058.86 6850.78,899.227C6511.02,980.936 6150.7,989.11 5833.45,911.534L5791.97,973.428C5715.45,863.368 5592.93,869.142 5522.51,956.847L5520.97,883.235C5300.07,854.924 5086.84,838.135 4930.86,780.557C4919.6,737.733 4949.03,732.878 5027.55,773.849C5066.99,701.448 5126.41,622.775 5193.01,541.849C5105.67,475.724 4998.17,419.994 4875.12,372.285L4810.44,460.84L4758.18,448.342L4776.39,370.849L4492.28,281.205L4441.94,363.995L4355.63,349.573L4357.49,265.499L4203.85,238.113L4151.22,179.628L4085.86,255.974L3896.62,254.409L3883.39,341.119L3781.33,346.012L3771.3,276.972L3455.93,322.74L3455,386.694L3380.59,399.777L3342.8,313.238C3202.03,352.877 3074.42,407.304 2953.99,469.798L3118.4,705.106L3199.28,675.219L3228.05,718.363C3064.43,801.868 2818.93,794.002 2551.7,773.084L2554.94,870.728L2484.55,811.463C2103.48,843.393 1768.19,807.122 1470.16,715.336C1518.28,895.674 1561.16,1074.85 1575.2,1247.6L1623.8,1282.5C1603.51,1322.36 1591.22,1372.91 1598.04,1449.01L1418.52,1506.07L1444.61,1733.48C1249.28,1843.19 1063.48,1947.62 1072.8,2122.52L1220.05,2240.68C1255.65,2403.63 1314.18,2502.55 1394.67,2604.61C1394.67,2604.61 1399.84,2599.11 1394.67,2604.61C1294.52,2711.18 1268.76,2886.19 1290.48,3127.98C1301.56,3251.3 1398.42,3404.41 1457.07,3413.83ZM1467.71,3237.04C1441.58,3200.19 1425.2,3134.26 1419.52,3072.63C1409.1,2959.53 1423.07,2854.21 1455.85,2774.8C1465.41,2927.43 1469.27,3089.36 1467.71,3237.04ZM6947.78,2515.89C7013.34,2432.27 6917.49,2386.61 6854.36,2335.92L7013.43,2397.04C7026.17,2316.4 6794.66,2214.49 6581.45,2058.32C6905.05,2190.42 7074.33,2400.8 7078.39,2269.97C7007.25,2194.73 6902.94,2116.55 6802.06,2038.67C6929.43,2103.76 7037.74,2162.84 7135.45,2218.58L7195.25,2172.32C7093.79,2094.16 6983.74,2018.18 6863.95,1944.69C6808.01,1948.24 6773.05,1965.31 6749.14,1989.47L6716.18,1902.99C6441.86,1763.1 6153.53,1654.96 5858.6,1561.79C5460.11,1446.15 5045.23,1362.46 4611.78,1314.96C4250.56,1281.28 3886.12,1259.1 3507.87,1286.1L3417.39,1379.98L3367.45,1302.56C2984.53,1333.01 2600.4,1363.19 2620.1,1481.74L2783.98,1460.99C2601.93,1524.41 2514.04,1574.66 2688.49,1588.22C2590,1596.6 2577.69,1666.96 2584.19,1731.58C2590.3,1792.29 2610.65,1848.48 2662.61,1827C2592.44,1891.92 2581.64,1935.47 2664.24,1945.38C2581.07,1963.07 2581.22,2072.87 2592.31,2194.78L2683.07,2201.96C2593.7,2232.06 2581.6,2247.7 2690.4,2254.84C2558.73,2318.58 2526.06,2370.93 2670.98,2402.87C2557.63,2475.16 2568.65,2594.53 2594.2,2764.68L2772.1,2749.84C2684.97,2781.94 2574.51,2808.95 2602.63,2866.15C2632.45,2852.47 2667.12,2848.56 2705.81,2852.74C2638.47,2877.1 2583.03,2904.69 2610.86,2954.91C2644.74,2933.85 2683.56,2931.04 2726.21,2942.32C2656.25,2962.34 2602.37,2992.92 2606.91,3061.8L2823.75,3006.19C2839.76,2971.75 2868.92,2971.73 2936.22,2983.08C3011.86,2948.06 3107.68,2925.86 3177.92,2927.98L3187.2,2848.23C3373.71,2884.67 3533.79,2841.18 3673.46,2736.02C3553.86,2726.28 3426.43,2764.71 3283.82,2785.99C3292.34,2777.9 3473.95,2691.71 3733.14,2710.03C3975.13,2676.76 4190.25,2644.47 4392.51,2730.22C4581.79,2841.75 4736.95,2895.09 4940.61,2912.27C5048.5,2921.37 5391.57,3010.15 5561.01,3103.24C5636.3,3068.47 5651.42,3040.64 5684.33,3152.17C5839.29,3183.91 6272.51,3357.94 6678,3590.01C6698.31,3509.09 6667.91,3447.04 6574.57,3402.06C6231.02,3227.99 5865.49,3070.46 5488.91,2921.22C5823.51,2996.13 6123.85,3143.56 6687.74,3408.03C6674.05,3350.73 6677.9,3290.21 6709.31,3224.62C6653.5,3165.57 6566.82,3123.5 6469.06,3087.52C6547.65,3098.49 6632.02,3118.94 6738.63,3176.02C6774.8,3099.81 6775.06,3030.42 6714.44,2972.62C6813.44,2995.12 6821.47,2933.01 6747.36,2824.53C6876.65,2879.37 6870.88,2818.44 6760.89,2668.17C6903,2727.57 6913.14,2681.97 6832.98,2564.51C6948.15,2611.04 6955.24,2584.93 6843.65,2479.03C6890.89,2502.9 6929.57,2518.85 6947.78,2515.89ZM1451.93,2412.54L1369.95,2407.34C1414.47,2390.58 1461.6,2388.85 1452.39,2338.88L1345.72,2355.8C1402.75,2322.57 1454.25,2291.09 1447.13,2203.24C1394.86,2219.91 1345.16,2245.51 1297.23,2277.21C1367.78,2195.91 1472.27,2160.26 1445.34,2078.91L1263.32,2160.63C1379.71,2056.41 1490.57,2016.18 1439.7,1944.95C1357.87,1966.34 1285.67,2007.28 1221.16,2063.85C1275.85,1980.43 1353.18,1923.52 1448.16,1887.25L1446.21,1787.49C1293.47,1874.92 1138.07,1970.18 1114.38,2081.35C1190.51,2120.43 1243.37,2180.26 1259.63,2272.72C1284.44,2347.03 1353.63,2520.56 1438.38,2596.76C1464.56,2591.25 1465.27,2566.87 1455.83,2512.11L1414.38,2504.26C1439.07,2486.01 1455.07,2458.95 1451.93,2412.54ZM5130.25,557.824C5052.18,511.484 4978.67,465.329 4888.2,439.035L4824.4,507.153L4712.47,471.478L4735.86,403.527C4664.76,375.461 4591.16,350.676 4511.19,334.257L4462.91,402.769L4330.45,384.117L4317.2,308.025L4218.47,289.297L4291.41,510.013C4537.26,555.569 4780.61,621.765 5021.27,710.268L5130.25,557.824ZM4266.14,552.531L4345.52,558.244L4352.44,596.034L4286.65,588.741L4266.14,552.531ZM4494.09,585.02L4660.24,619.662L4638.75,702.413L4472.26,651.248L4494.09,585.02ZM4767.53,664.35L4906.61,716.795L4886.22,769.219C4843.29,768.276 4806.61,759.596 4751.94,733.013L4767.53,664.35ZM3530.13,580.713L3719.45,556.013L3737.8,620.842L3559.57,669.257C3540.11,646.108 3530.88,616.208 3530.13,580.713ZM3395.18,620.468C3386.37,653.254 3393.08,675.39 3415.31,686.877L3293.49,713.861C3264.16,706.035 3252.08,688.058 3251.81,663.135C3290.65,638.863 3338.92,625.176 3395.18,620.468ZM3967.12,530.611L3862.08,537.336L3869.12,591.057L3971.17,583.73L3967.12,530.611ZM4069.69,296.36L3928.94,292.342L3921.59,363.849L3757.7,387.988L3746.01,323.387L3506.56,362.14L3493.8,413.763L3355.38,444.568L3313.79,368.126L3028.67,481.455L3142.23,651.793C3398.11,565.15 3666.8,508.724 3963.72,505.531L4069.69,296.36ZM3342.98,1202.56L3279.11,1245.31L3361.75,1238.58C3420.08,1307.28 3426.1,1317.22 3491.47,1232.9C3573.56,1236.78 3657.08,1232.74 3741.43,1224.03C3842.23,1191.36 3951.76,1159.19 4052.14,1114.35L4067.19,1050.86C4075.86,975.225 3998.11,1026.05 3928.37,1056.59C3753.81,1122.16 3562.41,1173.88 3342.98,1202.56ZM4159.37,1030.28C4323.1,1095.4 4489.39,1148.56 4658.87,1186.75C4718.94,1200.29 4778.33,1239.24 4810.6,1295.04C4633.74,1277.09 4481.28,1245 4312.39,1199.28C4220.15,1174.31 4125.3,1104.69 4159.37,1030.28ZM5348.61,3465.41C5362.77,3517.2 5369.9,3574.87 5366.98,3640.97C5422.07,3585.3 5445.79,3445.05 5348.61,3465.41ZM5555.34,3602.74C5560.25,3540.03 5564.92,3490.34 5536.8,3452.36C5538.63,3404.7 5625.28,3425.96 5616.07,3464.13C5602.47,3520.45 5585.49,3561.5 5555.34,3602.74ZM5539.17,5614.29L5484.16,5546.7C5462.9,5458.16 5430.2,5376.91 5420.32,5307.5L5601.53,5151.14L5799.47,5345.62L5539.17,5614.29ZM5440.02,4326.27L5627.99,4546.59L5853.06,4311.78L5674.93,4120.7L5440.02,4326.27ZM5132.14,4621.74L5333.58,4830.17C5292.11,4879.2 5246.97,4914.28 5206.62,4948.05C5147.86,4884.87 5076.75,4810.73 5004.07,4745.52L5132.14,4621.74ZM5382.49,4835.39L5609.67,5095.88L5840.2,4851.83L5628.71,4601.46L5382.49,4835.39ZM4826.03,7011.98C4945.22,6970.38 5040.64,6920.99 5104.1,6846.24L4951.45,6693.72L4742.69,6932.78L4826.03,7011.98ZM4693.25,6933.86L4603.59,6848.87C4510.65,6885.03 4415.15,6908.1 4300.42,6934.63L4499.65,7131.16L4693.25,6933.86ZM4006.84,7199.91L4179.49,7358.99L3997.76,7492.56L3826.53,7378.27L4006.84,7199.91ZM3846.76,6939.4C3967.2,6951.29 4082.09,6954.33 4194.95,6951.56L4002,7141.21L3846.76,6939.4ZM2440.39,4586.14L2480.96,4626.55C2429.88,4724.11 2382.88,4821.95 2360.85,4921.49L2216.43,4775.28L2440.39,4586.14ZM4588.03,6271.37L4513.46,6189.98L4267.21,6422.42C4383.71,6399.02 4493.76,6353.44 4588.03,6271.37ZM3082.6,6668.87L2891.27,6837.4C2997.28,6892.25 3082.62,6958.6 3174.82,7002.58L3277.46,6879.42C3196.57,6809.31 3151.57,6743.18 3082.6,6668.87ZM3794.23,5915.83L4042.98,5687.83L4253.45,5914.87L4010.52,6146.37L3794.23,5915.83ZM4012.85,6190.73L4220.83,6418.52C4088.93,6436.7 3961.11,6443.38 3839.75,6400.41L4012.85,6190.73ZM2414.65,5546.7L2557.08,5423.44C2462.61,5349.68 2412.51,5263.51 2383.89,5153.25L2212.52,5307.31C2269.19,5395.56 2325.93,5483.76 2414.65,5546.7ZM2448.99,4531.77L2599.79,4379.48C2582.61,4315.28 2568.29,4274.51 2576.73,4219.56L2443.26,4080.03L2184.43,4278.34L2448.99,4531.77ZM4023.5,3536.16L3855.21,3711.64L4039.01,3889.3L4198.26,3730.74L4023.5,3536.16ZM3854.03,3299.75L4025.83,3498.71L4271.53,3268.07C4134.12,3229.09 3991.18,3225.63 3854.03,3299.75ZM3138.23,2980.04L3245.12,3086.33C3280.99,3029.18 3343.88,2970.36 3397.95,2920.66C3347.72,2920.7 3298.39,2926.84 3240.08,2918.12L3223.89,2980.66L3138.23,2980.04ZM4906.34,3076.44C4868.25,3035.24 4822.87,2988.82 4776.59,2953.43C4847.51,2952.87 4920.95,2957.53 4984.97,2980.17C4964.2,3008.38 4937.05,3049.03 4906.34,3076.44ZM3554.37,7175.55L3652.34,7279.65C3574.91,7277.15 3511.01,7209.17 3554.37,7175.55ZM4325.46,3277.83C4407.46,3285.29 4466.74,3319.94 4526.44,3409.01L4457.73,3472.93L4288.38,3304.45L4325.46,3277.83ZM3332.28,6887.19L3417.39,6800.49C3518.76,6860.56 3620.47,6900.43 3731,6922.34L3550.95,7121.94L3332.28,6887.19ZM4258.7,644.819C4642.68,765.674 5047.57,864.937 5465.25,950.988L5497.05,1029.12C5583.15,961.122 5735.68,921.792 5781.45,1050.86L5866.83,986.883C6145.78,1022.18 6432.17,1035.53 6741.37,981.594L6620.17,1348.23L6558.84,1388.86L6568.64,1480.22L6515.1,1729.21L6348.1,1657.95L6432.2,1616.97C6454.9,1479.03 6513.48,1334.62 6598.47,1185.46C6573.98,1170.1 6576.4,1139.36 6605.75,1093.25C6440.2,1064.57 6314.18,1046.36 6149.25,1043.87C6039.37,1042.2 5910.99,1079.55 5831.54,1132.83L5552.89,1101.43C5515.6,1117.17 5488.75,1115.98 5429.07,1082.2L5056.1,999.175L4997.51,924.724L4810.97,910.583C4628.66,822.248 4441.88,748.24 4246.88,700.495L4258.7,644.819ZM6256,4039.43C6234.48,4066.57 6278.69,4141.52 6312.27,4200.22C6324.15,4367.76 6292.46,4514.75 6253.54,4658.32L6257.34,5319.55C6261,5448.33 6289.86,5544.79 6312.5,5652.02C6181.59,5884.05 6223.41,6167.75 6227.63,6388.03C6223.8,6506.93 6245.86,6545.32 6296.47,6620.7C6248.48,6699.71 6242.34,6768.4 6264.84,6830.04C6158.24,6854.38 6088.06,6903.79 6029.53,6961.22C5870.48,6944.45 5697.77,7004.42 5526.63,7107.51C5280.06,7256.03 5040.65,7384.7 4810.04,7488.98C4699.72,7573.82 4571.56,7647.4 4409.51,7699.57L3975.4,8038.79C3817.87,7872.61 3637.46,7827.08 3565.14,7648C3251.71,7443.38 3095.98,7409.3 2989.74,7428.76C2791.8,7281.43 2589.64,7159.94 2385.3,7051.75C2251.91,6901.66 2097.65,6829.03 1926.09,6820.57C1867.76,6737.75 1797.9,6695.62 1727.26,6656.25C1742.65,6577.98 1729.41,6492 1696.57,6400.74C1780.69,6188.44 1827.91,5981.22 1833.88,5779.66C1796.86,5709.43 1750.31,5509.7 1773.17,5450.12C1876.96,5179.64 1845.48,4910.08 1829.23,4630.65C1817.73,4432.81 1772.1,4251.44 1794.99,4088.75C1858.68,3989.66 1856.39,3955.23 1822.99,3920.28L1800.86,3697L1728.5,3740.04L1751.99,3935.12C1851.89,4007.9 1823.18,4007.08 1742.64,4117.64C1724.53,4698.7 1720.17,5244.37 1721.68,5762.11C1748.78,5832.96 1769.56,5898.97 1716.34,5936.99C1678.87,6226.98 1657.48,6494.85 1641.77,6757.89C1883.3,6850.25 2043.52,6936.25 2240.02,7076.95C2349.41,7060.16 2378.2,7040.25 2437.72,7177.59C2659.29,7275.52 2871.15,7385.85 3073.36,7500.47C3195.45,7493.92 3217.15,7503.26 3223.45,7594.08C3523.26,7745.67 3765.47,7922.15 3994.37,8101.58C4298.89,7877.8 4577.61,7714.11 4865.58,7598.09C4869.5,7492.14 4924.42,7468.2 5016.63,7504.22C5227.24,7352.68 5486.72,7233.44 5696.77,7122.04C5877.74,7026.05 5918.44,7002.11 6164.66,6999.86C6216.17,6942.26 6327.45,6910.96 6405.6,6888.42C6318.82,6642.54 6326.72,6322.35 6352.8,6001.64C6289.42,5983.64 6266.28,5940.23 6347.27,5752.66C6333.93,4992.57 6345.63,4256.39 6365.74,3507.49C6273.86,3632.16 6219.61,3774.44 6293.16,3912.88C6306.55,3965.85 6291.73,4015.36 6256,4039.43ZM2093.17,3752.21C2094.03,4402.91 2142.83,3939.04 2141.25,3589.85C2097.61,3555.89 2097.37,3666.91 2093.17,3752.21ZM2059.86,4592.75C2147.88,4723.52 2126.84,4910.77 2070.93,5116.07C2104.71,5138.4 2103.97,5191.33 2071.57,5255.59C2107.65,5267.43 2111.05,5334.2 2127.07,5386.82L2137,5004.67C2143.2,4686.82 2145.66,4382.54 2131.03,4140.3C2071.47,4194.55 2055.02,4278.77 2073.02,4386.97C2081.96,4440.68 2080.2,4524.68 2059.86,4592.75ZM5938.13,6603.03C5943.03,6522.39 5928.71,6442.52 5970.66,6418.09C5969.74,6261.72 5972.38,6102.9 5982.65,5938.82C5978.3,5897.78 6017.07,5863.45 6001.7,5832.25C5982.23,5792.71 5971.7,5768.06 5977.47,5725.04C5985.23,5667.13 5986.91,5611.63 5966.55,5564.9C5934.85,5401.23 5938.38,5168.18 5963.11,4998.75C5998.05,4759.38 6006.51,4538.19 6017.83,4315.04C5934.44,4211.71 5968.19,3887.17 5991.17,3582.94C5996.14,3467.89 5997.73,3361.94 5973.65,3325.09C5947.38,3334.69 5920.32,3357.38 5922.15,3414.41L5903.95,5546.69C5905.46,5863.13 5908.79,6183.18 5921.05,6498.19L5501.28,6710.82C5375.63,6779.78 5249.19,6856.53 5126.91,6891.72L5032.57,6981.07C4842.45,7026.15 4657.75,7162.85 4464.69,7272.19C4307.73,7355.9 4146.47,7433.35 3993.15,7552.5C3903.41,7470.64 3788.7,7397.98 3677.26,7329.39C3558.42,7328.79 3559.34,7325.71 3512.41,7247.27C3010.82,6957.19 2579.37,6722.33 2156.55,6499.88C2174.31,6222.51 2146.39,5998.73 2139.51,5769.28L2114.75,5783.11C2134.9,5653.77 2133.89,5538.11 2126.95,5426.28C2018.7,5513.3 2051.16,5619.59 2056.86,5818.46C2023.35,5868.34 2020.65,5878.61 2064.77,5917.19C2081.69,6086.78 2070.15,6276.15 2044.95,6475.02C2284.8,6622.68 2542.5,6780.55 2783.95,6929.78C2800.86,7005.07 2777.56,6997.49 2890.45,6997.49C2967.73,7043.15 3035.61,7081.46 3138.94,7113.4C3236.66,7143.6 3341.82,7217.47 3421.22,7296.89C3474.63,7350.31 3607.54,7422.6 3713.5,7487.97L4006.62,7675.09C4058.73,7580.77 4187.94,7539.32 4296.93,7484.21C4358.85,7452.9 4408.43,7413.29 4458.52,7363.33C4575.37,7246.8 4680.32,7156.36 4813.68,7129.54C4861.84,7119.85 4912.16,7142.57 4970.27,7090.14C5011.48,7052.95 5076.82,7021.77 5149.74,7020.52C5231.4,6934.92 5303.47,6890.27 5385.29,6888.72C5424.98,6887.97 5495.84,6820.78 5552.98,6747.64C5618.94,6663.23 5778.13,6628.27 5938.13,6603.03ZM2028.59,939.837C2204.64,968.11 2371.4,989.969 2495.71,982.517L2942.37,963.634C3075.99,893.167 3302.35,807.631 3468.17,772.365C3585.51,747.411 3701.81,729.572 3814.74,709.851C3932.13,700.011 4011.27,683.688 3974.06,633.352C3473.49,719.114 3028.93,863.625 2608.75,834.518L2585.74,936.22L2461.97,861.201C2110.86,896.065 1814.74,846.403 1524.33,787.947C1551.8,934.347 1587.8,1078.88 1616.28,1222.83L1666.29,1270.14C1632.81,1332.02 1616.74,1386.64 1655.16,1418.53L1760.89,1386.51L1622.36,998.258L1657.18,966.551L1634.51,885.026C1734.28,910.878 1906.38,920.209 2028.59,939.837ZM4282.75,1219.63C4239.39,1229.37 4184.19,1221.15 4143.06,1218.22C4129.75,1187.39 4133.61,1159.39 4145.26,1132.68C4190.29,1168.68 4246.96,1205.36 4282.75,1219.63ZM3834.43,861.427L4020.33,855.144C4015.42,818.473 4019.01,787.53 4003.48,760.666C3947.49,799.932 3891.76,833.716 3834.43,861.427ZM4182.53,869.244C4232.21,854.24 4290.19,847.746 4355.2,848.47C4191.09,740.649 4202.02,817.133 4182.53,869.244ZM4087,1149.04L4082.01,1220.38C4012.12,1221.9 3945.19,1219.94 3879.39,1216.64C3933.13,1190.17 4008.48,1166.96 4087,1149.04ZM2745.44,7076.13L2812.77,7157.55L2944.48,7183.09L2833.86,7193.65C2842.65,7291.54 2954.95,7308.44 3079.71,7315.59L2921.39,7320.15C2959.08,7413.67 3056.16,7395.68 3265.09,7430.82L3626.39,7471.74C3517.64,7421.69 3385.1,7386.18 3227.62,7365.91C3286.3,7357.32 3367.13,7356.14 3447.25,7367.18C3333.83,7272.84 3266.05,7218.02 3182.14,7168.72C3044.41,7142.47 2904.74,7115.07 2745.44,7076.13ZM6023.24,3570.35C6004.68,3708.13 6055.67,3868.22 6138.93,4038.67L6019.86,3841.49C5994.78,3939.06 6021.93,4034.44 6090.86,4128.07L6008.93,4053.56C5983.46,4137.67 6013.52,4233.48 6061.1,4334.75L6197.86,4745.7C6257.34,4647 6191.68,4489.84 6143.55,4340.86L6247.92,4571.81C6296.58,4518.81 6260.2,4379.74 6197.6,4214.14C6228.94,4245.61 6258.32,4288.87 6285.17,4347.41C6314.23,4272.91 6259.07,4157.38 6198.38,4030.61C6137,3895.76 6078.52,3742.93 6023.24,3570.35ZM6143.86,4776.99C6170.09,4835.95 6175.21,4896.05 6121.53,4959.36C6116.65,4902.37 6123.3,4841.82 6143.86,4776.99ZM6077.2,4934.26C6071.81,4992.79 6149.62,5246.51 6209.68,5388.1C6252.6,5537.24 6313.32,5663.05 6251.33,5710.07C6226.12,5639.29 6193.06,5560.73 6158.28,5480.47C6189.32,5671.36 6258.14,5815.29 6177.12,5825.84C6160.91,5756.41 6136.45,5708.11 6108.06,5669.89C6151.62,5810.58 6182.43,5939.01 6107.29,5965.5C6031.15,5689.32 5956.09,5415.11 5978.8,5316.27L6083.23,5514.04C6005.77,5318.33 5971.86,5156.25 5984.41,5030.04C6029.1,5145.09 6073.16,5249.02 6115.83,5328.49L6034.2,5026.2C5997.08,4845.98 6002.31,4693.49 6112.07,4609.5C6140.8,4684.65 6089.36,4802.27 6077.2,4934.26ZM6211.11,6696.62C6297.39,6640.16 6188.64,6534.02 6140.23,6415.98C6110.53,6343.59 6098.98,6198.9 6099.4,6079.08C5983.18,6159.28 6120.65,6413.28 6076.68,6491.34C6079.08,6412.7 6073.33,6347.76 6015.71,6302.86C5986.36,6386.61 6020.72,6489.43 6046.4,6604.86L5980.45,6477.97C5936.17,6626.58 5964.8,6760.99 6045,6901.65C6097.58,6881.98 6071.53,6789.71 6049.71,6714.7L6075.34,6754.41C6086.39,6765.4 6099.72,6787.41 6114.09,6814.44C6241.57,6745.94 6150.75,6710.58 6122.46,6596.66C6149.68,6643.48 6178.3,6682.18 6211.11,6696.62ZM1985.2,3632.15C1945.84,3832.13 1890.03,3983.65 1822.94,4101.99L1817.91,4269.71C1864.49,4183.62 1897.82,4078.1 1927.41,3982.18C1932.57,4057.11 1912.63,4158.19 1837.49,4316.78C1835.38,4393.06 1846.53,4474.33 1861.63,4557.08C1875.97,4455.34 1892.43,4355.51 1925.1,4270.21C1855.89,4581.32 1898.62,4776.68 1996.32,4915.21C2019.42,4947.97 2021.09,4889.64 1961.71,4745.3C1925.73,4592.85 1913.56,4437.85 1963.46,4276.17L1965.49,4428.43C1982.33,4342.15 1992.58,4249.16 2053.46,4166.68C2094.15,4111.56 2095.19,4030.82 2062.47,3985.66C2041.29,4047.41 2012.76,4102.46 1983.71,4157.04C2018.34,4065.88 2052.12,3981 2043.62,3900.23L2012.67,3949.8C2060.84,3838.61 2083.44,3730.78 2067.3,3628.07C2065.03,3703.3 2022.24,3790.15 1982.43,3840.45C2006.05,3762.33 2037.36,3691.78 2025.66,3630.18L1985.2,3632.15ZM2039.92,4831.73C1983.23,4760.43 1958.29,4669.72 1983.29,4548.47C2049.9,4606.25 2078.36,4678.68 2080.73,4761.14C2057.94,4737.9 2036.73,4712.08 2021.26,4676.92C1997.1,4699.2 2059.25,4777.06 2039.92,4831.73ZM1869.77,5293.94C1731.66,5509.22 1851.16,5713.54 1932.41,5919.48C1908.57,5613.96 1989.51,5615.36 2040.64,5459.32C2096.13,5289.98 2088.86,5261.7 1994.27,5387.49C2009.46,5291.36 2102.42,5136.49 2027.07,5163.6L1935.39,5280.99C2035.25,5096.19 2108.66,4916.91 2082.41,4811.52C2026.69,4953.48 1945.27,5130.6 1869.77,5293.94ZM1851.81,6264.64C1869.12,6371.1 1751.36,6644.27 1838.22,6619.08C1859.09,6613.03 1868.59,6484.2 1916.25,6427C1845.59,6634.3 1909.78,6772.03 1923.11,6720.27C1983.88,6484.31 2020.75,6271.38 1961.1,6151.48C1958.9,6188.05 1944.5,6236.99 1928.07,6287.99C1928.54,6138.41 1930.88,5984.53 1909.52,5885.15L1881.17,6120.28L1888.13,5865.32L1866.03,5841.02C1843.46,6014.23 1806.8,6186.55 1751.77,6370.09C1724.12,6462.31 1810.2,6633.45 1851.81,6264.64ZM2576.68,6918.22C2681.55,7022.26 2745.68,7138.77 2806.88,7256.18C2645.18,7150.65 2533.45,7016.71 2439.81,6872.49C2482.61,6946.36 2534,7030.56 2592.02,7122.73L2424.26,7035.7C2287.32,6882.12 2134.81,6775.96 1951.38,6775.24L1971.23,6665.68C2036.7,6723.99 2146.48,6764.49 2255.3,6805.38C2155.55,6748.19 2053.64,6692.2 1981.46,6619.93L1992.32,6580.9C2050.28,6628.76 2154.01,6669.5 2250.99,6707.56C2164.7,6657.73 2064.91,6600.67 2000.33,6543.59L2012.25,6509.66C2180.67,6580.5 2364.1,6701.06 2576.68,6918.22ZM3550.21,7540.66C3585.74,7653.34 3636.97,7741.04 3725.75,7769C3709.47,7717.26 3685.6,7668.34 3645.01,7625.64C3700.47,7622.25 3786.34,7832.07 3881.34,7902.92C3895.69,7855.59 3852.43,7778.98 3775.18,7685.09C3826.84,7719.66 3881.07,7767.67 3963.7,7963.61C4003.37,8057.69 4039.99,7965.68 3928.01,7775.55C3842.37,7630.11 3707.27,7538.6 3550.21,7540.66ZM4056.1,7935.86L4001.16,7776.64C4095.11,7680.96 4187.54,7606.51 4278.44,7553.29C4197.06,7622.34 4138.9,7705.2 4093.69,7795.77C4184.59,7680.65 4280.68,7569.3 4437.97,7502.17C4382.3,7623.34 4303.69,7742.85 4161.76,7857.75L4193.06,7762.68C4148.91,7814.43 4103.3,7871.99 4056.1,7935.86ZM4822.02,7436.32C4940.56,7410.72 5007.92,7387.62 5043.42,7339.01C4907.95,7359.58 4757.13,7359.49 4712.31,7345.08C4996.01,7338.51 5147.57,7297.11 5158.57,7225.3C5004.75,7240.62 4890.31,7240.88 4803.39,7230.61C5108.85,7205.9 5210.5,7190.13 5223.85,7111.02C5142.78,7142.48 5031.15,7154.75 4910.09,7161.1C4763.51,7171.53 4681.32,7210.38 4635.02,7265.09L4688.45,7274.22C4603.19,7301.15 4533.61,7329.3 4496.05,7378.96L4562.69,7390.04C4461.21,7402.78 4385.68,7450.14 4323.27,7515.02C4431.79,7465.95 4611.14,7444.9 4822.02,7436.32ZM5475.35,6881.65C5371.29,7012.63 5255.87,7156.58 5182.03,7277.9C5527.06,7041.65 5795.57,6929.87 5999.86,6915.87L5968.52,6852.26C5696.29,6881.39 5529.21,6967.48 5377.67,7052.62C5519.93,6946.78 5664.87,6887.11 5873.4,6840.08C5980.01,6830.52 5981.59,6780.86 5939.05,6754.11C5821.78,6766.81 5706.04,6789.23 5595.87,6846.96C5624.81,6811.34 5706.83,6764.61 5763.52,6757.99C5907.37,6741.18 5986.56,6701.44 5910.97,6631.4C5713.22,6656.2 5556.5,6725.57 5475.35,6881.65ZM4682.26,1107.24C4787.38,1246.45 4933.24,1339.91 5022.65,1317.11C4955.97,1276.53 4923.48,1228.73 4889,1181.35C5131.8,1400.12 5329.16,1382.29 5505.87,1256.9C5212.23,1181.05 5070.82,1075.11 4980.43,959.093C4914.86,939.415 4858.83,934.624 4802.88,929.961C4899.63,1021.18 4981.26,1117 5049.63,1210.75C4782.77,917.234 4625.66,825.646 4513.02,815.871C4648.81,922.993 4718.69,990.657 4759.85,1051.81C4556.6,853.343 4397.12,766.245 4260.16,736.463C4426.93,851.954 4560.03,945.356 4682.26,1107.24ZM5231.11,1100.14C5242.07,1069.94 5297.97,1094.84 5279.33,1118.16C5260.97,1141.12 5223.82,1120.26 5231.11,1100.14ZM5459.15,1401.77C5503.99,1386.14 5541.95,1368.08 5554.97,1341.23C5451.06,1371.03 5395.03,1374.05 5353.24,1369.12C5535.5,1310.4 5676.77,1257.48 5856.55,1146.21C6006.14,1053.62 6274.24,1012.71 6553.76,1189.65L6517.15,1262.42C6381.26,1199.94 6243.65,1180.2 6105.33,1178.53C6246.48,1206.87 6392.83,1230.19 6497.68,1293.69L6455.87,1408.46C6306.36,1261.42 6013.81,1255.79 5653.1,1317.55C5918.95,1311.6 6302.06,1238.56 6438.82,1447.18C6424.72,1498.52 6411.89,1548.49 6417.93,1578.2L6284.64,1639.58C6087.43,1656.76 6174.56,1539.08 6352.59,1524.5C6259.58,1410.47 6100.61,1363.2 5859.13,1399.42C5717.99,1426.27 5581.69,1437.03 5459.15,1401.77ZM4090.2,1040.48L4119.17,1036.75C4126.7,779.112 4133.91,521.424 4131.66,262.289C4096.24,347.118 4053.76,432.029 4003.52,517.03L4090.2,1040.48ZM4036.59,968.17C3879.98,946.262 3725.28,988.104 3591.89,1049.49C3621.49,989.52 3678.9,927.997 3795.83,891.023L4035.11,881.829C4039.99,911.769 4040.03,940.429 4036.59,968.17ZM6256.86,1473.4C6191.11,1436.55 6127.74,1490.85 6067.71,1572.97L6116.59,1589.07C6183.79,1548.15 6271.48,1500.08 6256.86,1473.4ZM6140.38,1430.7C6038.54,1422.28 5974.94,1465.47 5922.69,1524C5981.05,1565.65 6137.57,1512.69 6140.38,1430.7ZM6055.7,3581.43L6158.43,3824.6C6192.78,3718.64 6241.34,3620.46 6298.73,3544.14C6349.63,3476.45 6307.02,3446.21 6238.12,3514.28C6218.39,3533.78 6157.49,3702.49 6157.49,3702.49C6157.63,3632.33 6205.15,3552.58 6231.47,3449.24C6248.74,3381.44 6159.2,3434.72 6110.16,3546.41L6142.96,3416.54C6154.86,3358.9 6056.09,3372.29 6055.7,3581.43ZM2043.79,965.214C1905.84,935.845 1762.03,971.928 1680.93,1012.32C1680.35,1058.36 1781.75,1053.72 1890.44,1045.45C1705.11,1101.9 1626.49,1171.84 1846.35,1185.09C1725.03,1246.74 1687.95,1340.52 1950.65,1288.07C2030.07,1265.55 2106.19,1238.72 2176.72,1204.58C2098.23,1186.83 2014.68,1180.85 1927.91,1182.35C2037.06,1158.42 2142.93,1131.56 2315.2,1164.31C2366.93,1119.46 2199.64,1080.45 1978.94,1042.86C2109.95,1047.51 2207.66,1058.18 2385.18,1121.55C2396.78,1034.61 2214.59,1001.58 2043.79,965.214ZM3448.48,797.391C3214.01,884.366 2882.88,1045.39 2656.38,1177.09C2717.01,1270 2857.49,1222.16 3023.49,1129.34C3001.32,1165.34 2941.3,1211.77 2867.69,1261.94C3024.71,1291.58 3159.16,1180.55 3326.56,1049.49C3255.72,1127.55 3170.92,1204.71 3078.35,1256.3C3201.02,1270.99 3332.99,1188.98 3483.95,1048.19C3643.55,939.585 3814.03,837.11 3990.24,737.862C3814.63,724.874 3592.83,860.287 3387.08,996.684C3477.46,905.941 3591.06,827.915 3729,763.214C3499.74,785.455 3452.26,853.557 3149.76,1041.11C3249.63,958.638 3325.7,901.367 3448.48,797.391ZM2599.28,1195.38C2692.5,1247.5 2786.61,1285.56 2882.24,1299.78C2786.62,1392.94 2551.25,1302.22 2599.28,1195.38ZM2586.78,1308.93C2618.09,1332.91 2659.8,1349.53 2698.5,1358.9C2641.87,1394.87 2560.08,1349.6 2586.78,1308.93ZM4171.89,974.73C4277.56,954.308 4393.69,956.695 4521.19,983.842C4404.11,819.624 4189.62,861.819 4171.89,974.73ZM4675.54,2933.75C4587.71,2868.14 4494.59,2814.96 4390.71,2787.07C4386.39,2804.55 4400.65,2825.93 4430.31,2850.53C4208.81,2792.37 4242.16,2858.74 4446.51,2971.53C4390.38,2855.86 4460.82,2841.84 4588.24,2929.43C4599.19,2995.07 4610.29,3046.91 4630.97,3063.74C4641.21,3072.06 4665.25,3085.62 4688.7,3089.41C4705.6,3092.14 4724.89,3102.79 4750.88,3111.96C4732.9,3073.68 4721.07,3038.35 4710.59,2992.72C4699.95,2968.27 4666.35,2957.01 4627.37,2948.83C4639.7,2940.5 4655.76,2935.47 4675.54,2933.75ZM4678.63,3236.46C4665.12,3192.63 4639.9,3146 4611.64,3098.63C4582.54,3044.24 4571.61,2996.03 4564.93,2949.26C4457.73,2870.62 4387.07,2873.41 4531.72,3042.22C4381.03,2943.69 4383.02,3101.86 4678.63,3236.46ZM4561.89,3319.26L4526.2,3192.72C4452.27,3115.8 4385.82,3101.15 4323.14,3118.01C4365.71,3189.11 4418.79,3249.84 4495.12,3276.12C4515.31,3295.11 4538.76,3305.52 4561.89,3319.26ZM4356.9,3091.73L4312.07,3058.09C4257.94,3015.49 4202.64,3026.26 4147.44,3031.84C4137.06,3066.37 4160.68,3096.29 4197.64,3124.4C4236.67,3135.86 4264.46,3151.16 4276.59,3171.8C4315.94,3214.82 4352.35,3248.49 4373.15,3232.63C4342,3190.35 4309.31,3150.56 4297.45,3102.95C4317.81,3094.76 4333.91,3096.15 4356.9,3091.73ZM4428.51,2988.21C4367.12,2960.33 4304.78,2935.53 4239.24,2921.09C4285.52,2995.87 4337.39,3065.64 4431.88,3097.25C4409.26,3054.51 4396.11,3014.59 4428.51,2988.21ZM4307.2,2912.94L4270.76,2882.46C4261.67,2871.71 4232.96,2880.01 4247.62,2891.21C4270.48,2908.68 4286.28,2914.34 4307.2,2912.94ZM4451.33,3278.37C4434.75,3259.4 4410.07,3258.32 4416.54,3274.16C4422.45,3288.65 4445.69,3290.74 4451.33,3278.37ZM4482.69,3311.99L4537.87,3376.92C4509.61,3369.47 4483.87,3336.37 4482.69,3311.99ZM4271.97,3201.93C4256.16,3175.12 4223.78,3153.91 4190.1,3143.95C4159.77,3134.98 4095.55,3029.97 4121.54,3006.14L3936.36,3005.55C3927.28,3056.05 3991.24,3090.58 4100.38,3115.24L4066.56,3123.74C4041.15,3178.2 4155.85,3236.15 4147.34,3148.06C4166.56,3157.12 4173.13,3184.89 4196.66,3199.16C4216.47,3211.16 4246.38,3201.13 4271.97,3201.93ZM4274.27,3008.61C4230.63,2962.93 4204.53,2913.91 4212.69,2887.04C4164.92,2876.88 4124.71,2877.48 4089.03,2884.54C4072.48,2926.78 4115.91,2966.76 4174.2,3006.17C4210.01,3005.36 4241.99,3003.61 4274.27,3008.61ZM4253.82,2863.05L4230.29,2866.72C4130.29,2810.09 4103.16,2765.93 4190.64,2741.38C4260.13,2721.87 4361.15,2738.54 4359.22,2815.64C4300.15,2803.98 4248.56,2800.9 4253.82,2863.05ZM4159.96,2845.04C4104.72,2807.57 4101.89,2770.53 4145.1,2733.88L3920.05,2732.14C3888.4,2744.04 3981.83,2792.39 4068.37,2834.77C4088.36,2844.56 4137.96,2846.62 4159.96,2845.04ZM4097.82,2972.89C4066.99,2903.87 4013.72,2868.89 3907.81,2886.98C3873.58,2912.73 4072.6,2997.2 4097.82,2972.89ZM3980.14,2980.54C3980.14,2993.83 3925.08,2992.64 3900.86,2959.84C3913.42,2933.05 3980.14,2952.83 3980.14,2980.54ZM4037.43,3194.42C4030.2,3170.2 4030.03,3143.5 4035.97,3117.85C4005.24,3109.3 3965.62,3109.76 3923.92,3112.33C3949.06,3175.3 3986.69,3203.22 4037.43,3194.42ZM3951.03,3205.72C3894.72,3229.73 3843.56,3208.22 3798.01,3137.32C3865.05,3106.56 3915.21,3132.21 3951.03,3205.72ZM3837.61,3260C3784.14,3285.15 3743.66,3268.59 3700.53,3181.88C3782.54,3162.64 3832.36,3172.93 3837.61,3260ZM3161.99,3454.4C3208.12,3387.56 3247.8,3314.7 3278.47,3233.45C3240.89,3250.58 3202.31,3255.67 3163.29,3255.29C3157.22,3298.22 3149.39,3348.09 3150.45,3394.28L3125.98,3370.98C3096.6,3449.48 3086.38,3531.15 3094.05,3607.12C3131.8,3710.51 3162.48,3632.62 3218.5,3450.39C3205.43,3618.14 3263.04,3565.83 3345.45,3411.24C3348.09,3470.32 3352.48,3552.3 3367.37,3589.64C3416.97,3714.06 3456.56,3577.31 3459.93,3440.98C3338.29,3548.28 3376.33,3311.78 3404.98,3288.55C3392.35,3349.35 3383,3464.66 3417.91,3443.99C3480.22,3407.09 3508.61,3354.61 3533.47,3284.31L3490.93,3279.28C3593.76,3234.13 3703.94,3164.17 3686.77,3151.49C3656.93,3157.2 3629.06,3165.94 3602.77,3162.45C3640.4,3149.86 3677.58,3131.34 3708.83,3135.26C3751.92,3140.65 3794.34,3127.85 3839.95,3097.39C3813.02,3089.15 3790.88,3074.36 3772.23,3054.79C3829.58,3074.97 3885.66,3083.45 3939.63,3072.44C3918.36,3052.46 3908.03,3028.37 3912.9,2998.53C3869.25,2991.59 3827.37,3003.12 3785.74,3017.29C3793.22,3005.92 3804.91,2987.11 3824.49,2977.39C3710,2949.16 3690.62,2894.07 3820.43,2845.61C3756.21,2755.44 3649.97,2773.61 3613.18,2837.71C3641.07,2851.37 3693.92,2853.35 3747.56,2855.51C3712.89,2879.23 3668.19,2902.21 3620.07,2924.92C3632.55,2906.63 3645.5,2889.93 3659.91,2878.23C3630.75,2871.54 3605.64,2856.86 3581.72,2845.55C3524.7,2867.7 3477.11,2907.32 3433.02,2953.43C3469.39,2957.33 3503.19,2957.41 3549.14,2957.68C3567.14,2940.04 3583.88,2953.49 3598.95,2979.7C3541.8,2980.59 3464.57,2977.56 3393.83,2975.61C3307.08,3051.23 3246.97,3135.49 3184.7,3221.3C3273.22,3223.75 3340.62,3192.37 3372.64,3130.84C3348.78,3132.52 3318.4,3126.22 3298.83,3118.48C3388.57,3099.3 3470.6,3073.01 3521.41,3009.66L3554.75,3009.77C3511.84,3038.24 3477.22,3066.7 3486.56,3095.14C3562.88,3117.42 3726.34,2994.48 3650.66,3005.41C3672.41,2985.78 3718.38,2990.54 3768.92,2999.9C3688.07,3035.78 3621.32,3084.75 3570.61,3148.6C3546.72,3057.19 3468.68,3215.56 3443.43,3319.83L3440.76,3236.43C3340.66,3302.97 3270.5,3310.01 3324.06,3215.72L3301.13,3222.4C3274.38,3276.95 3258.11,3325.9 3264.92,3362.55C3226.17,3373.87 3205.28,3404.34 3190.08,3440.93C3181.07,3462.62 3171.47,3461.2 3161.99,3454.4ZM4060.55,2860.54C4015.87,2838.86 3961.71,2804.82 3916.37,2775.09C3784.49,2754.97 3747.95,2779.02 3877.72,2842.87L4060.55,2860.54ZM3445.89,3105.44C3473.2,3111.74 3478.46,3125.33 3486.68,3149.5C3305.43,3356.71 3276.11,3245.53 3445.89,3105.44ZM3617.63,3239.36C3574.19,3281.56 3675.68,3320.78 3754.99,3331.81C3746.26,3272.5 3675.41,3183.24 3617.63,3239.36ZM3714.49,3380.82C3639.11,3379 3521.37,3354.91 3549.77,3303.26C3574.86,3257.63 3669.81,3324.46 3714.49,3380.82ZM3493.35,3420.28C3584.31,3465.35 3729.73,3446.58 3650.38,3408.68C3538.32,3355.17 3516.46,3350.32 3493.35,3420.28ZM3479.51,3455.92L3607.36,3468.61C3657.85,3468.61 3673.59,3517.76 3581.38,3525.04L3469.38,3527.75L3479.51,3455.92ZM3582.35,3863.87C3718.35,3835.76 3624.79,3749.99 3566.82,3836.35C3555.09,3818.44 3548.14,3801.82 3561.6,3790.68C3681.28,3805.98 3650.91,3663.14 3497.16,3752.66L3491.78,3702.95L3578.01,3701.52C3653.12,3686.82 3649.7,3614.23 3493.81,3645.93L3480.54,3686.09L3466.82,3620.27C3639.73,3644.45 3692.55,3529.96 3542.66,3546.74C3492.83,3552.32 3462.2,3579.3 3438.43,3628.31C3419.73,3666.87 3394.52,3675.1 3354.83,3619.68C3307.39,3706.56 3300.9,3752.83 3236.44,3702.59C3233.84,3755.91 3240.19,3808.22 3287.43,3855.97C3326.09,3802.51 3342.91,3744.14 3354.31,3684.55C3408.85,3784.91 3481.26,3852.27 3493.8,3785.3C3522.21,3884.66 3436.81,3851.01 3360.34,3745.36C3343.98,3786.12 3327.75,3827.92 3310.18,3860.16C3321.48,3910.26 3366.58,3952.85 3423.14,3985.8C3445.77,3998.98 3411.51,4016.47 3339.98,3945.33C3361.35,4117.98 3333.09,4126.57 3218.45,3991.23L3158.53,3949.88C3189.01,4064.79 3241.66,4152.35 3269.73,4083.23C3294.6,4085.07 3317.78,4111.42 3347.23,4146.91C3377.44,4183.32 3461.41,4233.4 3427.33,4109.92C3418.83,4079.12 3394.14,4048.92 3370.6,4016.8C3502.7,4142.73 3619.43,4183.36 3510.41,3966.71C3607.47,4006.67 3638.73,4029.56 3582.35,3863.87ZM3246.58,3576.74C3273.21,3562.3 3300.03,3524.8 3330.17,3479.32C3356.07,3584.09 3289.18,3730.52 3243.24,3674.67C3240.64,3643.05 3241.95,3610.35 3246.58,3576.74ZM3204.91,3562.67C3161.72,3661.21 3146.3,3737.75 3086.78,3637.7C3089.84,3715.53 3092.62,3793.23 3132.41,3886.77C3292.18,4104.65 3231.74,3795.27 3223.59,3773.04L3194.75,3853.52C3154.16,3820.71 3132.11,3781.39 3119.4,3732.01C3137.35,3762.72 3162.68,3796.19 3183.99,3813.82C3238.4,3691.59 3229.92,3614.73 3204.91,3562.67ZM3248.23,3987.22C3321.73,4092.91 3337.84,4082.32 3316.51,3931.88L3262.72,3865.38C3263.53,3909.84 3265.45,3953.15 3248.23,3987.22ZM3612.22,3889.32C3637.14,3982.84 3653.36,4055.92 3554.9,4008.96C3612.14,4141.66 3573.55,4179.71 3446.13,4110.88C3488.13,4255.18 3398.28,4240.73 3313.31,4131.94C3303.78,4119.75 3283.58,4102.78 3274.21,4110.36C3256.72,4185.9 3296.28,4238.7 3368.56,4278.47C3378.87,4266.57 3384.31,4251.68 3387.54,4235.43C3389.93,4267.86 3392.89,4302.37 3396.57,4339.57C3433.41,4353.65 3474.17,4392.62 3515.83,4437.41C3545.45,4389.72 3493.42,4336.39 3432.89,4282.48C3497.08,4331.44 3541.07,4339.01 3550.84,4276.45C3564.77,4298.19 3571.69,4328.29 3566.03,4373.36C3716.52,4477.67 3791.56,4385.3 3517.17,4189.74C3718.26,4261.88 3691.25,4177.56 3601.59,4083.92C3710.54,4137.95 3713.85,4257.69 3627.47,4250.61C3721.95,4336.6 3892.04,4331.23 3783.3,4216.57C3813.11,4236.58 3842.82,4257.55 3867.09,4328.99C4043.19,4374.64 4035.44,4365.78 3910.14,4200.92C3816.66,4196.7 3725.18,4148.66 3628.03,4058.32C3753.14,4116.84 3801.37,4122.4 3721.15,3993.44C3818.6,4001.7 3735.4,3877.4 3702.06,3964.31L3675.5,3934.74C3760.59,3894.61 3676.21,3862.89 3612.22,3889.32ZM3772.52,4137.7C3814.22,4161.37 3843.59,4171.32 3902.28,4176.17C3877.83,4090.08 3826.53,3997.62 3769.38,4003.02C3755.27,4004.35 3768.51,4051.07 3787.58,4084.95C3798.16,4103.73 3795.15,4127.42 3772.52,4137.7ZM4073.19,4295.49C4198.19,4366.45 4316.99,4342.56 4265.42,4313.1C4145.02,4244.33 4031.28,4167.02 3911.02,4107.7C3934.44,4139.94 3960.97,4175.02 3946.42,4206.36C3937.61,4225.34 4014.54,4237.56 4103.67,4257.82C4062.93,4260.74 4022.42,4262.67 3982.06,4263.95C4008.49,4298.63 4031.67,4333.89 4041.54,4371.47C3972.62,4397.34 3900.84,4364.94 3829.17,4334.9C3784.69,4331.26 3742.68,4327.49 3702.3,4328.37C3713.4,4363.53 3724.83,4397.68 3737.29,4428.67C3809.28,4492.02 3993.61,4556.06 3844.6,4398.74C3884.66,4416.67 3915.59,4444.92 3923.02,4507.39C3925.19,4525.68 3863.22,4516.89 3807.05,4496.3C3822.55,4556.39 4029.21,4652.82 4083.64,4592.5C4104.27,4569.63 4045.92,4510.3 4006.34,4467.39C4045.15,4493.86 4082.7,4524.23 4114.47,4572.43C4260.72,4632.58 4341.09,4653.36 4174.12,4468.67C4315.78,4529.92 4457.01,4536.23 4308.73,4406.87C4436.54,4437.1 4528.88,4437.67 4398.61,4363.91C4338.91,4330.11 4276.59,4336.83 4281.31,4379.29C4236.61,4365.46 4191.75,4359.02 4146.78,4356.95C4164.27,4388.83 4175.23,4419.81 4165.77,4447.95C4090.44,4459.37 4021.04,4446.81 3958.15,4407.91C4017.13,4423.48 4075.66,4441.86 4139.06,4430.1C4138.56,4386.87 4107.39,4341.3 4073.19,4295.49ZM3537.45,4379.9C3574.74,4404.22 3612.03,4424.72 3649.3,4441.21C3666.87,4477.32 3680.36,4512.5 3683.41,4545.3C3591.89,4507.06 3543.23,4451.92 3537.45,4379.9ZM3683.76,4444.51L3714.37,4566.46C3742.66,4597.34 3776.29,4620.57 3822.67,4625.49C3798.51,4508.03 3750.44,4452.25 3683.76,4444.51ZM3834.5,4567.73L3862.48,4662.99C3919.98,4662.63 3978.3,4693.06 4029.27,4706.18C4077.34,4696.79 4003,4625.26 3933.23,4611.55C3907.1,4601.98 3871.33,4584.72 3834.5,4567.73ZM4043.07,4644.09C4084.39,4716.76 4138.68,4773.14 4187.79,4721.94C4129.28,4620.37 4078.8,4600.78 4043.07,4644.09ZM4054.3,4753.86C4052.47,4723.58 4020.35,4708.53 4011.61,4726.57C4000.41,4749.7 4028.5,4760.3 4054.3,4753.86ZM3859.64,2870.93C3885.06,2895.02 3910.38,2919.14 3879.69,2958.69C3748.61,2949.55 3691.4,2904.4 3859.64,2870.93ZM4250.58,4530.15C4281.73,4562.31 4301.95,4596.14 4277.34,4636.84C4456.22,4685.74 4530.7,4695.09 4371.86,4531.95C4335.15,4536.7 4293.05,4533.69 4250.58,4530.15ZM4380.79,4442.82C4390.87,4467.19 4397.1,4491.21 4384.82,4513.58C4567.34,4584.36 4622.61,4560.8 4499.98,4439.82C4459.94,4448.95 4420.32,4447.16 4380.79,4442.82ZM4580.15,4578.48C4625.98,4595.27 4673.81,4609.84 4735.61,4608.98C4760.52,4670.85 4804.51,4700.9 4871.54,4692.55C4829.03,4612.54 4777.64,4575.75 4718.88,4574.77C4676.45,4512.33 4625.3,4481.78 4569,4470.04C4588.11,4510.07 4599.64,4548.2 4580.15,4578.48ZM4614.76,4621.18C4646.53,4628.41 4679.23,4632.19 4713.18,4631.23C4756.45,4665.17 4795.69,4702.17 4796.13,4768.62C4745.54,4785.73 4696.4,4759.5 4648.94,4715.37C4659.5,4680.49 4639.71,4650.42 4614.76,4621.18ZM4759.08,4807.94C4765.41,4849.3 4810.3,4824.86 4905.59,4859.29L4867.94,4867.91C4910.14,4906.24 4952.52,4932.4 4995.22,4934.5C5000.97,4857.34 4949.71,4809.68 4880.22,4771.45C4898.03,4772.38 4921.45,4778.19 4958.28,4795.66C4990.28,4810.84 4998.22,4738.61 4892.77,4715.48C4817.46,4698.97 4786.48,4710.86 4831.11,4769.9C4840.09,4781.79 4755.15,4782.29 4759.08,4807.94ZM4126.88,4610.92C4167.18,4659.03 4207.71,4707.5 4248.99,4757.16C4393.88,4823.24 4441.77,4775.16 4300.46,4662.97C4230.94,4634.04 4182.2,4615.53 4126.88,4610.92ZM4351.07,4673.44C4394.32,4715.83 4414.8,4759.81 4399.46,4806.27C4557.64,4874.58 4591.36,4834.1 4453.06,4688.27C4414.76,4688.22 4381.8,4682.1 4351.07,4673.44ZM4468.14,4860.35C4522.42,4941.44 4582.35,5013.75 4696.69,5001.56C4644.39,4873.29 4563.59,4841.89 4468.14,4860.35ZM4487.15,4697.06C4544.33,4795.94 4617.36,4874.04 4718.38,4864.23C4712.51,4749.74 4622.07,4705.05 4487.15,4697.06ZM4396.84,4534.11C4477.9,4630.01 4503.82,4701.7 4623.09,4697.58C4633.98,4604.62 4523.41,4583.36 4396.84,4534.11ZM4947.55,4951.55C4965.37,4995.22 4989.26,5034.56 5030.02,5061.84C4962.32,5060.77 4905.89,5066.22 4856.24,5075.57C4865.44,5102.58 4875.05,5131.16 4887.84,5166.72C4852.86,5172.5 4849.28,5174.91 4817.29,5174.28C4868.77,5249.95 4927.63,5330.16 4966.92,5318.6C4997.78,5309.52 4958.38,5229.28 4930.99,5170.45C5030.46,5209.22 5047.16,5220.38 5031.33,5137.86C5099.35,5261.48 5199.33,5257.57 5126.32,5106.23C5108.44,5099.17 5094.45,5095.07 5088.26,5084.93C5150.66,5104.65 5096.84,5033.69 5038.49,4945.88L4947.55,4951.55ZM4810.77,4854.58L4858.73,4949.33L4795.3,4976.07C4836.87,5046.92 4891.13,5074.31 4963.93,5038.17C4924.24,4933.27 4871.37,4881.29 4810.77,4854.58ZM4713.48,4793.97C4726.24,4819.21 4737.33,4845.29 4738.29,4876.34C4704.03,4883.36 4670.27,4881.62 4636.94,4872.43C4683.82,4924.12 4735.04,4967.75 4822.44,4944.36C4796.82,4868.9 4758.39,4823.77 4713.48,4793.97ZM4989.49,4824.37C5013.54,4869.97 5036.15,4915.01 5074.59,4965.17L5152.7,4972.57C5122.98,4939 5095.93,4900.35 5069.76,4866.33C5043.59,4832.3 5015.19,4821.68 4989.49,4824.37ZM5100.73,4997.28C5132.51,5067.75 5169.67,5127.49 5237.57,5126.04C5240.16,5032.09 5173.75,4983.32 5100.73,4997.28ZM5151,5118.91C5151.22,5116.45 5169.97,5252.97 5169.97,5252.97C5141.97,5245.2 5128.93,5241.21 5097.9,5235.01L5100.46,5270.1L5056.09,5197.51C5039.18,5226.26 5025.95,5226.3 4970.34,5205.9C4984.48,5256.94 5009.12,5305.4 5048.11,5350.32L5114.63,5352.25C5206.59,5477.97 5249.13,5488.7 5203.03,5293.15C5286.5,5325.12 5296.32,5267.13 5244.71,5161.6C5244.71,5161.6 5150.78,5121.36 5151,5118.91ZM4151.44,4767.37C4114.41,4755.7 4087.3,4750.11 4077.25,4774.2C4117.24,4812.63 4152.66,4798.32 4151.44,4767.37ZM4266.62,4789.39C4377.29,4795.54 4459.63,4854.81 4436.48,4874.27L4266.62,4789.39ZM4271.36,4820.67C4223.9,4773.76 4168.65,4762.18 4152.61,4826.86C4209.92,4865.63 4248.43,4861.09 4271.36,4820.67ZM4255.54,4897.38C4303.43,4912.08 4336.81,4898.09 4373.09,4870.43C4337.9,4841.43 4282.87,4849.68 4255.54,4897.38ZM4455.32,4899.86C4455.09,4926.38 4420.24,4950.06 4344.78,4957.91C4343.84,4880.33 4397.48,4885.11 4455.32,4899.86ZM4379.72,4993.77C4374.67,4973.07 4390.53,4961.68 4422.51,4957.48C4416.08,4979.81 4407.04,4998.73 4379.72,4993.77ZM4424.68,5011.41C4449.12,4958.11 4487.35,4927.18 4539.94,4967.46C4519.85,4998 4486.38,5025.35 4424.68,5011.41ZM4491.31,5055.85C4541.3,5061.18 4580.46,5050.03 4606.55,5018.99C4570.1,4978.1 4523.88,4995.91 4491.31,5055.85ZM4678.63,5086.98C4674.27,5119.7 4625.3,5125.47 4556.57,5123.46C4553.38,5067.84 4617.28,5037.73 4678.63,5086.98ZM4640.99,5141.11C4612.53,5137.2 4590.05,5150.01 4601.68,5163.73C4616.13,5180.78 4633.36,5164.04 4640.99,5141.11ZM4645.8,5189.6C4695.84,5182.45 4756.38,5181.56 4762.44,5163.25C4773.55,5129.67 4658.19,5139.7 4645.8,5189.6ZM4668.18,5247.78C4680.36,5240.75 4681.25,5227.65 4684.31,5213.23C4671.87,5208.44 4666.71,5207.29 4656.56,5207.63C4648.77,5222.96 4654.94,5235.96 4668.18,5247.78ZM4674.54,5034.46C4688.34,5029.01 4707.83,5028.42 4730.67,5030.7C4718.7,5005.66 4715.57,4985.04 4716.46,4966.44C4801.64,5001.23 4843.2,5068.62 4864.45,5151.2C4774.49,5161.23 4716.99,5111.67 4674.54,5034.46ZM4707.95,5214.89C4679.31,5310.53 4791.78,5266.82 4819.6,5226.4C4797.3,5198.26 4756.27,5204.6 4707.95,5214.89ZM4890.6,5313.33C4882.98,5288.37 4866.92,5272.6 4846.43,5261.67C4802.92,5287.8 4759.06,5302.84 4714.6,5298C4721.83,5328.06 4741.89,5343.19 4769.23,5351.73C4793.48,5359.31 4825.57,5312.96 4890.6,5313.33ZM4793.05,5412.11C4800.8,5344.77 4895.1,5297.24 4917.91,5359.41C4907.52,5398.65 4855.19,5416.29 4793.05,5412.11ZM4837.44,5498.58C4827.92,5421.39 4925.37,5402.6 4956.99,5448.23C4956.38,5485.79 4888.55,5521.69 4837.44,5498.58ZM4996.18,5527.1C4965.18,5483.26 4879.92,5514.66 4870.17,5574.27C4910.95,5585.76 4986.57,5577.81 4996.18,5527.1ZM5006.45,5596.87C4982.37,5567.68 4910.05,5590.52 4898.62,5656.81C4963.68,5660.1 5013.23,5650.99 5006.45,5596.87ZM5014.39,5683.95C4950.39,5671.05 4901.98,5676.22 4902.37,5737.95C4979.16,5745.93 5029,5736.16 5014.39,5683.95ZM5005.89,5770.12C4945.31,5753.2 4902.78,5753.64 4910.47,5802.44C4975.74,5810.4 5018.14,5805.56 5005.89,5770.12ZM5003.03,5835.09C4932.19,5825.49 4887.04,5833.62 4907.38,5886.94C4979.42,5902.71 5014.91,5888.4 5003.03,5835.09ZM4925.46,5919.16C4914.73,5903.14 4901.03,5898.88 4882.33,5914.57C4893.39,5923.17 4907.76,5924.7 4925.46,5919.16ZM4860.23,5946.89C4860.95,5932.22 4930.76,5933.8 4970.42,5936.02C4987.93,6015.69 4856.1,6031.78 4860.23,5946.89ZM4936.33,6028.37L4825.79,6031.08C4826.95,6126.37 4945.89,6095.93 4936.33,6028.37ZM4893.76,6116.26C4853.82,6112.94 4815.69,6110.49 4786.27,6112.31C4787.43,6218.46 4896.08,6169.06 4893.76,6116.26ZM4366.58,6440.62C4379.53,6417.37 4398.44,6407.31 4430.5,6426.27C4413.93,6439.83 4392.62,6444.61 4366.58,6440.62ZM4507.54,6392.09C4472.6,6371.14 4453.3,6376.62 4455.76,6418.9C4487.44,6423.59 4503.83,6413.83 4507.54,6392.09ZM4550.99,6371.89C4536.04,6340.18 4542.57,6325.4 4605.07,6354.73C4601.24,6372.08 4584.13,6378.55 4550.99,6371.89ZM4619.81,6340.02C4602.48,6300.19 4615.88,6287.1 4674.19,6313.12C4673.28,6336.4 4655.16,6345.37 4619.81,6340.02ZM4689.19,6292.76C4657.28,6240.01 4679.55,6228.31 4742.8,6257.55C4754.02,6284.71 4738.35,6300.19 4689.19,6292.76ZM4810.07,6200.91C4738.61,6166.39 4699.78,6184.81 4759.3,6241.57C4801.02,6243.64 4819.73,6229.33 4810.07,6200.91ZM4944.49,5338.73C4970.62,5350.23 4985.45,5340.54 4995.14,5321.23C5029.52,5343.87 5049.24,5407.71 5051.28,5521.27C5014.64,5526.34 4976.32,5457.76 4944.49,5338.73ZM5080.09,5409.94C5099.61,5498.26 5075.94,5541.35 5147.13,5530.8C5150.3,5397.35 5142.9,5388.55 5080.09,5409.94ZM5170.86,5461.68C5195.63,5524.5 5234.35,5560.45 5295.03,5554.11C5294.35,5465.53 5278.93,5403.01 5242.4,5377.75L5228.63,5465.08C5207.57,5467.85 5192.23,5468.87 5170.86,5461.68ZM5237.79,5321.9C5271.77,5374.7 5313.9,5409.64 5367.36,5419.7C5349.56,5430.46 5328.47,5434.22 5304.68,5432.19C5315.09,5556.98 5303.45,5630.39 5423.31,5629.83C5413.27,5402.29 5377.6,5220.59 5270.55,5166.58C5307.1,5267.67 5314.78,5338.77 5237.79,5321.9ZM5300.57,5570.06C5273.41,5573.94 5246.89,5574.3 5224.52,5560.92C5235.08,5691.64 5336.22,5783.6 5300.57,5570.06ZM5327.78,5632.06C5356.42,5650.89 5386.6,5663.57 5420.46,5661.58C5409.47,5893.15 5311.98,5837.33 5327.78,5632.06ZM5076.14,5742.94C5016.48,5725.73 5005.79,5598.37 5075.28,5529.72C5137.17,5562.68 5172.71,5560.62 5185.94,5517.27C5253.73,5671.79 5174.1,5755.98 5119.2,5610.89C5118.76,5663.93 5115.61,5760.81 5076.14,5742.94ZM5138.08,5697.32C5151.61,5754.41 5148.2,5821.24 5097.55,5915.17C5027.42,5902.81 5013.98,5834.84 5034.64,5733.45C5080.22,5801.87 5113.16,5778.71 5138.08,5697.32ZM5164.91,5706.75C5184.26,5790.36 5211.88,5859.6 5271.41,5873.41C5294.05,5779.52 5275.2,5713.6 5227.94,5666.81C5219.69,5700.98 5200.72,5717.64 5164.91,5706.75ZM5303.67,5765.65C5300.32,5839.51 5291.15,5922.33 5325.52,5991.53C5376.4,5945.73 5404.66,5882.96 5417.55,5821.71C5379.98,5848.09 5338.83,5827.17 5303.67,5765.65ZM5190.67,6064.04C5232.36,6039.82 5256.36,5988.64 5282.27,5940.37C5296.8,5980.81 5300.5,6017.15 5295.83,6050.33L5386.96,5957.22C5388.82,6024.26 5361.82,6091.57 5291.37,6151.93C5282.73,6128.17 5284.77,6101.05 5285.03,6076.33C5253.52,6113.48 5221.27,6148.9 5178.64,6160.01C5169.9,6135.46 5174.3,6103.24 5190.67,6064.04ZM5262.02,6123.52C5201.02,6168.43 5161.47,6224.45 5179.71,6310.43C5283.27,6263.64 5289.03,6196.91 5262.02,6123.52ZM4845.68,6480.97C4834.94,6498.76 4840.06,6518.77 4842.99,6532.91C4943.05,6536.24 4974.72,6476.69 4999.27,6410.6L5068.69,6412.01C4992.6,6446.67 4949.19,6491.51 4983.09,6560.44C5089.19,6514.32 5182.43,6397.38 5175.2,6328.18C5154.9,6352.57 5129.7,6378.12 5113.49,6390.24C5152.32,6322.37 5167.4,6252.91 5164.99,6182.26C5148.57,6201.25 5128.09,6211.6 5110.61,6217.98C5132.22,6190.88 5149.85,6164.5 5157.7,6128.79C5106,6162.03 5056.5,6186.38 5023.7,6143.12C5000.66,6190.15 4980.51,6237.57 4982.32,6288.03C5018.73,6295.75 5056.66,6277.5 5095.23,6248.38C5064.61,6284.53 5028.36,6311.08 5031,6344.8L5013.25,6312.77L4974.3,6309.59L4961.8,6259.75L4945.41,6258.61C4974.65,6214.59 5001.16,6171.04 4989.4,6134.14C4972.21,6124.53 4962.59,6101.07 4955.88,6072.28C4916.4,6119.98 4885.71,6172.42 4894.5,6257.31L4927.1,6268.53C4873.04,6314.61 4838.13,6373.07 4845.48,6440.26C4884.1,6411.21 4924.32,6390.21 4965.93,6376.28C4920.29,6403.88 4875.17,6432.15 4845.68,6480.97ZM5165.28,5803.17C5122.82,5908.05 5097.89,5975.34 5199.33,6024.82C5303.27,5906.4 5227.19,5895.53 5165.28,5803.17ZM5114.07,5984.34C5128.35,6001.89 5141.56,6008.66 5159.39,6022.15C5162.03,6050.38 5160.34,6077.74 5153.54,6104.07C5011.23,6201.17 5030.88,6126.45 5114.07,5984.34ZM5019.26,5886.82C4931.32,6128.55 4982.87,6190.53 5105.12,5939.01C5071.07,5940.72 5043.66,5919.08 5019.26,5886.82ZM4871.56,6189.3C4805.92,6251.05 4753.36,6310.6 4756.77,6360.77C4803.19,6360.31 4843.82,6335.15 4879.2,6287.5C4866.66,6254.87 4868.89,6222.08 4871.56,6189.3ZM4825.29,6372.94C4753.52,6438.96 4678.05,6493.63 4670.08,6577.33C4713.22,6577.46 4770.98,6543.92 4819.01,6513.34C4824.81,6457.89 4822.86,6417.02 4825.29,6372.94ZM4773.99,6387.32C4715.27,6434.33 4658.83,6471.04 4603.12,6468.42C4615.56,6417.96 4661.82,6370.93 4741.06,6319.9L4731.53,6384.28L4773.99,6387.32ZM4832.06,6552.01C4743.5,6604.78 4713.51,6670.16 4865.46,6641.49C4885.49,6607.68 4920.17,6593.03 4958.43,6583.05L4953.02,6531.98C4909.36,6543.62 4865.11,6560.24 4832.06,6552.01ZM4777.9,6566.5C4751.62,6579.87 4701.27,6600.24 4673,6612.07L4705.61,6628.78C4653.39,6647.53 4606.9,6672.08 4584.91,6721.48C4626.2,6745.29 4681.62,6727.5 4739.39,6702.79C4705.06,6724.72 4669.82,6746.16 4645.71,6773.69C4718.78,6774.44 4775.12,6727.73 4829.07,6674.22C4794.63,6670.24 4761.22,6664.73 4734.06,6650.03C4736.85,6626.56 4756.37,6590.01 4777.9,6566.5ZM4677.89,6479.77C4657.06,6522.94 4643.14,6564.77 4652.53,6602.12C4606.15,6625.06 4557.35,6638.06 4498.63,6610.31L4505.61,6639.41C4465.22,6662.78 4416.5,6672.55 4352.83,6657.93C4302.22,6646.32 4422.11,6568.95 4546.61,6543.42L4547.42,6562.87C4589.47,6529.78 4633.24,6503.09 4677.89,6479.77ZM4640.59,6637.7C4529.88,6649.15 4417.5,6659.54 4413.76,6739.48C4445.09,6759.37 4494.41,6748.89 4554.35,6720.48C4573.07,6692.94 4603.93,6665.34 4640.59,6637.7ZM4625.69,6752.94L4564.22,6744.23C4447.89,6778.39 4375.18,6924.41 4613.48,6794.93C4620.66,6781.14 4624.83,6767.15 4625.69,6752.94ZM4421.25,6515.05L4452.6,6452.7C4264.9,6501.07 4121.11,6588.62 4340.06,6582.05C4032.07,6605.65 4073.22,6675.92 4286.87,6706.57C4134.84,6784.05 4203.72,6808.91 4384.36,6807.16C4144.74,6867.54 4191.67,6942.9 4411.45,6870.09C4426.55,6833.57 4448.21,6800.68 4471.96,6768.95C4439.18,6771.23 4406.39,6763.31 4383.19,6754.89C4381.75,6734.97 4389.58,6713.66 4406.66,6690.97C4291.01,6686.05 4292.13,6629.2 4398.86,6574.9C4448.99,6549.91 4515.52,6532.16 4577.12,6515.82C4577.4,6475.2 4589.53,6435.08 4603.09,6395.01C4561.1,6411.99 4520.65,6428.42 4482.46,6444.05C4453.28,6473.23 4448.75,6505.45 4421.25,6515.05ZM4208.69,6573.54C4194.37,6550.09 4235.65,6519.52 4281.85,6482.31C4208.01,6478.88 4126.01,6478.84 4052.14,6503.49C4003.38,6481.12 3946.56,6468.73 3878.52,6470.23C3829.75,6431.78 3773.39,6403.67 3663.93,6448C3683.74,6490.71 3735.68,6520.08 3811.13,6539.69C3812,6518.78 3826.52,6507.2 3850.85,6502.33C3835.47,6511.9 3830.4,6542.36 3850.76,6560.55C3725.6,6560.88 3648.82,6575.59 3805.17,6659.55C3866.75,6692.62 3892.99,6670.77 3883.05,6642.89C3943.71,6611.81 3948.67,6601.74 3891.05,6576.3C3993.51,6599.39 4099.57,6597.26 4208.69,6573.54ZM4104.01,6612.3C4033.05,6608.1 3962.37,6605.63 3900.29,6656.06C3923.83,6708.78 3976.05,6714.9 4043.59,6696.14C4007.79,6728.44 4040.22,6755.73 4119.35,6779.59L4182.82,6781.25C4183.96,6756.3 4199.62,6736.63 4223.84,6720.06C4181.3,6700.8 4136.74,6683.85 4072.68,6689.16C4085.42,6666.9 4096.42,6642.1 4104.01,6612.3ZM4199.91,6894.81C4153.42,6892.55 4108.66,6877.16 4065.38,6850.65C4114.38,6801.42 4183.47,6795.05 4268.62,6822.94C4233.51,6838.61 4202.97,6857.38 4199.91,6894.81ZM3968.04,6885.67C3983.23,6920.69 4039.68,6914.85 4106.2,6899.05C4076.21,6877.43 4035.3,6860.11 4007.09,6859.83L4091.27,6793.05C4012.06,6744.79 3942.42,6724.88 3899.76,6785.44L3941.87,6815.07C3882.19,6813.82 3827.48,6817.43 3781.82,6838.23C3787.28,6823.26 3804.84,6806.23 3872,6780.76C3885.15,6760.35 3910.73,6736.41 3940.91,6719.15C3866.96,6682.61 3778.09,6666.38 3746.45,6730.22C3733.06,6757.25 3801.63,6766.65 3833.55,6780.42C3747.17,6775.92 3641.66,6765.24 3627.95,6788.32C3595.24,6843.44 3689.27,6882.77 3788.77,6871.22C3842.56,6897.65 3904.2,6895.65 3968.04,6885.67ZM3308.11,6298.49C3313.91,6274.31 3330.59,6280.06 3331.93,6307.51C3337.01,6411.92 3373.3,6459.43 3430.96,6468.01C3417.32,6431.08 3435.97,6401.9 3492.66,6381.87C3533.11,6422.49 3577.61,6452.11 3631.38,6456.56L3644.07,6434.34L3704.08,6408.8C3651.61,6329.75 3577.97,6281.97 3478.7,6311.66L3484.56,6362.6C3461.23,6346.74 3449.19,6323.71 3442.28,6297.42C3471.45,6288.47 3518.82,6274.85 3550.73,6276.56C3461.98,6155.96 3251.14,6047.24 3398.01,6291.54C3379.28,6305.16 3356.13,6270.09 3331.49,6218.72C3311.15,6210.28 3289.41,6188.64 3266.7,6157.96C3235.05,6159.74 3199.45,6139.64 3161.32,6105.62C3111.59,6104.31 3094.81,6030.52 3107.36,6018.87C3115.49,6042.59 3126.15,6063.38 3154.51,6063.56C3155.75,6023.18 3164.71,5979.55 3176.91,5934.57C3172.81,6030.83 3167.04,6128.51 3270.4,6133.61C3271.65,5993.89 3254.87,5894.28 3184.33,5914.37C3187.04,5782.03 3124.29,5745.64 3089.68,5874.55C3082.06,5817.97 3098.13,5760.89 3046.15,5740.83C3031.1,5777.52 3028.09,5822.86 3030.12,5871.83C3065.64,5889.91 3079.91,5922.4 3082.34,5962.93C3074.1,5934.17 3058.7,5914.97 3032.05,5910.8C3028.32,5974.92 3020.99,6034.06 3027.7,6101.2C3047.13,6140.85 3074.51,6161.32 3103.44,6141.7C3114.35,6289.91 3235.93,6338.89 3227.14,6220.43C3238.18,6255.69 3250.65,6290.34 3265.68,6323.92C3232.39,6309.26 3198.52,6301.9 3164.41,6297.59C3164.21,6357.97 3201.23,6407.91 3252.08,6453.97L3274.16,6426.21L3329.21,6423.52C3318.92,6392.48 3305.96,6365.71 3288.78,6345.63C3311.02,6348.81 3314.5,6329.55 3308.11,6298.49ZM3417.19,6710.36C3436.46,6703.74 3461.56,6705.08 3493.09,6715.16C3427.82,6631.8 3351.95,6562.15 3257.3,6597.19C3421.2,6758.15 3537.39,6829.63 3611.48,6822.1C3593.56,6768.63 3474.08,6718.58 3417.19,6710.36ZM3724.77,6751C3726.15,6719.05 3749.69,6691.12 3792.8,6673.91C3751.2,6640.88 3706.39,6612.87 3646.94,6607.86C3687.51,6597.53 3719.31,6571.57 3745.86,6536.21C3673.38,6484.18 3604.16,6442.02 3566.25,6494.76C3564.53,6510.06 3583.33,6530.78 3604.16,6552.04C3571.22,6529.54 3538.34,6506.96 3540.21,6446.19C3507.65,6411.94 3480.11,6381.63 3450.85,6421.51C3433.23,6445.53 3459.84,6493.73 3474.45,6524.62C3410.62,6471.87 3349.07,6443.32 3290.37,6445.02C3291.09,6487.25 3321.91,6534.34 3354.28,6571.9C3422.86,6602.15 3470.74,6644.15 3508.83,6707.86C3541.1,6732.82 3573.72,6753.98 3606.64,6771.79C3641.14,6758.92 3684.12,6758.17 3724.77,6751ZM3315.77,6558.61C3281.43,6493.33 3231.53,6449.17 3143.74,6438.93C3179.92,6547 3234.17,6589.05 3315.77,6558.61ZM3092.52,6341.61C3102.92,6421.5 3145.04,6441.31 3158.75,6408.62C3170.29,6381.12 3146.27,6351.81 3092.52,6341.61ZM3043.48,6159.65C3108.65,6183.45 3132.83,6249.54 3141.79,6331.33C3097.17,6327.37 3060.65,6287.01 3043.48,6159.65ZM3014.53,6125.54C3023.3,6153.63 3023.93,6182.59 3025.86,6212.41C2969.7,6212.91 2955.32,6118.25 3014.53,6125.54ZM3008.09,6102.27L3000.64,6012.93C2899.77,5992.52 2961.18,6117.6 3008.09,6102.27ZM3330.47,6187.19C3325.84,6143.52 3339.91,6122.26 3422.51,6128.73C3403.57,6078.18 3377.16,6031.89 3345.3,5988.71L3286.35,5983.62L3289.81,6148.09C3299.77,6170.16 3313.43,6182.91 3330.47,6187.19ZM3283.45,5963.46L3347.6,5970.35L3295.43,5815.26C3268.74,5860.22 3265.18,5915.14 3283.45,5963.46ZM3245.35,5899.89C3260.16,5828.16 3293,5773.41 3266.41,5731.28C3240.55,5671.95 3226.77,5695.07 3197.57,5758.32C3195.39,5739.35 3189.67,5725.66 3213.08,5690.31C3254.52,5627.74 3181.11,5554.51 3141.53,5624.4L3100.7,5703.89C3106.2,5653.88 3156.34,5600.87 3138.43,5539.44C3123.08,5486.79 3026.99,5616.52 3049.15,5715.12C3060.39,5732.62 3074.76,5735.25 3092.91,5719.95C3091.53,5800.2 3106.29,5787.06 3135.41,5772.44C3159.9,5760.15 3189.53,5819.2 3202.94,5865.09C3209.53,5887.66 3227.9,5914.56 3245.35,5899.89ZM3004.08,5980.31C3010.6,5935.55 2991.34,5894.64 2932.21,5881.59C2924.76,5953.57 2956.43,5987.06 3004.08,5980.31ZM3002.15,5874.34C2960.63,5870.46 2932.13,5842.93 2923.36,5779.56C2971.14,5773.68 3000.57,5799.77 3002.15,5874.34ZM3012.72,5771.42C2965.19,5763.43 2931.74,5738.52 2934.99,5669.55C2986.61,5675.68 3014.83,5707.14 3012.72,5771.42ZM3028,5681.99C2971.29,5661.23 2936.8,5626.61 2948.92,5562.94C3014.94,5583.1 3035.22,5625.78 3028,5681.99ZM2949.38,5463.26C2961.23,5530.79 3026.66,5607.01 3045.97,5576.67C3061.62,5552.1 2994.5,5484.28 2949.38,5463.26ZM2998.96,5426.98C3009.01,5483.26 3038.4,5508.27 3076.87,5498.41C3096.83,5453.88 3067.71,5424.42 2998.96,5426.98ZM3110.24,5337.94C3046.35,5380.18 3035.73,5408.41 3092.38,5427.21C3108.49,5401.28 3115.8,5375.01 3110.24,5337.94ZM3168.07,5211.66C3140.37,5250.06 3134.76,5308.38 3137.81,5374.51C3175.45,5373.19 3252.87,5287.72 3168.07,5211.66ZM3182.63,5190C3179.98,5145.03 3178.98,5096.6 3194.69,5065.38C3254.16,5086.8 3243.1,5167.74 3231.1,5244.22C3212.57,5231.3 3196.86,5212.26 3182.63,5190ZM3187.85,5569.12C3225.09,5589.39 3240.7,5621.01 3245.5,5675.98C3267.05,5688.38 3281.73,5710.65 3293.29,5737.41C3300.18,5614.41 3310.28,5486.99 3248.78,5458.22C3223.53,5487.91 3206.9,5532.11 3187.85,5569.12ZM3099.22,5498.63C3148.45,5499.31 3156.28,5529.07 3164.03,5558.89C3207.1,5486.6 3225.33,5422.3 3186.59,5376.3C3146.24,5390.74 3119.61,5437.36 3099.22,5498.63ZM3236.78,5434.87C3209.77,5363.65 3223.83,5299.61 3258.04,5239.09C3303.7,5263.22 3290.74,5414.61 3236.78,5434.87ZM3325.24,5530.12C3272.81,5447.59 3304.16,5286.85 3347.54,5284.1C3378.3,5296.09 3354.14,5432.31 3325.24,5530.12ZM3379.65,5276.78C3411.4,5203.82 3424.55,5132.15 3404.32,5062.8C3364.94,5122.71 3350.25,5230.99 3379.65,5276.78ZM3338.1,5085.46C3353.98,5157.96 3348.25,5222.33 3314.5,5276.15C3262.73,5188.05 3251.25,5170.95 3327.22,5060.52C3302.16,4977.15 3308.84,4925.38 3331.59,4892C3372.21,4902.05 3396.63,4945.55 3410.36,5011.1C3397.74,5041.68 3371.23,5065.24 3338.1,5085.46ZM3295.09,4995.26C3258.63,4954.65 3228.86,4939.16 3205.78,4948.8C3200.74,5012.54 3222.46,5059.11 3258.7,5112.54C3292.85,5087.11 3301.93,5046.13 3295.09,4995.26ZM3180,4796.31C3177.64,4844.05 3178.43,4888.32 3182.09,4929.43C3215.35,4899.68 3254.95,4916.06 3295.74,4941.15C3298.84,4917.94 3299.12,4895.39 3290.97,4874.81C3260.15,4834.23 3221.21,4812.61 3180,4796.31ZM3381.73,4891.3C3367.16,4808.45 3337.43,4750.4 3289.74,4711.3C3282.57,4817.86 3281.26,4865.29 3381.73,4891.3ZM3147.77,4552.4C3139.77,4645.66 3191.47,4664.51 3277.67,4691.53C3259.2,4624.32 3215.28,4579.13 3147.77,4552.4ZM3163.72,4673.94C3226.89,4688.04 3268.91,4727.66 3269.13,4817.69L3174.73,4772.78C3174.74,4746.74 3171.31,4714.24 3163.72,4673.94ZM2727.64,4095.14C2771.14,4062.45 2794.04,4026.54 2781.75,3989.5C2702.33,4027.39 2697.6,4063.44 2727.64,4095.14ZM2745.85,4103.41L2731.66,4136.07C2750.44,4142.13 2769.16,4118.46 2745.85,4103.41ZM2677.45,4077.34C2632.32,4137.52 2642.57,4174.57 2690.69,4195.8C2706.62,4202.49 2703.68,4238.59 2702.27,4272.31C2733.62,4314.58 2769.27,4347.95 2806.05,4379.02C2811.19,4315.98 2804.41,4266.76 2754.32,4267.75C2767.83,4200.46 2762.77,4147.69 2703.59,4163.92C2701.26,4118.71 2702.57,4078.12 2677.45,4077.34ZM3035.93,4752.27C3035.05,4698.12 3000.04,4664.91 2948.73,4617.89L2945.75,4530.59L2874.39,4461.36C2900.22,4441.28 2872.86,4418.09 2830.87,4394.04L2834.73,4434.08C2779.09,4375.72 2723.02,4313.51 2671.84,4295.47C2682.51,4235.53 2673.06,4195.26 2630.15,4187.71C2630.97,4260.46 2641.53,4338.89 2656.88,4420.1L2725.22,4420.82L2757.63,4404.81C2754.2,4484.37 2784.3,4527.77 2832.51,4545.17L2838.64,4496.22C2844.47,4520.8 2851.82,4544.75 2863.13,4567.05C2913.63,4601.24 2942.28,4641.07 2934.6,4690.25C2922.32,4660.05 2905.53,4632.39 2873.53,4613.29C2840.38,4684.07 2854.45,4762.4 2915.75,4848.28C2939.07,4847.56 2960.82,4853.87 2981.66,4864.33C2986.52,4835.49 2963.11,4796.93 2916.28,4750.31C2922.42,4720.97 2956.26,4758.32 2995.89,4809.17C3005.2,4785.04 3013.53,4756.74 3035.93,4752.27ZM2685.54,4438.84C2753.32,4448.62 2766.23,4494.71 2742.96,4564.73C2717.09,4580.78 2698.22,4521.42 2685.54,4438.84ZM2781.29,4538.3C2741.75,4613.32 2771.77,4652.16 2831.32,4692.58C2860.2,4600.56 2875.54,4573.99 2781.29,4538.3ZM2780.03,4772.76C2742.8,4762.64 2710.97,4748.41 2733.85,4692.63C2789.97,4684.88 2792.39,4722.57 2780.03,4772.76ZM2734.53,4809.9C2735.25,4765.95 2726.35,4739.88 2685.5,4740.92C2677.45,4798.08 2696.78,4811.88 2734.53,4809.9ZM2689.38,4862.38C2667.93,4875.7 2648.11,4848.16 2664.5,4810.83C2688.64,4806.33 2695.24,4823.93 2689.38,4862.38ZM2635.68,4719.17C2676.29,4703.61 2723.89,4685.68 2747.95,4655.15C2731.35,4617.35 2708.59,4587.39 2665.1,4583.82C2645.09,4622.6 2630.78,4664.91 2635.68,4719.17ZM2539,4619.92C2605.58,4609.36 2693.91,4556.97 2669.11,4534.82C2650.67,4518.36 2575.78,4593.37 2539,4619.92ZM2621.67,4616.84C2587.74,4629.72 2546.78,4647.53 2518.78,4643.84C2482.67,4690.96 2456.38,4738.64 2455.14,4787.73C2488.59,4796.37 2531.68,4753.06 2576.6,4699.95C2555.87,4788.51 2536.47,4875.37 2587.63,4871.93C2574.89,4948.67 2577.05,5009.76 2622.96,5024.97C2580.21,5057.07 2606.41,5109.94 2695.39,5181.71C2776.41,5206.71 2834.07,5206.78 2842.71,5154.55C2852.95,5166.63 2858.16,5179.3 2857.28,5192.67C2938.1,5181.74 3019.18,5114.49 2975.7,5060.93C2955.86,5036.5 2883.52,5074.3 2847.93,5137.91C2804.15,5121.21 2763.95,5114.62 2745.25,5168.83C2730.37,5118.96 2708.34,5070.3 2658.76,5026.27C2661.26,4969.53 2654.04,4913.36 2614.07,4859.11C2661.45,4784.32 2686.6,4727.61 2626.02,4740.63C2605.65,4702.85 2614.35,4654.42 2621.67,4616.84ZM3154.1,4795.79C3142.23,4720.28 3156.7,4681.99 3117.6,4640.24C3169.85,4636.78 3113.96,4531.49 3046.74,4528.54C3035.25,4571.49 3058.62,4605.23 3095.38,4635.44C3063.89,4656.03 3110.08,4726.61 3154.1,4795.79ZM3012.46,4541.07C3005.68,4493.01 3044.82,4493.42 3117.54,4529.27C3090.28,4500.9 3049.34,4478.02 2959.66,4474.67C2965.93,4501.92 2984.21,4523.74 3012.46,4541.07ZM2965.44,4575.67C2966.02,4612.65 2988.28,4644.26 3024.33,4672.46C3040.47,4636.85 3021.41,4604.53 2965.44,4575.67ZM3050.83,4707.52C3060.73,4751.72 3076.69,4786.18 3102.93,4804.12C3097.91,4750.3 3080.73,4717.76 3050.83,4707.52ZM3144.56,5029.58L3110.53,5039.14L3102.52,4896.03L3094.06,4913.57C3071.34,4893.89 3046.5,4891.99 3020.54,4899.44C3012.98,4842.12 3015.85,4795.58 3041.66,4772.77C3077.24,4791.02 3100.54,4820.9 3096.82,4876.33C3167.37,4918.32 3171.74,4971.33 3144.56,5029.58ZM3006.45,5058.72C3004.91,4955.19 3018.09,4885.63 3083.7,4937.16L3093.09,5049.15C3065.48,5042.24 3036.17,5048.84 3006.45,5058.72ZM2984.36,5028.96C3006.21,4936.67 3008.2,4868.91 2932.23,4876.67C2945.43,4928.94 2945.57,4984.07 2937.32,5038.21C2956.62,5032.17 2972.98,5028.53 2984.36,5028.96ZM3070.35,5208.11C3149.23,5200.18 3153.78,5128.84 3153.43,5056.12C3096.36,5056.12 3142.5,5139 3070.35,5208.11ZM3054.52,5193.04C3078.63,5157.98 3091.51,5118.24 3092.63,5073.59C3015.55,5045.05 3018.03,5135.1 2936.61,5204.63C3002.97,5168.49 3043.13,5163.6 3054.52,5193.04ZM2932.77,5247.78C2923,5266.25 2917.83,5284.41 2915.08,5302.42L2973.61,5313.46L3042.57,5220.42C3027.16,5182.76 2990.56,5191.88 2932.77,5247.78ZM3119.41,5219.85C3104.34,5285.13 3068.98,5333.54 3007.35,5360.09L2992.7,5323.31C3025.83,5261.67 3067.78,5226.32 3119.41,5219.85ZM2972.02,5370.88L2967.86,5331.51L2831.89,5329.06L2820.7,5366.92C2776.7,5342.86 2729.15,5325.78 2675.98,5319.69C2689.32,5351.53 2686.59,5382.88 2673.66,5413.93C2718.55,5429.23 2770.65,5432.06 2827.34,5426.96C2836.18,5410.72 2838.99,5395.64 2831.58,5382.54C2850.05,5381.11 2862.61,5389.35 2868.03,5409.24C2913.32,5418.9 2948.33,5406.82 2972.02,5370.88ZM2782.93,5229.89L2825.74,5320.37C2897.14,5288.67 2935.8,5253.28 2912.2,5210.87C2881.48,5202.64 2834.76,5213.25 2782.93,5229.89ZM2670.95,5193.93C2725.57,5209.56 2779.7,5243.16 2795.54,5319.48L2677.71,5296.4C2684.21,5267.6 2674.03,5228.94 2670.95,5193.93ZM2506.19,5259.15L2528,5290.63L2558.67,5227.88C2568.57,5223.99 2576.55,5223.56 2582.25,5227.33C2570.59,5181.78 2552.72,5151.81 2540.18,5117.4C2559.72,5109.7 2574.78,5097.27 2586.01,5080.52C2634.04,5168.17 2673.45,5253.05 2627.04,5259C2650.16,5312.48 2670.05,5370.31 2653.37,5405.25C2544.74,5366.72 2470.44,5279.15 2426.17,5156.32C2451.92,5140.91 2468.73,5112.38 2478.13,5072.98L2500.4,5090C2478.85,5011.91 2492.94,4956.42 2538.37,4920.8C2571.93,4994.44 2608.18,5080.32 2513.39,5103.74C2542.8,5182.08 2557.68,5248.31 2506.19,5259.15ZM2422.39,5119.85C2406.41,5056.61 2397.92,4988.16 2397.12,4914.38C2415.67,4925.77 2431.01,4938.96 2441.65,4954.79C2441.44,4911.58 2442.27,4866.91 2448.63,4814.47C2475.66,4818.19 2504.53,4802.25 2534.18,4778.11C2544.61,4861.05 2531.07,4933.12 2456.91,4977.66C2458.54,5043.33 2453.18,5099.27 2422.39,5119.85ZM5211.15,3909.47C5236.74,3935.07 5270.61,3950.07 5312.75,3954.47C5406.23,3988.04 5371.01,4029.2 5318.07,4000.9C5284.49,4002.83 5263.45,3994.7 5257.56,3974.45C5225.79,3984.21 5206.15,3970.36 5194.83,3940.34C5153.01,3951.19 5129.74,3933.93 5115.87,3902.44C5089.29,3914.64 5068,3904.09 5051.09,3874.68C5032.05,3901.19 5003.98,3883.33 4970.58,3839.28C4960.85,3900.01 4932.32,3865.67 4897.51,3799.47C4863.01,3866.39 4836.85,3834.37 4815.6,3743.99C4777.92,3832.95 4755.47,3823.02 4748.26,3714.22C4670.91,3793.66 4664.01,3734.3 4684.16,3621.66C4605.78,3717.66 4591.31,3672.31 4620.55,3530.26C4567.6,3601.93 4562.36,3545.34 4585.28,3413.05L4492.79,3301.26C4524.57,3327.86 4563.9,3358.15 4595.06,3343.59C4578.32,3294.62 4564.69,3246.42 4555.59,3199.35C4604.16,3225.72 4654.11,3255.87 4697.43,3267.82C4715.2,3224.45 4687.31,3166.83 4645.85,3104.97C4703.29,3115.26 4754.91,3138.49 4806.04,3162.79C4771.03,3109.26 4746.79,3054.71 4739.5,2998.55L4939.26,3176.34L4914.48,3213.03C5047.87,3211.01 5152.94,3229.35 5216.63,3277.43C5307.76,3250.51 5383.33,3264.38 5455.49,3287.18C5437.04,3317.12 5389.25,3320.34 5346.06,3329.48C5407.75,3364.51 5472.86,3367.87 5506.12,3311.47C5711.53,3285.41 5694.16,3478.51 5555.8,3369.93C5516.89,3432.8 5399.03,3427.93 5241.91,3420.65C5170.62,3417.35 4959.19,3580.48 4791.87,3480.49C4740.15,3497.36 4751.61,3546.89 4768.41,3605.81C4791.92,3688.26 4941.89,3815.77 5211.15,3909.47ZM1510.78,2687.2C1577.58,2598.46 1674.2,2544.65 1786.41,2543.09C1888.99,2712.54 1855.5,2869.7 1762.69,2975.82L1658.05,2933.38C1697.27,2995.35 1740.16,3032.01 1790.02,3020.52C2129.52,2944.72 2066.9,2669.31 1782.62,2446.23C1674.58,2449.35 1586.38,2473.15 1513.62,2513.49C1515.73,2187.66 1508,1864.45 1486.05,1531.67C1673.4,1499.32 1876.64,1420.72 2141.97,1274.62L2198.13,1349.26L2234.46,1231.51C2337.23,1173.85 2446.47,1131.34 2561.9,1103.29L2509.79,1621.17C2574,1804.64 2540.02,1738 2396.02,1859.11C2441.76,1860.09 2492.53,1842.32 2546.26,1813.48C2598.06,1872.47 2526.69,1925.01 2347.08,1971.89C2397.02,1980.37 2457.86,1966.48 2545.07,1941.35C2561.65,1983.28 2525.23,2016.88 2447.91,2044.05C2475.31,2056.7 2504.26,2063.95 2539.81,2048.12C2518.74,2520.31 2533.4,2960.19 2562.77,3386.77L2400.01,3454.34C2358.43,3378.81 2322.4,3369.73 2294.12,3453.17C2242.54,3445.34 2205.26,3459.99 2185.94,3507.35C1951.72,3581.89 1717.44,3669.99 1482.83,3817.97C1485.75,3682.59 1490.49,3555.92 1494.34,3420.83C1782.28,3464.69 1924.88,3414.5 2088.31,3292.74C2418.64,3046.65 2477.45,2770.21 2366.03,2474.75C2317.75,2478.69 2320.75,2471.95 2314.05,2438.56C2271.33,2225.61 2128.14,2058.52 1906.76,1927.13C1761.87,1848.57 1654.49,1730.32 1753.46,1625.4C1813.38,1561.89 2110.26,1591.72 2044.93,1729.66C1999.31,1825.99 2055.64,1854.74 2074.07,1797.63C2113.09,1676.76 2212.93,1621.27 2351.79,1607.73C2465.14,1532.31 2427.02,1516.74 2299.53,1536.48C2036.45,1332.52 1861.45,1428.54 1689,1581.79C1533.53,1756.04 1592.51,1963.01 1803.41,2193.17C1858.28,2150.72 1881.59,2190.28 1883.3,2285.94L2078.12,2484.87C2156.32,2450.54 2143.99,2511.44 2120.9,2641.44C2285.45,2987.2 2111.83,3241.31 1922.71,3324.68C1735.73,3342.34 1583.56,3371.95 1497.94,3251.23C1497.94,3251.23 1489.38,2715.64 1510.78,2687.2ZM4026.5,4784.17C3986.64,4849.53 3935.35,4892.89 3843.14,4877.53C3885.4,4927.41 3988.91,4928.91 4007.05,4974.62C4039.58,5056.62 4044.15,5178.55 3956.84,5168.37C3983.81,5212.63 4046.35,5190.29 4065.61,5085.58C4066.69,5079.73 4067.63,5073.62 4068.42,5067.25C4072.52,5034.29 4086.32,4989.41 4112.58,4957.51C4136.2,4928.82 4178.04,4918.03 4215.09,4899.56C4420.68,5040.88 4600.47,5216.49 4706.22,5354.04C4673.79,5435.58 4629.6,5518.02 4517.5,5499.35C4559.76,5549.23 4663.26,5550.73 4681.4,5596.44C4713.94,5678.44 4718.51,5800.37 4631.2,5790.19C4658.17,5834.45 4720.71,5812.11 4739.97,5707.4C4741.05,5701.55 4741.99,5695.44 4742.78,5689.07C4746.88,5656.11 4760.68,5611.23 4786.94,5579.33L4813.74,5550.88C4835.11,5648.78 4847.78,5752.95 4837.76,5833.1C4816.49,6003.18 4724.76,6122.23 4620.32,6241.85L4043.39,5631.18L3491.15,6153.35C3353.62,5958.51 3339.94,5722.83 3369.33,5514.89C3388.22,5523.18 3400.15,5522.63 3406.4,5538.37C3438.93,5620.37 3443.5,5742.3 3356.2,5732.12C3383.16,5776.38 3445.7,5754.04 3464.97,5649.33C3466.04,5643.47 3466.98,5637.37 3467.78,5631C3471.88,5598.04 3485.67,5553.16 3511.93,5521.25C3545.56,5480.42 3622.04,5478.99 3658.1,5434.27C3520.37,5466.69 3420.54,5304.74 3495.96,5178.72C3455.58,5194.81 3435.35,5263.4 3403.62,5330.84C3409.67,5308.24 3414.5,5296.69 3421.12,5275.8C3560.51,4835.7 3309.44,4454.73 2908.59,4438.7C2779.24,4245.77 2774.54,4073.6 2883.34,3920.33C2733.87,3964.5 2632,4047.99 2584.29,4176.19L2193.79,3746.4L2173.66,3583.8C2211.39,3587.3 2223.9,3567.5 2227.58,3519.5C2275.28,3540.51 2312.91,3526.11 2339.51,3472.82C2358.09,3511.56 2396.1,3525.18 2462.51,3502.07L2616.7,3437.32L2605.77,3287.27C2641.1,3300.28 2674.58,3308.8 2684.09,3332.78C2716.63,3414.78 2721.2,3536.71 2633.89,3526.53C2660.86,3570.79 2723.4,3548.45 2742.66,3443.74C2743.74,3437.89 2744.68,3431.78 2745.47,3425.41C2749.57,3392.46 2763.36,3347.58 2789.63,3315.67C2823.25,3274.83 2899.74,3273.41 2935.79,3228.68C2837.08,3251.92 2757.83,3175.3 2748.62,3083.63L3095.49,2999.26L3216.79,3124.54C3022.97,3365.67 2984.82,3677.86 3120.63,4011.24C3243.35,4312.49 3604.24,4583.97 4026.5,4784.17ZM4788.1,3847.39C4751.01,3914.1 4714.04,3982.11 4619.55,3966.37C4661.81,4016.25 4765.31,4017.75 4783.45,4063.47C4815.99,4145.47 4820.56,4267.4 4733.25,4257.22C4760.22,4301.48 4822.76,4279.14 4842.02,4174.42C4843.1,4168.57 4844.04,4162.46 4844.83,4156.1C4848.93,4123.14 4862.72,4078.26 4888.99,4046.35C4922.61,4005.52 4999.1,4004.09 5035.15,3959.37C4949.28,3979.81 4888.76,3935.51 4863.62,3874.2L5336.6,4044.47C5372.44,4047.22 5409.57,4031.89 5401.29,3994.07C5527.74,4043.08 5618.24,3997.27 5665.08,3870.23C5680.66,3827.98 5715.06,3800.69 5764.39,3791.44C5743.32,3777.39 5715.68,3772.18 5633.59,3840.34C5633.02,3793.21 5645.31,3747.56 5684.6,3705.04C5650.59,3715.09 5609.5,3746.85 5583.34,3862.54C5572.12,3912.17 5540.32,3935.02 5497.9,3946.67C5455.41,3958.35 5424.33,3792.06 5313.54,3762.8C5268.98,3751.03 5232.39,3690.66 5213,3621.18C5254.81,3608.93 5294.52,3596.03 5325.61,3580.43C5347.02,3609.32 5338.28,3658.9 5327.5,3709.89C5372.14,3682.35 5411.57,3642.14 5432.04,3555.88L5523.65,3524.83C5538.01,3571.97 5527.43,3627.15 5504.97,3686.16C5568.91,3627.19 5622.88,3561.46 5641.29,3471.65C5752.55,3430.23 5739.87,3230.57 5510.89,3268.71C5446.36,3230.88 5354.35,3211.98 5231.29,3215.46C5091.27,3169.19 5163.55,3175.74 4985.21,3157.74C4981.08,3157.33 4940.88,3121.3 4947.14,3111.6C4960.06,3091.54 5012.19,3003.72 5051.15,2989.03C5091.89,2973.68 5394.96,3051.04 5517.76,3141.95C5625.3,3122.09 5625.12,3148.22 5615.32,3196.52C5606.79,3238.53 5785.88,3234.93 5867.52,3279.08C5885.9,3470.78 5885.43,3673.16 5879.15,3878.83C5581.33,4170.34 5267.87,4403.78 4978.22,4714.28C4817.56,4560.69 4626.41,4412.76 4265.08,4256.49C4032.12,4125.6 3778.6,4016.93 3679.95,3778.11C3649.8,3705.9 3661.93,3677.09 3661.89,3582.82L4037.9,3940.93L4531.24,3446.47C4537.49,3611.68 4574.6,3788.56 4788.1,3847.39ZM2698.98,3096.12C2676.92,3148.41 2650,3202.97 2602.31,3226.47L2595.15,3121.48L2698.98,3096.12ZM5315.8,6231.94C5311.58,6239.12 5306.76,6250.77 5302.21,6258.33C5216.57,6400.74 5104.19,6530.14 4959.53,6643.86C5004.74,6713.82 5088.63,6795.64 5167.24,6847.43C5388.3,6734.86 5635.78,6610.7 5888.06,6484.44L5883.38,5990.01C5743.18,5860.75 5604.77,5756.24 5484.32,5629.98C5476.64,5771.8 5464.56,5892.16 5408.63,6038.47C5424.53,6069.38 5500.37,6167.15 5587.95,6151.07C5551.9,6195.79 5475.41,6197.22 5441.79,6238.06C5415.52,6269.96 5401.73,6314.84 5397.63,6347.8C5396.84,6354.17 5395.9,6360.28 5394.82,6366.13C5375.56,6470.84 5313.02,6493.18 5286.05,6448.92C5373.36,6459.1 5368.79,6337.17 5336.25,6255.17C5332.76,6246.38 5324.55,6238.14 5315.8,6231.94ZM2856.82,6823.82L3148.8,6557.22C2841.46,6091.44 2843.72,5897.86 2873.62,5482.24C2770.35,5517.95 2678.72,5494.94 2592.84,5438.5L2180.85,5802.32L2189.37,6482.32L2856.82,6823.82ZM2181.43,5281.84L2370.34,5114.17C2363.06,5056.77 2356.33,5027.38 2354.69,4967.35L2176.68,4796.84L2178.1,4941.61L2230.15,5036.26L2183.51,5125.74L2181.43,5281.84ZM3769.21,5942.87L3981.88,6172.66L3798.22,6396.95C3690.27,6352.59 3603.1,6288.49 3518.18,6194.17L3769.21,5942.87ZM4034.67,6171.62L4279.89,5937.01L4490.51,6160.81L4246.53,6400.45L4034.67,6171.62ZM4428.93,3497.11L4266.65,3330.71L4054.75,3518.15L4225.09,3709.86L4428.93,3497.11ZM3997.49,3516.62L3823.66,3315.72C3758.84,3365.78 3685.33,3427.75 3665.48,3534.16L3820.91,3685.15L3997.49,3516.62ZM5156.18,4595.66L5358.2,4802.16L5596,4566.97L5404.65,4354.33L5156.18,4595.66ZM2186.4,3919.25L2239.64,4013.29L2187.17,4109.31L2189.23,4215.63L2413.88,4046.99L2183.52,3797.93L2186.4,3919.25ZM2180.37,4450.03L2233.1,4544.97L2180.85,4643.24L2182.12,4759.15L2413.18,4561.76L2177.33,4324.66L2180.37,4450.03ZM2180.01,5657.28L2180.7,5760.19L2378.37,5569.36L2177.83,5332.63L2178.73,5466.25L2231.94,5560.63L2180.01,5657.28ZM3293.25,7076.26L3210.14,7026.49L3300.82,6908.26L3527.55,7148.38L3494.26,7196.63L3372.46,7123.69L3317.58,7026.75L3293.25,7076.26ZM5855.74,5589.94L5858.58,5432.62L5826.38,5381.35L5571.06,5644.36L5850.18,5897.49L5854.69,5685.3L5833.38,5721.92L5779.54,5636.85L5831.09,5547.42L5855.74,5589.94ZM5354.23,5167.64C5369.19,5196.39 5383.2,5227.58 5396.17,5263.33L5577.28,5116.62L5357.37,4857.61L5234.02,4976.84C5258.67,5015.01 5283.37,5048.98 5305.41,5083.03L5354.01,4990.58L5405.67,5091.12L5354.23,5167.64ZM5867.26,5033.07L5867.03,4878.89L5637.79,5126.04L5867.76,5360.96L5867.53,5213.37L5806.33,5121.6L5867.26,5033.07ZM5882.99,4497.2L5888.19,4338.4L5662.23,4571.45L5872.24,4826.32L5878.05,4663.57L5825.77,4586.39L5882.99,4497.2ZM5892.3,4171.29L5839.29,4089.18L5897.12,3997.71L5899.77,3902.29L5714.03,4094.31L5889.24,4281.52L5892.3,4171.29ZM2470.96,4553.69L2510.24,4598.68C2605.18,4557.56 2658.87,4500.72 2617.97,4407.85L2470.96,4553.69ZM2755.49,5068.34C2632.45,5045.46 2688.5,4799.32 2834.71,4807.68C2902.26,4920.92 2919.58,5098.85 2755.49,5068.34ZM4716.23,6905.87L4640.85,6830.34C4742.22,6779.82 4834.48,6725.03 4923.18,6668.56C4856.22,6755.44 4785.64,6829.73 4716.23,6905.87ZM4722.6,6963.37L4527.83,7166.11L4545.61,7189.91C4631.68,7133.77 4717.15,7079.11 4798.74,7034.01L4722.6,6963.37ZM4476.33,7175.33L4263.22,6948.18L4034.36,7168.06L4219.88,7342.33L4476.33,7175.33ZM3976.03,7167.28L3805.17,6934.68L3773.72,6931.91L3576.41,7145.25L3788.2,7361.57L3976.03,7167.28ZM3305.02,6862.01L3386.02,6782.4C3318.28,6727.68 3250.3,6669.51 3180.65,6587.09L3114.95,6637.91L3305.02,6862.01ZM6035.36,1183.52C6029.34,1158.85 5934.43,1189.79 5886.22,1203.5C5946.53,1207.51 6041.24,1207.56 6035.36,1183.52ZM5161.5,1267.76C5176.19,1253.07 5212.64,1271.09 5235.38,1295.03C5209.53,1306.67 5142.66,1286.6 5161.5,1267.76ZM4990.13,653.026C4946.98,615.388 4903.13,583.907 4854.77,592.289C4899.15,619.401 4944.25,639.865 4990.13,653.026ZM4927.12,556.856C4979.13,573.617 5030.06,594.943 5077.59,630.556C5024.45,615.447 4973.86,592.268 4927.12,556.856ZM4990.32,529.813C4995.14,515.454 5021.64,525.179 5040.01,541.868C5013.56,547.804 4985.17,545.133 4990.32,529.813ZM5386.11,4488.67L5436.16,4576.26L5379.15,4660.63L5325.96,4574.11L5386.11,4488.67ZM4269.92,3422.13L4317.35,3514.14L4272.21,3596.62L4222.94,3511.21L4269.92,3422.13ZM3806.77,3408.09L3854.2,3500.1L3809.06,3582.58L3759.79,3497.17L3806.77,3408.09ZM2768.22,4863.36L2815.65,4955.38L2770.51,5037.86L2721.24,4952.44L2768.22,4863.36ZM3757.36,6088.73L3804.8,6180.75L3759.65,6263.23L3710.38,6177.81L3757.36,6088.73ZM4267.12,6074.78L4314.55,6166.79L4269.41,6249.27L4220.14,6163.86L4267.12,6074.78ZM4266.47,7072.37L4313.9,7164.39L4268.76,7246.87L4219.48,7161.45L4266.47,7072.37ZM3793.84,7060.43L3841.27,7152.44L3796.13,7234.92L3746.86,7149.51L3793.84,7060.43ZM2532.64,6358.45C2559.62,6402.71 2622.15,6380.37 2641.42,6275.66C2642.49,6269.81 2643.43,6263.7 2644.22,6257.33C2648.33,6224.37 2662.12,6179.49 2688.39,6147.59C2722.01,6106.75 2798.49,6105.32 2834.55,6060.6C2696.82,6093.02 2596.99,5931.07 2672.41,5805.05C2593.81,5836.37 2598.56,6097.53 2418.95,6067.6C2461.2,6117.49 2564.71,6118.99 2582.85,6164.7C2615.39,6246.7 2619.95,6368.63 2532.64,6358.45ZM3018.94,7196.06C3070.26,7214.9 3120.68,7225.93 3170.02,7227.53C3109.91,7248.43 3059.25,7238.93 3018.94,7196.06ZM2480.82,7002.41C2454.15,6929.92 2392.34,6883.39 2327.61,6839.02C2387.67,6918.45 2459.14,7037.15 2480.82,7002.41ZM1886.92,5696.96C1878.35,5653.83 1884.15,5611.87 1907.31,5571.32C1923.54,5529.92 1924.69,5495.11 1916.25,5464.5C1866.95,5592.97 1848.9,5681.13 1886.92,5696.96ZM1832.03,5556.41C1844.39,5418.88 1876.19,5377.34 1909.12,5341.36C1888.88,5390.73 1874.12,5440.54 1878.88,5491.92C1872.19,5528.74 1856.03,5549.31 1832.03,5556.41ZM4880.21,3273.89C4920.49,3301.93 4956.67,3336.25 4988.02,3377.99L4950.51,3305.92C4966.98,3278.57 5016.11,3283.75 5004.18,3358.22C5017.3,3311.2 5094.52,3288.23 5084.68,3361.51L5058.94,3376.63C5109.44,3372.51 5159.04,3363.7 5207.63,3349.54C5159.76,3343.14 5134.68,3334.16 5081.99,3306.28C5042.16,3285.19 4941.97,3258.83 4880.21,3273.89ZM4736.75,3347.64C4778.08,3362.63 4813.1,3381.14 4817.71,3416.64L4736.75,3347.64ZM4621.26,3350.3C4630.26,3397.38 4646.56,3438.7 4683.16,3464.02C4620.65,3451.16 4604.94,3410.31 4621.26,3350.3ZM3485.75,3936.58C3463.51,3915.6 3449.89,3885.73 3444.11,3847.78C3424.37,3891.26 3426.53,3925.7 3485.75,3936.58ZM3661.33,6715.74C3605.92,6683.36 3555.14,6650.6 3611.21,6609.07C3569.9,6596.74 3529.89,6579.76 3493.74,6548.86C3477.15,6565.68 3453.01,6572.38 3420.57,6567.96C3438.95,6581.24 3468.44,6587.32 3506.49,6587.85L3569.62,6610.73C3541.29,6656.82 3572.77,6691.66 3661.33,6715.74ZM2888.37,1573.42C2895.94,1545.33 2938.8,1527.85 2940.16,1546.22L2941.92,2418.23C2972.64,2443.18 2998.77,2460.54 3020.71,2471.01C2964.85,2507.52 2871.87,2510.36 2765.57,2501.1C2723.31,2566.36 2653.95,2555.23 2683.61,2532.13C2733.06,2493.6 2768.27,2452.19 2749.95,2360.94C2768.24,2164.74 2760.56,1954.93 2740.78,1740.72L2698.95,1731.71C2642.21,1682.39 2882.7,1594.43 2888.37,1573.42ZM2979.04,1974.6C3024.58,2002.42 3050.45,2057.09 3059.64,2134.53C3069.21,2174.29 3092.48,2202.85 3125.12,2223.74C3103.18,2333.34 3155.32,2432.66 3218.89,2530.4C3151.44,2595.79 3069.14,2625.64 2977.4,2632.9L2961.26,2563.74C2914.38,2558.86 2894.2,2637.11 2872.94,2712.02C2839.49,2757.08 2799.12,2799.1 2756.69,2840.2C2869.84,2801.8 2982.22,2766.63 3086.89,2764.29C3109.79,2744.74 3128.42,2721.18 3143.51,2694.31C3297.12,2619.89 3404.91,2497.79 3444.49,2304.73C3499.2,2239.96 3518.65,2149.41 3505.99,2035.38L3590.85,1917.41C3526.32,1926.67 3450.76,1935.96 3371.43,1945.26C3419.95,2065.26 3404.87,2190.59 3335.35,2320.47C3252.33,2229.94 3189.11,2124.75 3276.41,1908.21C3178.25,1946.64 3079.29,1971.39 2979.04,1974.6ZM3936.34,2242.42C4010.05,2336.26 3823.26,2511.15 3642.03,2515.85L3622.43,2205.6L3678.5,2087.16L3639.98,2045.06L3643.69,1841.06L3586.03,1835.34C3590.23,1770.62 3737.21,1659.77 3837.55,1549.97C3860.12,1572.42 3847.72,1652.45 3845.28,1735.63C3875.98,1713.4 3922.72,1699.99 3950.08,1702.91C3963.17,1776.73 3911.39,1802.59 3847.62,1796.31C3772.44,2028.45 3756.45,2391.04 3858.86,2351.98C3885.97,2341.64 3907.13,2290.17 3936.34,2242.42ZM4263.73,1450.95C4259.41,1597.08 4244.84,1772.82 4228.56,1953.48C4372.53,1865.15 4512.6,1837.52 4532.64,1940.49C4558.02,2070.99 4530.77,2260.09 4521.67,2440.61C4623.24,2493.76 4611.77,2516.98 4548.53,2529.27C4459.54,2497.83 4414.23,2499.89 4355.28,2526.1C4228.77,2544.98 4257.17,2496.2 4349.29,2456.18C4481.8,1740.26 4126.46,1996.94 4219.37,2390.58C4253.85,2406.65 4273.54,2426.59 4291.11,2447.08C4166.83,2453.78 4040.19,2471.27 3910.17,2504.2C3945.13,2464.55 3988.96,2433.31 4035.76,2404.89L4059.47,1625.23C4035.73,1597.78 4014,1606.94 3981.54,1628.2C3960.14,1600.55 4000.24,1565.62 4090.22,1529.17C4158.25,1512.38 4194.95,1464.35 4263.73,1450.95ZM5222.05,2612.2C5273.56,2601.32 5322.87,2603.42 5379.01,2627.26C5422.28,2645.64 5452.2,2653.97 5468.07,2652.51C5468.25,2622.36 5445.06,2596.78 5402.5,2574.98C5413.82,2418 5402.49,2263.3 5470.93,2098.31C5502.89,2066.35 5588.96,2157.49 5507.72,2253.3C5504.21,2295.7 5609.25,2222.86 5717.83,2146.26C5686.19,1985.21 5635.82,1874.55 5499.89,1994.13C5467.28,2022.82 5453.04,1973.66 5492.18,1897.05C5475.96,1866.24 5451.52,1883.45 5421.18,1935.13L5192.02,2059.63C5174.7,2087.36 5212.78,2085.41 5265.19,2098.49C5309.68,2109.6 5262.36,2185.27 5229.23,2218.02L5286.15,2277.64L5219.1,2349.97C5222.59,2548.64 5218.14,2522.04 5129.18,2599.74C5102.24,2623.27 5122.71,2633.19 5222.05,2612.2ZM5835.13,1939.04L5945.14,1862.1C6111.95,1911.69 5903.92,2168.29 5835.13,1939.04ZM5739.64,2163.57L5774.91,2225.38C5748.83,2472.49 5703.39,2654.67 5600.19,2643.08C5541.19,2636.45 5563.4,2730.51 5655.44,2722.82C5716.3,2708.05 5773.47,2761.16 5876.45,2786.36C5945.69,2803.3 5958.84,2755.6 5884.56,2733.53C5838.93,2719.97 5867.59,2615.79 5911.84,2505.07C5929.18,2461.7 5890.95,2427.77 5902.83,2415.51C5968.11,2348.15 5993.45,2238.39 6008.6,2118.27L5739.64,2163.57ZM6511.49,3067.12C6542.29,3057.2 6496.28,3008.39 6462.61,2971.2C6492.54,2916.51 6528.01,2852.69 6527.41,2811.15C6550.94,2764.95 6565.64,2712.15 6559.24,2643.57C6588.48,2609.28 6616.07,2539.74 6641.64,2427.67C6625.74,2280.7 6504.43,2281.97 6357.41,2319.37L6391.28,2185.75L6076.55,2296.24C6140.48,2286.98 6151.57,2341.21 6124.04,2441.88C6075.22,2509.72 6093.65,2562.78 6073.62,2629.91C6008.11,2685.2 6036.66,2718.72 6026.04,2778.48C5932.75,2820.25 5927.19,2864.48 5991.54,2862.58C6066.75,2860.36 6093.84,2886.4 6156.58,2920.58C6232.44,2961.91 6235.12,2903.68 6171.33,2847.89C6214.15,2753.56 6311.87,2462.18 6344.76,2410.73C6384.81,2348.08 6512.63,2355.96 6411.44,2559.28L6319.82,2872.01C6224.35,2896.79 6256.2,2930.86 6321.32,2942.89L6438.11,3027.49C6462.26,3053.66 6489.68,3074.15 6511.49,3067.12ZM4996.71,2458.51L4994.42,2406.7C5028.06,2356.43 5057.62,2323.71 5084.04,2304.53C5106.23,2425.17 5109.29,2538.58 4928.51,2582.53C4882.57,2593.7 4821.79,2584.34 4762.11,2579.93C4638.2,2482.22 4533.88,2220.66 4690.26,2151.29L4660.7,2070.05C4688.14,2006.57 4740.83,1941.56 4835.53,1874.04L4987.57,1875.17C5057.79,1939.88 5109.39,2024.35 5134.32,2137.1L4830.19,2295.46C4809.56,2406.68 4827.14,2461.66 4902.62,2525.26L4957.03,2460.65L4996.71,2458.51ZM4964.65,2154.58L4951.17,1987.79C4950.55,1935.47 4903.1,1938.74 4860.94,2042.79L4820.19,2240.08C4863.82,2223.58 4914.14,2189.34 4964.65,2154.58ZM2631.09,6179.51C2630,6113.57 2628.32,6036.32 2624.93,5968.99C2646.34,6020.26 2670.05,6066.61 2723.65,6081.51C2678.63,6099.46 2650.56,6132.63 2631.09,6179.51ZM3454.64,5553.18C3453.55,5487.24 3451.87,5409.98 3448.48,5342.66C3469.89,5393.93 3493.6,5440.28 3547.2,5455.18C3502.18,5473.12 3474.11,5506.3 3454.64,5553.18ZM4056.27,4795.52C4076.08,4839.94 4100.11,4878.16 4147.85,4891.43C4102.83,4909.38 4074.76,4942.55 4055.28,4989.43C4054.27,4927.9 4052.74,4856.5 4049.79,4792.52M5388.24,6099.18C5408.18,6144.82 5426.51,6157.93 5477.05,6171.98C5432.03,6189.93 5403.97,6223.1 5384.49,6269.98C5383.48,6208.49 5390.52,6160.71 5388.24,6099.18ZM4831.69,4078.27C4830.6,4012.34 4828.93,3935.08 4825.54,3867.76C4846.94,3919.03 4870.66,3965.38 4924.25,3980.28C4879.24,3998.22 4851.17,4031.39 4831.69,4078.27ZM2732.33,3347.59C2731.24,3281.66 2729.57,3204.4 2726.18,3137.08C2747.58,3188.34 2771.3,3234.7 2824.89,3249.6C2779.88,3267.54 2751.81,3300.71 2732.33,3347.59ZM5283.56,3464.66C5172.43,3464.87 5131.69,3520.46 4982.46,3551.51C4988.33,3576.3 5003.35,3594.34 5024.94,3607.53C5007.4,3612.35 4982.77,3602.64 4944.64,3565.3C4962.55,3613.1 4988.25,3657.45 5029.36,3694.99C4994.19,3680.54 4953.17,3649.16 4894.73,3567.24C4897.03,3610.39 4910.74,3652.48 4936.96,3693.41C4893.21,3672.67 4855.79,3640.48 4854.31,3549.23C4824.32,3498.8 4779.13,3530.88 4855.95,3666.62C4897.86,3740.66 5069.68,3811.09 5230.46,3869.21C5208.79,3854.51 5186.64,3835.18 5163.92,3810.41C5233.29,3833.37 5302.28,3850.81 5370.26,3853.87C5353.87,3816.99 5312.66,3791.89 5251.74,3764.66C5187.68,3736.03 5133.25,3644.2 5122.61,3567.49C5171.1,3544.26 5267.9,3575.21 5305.76,3555.66C5352.07,3531.74 5314.3,3464.61 5283.56,3464.66ZM5445.81,3523.55C5437.2,3474.9 5449.19,3441.33 5512.11,3458.46C5528.7,3503.76 5494.11,3520.52 5445.81,3523.55ZM4807.54,5521.53C4771.52,5540.53 4746.75,5570.08 4729.64,5611.25C4728.56,5545.32 4726.88,5468.06 4723.49,5400.73C4741.89,5444.81 4766.78,5485.93 4806.13,5505.88L4807.54,5521.53ZM5268.59,3891.36C5279.06,3858.95 5399.32,3880.89 5447.92,3959.75C5396.23,3947.45 5256.54,3905.61 5268.59,3891.36Z" fill="#ffffff" class="color000 svgShape"></path></svg></g></svg>