<svg id="SvgjsSvg1055" width="288" height="288" xmlns="http://www.w3.org/2000/svg" version="1.1" xmlns:xlink="http://www.w3.org/1999/xlink" xmlns:svgjs="http://svgjs.com/svgjs"><defs id="SvgjsDefs1056"></defs><g id="SvgjsG1057"><svg xmlns="http://www.w3.org/2000/svg" width="288" height="288" viewBox="0 0 210 297"><path fill="#3a0ca3" d="m 656.562,538.915 -7.869,-3.278 -1.707,-2.276 0.589,-2.356 c 0.022,-0.086 0.028,-0.176 0.017,-0.264 v -0.002 -10e-4 l -0.002,-0.002 v -0.004 -0.004 0 -0.004 c -0.025,-0.171 -0.119,-0.326 -0.257,-0.433 v 0 c -0.008,0 -0.004,0 -0.004,0 v 0 l -1.715,-1.286 1.849,-2.465 c 0.139,-0.185 0.172,-0.425 0.092,-0.638 l -1.889,-5.04 0.295,-0.196 c 0.306,-0.205 0.39,-0.621 0.187,-0.929 h -0.002 l -1.091,-1.639 1.091,-1.637 c 0.162,-0.242 0.147,-0.563 -0.034,-0.79 l -2.162,-2.703 1.937,-0.97 c 0.228,-0.111 0.373,-0.343 0.373,-0.599 v -1.358 l 6.499,1.998 c 0.354,0.11 0.73,-0.089 0.839,-0.441 0.056,-0.185 0.03,-0.386 -0.072,-0.552 l -3.351,-5.36 c -0.121,-0.193 -0.335,-0.313 -0.566,-0.313 h -3.816 l -1.542,-1.028 v -1.652 c 0,-0.369 -0.302,-0.669 -0.671,-0.669 -0.07,0 -0.144,0.011 -0.213,0.035 l -4.019,1.339 c -0.176,0.06 -0.321,0.19 -0.396,0.357 l -3.173,6.977 H 634.2 c -0.239,0 -0.459,0.127 -0.578,0.332 l -4.69,8.038 c -0.153,0.262 -0.108,0.597 0.106,0.812 l 0.979,0.979 -2.428,4.243 c -0.109,0.194 -0.117,0.433 -0.017,0.632 l 1.099,2.194 -2.928,2.342 c -0.246,0.197 -0.322,0.54 -0.181,0.824 l 1.154,2.308 -1.651,2.202 -7.867,3.278 c -0.344,0.142 -0.504,0.535 -0.362,0.877 0.104,0.249 0.347,0.412 0.619,0.412 h 38.85 c 0.369,0 0.669,-0.301 0.669,-0.67 0,-0.273 -0.162,-0.515 -0.412,-0.62 z m -28.727,-4.738 h 18.088 l 1.003,1.338 h -20.094 z m 17.206,-11.16 -1.378,0.919 -1.044,-1.044 1.901,-1.266 z m -7.762,-0.764 -2.535,-1.901 -1.278,-2.987 3.031,1.3 3.891,3.891 -3.99,1.663 0.955,-0.957 c 0.263,-0.261 0.263,-0.684 0,-0.946 -0.023,-0.024 -0.047,-0.045 -0.074,-0.063 z m -2.695,-10.183 h 1.626 c 0.263,0 0.499,-0.153 0.609,-0.392 l 3.227,-7.104 2.862,-0.954 v 1.081 c 0,0.224 0.111,0.433 0.298,0.558 l 2.01,1.341 c 0.11,0.072 0.238,0.111 0.371,0.111 h 3.646 l 2.202,3.52 -6.991,-2.151 c -0.353,-0.107 -0.729,0.09 -0.837,0.442 -0.112,0.353 0.085,0.729 0.439,0.837 0,0.002 0.002,0.002 0.004,0.004 l 0.867,0.265 v 1.358 l -2.311,1.154 c -0.331,0.168 -0.464,0.57 -0.298,0.9 0.021,0.043 0.045,0.08 0.074,0.117 l 2.375,2.969 -1.069,1.602 c -0.149,0.225 -0.149,0.516 0,0.743 l 0.969,1.45 -3.005,2.005 -4.301,-4.302 c -0.06,-0.06 -0.133,-0.107 -0.211,-0.142 l -4.571,-1.959 z m -4.653,16.6 c 0.246,-0.198 0.32,-0.541 0.179,-0.822 l -1.178,-2.358 2.502,-4.378 c 0.149,-0.263 0.104,-0.593 -0.108,-0.805 l -0.977,-0.978 1.442,-2.47 1.794,4.184 c 0.045,0.107 0.119,0.201 0.212,0.271 l 2.063,1.547 -2.804,2.804 c -0.262,0.261 -0.262,0.687 0,0.947 0.193,0.192 0.48,0.25 0.732,0.146 l 7.623,-3.177 1.692,1.69 c 0.226,0.226 0.58,0.262 0.847,0.084 l 1.573,-1.05 0.647,1.725 -1.628,2.17 -2.572,-1.928 c -0.116,-0.087 -0.258,-0.134 -0.403,-0.134 h -2.01 c -0.087,0 -0.175,0.017 -0.257,0.052 l -8.039,3.349 c -0.339,0.142 -0.503,0.533 -0.359,0.876 0.109,0.267 0.382,0.433 0.669,0.41 l 8.617,-0.663 5.917,1.184 -0.371,1.491 h -17.819 l -0.911,-1.825 z m 14.232,0.921 -3.804,-0.761 c -0.043,-0.01 -0.086,-0.014 -0.13,-0.014 -0.02,0 -0.034,0.002 -0.053,0.002 l -4.543,0.351 4.059,-1.692 h 1.651 z m -23.359,9.272 4.822,-2.01 h 22.508 l 4.82,2.01 z" transform="matrix(.26458 0 0 .26458 -132.222 -97.057)" class="color010101 svgShape"></path></svg></g></svg>