<svg id="SvgjsSvg1131" width="288" height="288" xmlns="http://www.w3.org/2000/svg" version="1.1" xmlns:xlink="http://www.w3.org/1999/xlink" xmlns:svgjs="http://svgjs.com/svgjs"><defs id="SvgjsDefs1132"></defs><g id="SvgjsG1133"><svg xmlns="http://www.w3.org/2000/svg" width="288" height="288" version="1.0" viewBox="0 0 900 516"><path d="M5010 5103 c-113 -18 -335 -69 -426 -97 -157 -50 -237 -105 -298-204 -48 -77 -140 -424 -137 -517 2 -107 -28 -133 -170 -150 -40 -4 -63 -13
-77 -28 -39 -41 -195 -425 -243 -597 -12 -41 -28 -84 -35 -95 -37 -52 -114
-120 -161 -142 -45 -21 -53 -29 -59 -60 -9 -49 3 -166 29 -275 19 -81 22 -121
21 -313 0 -241 -10 -323 -65 -517 -23 -82 -27 -112 -19 -127 25 -47 -5 -107
-98 -194 -47 -43 -68 -52 -115 -48 -33 4 -40 -43 -33 -226 3 -95 11 -219 17
-275 6 -57 9 -145 6 -195 -7 -115 -31 -166 -97 -203 -42 -23 -54 -25 -190 -25
-80 0 -188 6 -240 13 -52 7 -194 16 -315 19 -310 8 -470 -13 -620 -82 -89 -40
-124 -70 -160 -137 -26 -46 -30 -63 -30 -128 1 -93 30 -155 104 -222 193 -174
681 -271 1285 -255 417 11 733 74 1516 304 140 41 332 97 425 125 518 151 732
194 1075 218 569 39 1465 283 1598 434 36 41 39 65 21 161 -42 226 -212 347
-441 315 -91 -13 -185 -41 -273 -81 -167 -76 -426 -159 -493 -159 -27 0 -36 9
-80 78 -232 362 -514 944 -606 1249 -57 188 -64 283 -27 351 18 34 5 95 -31
139 -43 55 -103 168 -248 472 -88 184 -130 283 -130 306 0 38 -2 36 122 116
43 27 90 66 104 85 l27 35 -22 55 c-32 76 -37 126 -16 144 11 9 98 21 268 37
470 43 542 58 591 126 l20 27 -20 28 c-40 53 -124 91 -408 184 -154 50 -305
102 -335 115 -30 14 -101 58 -157 98 -146 106 -189 125 -266 124 -35 -1 -74
-4 -88 -6z m-399 -364 c3 -7 14 -30 23 -49 9 -19 27 -52 40 -74 14 -23 29 -69
35 -113 18 -118 40 -149 114 -159 43 -6 47 -5 56 18 5 14 7 68 4 120 -4 68 -2
97 6 102 19 12 40 -13 46 -53 4 -20 8 -45 10 -56 2 -11 38 -58 80 -104 79 -88
90 -116 51 -130 -30 -12 -37 -32 -20 -56 20 -27 17 -37 -8 -33 -13 2 -38 24
-60 53 -42 55 -82 79 -111 63 -10 -5 -31 -31 -48 -58 -29 -47 -51 -65 -63 -53
-3 4 -6 33 -6 65 0 54 -3 62 -32 89 -18 16 -36 29 -40 29 -20 0 -42 60 -53
147 -9 69 -19 102 -34 122 -70 87 -83 168 -25 152 15 -4 31 -14 35 -22z m-391
-1505 c189 -65 194 -69 445 -354 210 -238 264 -290 302 -290 39 0 134 50 307
163 157 102 189 117 215 100 21 -14 18 -121 -5 -164 -22 -44 -87 -112 -171
-181 -40 -33 -73 -65 -73 -72 0 -7 25 -34 55 -60 30 -26 55 -51 55 -57 0 -31
-111 15 -263 111 -45 28 -102 54 -133 61 -67 15 -94 6 -237 -84 -131 -82 -318
-187 -334 -187 -45 0 35 81 139 141 40 23 81 51 90 61 16 18 16 21 -1 59 -10
23 -25 47 -32 54 -8 8 -56 21 -108 30 -108 19 -144 34 -168 73 -93 150 -132
198 -220 269 -51 40 -93 78 -93 83 0 5 16 16 35 24 46 20 105 65 105 82 0 7
-27 27 -59 44 -33 18 -69 42 -81 55 -21 22 -21 24 -5 55 17 32 17 33 74 27 31
-4 104 -23 161 -43z m1353 -1264 c76 -94 185 -199 213 -206 17 -4 29 -2 35 7
6 11 13 11 26 3 28 -17 64 -76 61 -99 -4 -24 -12 -24 -147 4 -193 41 -371 54
-656 48 -151 -3 -308 -12 -375 -22 -314 -43 -691 -138 -969 -245 -166 -64
-225 -93 -274 -136 -20 -19 -40 -34 -45 -34 -6 0 -80 107 -89 129 -2 3 54 6
125 6 l127 0 130 61 c72 34 306 147 520 252 215 104 422 203 461 220 130 55
242 68 594 71 l215 1 48 -60z m1713 -598 c73 -38 134 -122 134 -185 0 -13 -10
-33 -22 -45 -76 -71 -509 -191 -1178 -327 -283 -58 -408 -71 -432 -47 -22 23
-45 11 802 422 332 161 337 163 437 191 87 24 202 20 259 -9z" transform="matrix(.1 0 0 -.1 0 516)" fill="#0433ff" class="color000 svgShape"></path></svg></g></svg>