<svg id="SvgjsSvg1102" width="288" height="288" xmlns="http://www.w3.org/2000/svg" version="1.1" xmlns:xlink="http://www.w3.org/1999/xlink" xmlns:svgjs="http://svgjs.com/svgjs"><defs id="SvgjsDefs1103"></defs><g id="SvgjsG1104"><svg xmlns="http://www.w3.org/2000/svg" width="288" height="288" version="1.0" viewBox="0 0 340 270"><g transform="matrix(.1 0 0 -.1 0 270)" fill="#0433ff" class="color000 svgShape"><path d="M2102 2473c-21-24-22-28-8-39 9-6 16-19 16-28 0-18 15-22 25-6 3 6 16 10 28 10 18 0 22 6 23 35 0 27-4 35-17 35-10 0-21 5-24 10-9 15-18 12-43-17zM1912 2398c-6-7-13-30-17-50-6-31-13-39-46-52-51-21-52-49-4-77 34-20 41-34 47-89 4-36 37-37 71-2 27 28 31 29 68 19 32-8 43-7 55 5 13 13 13 19-2 51-17 35-16 38 1 76 25 57 16 73-41 70-40-3-49 1-75 29-33 35-41 38-57 20zM1660 2352c0-7-10-22-22-34-15-15-18-23-9-26 7-2 17-16 22-30 7-19 13-22 21-14 7 7 21 12 33 12 17 0 21 6 21 35 0 24-5 35-15 35-8 0-23 7-33 17-11 9-18 11-18 5zM1597 2113c-4-3-7-14-7-24 0-10-9-21-20-24-11-3-20-13-20-20 0-8 9-19 20-25 12-6 20-21 20-35 0-29 7-30 34-10 11 8 28 13 38 9 28-9 39 4 26 32-9 18-9 27 0 36 21 21 13 38-17 38-16 0-34 7-41 15-14 16-23 19-33 8zM1840 2061c-5-11-10-27-10-36 0-8-12-21-27-28-44-19-45-30-8-64 22-20 35-41 35-57 0-32 29-35 54-7 13 14 26 18 55 14 46-6 57 6 37 44-12 25-12 32 1 56 21 42 10 61-30 53-27-5-38-2-57 19-28 30-36 31-50 6zM2194 2062c-4-12-13-22-20-22-19 0-18-26 1-34 8-3 15-12 15-21 0-17 16-20 25-5 4 6 15 8 26 5 15-5 19-1 19 19 0 13 3 31 6 40 5 12 0 16-18 16-13 0-30 6-36 12-10 10-14 8-18-10zM1380 1975c0-9-12-27-27-41l-28-26 23-18c12-10 22-28 22-39 0-24 22-28 39-8 6 8 23 12 42 9 28-4 31-3 24 14-10 23-9 41 1 73 6 22 5 23-19 19-18-3-32 1-43 13-21 23-34 24-34 4zM1082 1757c-31-33-30-96 1-125 13-12 29-22 35-22 15 0 16-26 1-35-6-4-20 2-32 13-33 31-71 42-143 42-80 0-119-16-165-67-46-51-62-100-57-174 3-47 11-69 40-111 64-93 61-126-13-162-52-26-68-48-50-70 16-19 82-21 113-5 19 10 20 9 14-12-4-13-10-69-13-124-12-206 68-363 244-478l65-42-6-81c-6-68-4-84 9-98 9-9 21-16 26-16 25 0 80 31 134 76 57 47 62 49 100 42 84-16 344-21 507-9l167 12 58-47c52-43 108-74 132-74 5 0 17 7 26 16 14 14 15 30 10 98l-7 81 29 17c109 64 204 176 249 294 29 78 43 230 26 300l-9 42 56-5c45-4 59-2 71 12 20 24 4 45-53 73-74 35-73 59 3 180 74 117 38 246-82 297-54 22-155 20-203-5-37-19-41-19-52-3-11 14-8 19 17 34 37 23 48 74 26 117-8 16-23 32-31 36-9 3-288 6-619 6l-603 0-21-23zm-79-247c14-11 28-29 32-39 4-15-38-90-118-205-11-17-15-13-45 44-35 69-40 115-17 160 31 60 99 78 148 40zm1525-30c34-34 46-81 33-127-11-36-52-113-60-113-5 0-110 194-119 220-2 5 6 18 17 29 33 33 92 28 129-9z" fill="#0433ff" class="color000 svgShape"></path></g></svg></g></svg>