<svg id="SvgjsSvg1114" width="288" height="288" xmlns="http://www.w3.org/2000/svg" version="1.1" xmlns:xlink="http://www.w3.org/1999/xlink" xmlns:svgjs="http://svgjs.com/svgjs"><defs id="SvgjsDefs1115"></defs><g id="SvgjsG1116"><svg xmlns="http://www.w3.org/2000/svg" width="288" height="288" version="1.0" viewBox="0 0 200 200"><path d="M1645 1650 c-31 -31 -64 -54 -86 -60 -36 -10 -49 -25 -49 -59 0 -26-120 -138 -164 -153 -33 -11 -42 -20 -53 -54 -16 -47 -120 -154 -150 -154 -31
0 -62 -29 -73 -69 -13 -49 -148 -181 -200 -196 -27 -8 -37 -18 -46 -43 -5 -18
-37 -59 -69 -92 -52 -52 -64 -60 -97 -60 -49 0 -78 -28 -78 -75 0 -43 -50
-105 -86 -105 -41 0 -75 -22 -81 -52 -4 -18 -16 -34 -34 -44 -47 -24 -53 -47
-23 -83 35 -42 66 -41 94 4 12 19 27 35 34 35 29 0 66 41 66 74 0 47 55 99 96
90 24 -4 37 0 63 22 29 24 33 32 28 65 -4 34 -1 41 52 93 41 40 64 56 84 56
35 0 67 32 67 68 0 38 153 192 191 192 32 0 59 28 59 61 0 29 115 149 143 149
22 0 59 18 69 34 4 6 8 22 8 36 0 33 115 150 148 150 28 0 62 34 62 62 0 12
23 45 55 79 30 32 55 62 55 68 0 26 -39 7 -85 -39z" transform="matrix(.1 0 0 -.1 0 200)" fill="#0433ff" class="color000 svgShape"></path></svg></g></svg>