<svg id="SvgjsSvg1001" width="288" height="288" xmlns="http://www.w3.org/2000/svg" version="1.1" xmlns:xlink="http://www.w3.org/1999/xlink" xmlns:svgjs="http://svgjs.com/svgjs"><defs id="SvgjsDefs1002"></defs><g id="SvgjsG1008" transform="matrix(1,0,0,1,0,0)"><svg xmlns="http://www.w3.org/2000/svg" width="288" height="288" version="1.0" viewBox="0 0 266 736"><path d="M1281 7221 c-11 -11 -23 -31 -25 -43 -2 -13 -28 -999 -56 -2193 -49-2062 -53 -2172 -72 -2218 -10 -27 -22 -72 -25 -100 -3 -29 -14 -77 -25 -107
-47 -131 -43 -207 18 -301 41 -65 42 -82 5 -117 -42 -40 -61 -84 -61 -144 0
-72 14 -117 55 -178 35 -51 35 -53 35 -159 0 -60 -3 -142 -6 -182 -6 -71 -8
-76 -41 -97 -43 -29 -73 -78 -73 -119 0 -33 15 -55 59 -84 28 -18 23 -49 -8
-49 -28 0 -51 -37 -51 -81 0 -31 4 -38 30 -49 59 -24 64 -61 16 -114 -46 -50
-61 -96 -60 -186 2 -137 50 -255 139 -339 73 -69 160 -96 286 -89 198 12 310
118 355 338 31 156 5 311 -90 536 -49 117 -114 219 -179 283 -61 60 -81 127
-81 276 -1 109 -1 111 41 200 52 112 67 172 60 238 -7 66 -23 102 -53 116 -30
13 -30 33 -3 70 41 55 41 142 0 200 -36 51 -38 105 -66 2575 -19 1676 -27
2102 -37 2112 -25 25 -65 27 -87 5z m210 -5999 c145 -152 200 -359 155 -573
-19 -87 -45 -136 -98 -186 -82 -75 -185 -90 -286 -42 -40 20 -82 68 -82 95 0
6 26 14 59 18 74 8 139 41 168 85 43 65 21 220 -37 263 -37 27 -39 61 -6 76
14 6 31 28 41 55 15 40 15 47 1 78 -9 19 -21 41 -27 50 -10 13 -8 22 9 44 14
18 22 42 22 66 0 22 4 39 9 39 5 0 37 -30 72 -68z" transform="matrix(.1 0 0 -.1 0 736)" fill="#daa520" class="color000 svgShape"></path></svg></g></svg>