<svg id="SvgjsSvg1074" width="288" height="288" xmlns="http://www.w3.org/2000/svg" version="1.1" xmlns:xlink="http://www.w3.org/1999/xlink" xmlns:svgjs="http://svgjs.com/svgjs"><defs id="SvgjsDefs1075"></defs><g id="SvgjsG1076"><svg xmlns="http://www.w3.org/2000/svg" width="288" height="288" fill-rule="evenodd" clip-rule="evenodd" image-rendering="optimizeQuality" shape-rendering="geometricPrecision" text-rendering="geometricPrecision" viewBox="0 0 2000 1761"><path fill="#ffffff" d="M512 2c80-14 166 46 183 126 11 47-1 99-32 137-32 38-81 65-132 62-84 2-159-74-161-157-5-81 61-159 142-168zm-12 7l0 0c-34 7-64 27-88 51-16 23-29 48-34 75-11 41 5 82 23 117 24 31 57 55 94 65 20 3 40 2 59 2 31-1 58-18 83-34 32-31 57-74 56-120 2-53-28-103-70-134-17-10-36-18-55-23-23-3-45-3-68 1zM1459 25c19-7 39-18 60-13 10 6 10 18 10 28-17 12-37 19-58 17-8-9-11-21-12-32zM1419 55c0-12 14-16 23-22 5 9 10 18 15 28-9 4-18 8-27 10-5-4-13-8-11-16zM284 56c35 1 69 23 83 55-13 11-28 21-44 30-23 65-44 131-73 194-13 21-21 52-49 59-32 1-63 17-95 15-6-31-15-62-16-94-1-18 12-32 21-46 19-27 43-51 67-75 9-9 21-15 29-25 20-21 44-38 66-57 7-18 8-37 11-56zm-2 38l0 0c19 3 39 0 57-9-20-2-40-1-57 9zm-1 18l0 0c25 1 51-5 76-13-26-3-54 1-76 13zm-40 73l0 0c-21 4-45 2-62 18 21-2 42-3 61-9 22-7 47-4 66-17-22-2-43 5-65 8zm-4 18l0 0c-18 0-34 7-51 9-11 1-20 4-29 10 23 3 46-6 69-8 17-2 35-8 53-10 8 0 15-4 21-9-21-2-42 7-63 8zm-106 92l0 0c-13 3-28 3-37 13 17 2 33-3 50-6 40-7 80-12 120-22 2-2 6-5 8-7-47 6-94 15-141 22zm94 2l0 0c-39 9-79 15-119 22-5 0-8 3-7 8 28-2 56-10 83-14 27-6 56-7 81-18-13-2-25-1-38 2zm-76 88l0 0c-14 3-30 3-40 14 20 0 39-6 59-9 16-5 34-3 48-13-23-3-45 5-67 8zM1625 73c12-4 24-4 36-2 11 6 13 23 3 30-15 13-37 16-56 16-3-10-6-20-6-30 7-6 15-11 23-14z" class="color050405 svgShape"></path><path fill="#ffffff" d="M455 81c27-12 63-3 77 23 8 20 14 42 9 63-5 17-11 35-23 48-9 10-21 15-32 21 0 11-17 13-20 3-11-6-23-11-25-25-6-8-3-17 4-23 13-5 31 1 34 15-3 13-16 17-26 24 7 3 13 5 20 7 20-4 25-25 27-43 1-19 10-38 4-57-4-19 2-42-13-57-7-1-13-1-20-1-5 13-14 26-9 41 5 16-3 37 12 49 15 9 16-13 10-22 2 0 7 0 9 0 0 10-2 20-1 30-17-3-35 1-49-10-18-13-18-38-13-57 5-12 15-21 25-29zM582 77c13-3 26-2 38 0 1 9-1 17-6 25 4 6 13 12 11 20-1 7-8 12-12 18-11-2-23-5-34-7 0-5-1-11-1-17 5 0 10 0 15-1 0 6 1 12 2 18 7 8 15 0 12-9 0-13-1-25-2-37 0-8-6-14-13-8 1 5 4 10 6 15-4 0-11 0-15 1 0-6 0-12-1-18zM1295 84c13-4 26 3 28 17-5 20-25 31-44 35-12 4-19-9-24-18-4-7 4-11 8-15 10-8 20-16 32-19zM1569 93c5-2 11-4 17-4 6 8 6 18 6 27-8 11-35 6-33-11-2-7 4-10 10-12zM1735 117c12-2 22 4 33 10 11 0 23-1 33-8 2 13 16 20 24 30 1 8 1 15 0 23-11 12-29 20-27 39 4 27 14 53 28 76-30-7-40-51-74-47-4 21 15 36 27 51-7 0-15 0-22-1-11-13-20-27-34-37-15 8-32 13-49 16 10 4 21 6 32 10-21 8-44 0-62-11-13-3-25-4-37-10-42 10-86-1-129 7 24 5 48 6 70 15-31 1-65 3-94-9 0-2 1-8 2-10 35-18 75-8 113-17 5-3 11-5 14-10 4-16 7-33 15-47 19-29 49-51 84-56 17-1 35 1 52 6 0-7 0-14 1-20zM1235 125c11 0 18 13 22 21-5 7-11 12-18 15-6-1-11-2-17-4-2-13 3-24 13-32zM1412 152c14-15 35-33 56-20 3 8 7 17 1 25-12 15-30 26-48 30-7-10-19-23-9-35zM594 175c6-6 13-13 17-2 0 21 0 42 1 62-5 0-14-1-19-1 1-20-1-40 1-59zM1369 187c6-9 16-15 26-21 5 10 9 21 12 32-10 2-24 11-33 1-1-3-4-9-5-12zM785 180c19 0 37-1 55 1-1 1-2 3-3 4-16 9-36 15-40 35-16 39-5 82-7 123 1 33-26 62-18 96 21 17 53 28 60 57 8 13-13 21-23 22-43 11-87 3-128-7-47-12-93-26-134-52-17-13-41-24-45-48 2-6 5-12 11-14 18-11 40-10 61-11 1 9 5 16 11 22 7-39 33-75 69-93 16-8 27-22 37-36 14-18 15-41 28-59 16-21 40-36 66-40zm-139 163l0 0c5 15 18 28 36 25-8-13-17-26-23-41-4 5-9 10-13 16zm75 36l0 0c8 4 16 12 25 13 12-6 18-17 17-30-14 5-28 11-42 17zm-88 10l0 0c2 4 6 14 7 19 9 2 18 1 27 5 6 5 11 13 16 20 10-1 20-5 30-7 7 3 12 9 19 11 8-4 15-9 23-14-11 0-22-1-30-10-9-10-22-1-33-2-9-5-13-17-24-17-11-2-23-3-35-5zM1158 220c13-7 32 8 28 22-7 19-23 31-40 39-12 5-19-8-27-15-4-4-2-11 2-14 10-12 22-25 37-32zM1281 219c12-6 24 3 28 15-2 20-20 32-33 45-10 10-19-6-26-12-4-10 5-19 10-27 5-9 11-17 21-21zM1385 234c3 1 10 2 14 2-6 18-18 34-12 54 15-9 16-30 33-36 4 20-17 36-9 57 16-8 23-26 35-38 9 22-16 37-15 59 13-10 21-25 33-36 3 29-22 49-36 71-10 18-19 37-35 49-23 8-47-1-71 2-2 23 18 42 15 66-4 24-27 36-43 51-13 17-27 33-44 47-4 0-11 2-14 3 10-13 22-26 29-41-12 3-23 8-30 18-6 8-14 12-24 13 3-19 27-23 26-43-6 0-12-1-18 0-10 9-20 22-35 19 2-17 22-21 28-35-3-2-10-5-13-7-9 15-25 26-43 24 5-22 31-28 42-46-18-2-37-1-54 3 16-6 33-11 45-23 26-19 43-53 77-57 13-3 32 5 39-10 4-14-8-28-3-43 2-8 3-17 4-26 4-12 15-21 21-33 11-20 13-42 21-63 8 15 7 31 8 48 12-15 21-32 29-49zm-31 82l0 0c-31 4-39 42-28 67 8 12 21 23 36 22 20 2 46-9 48-32 1-12 3-27-5-37-11-16-32-27-51-20zm-95 116l0 0c-28 10-38 51-18 73 20 26 67 18 77-13 3-17 4-38-11-49-11-14-31-14-48-11z" class="color050405 svgShape"></path><path fill="#ffffff" d="M851 239c1 1 4 1 6 2 7 21 14 42 21 63 2-2 6-8 8-10 15 33 25 69 48 98 8 10 15 19 23 29 3-4 5-9 8-14 5 19 13 38 20 56 4 20-1 40 2 60 23-47 53-89 84-131 3-5 4-11 6-16 8-11 15-21 22-32 2 0 4 2 5 2 7-1 15-1 23 0 2-4 4-8 7-12 3 10 6 19 9 29 2-6 5-12 7-18 2 0 6-1 7-1 2 16 7 32 6 49 0 24-11 46-24 65-17 34-45 62-51 101 13 5 28 12 31 26 3 13 10 26 4 38-6 26-30 49-58 46-26-2-45 17-68 25-12 3-17 14-22 23-11 14 5 34-10 46-6 10-17 7-26 4 0-12 1-25 0-38-2-13 9-23 13-34-15 4-21 20-31 31 2 7 8 13 4 20-5 10-15 16-25 21-3-14-5-30-14-42 9-13 15-36-1-47-4-6-12-7-18-4-20 9-40 21-61 27-24-7-44-22-62-38-4-16 9-29 24-30 30 5 61 6 91 4 14-4 28-10 42-16-12-10-23-21-33-33 1-2 3-5 5-6-14-22-18-49-15-75-5-10-10-21-14-31 0-3 1-8 1-10-2-3-5-6-7-9 6-12 0-24-9-34 6 0 12 0 17-1-12-19-22-40-29-61 6 3 11 6 17 9-7-15-15-30-15-47 8 9 15 17 24 25-6-22-17-43-19-67 11 15 19 32 31 46-3-28-19-53-20-82 9 15 15 31 24 46 0-17-3-35-8-52zM318 273c2 0 7 0 10 0 13 13 21 32 40 37 4 10 9 20 17 28 13 13 25 28 40 38 11 6 13 20 22 28 18 23 37 47 62 62 12 17 20 36 34 52 11 13 22 26 35 36 7 1 13 2 19 2 1 10-2 22 7 28 37 38 70 80 108 117 25 17 44 41 66 62-9 10-19 24-35 21-12-18-29-33-38-53-12-25-33-43-50-65-27-23-44-56-75-75-16-10-18-33-32-45-21-20-35-48-63-58-3-35-32-58-54-81-28-25-45-62-78-83-4-21-27-31-35-51zM1100 277c10-4 17 7 24 11 9 7-1 16-6 20-8 11-27 6-28-7-1-10 5-17 10-24zM1219 292c4-8 12-14 19-20 6 7 12 14 18 21-1 6-7 10-10 15-8 0-15 0-22 0-2-5-4-10-5-16zM1868 276c4 16 10 32 15 48-6 24-1 50-3 75 14-6 10-22 9-33-3-20 8-38 12-57 11 21 15 44 11 68 4 0 9 1 14 1 0-13-1-26 0-39 4-12 10-23 15-34 5 15 13 28 18 42-2 5-4 10-7 14 3 26-1 52 3 78 1 11 9 18 16 25 0 14 0 28 0 42 4 2 8 4 12 6 4 19 10 37 17 55 0 14-13 23-24 29-50 19-100 40-153 46-11 0-21 0-31-4-47-21-101-12-152-15-23 2-46 11-68 18-37 5-75 17-113 8-19-8-32-25-50-34-7-5-19-10-17-20 5-9 12-15 18-23 7-9 3-20 5-30 10-17 27-27 44-34 9-16 2-34 0-51 4-10 10-19 15-29 2-15-4-32 4-46 8-16 15-32 22-49 11 24 29 47 24 74 0 21-2 41-5 62 12-12 27-25 25-43 8 12 16 25 22 38 2 0 5 0 7 0 3-8 8-16 12-23 10 15 15 32 13 50 11 0 23 0 35 0 0-27 0-55-1-82-4-30 22-52 31-79 7 2 14 5 21 7 7 10 14 19 22 28 2-6 5-12 8-17 5 10 9 21 14 31 16-23 19-53 33-79 8 14 14 29 20 44 6-6 7-20 17-18 11 21 22 42 32 63-15 26-9 57-10 86 5-5 10-10 14-16 1-19-5-40 11-54 7 14 7 30 9 45 11-22 9-49 1-72-3-17 0-36-3-54 1-17 10-32 16-48zM252 384c12-8 25-8 38-12 20-9 41-2 60 7 30 14 49 46 51 78 4 41-22 83-61 97-18 8-38 7-58 5-36-9-66-40-72-76-2-10-4-20-6-30-12 8-26 14-40 20-7 11 5 18 11 25 37 48 13 128-45 146-51 23-114-13-126-66-17-53 25-114 80-119 21-3 43 1 62 11 16-14 36-27 59-24 9 2 9-10 12-16 5-19 19-36 35-46zm34 2l0 0c-5 0-10 1-16 1-16 11-29 26-42 41 0 20-4 39 0 59 8 28 33 51 62 56 46 11 95-30 94-77 3-32-19-62-47-75-15-8-33-5-51-5zm-214 92l0 0c-46 14-69 73-46 114 14 30 49 45 80 41 48-5 84-60 66-105-5-13-10-28-23-36-22-15-51-24-77-14zM442 591c21 0 42 1 64 1 0 7 0 14 0 20 12-1 24-9 37-7 14 15 28 32 41 50 7 8 4 20 3 29-3 24-5 47-4 71-16 11-36 14-52 24-8-12-15-24-25-33 0 21 3 42 0 64-2 9 5 17 8 26-4-4-14-10-18-14 0 33 0 65 0 98-6-7-12-14-17-20-4 33-4 67-11 100-3-46-16-90-17-135-3-10-6-19-9-28 4 0 11 1 15 1-5-28-9-56-10-84-3-5-7-9-10-13-8 4-15 8-23 12-1 44 1 89 0 133 0 8-2 16-4 23 7 7 14 15 21 22-12 0-25-2-37-6-15 2-31 5-46 4 7-11 18-21 19-35 5-37 3-74 1-111-14 6-29 13-44 16-2 29-1 58-1 86-1 9 4 15 8 22-24-2-48 2-70-6 5-10 13-21 12-33 0-21 1-42-1-63-16-12-46-17-45-42 15 9 29 19 46 25 2-24-8-48 0-72-2-18-5-35-4-54 2-11-7-19-12-28 23 0 45 0 68 0-11 26-4 55-5 83-1 21 1 43 4 64 14-8 28-17 42-25 0-24-1-48 3-71-1-17-5-34-4-51 1-6-5-11-9-15 23 1 45 0 68 0-4 8-10 15-10 25-1 31-1 63 0 94 9 0 19 0 27-4 7 3 14 6 20 9-5-51-11-101-19-152zm64 35l0 0c-1 38 0 77 0 115 9 5 18 11 26 17 3-2 7-4 10-7 0-20 0-41-1-61-4-23-1-46-7-68-10 1-19 2-28 4zM1235 627c10-6 17-16 26-23 18 1 24 22 38 30 11 7 23 13 30 23 10-7 21-8 33-7 17-4 29-24 49-22 9 20 23 37 40 51 4 22-21 32-38 38 8-12 20-18 29-27 1-12-14-9-21-5-20 18-18 48-14 73 5 21 18 39 30 57 3 4 8 8 4 13-13 11-26 23-38 34-6 7-14-2-22-1-10 6-18 14-30 17-11 3-23 4-34 8-12 5-20 15-29 23-5-12-9-26-20-34-19-12-38-24-52-42-4 0-9 1-14 1-6-19-18-35-31-49 4-12 16-16 24-25 24-18 40-46 45-75 3-15-5-29-16-38-9-3-13 1-11 10 6 10 14 18 20 28-11-5-22-11-28-21-2-8-2-17 1-25 9-5 19-7 29-12zM1936 636c21 2 43-1 62 11 8 47-27 93-8 139 4 15-10 24-19 33-28 26-35 67-64 92-19 3-39-6-50-23-3-14 8-25 14-36 16-33 43-60 53-95 1-18 7-36 6-54 0-22 6-44 6-67zM1709 668c26-13 61 10 57 39 0 22-22 30-36 42-1 69-1 138-1 208 23 0 47 0 70 0 0-31-2-63 1-94 4-17 2-34-2-51-14-6-31-15-33-32-3-18 6-40 23-47 14-2 30-4 40 6 13 10 19 28 14 43-4 17-22 21-34 31-3 47 0 95-1 142 7 3 14 6 21 9-26 5-52 2-78 2-40 1-80-2-120 0 0-2 0-7-1-9 4 0 11 1 15 1-1-49 0-97-1-146-10-5-22-8-28-18-8-11-5-26-4-39 11-31 61-32 73-1 14 25-7 53-32 59-1 48 0 96-1 144 15-3 30 7 44 2 8-2 17-2 26-3 2-14 5-28 3-43-3-55 3-111-3-167-16-6-36-18-34-38-4-18 9-31 22-40zm6 4l0 0c-22 4-28 29-20 48 8 14 24 22 41 18 14 0 19-15 23-27 8-24-21-49-44-39zm-83 68l0 0c-25 12-24 51 2 62 20 12 44-6 49-26 1-11-4-23-12-31-9-11-27-10-39-5zm160-2l0 0c-8 4-15 10-22 16-1 14-2 32 11 42 10 9 23 11 36 9 11-10 24-22 21-38-2-21-26-36-46-29zM34 709c33-11 63-30 97-40 10-2 22 0 26 11 15 30 27 61 39 93 11 35 37 67 37 105-8 14-23 18-37 24-26 11-52 21-77 32-8 4-17 5-25 3-13-9-14-26-22-39-21-46-39-94-60-141-5-10-5-21-3-32 6-9 16-13 25-16zm-19 26l0 0c29 14 57 29 88 37 14-29 22-61 35-91-41 18-84 31-123 54zm90 66l0 0c-2 5-2 9-1 13 39 18 78 34 118 50-23-59-48-117-74-175-13 38-31 74-43 112zm-81-47l0 0c20 52 44 101 62 154 5-7 11-14 12-22 3-19 13-37 17-55-10-3-20-7-30-11 4-12 8-23 12-35-25-10-48-21-73-31zm83 128l0 0c-4 15-8 29-13 44 19 0 34-10 51-16 25-11 51-20 75-33-31-12-61-28-91-40-7 15-15 30-22 45zM1514 708c-1-11 2-23 13-29 9 0 24 1 26 12 5 9-1 17-3 25 17 14 24 37 19 58-9 20-34 39-55 26 11-6 22-10 32-17 8-8 13-19 16-30-8-13-19-31-36-30-22-4-42 18-38 40 2 16 18 24 31 32-4 2-12 5-16 7-17-10-31-28-29-48 1-23 20-39 40-46zM900 811c54-30 118-38 179-36 20 3 40 3 59 9-1 10-5 19-13 24-46 39-104 56-160 74-18 7-36-1-52-8 3 5 6 9 10 14-23 10-45 20-69 27-21 2-39-18-60-13-25 8-48 23-71 34 29-31 64-56 104-70 19-5 32-22 39-39 1 9-1 19 6 27 8-15 11-35 28-43zM611 814c26-9 54 22 43 48-6 24-39 35-58 18-24-17-15-61 15-66zm-19 47l0 0c10 10 23 23 38 14 15-5 17-22 14-36-5-7-12-12-17-17-10 14-22 27-35 39zM1479 867c6-9 10-19 18-26 39 66 79 132 115 200 16 23 29 47 43 72-107 0-213-1-320 0 49-82 96-165 144-246zm-28 73l0 0c13-3 26-7 39-11 1-18 1-36 0-54-15 21-26 44-39 65zm51-62l0 0c-1 17-1 33 0 50 13 6 27 8 39 15-11-22-22-46-39-65zm-33 70l0 0c-40 14-63 65-44 103 10 26 35 41 61 48 7-9 4-20 5-30-1-40 1-79-1-119-2-13-13-4-21-2zm33-5l0 0c-1 52-1 103 0 155 26-3 51-18 62-42 12-21 13-47 2-68-11-26-37-41-64-45zm-142 159l0 0c33 1 66 0 99 1-27-21-53-47-55-83-15 27-32 53-44 82zm225-81l0 0c-1 11-1 23-6 33-8 21-27 34-43 49 33-2 65-1 98-1-17-27-27-58-49-81zM666 874c11-1 27-4 34 7 17 16 1 50-22 45-28 1-35-39-12-52zm-6 35l0 0c8 4 19 16 28 7 15-7 13-29-2-35-10 8-18 18-26 28z" class="color050405 svgShape"></path><path fill="#ffffff" d="M1280 964c27-32 59-62 100-73-26 30-47 66-61 104-1 12 3 25-2 36-18 15-38 30-50 51-4 16 7 30 6 45 1 23-21 42-43 40-17 2-30-11-38-24-5-18 0-35 5-52-9-28-37-43-55-64 1-50-26-93-55-131 22 2 40 17 58 29 16 14 32 29 43 48 17 35 18 75 16 113 18-2 36-2 54-1 1-41-2-86 22-121zm-86 152l0 0c22 0 44 2 66-1l0-7c-18-2-37-1-55-2-3 3-9 8-11 10zm5 8l0 0c0 1-1 5-1 6 25 0 50 1 74-1-2-2-8-5-10-6-21-1-43-4-63 1zm6 12l0 0c-1 3-2 8-3 11 21 0 43 3 62-5-17-12-39-6-59-6zM616 954c-1-17 19-22 33-21 4 8 12 17 6 26-5 20-41 15-39-5zm8 6l0 0c7 10 20 7 26-2 7-11-5-19-15-21-4 7-8 15-11 23zM954 940c14-1 32-7 41 8 2 10-1 21-1 31 31-3 58 16 79 36 18 18 33 40 38 65 3 16 10 31 10 47 1 31-5 61-2 92 0 35 1 70-1 106-17 2-34 7-52 10-20 3-41-2-60 4-56 1-112 2-166-13-5-2-15-3-14-11 0-46 0-91 1-137 2-18 6-37 0-55 2-67 50-133 118-147-1-12 3-25 9-36zm7 31l0 0c9 0 20 2 26-6-1-11-10-17-18-20-5 8-7 17-8 26zm-28 29l0 0c-16 23-20 52-29 78 0 81 0 162 0 243 21 1 42 2 62 2 1-100-1-200 1-300-1-12 4-26-6-35-9 4-22 3-28 12zm48-11l0 0c0 111 0 223 0 334 20 0 39 0 59-2 1-73-1-147 0-221 0-38-15-73-26-108-11-3-22-4-33-3zm-125 80l0 0c-12 24-12 51-17 77 1 9 4 18 4 27 1 46 0 92 1 138 15 3 30 7 45 8 0-34 0-67 1-100 2-46-5-92 3-137-3-26 8-50 16-75-23 16-43 37-53 62zm176-63l0 0c12 24 22 49 22 76 1 62 1 124 0 186 1 17-1 34 3 51 16-1 31-4 47-8 2-34-1-68 1-101-2-45 3-91-8-135-16-27-35-56-65-69zM273 999c-9-12-29-27-12-41 17 16 34 32 50 49-14 8-22 31-40 28-14-14-28-28-39-44-1-9 3-13 11-13 11 6 20 14 30 21zM1879 988c4-5 11-4 17-5-4 9-10 16-18 22-61 49-123 96-183 145-7 7-13 15-20 21-27 21-54 44-76 70-8-7-16-15-23-22 27-24 59-41 86-65 7-7 17-9 25-15 23-17 44-36 68-52 15-9 25-23 39-33 29-21 56-45 85-66zM205 1017c5-8 11-17 16-25 18 13 34 28 49 44 0 8 2 19-7 22-7 1-12 0-17-5-13-12-27-24-41-36zM524 1009c3-7 7-16 16-15 32 0 64-2 96 0 17 6 34 2 51 3 25-5 51-4 77-3 11 0 13 11 12 20-7 11-21 6-32 7 24 15 47 37 50 66-1 17 3 34 0 51-6 21-21 37-37 51 0 13-2 25-5 37-6 0-11 0-17-1-4-5-8-11-11-16-49 20-105 17-154-3 0 7 0 14 0 20-7 0-14 0-21-2-4-12-2-25-1-38-16-16-34-30-40-53-9-40 5-86 42-107-9-4-21-6-26-17z" class="color050405 svgShape"></path><path fill="#ffffff" d="M306 1016c5-2 12-3 16 1 23 20 42 44 63 65 14 15 29 36 16 56-13 17-27 33-43 48-16 1-35 2-47-11-25-23-53-42-79-63-7-4-6-12-5-18 10-11 20-21 33-28 15-17 28-36 46-50zM191 1036c-1-9 3-13 11-12 18 13 34 27 51 40-12 12-24 24-36 36-17-13-35-24-49-39 5-6 10-13 15-19 15 11 31 21 47 31-14-11-29-22-39-37zM368 1187c11-17 25-31 39-45 11 10 22 18 30 29 3 9 1 18 1 26 59 43 117 90 189 110 14 4 32-2 43 10 36 36 74 70 103 112 21 30 42 61 54 96-8 2-17 5-26 7-8-5-15-11-21-18-14-28-22-59-39-85-24-38-58-67-89-99-33 4-66-7-96-18-50-24-99-53-135-95-11-1-24 3-33-6-7-7-19-13-20-24zM1408 1175c10-16 35-9 38 9 2 9-7 16-11 23-6 6-4 16 4 20 12-11 15-27 22-41 23-9 49-6 73-6 2 9-4 15-11 20 3 3 5 6 8 9-13 15-29 27-47 33 0 5 0 9 0 14-17 4-34 8-51 7 0 6 0 12 0 17 9 1 21-2 28 7-3 14-18 11-28 11 0 3 0 8 0 10 11 0 23 0 34 1 1 6 2 12 3 18-16 4-33 3-49 3-1-2-4-5-5-6-1-20 0-40 0-60-18-6-43-1-53-21-9-9-22-13-31-22-8-5-5-15-5-23-7-6-13-12-19-18 28-2 55 1 82 1 8 7 7 19 11 28 2 10 12 15 19 21 3-20-25-36-12-55zm10 4l0 0c0 6 0 11 0 16 5 0 10-1 15-1 0-5 0-9 0-14-5 0-10 0-15-1zM1258 1238c8-16 14-33 25-47-2 26-11 51-14 76-3 32-12 62-14 94 18 1 37 2 56 3-39 79-84 155-122 235 1-31 12-60 19-90 4-35 20-68 17-104-16-2-32-6-47-7 9-26 23-49 35-73 15-29 29-59 45-87zM1562 1241c-6-9 4-16 10-22 8 10 25 17 21 32-9 14-27 2-31-10zM813 1340c45 14 92 15 138 23 33-5 66-4 99-5 29-5 58-12 87-15 0 5 0 9 0 14-57 12-114 20-172 19-10 1-18-4-28-4-42 3-84-6-126-15 1-6 2-11 2-17zM847 1426c4 0 11 0 15 0 0 10 0 20-1 30 3 6 5 11 8 16 4-9 8-18 12-27 3 0 8 1 11 1-6 19-16 38-16 58 9-8 13-26 29-23-6 15-15 29-22 44 21 30 48 54 77 75 26-10 56 3 81-9 29-10 53-34 63-63 3-17-8-31-19-42 4-2 8-4 12-6 6 8 12 16 18 23 2-22-14-40-11-62 8 9 15 19 21 29 5-14 8-29 7-44 4 0 8 0 13 0-3 10-5 20-5 30-2 33-17 63-37 88-10 21-28 35-43 51 18 1 36 2 54 6 0 12-6 22-13 31-21 3-42 0-61-8-1 15 3 31-4 45-4 13-12 24-18 36-5 16-6 32-11 48-3 2-9 6-12 8-20-14-13-41-23-60-5-12-14-22-19-34-1-15 0-30 1-44-19 6-38 12-58 9-12-5-15-20-20-30 18-5 37-6 55-7-22-20-47-41-56-71-5-18-19-34-20-53-2-15-6-30-8-45z" class="color050405 svgShape"></path></svg></g></svg>