<svg id="SvgjsSvg1100" width="288" height="288" xmlns="http://www.w3.org/2000/svg" version="1.1" xmlns:xlink="http://www.w3.org/1999/xlink" xmlns:svgjs="http://svgjs.com/svgjs"><defs id="SvgjsDefs1101"></defs><g id="SvgjsG1102"><svg xmlns="http://www.w3.org/2000/svg" fill-rule="evenodd" stroke-linejoin="round" stroke-miterlimit="2" clip-rule="evenodd" viewBox="0 0 8334 8334" width="288" height="288"><path d="M3873.14,2766.54C3813.92,2696.26 3811.91,2597.2 3853.69,2474.31C3848.14,2575.19 3851.39,2673.53 3873.14,2766.54ZM2294,4867.36C2257.13,4820.35 2225.19,4772.56 2278.6,4711.5C2271.35,4764.3 2280.43,4815.98 2294,4867.36ZM3171.31,4832.22C3203.25,4763.15 3242.71,4726.42 3294.68,4743.51C3326.7,4791.12 3247.85,4842.96 3171.31,4832.22ZM3456.02,4725.82C3400.33,4714.68 3330.45,4721.99 3336.38,4753.89C3343.23,4790.78 3415.2,4759.18 3456.02,4725.82ZM2376.97,5557.67C2324.9,5504.14 2282.83,5446.55 2286.46,5370.39C2327.95,5433.21 2361.53,5495.76 2376.97,5557.67ZM2487.17,6123.14C2438.47,6087.72 2393.47,6049.7 2384.2,5986.68C2417.53,6017.7 2452.04,6065.9 2487.17,6123.14ZM2742.66,6599.54C2687.17,6580.11 2633.13,6559.04 2603.98,6509.77C2648.88,6519.35 2695.26,6551.67 2742.66,6599.54ZM3008.62,7071.03C2947.45,7062.41 2898.56,7039.06 2888.1,6969.63C2913.81,6997.64 2954.86,7031.79 3008.62,7071.03ZM3265.63,7372.08C3289.44,7395.89 3347.25,7449.96 3400.86,7446.31C3357.53,7412.35 3311.88,7375.62 3265.63,7372.08ZM4915.73,7475.7C4949.94,7447.03 4995.92,7421.03 5046.13,7395.98C5024.54,7441.18 4980.73,7467.46 4915.73,7475.7ZM5749.65,6547.81C5706.21,6606.22 5655.21,6648.6 5594.39,6670.21C5635.39,6624.97 5686.53,6583.92 5749.65,6547.81ZM6114.95,5408.56C6147.37,5451.54 6114.68,5511.16 6055.44,5577.42C6082.14,5522.05 6104.15,5466.05 6114.95,5408.56ZM6160.44,4790.15C6181.77,4839.24 6166.96,4889.81 6119.59,4941.59C6133.81,4895.64 6147.5,4845.76 6160.44,4790.15ZM6195.86,4246.84C6213.41,4328.34 6176.59,4384.86 6120.25,4432.42C6149.89,4379.91 6175.89,4319.74 6195.86,4246.84ZM3837.11,7730.02C4039.65,7695.97 4245.78,7685.06 4461.41,7735.41C4254.24,7747.66 4046.38,7749.47 3837.11,7730.02ZM3885.46,7785.65C4045.96,7789.36 4203.36,7789.06 4352.65,7778.33C4211.9,7831.46 4056.5,7835.01 3885.46,7785.65ZM6472.67,2834.22C6566.09,2930.08 6620.81,3039.14 6571.3,3183.8L6603.47,3178.63C6613.78,3444.33 6544.99,3655.64 6407.57,3819.77L6278.59,3518.3L6138.14,3848.93C6086.44,3773.7 6052.2,3702.39 6092.68,3647.87C6047.18,3622.79 6016.69,3514.12 5972.03,3329.95C5962.83,3300.08 5941.08,3280.43 5906.77,3270.98C5918.34,3206.88 6064.24,3232.41 6185.73,3211.69L6108.8,3352.6C6142.39,3372.98 6164.11,3399.69 6169.31,3435.24C6203.89,3430.3 6270.34,3323.53 6307.86,3211.51C6294.74,3215.8 6428.65,3566.58 6447.05,3544.44C6582.67,3381.35 6494.28,3015.55 6278.59,3019.55C6374.76,2981.43 6439.45,2919.66 6472.67,2834.22ZM5285.01,2955.8C5347.7,2953.53 5384.96,2902.44 5449.15,2853.5C5476.39,2932.55 5480.79,3002.53 5434.02,3055.86C5469.07,3152.22 5451.85,3207.63 5448.72,3356.46C5466.02,3499.07 5469.71,3634.41 5463.89,3764.67C5462.69,3791.6 5537.13,3810.15 5521.86,3833.27C5418,3842.36 5324.76,3853.69 5246.73,3868.23C5212.81,3862.3 5245.34,3845.63 5297.93,3809.77C5323.07,3740.69 5302.89,3585.25 5287.45,3435.24C5322.12,3396.22 5316.28,3365.24 5282.33,3341.58L5292.78,3021.35C5220.17,3011.6 5234.03,2966.5 5285.01,2955.8ZM5103.56,3387.71C5073.79,3303.91 5042.61,3252.41 5008.04,3278.17C5003.93,3367.78 5013.52,3468.03 4977.64,3513.32C5016.56,3538.7 5007.37,3576.41 5023.94,3687.8C5072.56,3840.49 5127.24,3740.2 5182.1,3632.54L5232.85,3682.93C5154.3,3839.54 5062.43,3951.59 4906.33,3848.93C4814.28,3698.37 4844.69,3313.75 4906.33,3220.12C5065.8,3121.97 5081.83,3131.09 5210.03,3299.66C5191.42,3350.62 5160.76,3386.14 5103.56,3387.71ZM4601.16,3894.52C4699.95,3566.85 4695.87,3298.39 4531.42,3360.87C4513.89,3536.47 4486.51,3744.34 4546.44,3815.01C4565.55,3854.53 4549.01,3852.35 4472.51,3868.23C4401.49,3882.97 4342.94,3924.19 4298.36,3938.77C4307.94,3887.43 4360.91,3827.68 4397.62,3766.03C4345.63,3712.5 4365.09,3542.3 4366.94,3396.7C4358.61,3363.49 4342.45,3343.13 4320.87,3341.58C4364.78,3279.88 4428.28,3235.32 4514.1,3210.25L4538.97,3291.92C4597.86,3242.27 4661.68,3224.11 4728.47,3224.87C4784.28,3337.37 4834.4,3451.06 4753.18,3592.31C4793.54,3623.67 4812.23,3675.99 4785.46,3772.32C4796.11,3804.71 4813.65,3818.84 4836.9,3817.84C4750.31,3841.61 4667.82,3866.3 4601.16,3894.52ZM3637.39,3210.25L3595.96,3270.36L3609.55,3539.86L3587.34,3591.05L3612.14,3610.74L3662.34,3736.83C3777.38,3558.23 3777,3383.39 3724.15,3210.25L3866.5,3248.55L3822.03,3438.09C3808.48,3600.4 3746.4,3757.86 3646.87,3911.59C3481.54,3850.69 3418.91,3675.48 3431.91,3416.11L3383.76,3287.4C3532.22,3248.86 3610.96,3141.86 3637.39,3210.25ZM2305.66,2939.9C2332.69,3040.47 2508.4,3056.19 2340.32,3091.41C2361.07,3397.32 2345.65,3417.49 2044.04,3549.75C2014.45,3413.22 2033.58,3270.7 2057.34,3157.08C1997.77,3137.02 2009.91,3106.34 2064.36,3069.4C2051.94,2877.23 2034.91,2689.8 2163.12,2704.31C2240.83,2713.1 2256.97,2758.72 2305.66,2939.9ZM5676.69,3413.03C5754.65,3218.93 5808.76,3251.72 5773.69,3435.24C5671.85,3452.15 5599.79,3515.29 5536.56,3585.59C5554.73,3625.17 5559.78,3649.84 5538.94,3666.94C5472.72,3832.86 5607.6,3927.77 5795.75,3848.93C5791.1,3876.74 5811.18,3889.13 5842.5,3894.52C5929.31,3868.19 5991.06,3831.8 5992.91,3771.38L5932.24,3773.79C5910.59,3652.24 5911.65,3516.81 5924.84,3373.96C5890.67,3262.78 5793.72,3207.5 5659.72,3185.21C5604.96,3223.25 5559.1,3269.16 5543.2,3341.58C5585.05,3369.59 5627.9,3396.01 5676.69,3413.03ZM5770.5,3506.8C5789.8,3645.79 5831.37,3811.59 5724.64,3778.6C5642.13,3753.09 5694.48,3423.61 5770.5,3506.8ZM4057.25,3634.39L4314.81,3469.41C4260.62,3304.62 4186.94,3168.16 3925.82,3303.95L3921.48,3802.09C3959.95,3815.58 3979.04,3855.43 3966.4,3888.48C4061.31,4020.85 4367.74,3832.16 4242.57,3701.56C4198.27,3763.91 4150.28,3816.57 4094.54,3848.93C4055.52,3801.41 4041.59,3731.24 4057.25,3634.39ZM4030.25,3573.57C4027.39,3483.69 4054.78,3384.05 4096.85,3302.07C4169.52,3349.36 4224.33,3577.14 4030.25,3573.57ZM3204.78,3498.24C2761.35,3669.23 2886.11,4059.08 3223.54,3911.59L3259.11,3966.18C3296.38,3935.43 3339.04,3933.89 3383.76,3911.59C3442.89,3849.43 3435.67,3820.1 3366.43,3837.98L3368.42,3637.05L3316.33,3620.11L3360.73,3574.51L3366.43,3376.28C3326.27,3296.82 3256.49,3259.34 3162.28,3248.55C3072.04,3238.21 2997.88,3283.93 2961.49,3383.77L3125.11,3465.52C3136.77,3382.03 3149.97,3316.7 3201.41,3329.02C3229.58,3335.76 3217.83,3431.29 3204.78,3498.24ZM3203.52,3858.06L3204.99,3750.41C3246.15,3732.57 3240.5,3714.42 3196.07,3696.02L3198.06,3573.61C3071.93,3549.93 3013.94,3968.01 3203.52,3858.06ZM6622.88,2682.87C6278.66,2609.07 5687.15,2715.58 4983.73,2808.32C4580.87,2862.12 4186.22,2872.79 3791.76,2882.39C3762.46,2852.25 3717.56,2853.72 3666.67,2867.34L3283.24,2837.56C2922.57,2740.1 2809.83,2744.59 2863.66,2817.56C2966.71,2859.48 3087.19,2894.93 3207.76,2922.41C2985.71,2881.04 2751.05,2889.25 2927.77,2970.49C3106.09,3052.48 3322.02,3023.12 3526.18,3064.54C3384.6,3062.5 3231.17,3053.7 3065.11,3037.69C2897.39,2993.97 2793.63,2997.38 2854.54,3059.08C3088.58,3119.37 3320.89,3139.38 3559.93,3169.38C2816.02,3089.17 2681.82,3124.91 2982.33,3226.51C2803.68,3215.29 2820.62,3246.39 2912.62,3293.73C2807.15,3312.1 2814.34,3343.27 2864.77,3379.36C2803.87,3468.55 2829.33,3523.49 2945.32,3542.52C2810.85,3547.68 2816.19,3579.58 2904.02,3627.24C2805.26,3615.19 2802.41,3642.32 2865.19,3696.25C2797.7,3755.64 2799.06,3794.28 2863.1,3814.02L2850,3963.96C2994.92,4018.07 3142.93,4055.37 3293.16,4080.6C3154.43,4073.92 3012.74,4057.12 2868.42,4031.27C2917.87,4134.45 3103.48,4150.93 3290.27,4166.67C3470.91,4167.75 3650.73,4168.69 3814.47,4166.67L3892.7,4166.67C4470.65,4166.15 5049.07,4097.31 5627.48,4030.45C5660.43,4058.61 5686.68,4056.82 5707.4,4030.22C6011.22,3984.01 6472.85,3996.28 6610.09,4166.67C6573.26,3960.25 6343.32,3941.47 6120.35,3916.57C6299.2,3910.4 6468.33,3930.15 6620.13,3996.04C6609.2,3939.58 6533.36,3886 6447.69,3839.33C6513.98,3850.27 6571.33,3864.97 6621.09,3882.85C6607.35,3836.92 6566.96,3796.29 6525.8,3755.82L6608.82,3794.78C6621.85,3751.11 6586.74,3735.23 6549.73,3706.45C6579.81,3707.59 6600.06,3709.79 6635.98,3733.95C6638.12,3681.41 6626.97,3604.91 6603.01,3544.47C6629.44,3547.82 6647.88,3564.67 6660.56,3591.21C6681.31,3519.4 6649.99,3451.32 6614.33,3383.54C6647.04,3403.54 6675.98,3421.84 6700.03,3437.91C6712.14,3364.06 6680.6,3291.09 6638.4,3218.33C6675.68,3239.04 6707.68,3259.53 6731.99,3279.73C6760.8,3171.39 6687.2,3084.22 6601,2999.65C6678.62,3026.06 6743.05,3069.22 6789.14,3135.72C6849.98,2969.36 6703.21,2874.19 6549.66,2781.35C6668.96,2810.71 6786.33,2885.06 6880.64,2996.01C6936.73,2886.39 6854.48,2741.72 6679.63,2707.21C6673.62,2654.67 6653.36,2651.17 6622.88,2682.87ZM6423.57,1846.65L6363.18,2322.58L6249.23,2385.86L6320.82,2424.53L6313.31,2583.85C6262.38,2586.5 6213.84,2590.18 6165.83,2594.08C6178.85,2547.44 6170.82,2511.93 6140.3,2472.28C6196.23,2371.93 6252.98,2288.82 6316.54,2203.07C6314.4,1968.53 6172.73,1908.97 6012.96,2034.48C5804.87,1902.9 5579.01,1889.54 5353.14,1964.53C5328.75,1937.91 5296.06,1913.39 5261.43,1889.36L5294.61,1824.14C5668.58,1893.62 6043.15,1947.08 6423.57,1846.65ZM5684.85,2121.82C5586.07,2248.82 5485.68,2247.03 5358.93,2229.65L5326.53,2272.06C5531.74,2323.58 5741.76,2340.03 5937.95,2334.22C5864.94,2440.5 5838.41,2518.18 5851.25,2606.14L5884.12,2603.46C5880.39,2454.66 5919.5,2440.93 5992.91,2303.53L5684.85,2121.82ZM6062.96,2322.56C6033.2,2384.21 6009.4,2443.62 6010.04,2493.91C6035.52,2434.21 6062.55,2406.36 6102.64,2378.79C6046.41,2457.82 6027.3,2525.68 6017,2598.97L6058.2,2598.3C6080.43,2518.35 6088.38,2420.68 6160.41,2347.51C6293.34,2212.5 6291.9,2160.8 6262.31,2121.82C6246.89,2171.74 6224.63,2210.01 6198.56,2241.8C6277.41,2029.69 6224.91,2001.36 6150.56,2003.58C6175.44,2033.96 6199.56,2074.24 6169.87,2121.82C6108.81,2219.7 5986.77,2338.41 5936.36,2456.86C5907.28,2525.22 5910.56,2541.81 5906.77,2600.76L5937.58,2601.44C5930.23,2510.9 5987.06,2417.2 6062.96,2322.56ZM6108.8,2121.82C6092.08,2168.81 6066.96,2225.97 6020.4,2247.69C5943.09,2219.03 5864.03,2188.15 5760.17,2121.82C5711.37,2090.65 5599.25,2078.46 5513.97,2086.18C5600.74,2016.49 5759.32,2057.7 5921.49,2161.48C5873.89,2107.25 5805.78,2005.31 5482.69,2052.97C5550.88,2008.65 5632.26,1981.41 5761.57,2016.2C5715.1,1980.14 5648.22,1953.47 5508.59,1960.26C5631.82,1909.76 5740.1,1950.86 5921.08,2051.44C5978.72,2083.48 6022.83,2099.03 6108.8,2121.82ZM5557.57,2179.73C5498.94,2204.1 5435.49,2202.61 5370.21,2191.2L5425.32,2108L5557.57,2179.73ZM5204.13,1989.9C5234.61,1984.91 5260.34,1987.64 5278.01,2003.46C5281.3,1977.79 5266.95,1956.83 5242.19,1938.65C5298.74,1942.45 5341.51,1972.73 5339.59,2034.23L5249.11,2108C5231.15,2078.25 5194,2039.02 5153.81,2034.23C5178.52,2024.34 5204.53,2020.4 5234.43,2034.23L5204.13,1989.9ZM4884.75,1914.61L4950.98,1938.65L4919.05,1964.01L4861.69,1938.65L4884.75,1914.61ZM4820.09,1979.95L4861.69,1989.48L4812.12,2023.33L4820.09,1979.95ZM4980.81,1746.08L5065.1,1776.14L5042.92,1813.15L4950.98,1799.05L4980.81,1746.08ZM6851.35,3276.81C6990.18,3309.6 7143.73,3429.51 7097.67,3638.11C7022.63,3577.27 6946.35,3520.82 6869.34,3466.88C6956.12,3560.52 7069.13,3655.79 6972.56,3738.14C6923.05,3688.89 6869.32,3649.77 6811.37,3620.79C6888.43,3706.15 6981.79,3789.04 6920.15,3856.67C6872.69,3823.11 6822.31,3793.27 6769.51,3766.52C6820.08,3825.69 6885.86,3881.73 6861.26,3956.37C6825.15,3949.94 6782.1,3928.15 6746.37,3894.52C6809.54,3948.16 6878.55,4001.19 6819.19,4075.76C6782.84,4056.76 6748.26,4047.18 6715.29,4046.16C6770.57,4093.54 6835.73,4136.11 6808.58,4212.61C6774.97,4200.41 6742.14,4192.21 6710.16,4188.41C6754.51,4225.64 6804.84,4258.56 6799.87,4331.3C6757.82,4321.62 6718.47,4320.42 6681.83,4327.67C6727.4,4348.71 6774.05,4368.3 6793.89,4423.95C6740.56,4417.62 6692.16,4415.82 6650.49,4420.22C6719.53,4440.35 6810.01,4446.04 6791.44,4512.65C6697.85,4507.45 6613.3,4517.56 6551.84,4566.71C6401.65,4666.47 6317.13,4664.83 6328.59,4514.98C6348.76,4427.43 6389.01,4397.37 6456.7,4445.94C6555.73,4507.79 6601.8,4451.32 6627.11,4348.45C6644.94,4161.34 6655.54,4011.93 6670.43,3782.84C6693.89,3597.93 6751.76,3428.42 6851.35,3276.81ZM6604.48,5131.79C6427.93,4908.77 6476.2,4837.62 6586.34,4808.28C6564.58,4849.03 6613.64,4932.08 6627,5044.98C6630.19,5071.94 6599.29,5100.71 6604.48,5131.79ZM6627.23,4585.73L6627.23,4635.52C6703.68,4599.57 6750.96,4605.31 6813.25,4608.9L6821.46,4581.83C6765.3,4552.06 6700.03,4555.24 6627.23,4585.73ZM6604.48,4676.01C6686.49,4664.82 6757.67,4651.05 6821.46,4635.52C6832.26,4649.02 6833.7,4662.85 6821.46,4677.17C6749.46,4708.03 6675.72,4729.92 6598.71,4735.01C6592.21,4719.49 6595.01,4699.39 6604.48,4676.01ZM6830.11,4735.01L6830.11,4704.98C6744.87,4755.28 6662.48,4762.65 6580.93,4757.26L6538.41,4792.11C6655.92,4791.74 6753.27,4794.57 6830.11,4735.01ZM6153.16,4081.18C6234.51,4153.53 6282.55,4231.89 6247.85,4338.92C6184.25,4441.95 6127.21,4543.6 6116.09,4635.52C6216.9,4687.42 6304.04,4750.51 6200.2,4970.03C6132.26,5070.32 6063.31,5170.6 6122.17,5272.61C6173.6,5335.99 6220.15,5402.18 6153.93,5533.35C6094.44,5620.66 6031.85,5707.75 5989.69,5796.31C6068.95,5870.65 6145.09,5934.03 6175.07,5835.85C6219.57,5739.7 6216.26,5672.92 6150.98,5644.16C6222.64,5612.19 6224.4,5564.65 6229.5,5501.72C6255.74,5177.91 6270.4,4805.65 6272.6,4453.31C6274.21,4195.59 6291.63,4106.06 6272.12,4100.82C6252.6,4095.59 6205.74,4092.65 6153.16,4081.18ZM5842.62,4081.18L5879.46,4081.18C5898.21,4210.49 5924.35,4322.82 5989.69,4345.15C5899.93,4545.31 5818.89,4746.45 5939.31,4970.03C5842.86,5118.18 5794.99,5282.12 5909.17,5498.71C5845.35,5578 5784.77,5663.46 5739.78,5778.65L5704.57,5772.61C5697.87,5739.98 5758.32,5675.24 5739.89,5654.66C5676,5583.34 5740.74,5643.31 5750.06,5596.28C5775.52,5467.74 5806.12,5088.12 5838.07,4685.27C5854.52,4477.73 5844.22,4254.04 5842.62,4081.18ZM6367.48,4355.62C6366.35,4349.54 6366.08,4269.44 6366.08,4269.44C6467.3,4302.21 6604.69,4326.36 6557.42,4394.51C6565.98,4455.26 6371.82,4379.11 6367.48,4355.62ZM6466.55,4254.88C6413.28,4255.45 6370.04,4233.7 6366.08,4195.1C6471.49,4208.6 6592.79,4204.59 6604.48,4321.44C6535.38,4313.49 6508.88,4285.1 6466.55,4254.88ZM6366.08,4166.67C6428.39,4159.92 6484.34,4174.36 6538.41,4195.1C6489.97,4138.13 6442.73,4118.43 6366.08,4108.95L6366.08,4166.67ZM5992.91,4300.44C5984.97,4323.12 5926.26,4313.8 5906.77,4066.41C5950.83,4053.64 5996.91,4049.14 6048.26,4066.18C6060.2,4114.04 6074.47,4160.89 6092.68,4206.03C6068.28,4258.51 6040.55,4216.17 6010.54,4108.95C5977.6,4120.16 5974.7,4158.92 6037.89,4258.27C6019.17,4304.04 5995.34,4293.99 5952.97,4081.18C5954.73,4151.82 5937.97,4213.44 5992.91,4300.44ZM6162.37,4108.95C6155.51,4206.95 6103.28,4262.09 6037.56,4343.48C5900.67,4512.98 5890.22,4786.99 5968.54,4886.08C5918.87,4732.22 5945.67,4617.98 5992.91,4514.32C5942.62,4765.57 5964.84,4817.03 5999.73,4833.55C5975.82,4689.6 5998.56,4620.44 6027.43,4561.1C6016.56,4695.31 6027.34,4786.24 6070.44,4792.11C6062.53,4685.59 6078.59,4602.73 6108.8,4533.84C6240.36,4372.68 6259.52,4211.64 6162.37,4108.95ZM6135.49,4685.27C6235.65,4773.21 6189.59,4916.86 6092.68,5079.61C6042.48,5163.92 6040.81,5265.83 6051.41,5364.41C6005.42,5337.16 5990.35,5260.6 6043.28,5075.57C5984.9,5172.24 5960.86,5280.14 5984.65,5403.66C5940.85,5320.02 5919.35,5215.18 5999.73,5013.51C5930.14,5128.37 5897.72,5256.4 5919.56,5403.67C5823.77,5275.18 5888.23,5096.88 6016.62,4901.69C6077.82,4833.61 6118.4,4761.65 6135.49,4685.27ZM5919.56,5837.16C5970.09,5742.84 6027.42,5662.73 6092.68,5568.89C6171.02,5477.71 6181.1,5392.47 6108.81,5314.39C6093.51,5376.41 6054.36,5410.99 5999.73,5449.77C5909.79,5513.6 5824.66,5616.12 5782.84,5761.75L5798.93,5783.8C5828.6,5694.13 5893.92,5613.42 5974.78,5536.62C5916.72,5604.03 5864.36,5673.59 5859.37,5760.88C5886.35,5695.52 5923.77,5634.73 5979.19,5596.99C5940.3,5676.1 5908.96,5752.96 5906.77,5821.16L5919.56,5837.16ZM6010.77,6340.49L5919.56,6475.93C5918.15,6519.03 5909.48,6546.64 5879.01,6566.95C5800.64,6692.68 5724.12,6826.38 5633,6938.57C5632.41,6967.05 5621.2,6996.11 5570.46,7015.19C5433.49,7195.44 5269.67,7380.89 5033.5,7580.33C4983.87,7571.35 4952.96,7579.12 4946.37,7635.43C4704.38,7785.8 4445.01,7946.92 4161.1,8045.15C4029.67,7994.4 3918.04,7935.73 3815.06,7873.6C4246.78,7932.15 4639.02,7944.03 4734.16,7604.74C4991.46,7561.42 5183.83,7479.12 5114.02,7239.46C5395.57,7195.02 5561.47,7093.82 5462.2,6862.48C5724.56,6676.3 5883.16,6607.91 5819.67,6407.82C5879.93,6387.32 5951.12,6360.98 6010.77,6340.49ZM5367.85,6420.85C5332.81,6528.41 5274.04,6664.38 5148.88,6773.11C5180.88,6860.02 5149.67,6875.83 5064.45,6846.79L4898.37,7049.01C4838.47,7060.1 4809.53,7089.07 4808.04,7131.87C4542.07,7373.2 4355.57,7458.56 4154.29,7530.26C4010.7,7468.06 3885.82,7390.54 3776.61,7308.19C3765.37,7250.16 3754.87,7262.62 3717.64,7270.51L3620.53,7194.2C3530.33,7232.5 3524.51,7192.21 3541.92,7130.3C3083.59,6715.62 2971.61,6418.21 2816.28,6106.13C2709.24,6089.43 2709.72,6096.11 2791.68,6037.3C2602.51,5530.39 2611.23,4992.52 2616.91,4455.13L2551.94,4437.12C2578.19,4626.2 2555.72,4784.49 2464.88,4879.93C2549.91,5062.78 2593.29,5245.98 2472.32,5430.56C2631.33,5672.05 2689.63,5872.53 2589.54,6008.51C2774.21,6177.79 2865.98,6351.95 2852.49,6531.63C3057.19,6646.44 3166.48,6784.73 3152.14,6953.45C3359.99,7039.78 3488.68,7157.86 3532.92,7309.81C3780.24,7351.12 3926.69,7460.41 3976.33,7634.93L4313.86,7638.11C4399.18,7447.47 4552.52,7363.76 4755.95,7358.77C4849.03,7133.88 4988.6,7035.4 5148.89,6993.21C5189.88,6772.94 5312.6,6614.13 5515.34,6515.44C5501.61,6468.6 5522.54,6390.4 5554.55,6302.18L5492.11,6277.7C5434.1,6349.01 5422.04,6438.52 5367.85,6420.85ZM5736.09,6377.92C5726.84,6414.67 5718.54,6448.11 5711.64,6476.72L5684.66,6493.89C5680.6,6458.64 5683.58,6421.72 5690.71,6383.82C5664.18,6399.94 5645.46,6440.78 5633.85,6504.12C5615.19,6499.88 5611.59,6455.8 5628.99,6356.25C5595.59,6376.18 5573.39,6424.19 5564.73,6506.11C5527.28,6529.16 5521.05,6491.58 5589.43,6309.05C5636.63,6333.76 5685.61,6356.61 5736.09,6377.92ZM5803.79,6461.79C5807.62,6538.42 5740.6,6627.78 5591.36,6722.57C5468.27,6800.76 5395.27,6813.01 5367.57,6953.15L5328.84,6956.69C5344.72,6874.03 5388.21,6812.85 5437.43,6756.13C5379.1,6784.83 5323.88,6829.1 5282.86,6944.44C5236.03,6956.95 5263.44,6885.52 5399.36,6691.42C5326.61,6736.2 5258.03,6800.7 5205.5,6941.24C5230.52,6830.99 5250.14,6721.66 5517.7,6569.8C5596.61,6536.26 5698.68,6499.25 5803.79,6461.79ZM5443.73,6933.09C5481.15,7024.66 5426.19,7137.19 5254.3,7161.3C5131.32,7178.55 5070.09,7215.35 5017.22,7308.24L4961.93,7331.4C4961.74,7270.13 5019.74,7206.13 5076.11,7142.21C5011.34,7175.48 4949.57,7218.87 4907.21,7327.81L4879.41,7331.81C4898.91,7254.67 4955.24,7171.75 5065.41,7080.4C4988.47,7129.52 4921.04,7172.85 4853.1,7327.23L4808.08,7330.78C4869.96,7202.74 4974.61,7120.28 5128.08,7029.34C5197.59,6988.15 5321.75,7004.35 5394.07,6993.61C5430.24,6988.24 5440.78,6973.15 5443.73,6933.09ZM4494.97,7578.67C4510.94,7533.98 4532.63,7488.81 4653.29,7435.35C4511.68,7462.13 4436.32,7529.1 4393.5,7615.8C4403.78,7565.75 4442.45,7501.14 4483.97,7463.98C4585.38,7373.22 4729.36,7380.57 4868.67,7383.85C4962.09,7386.05 5031.82,7343.69 5086.92,7292.83C5109.07,7395.84 5106.44,7470.29 4863.97,7527.88C4783.08,7547.09 4657.09,7558.16 4556.7,7624.2L4510.21,7633.64C4521,7573.11 4589.25,7518.91 4703.44,7488.53C4642.27,7493.94 4584.95,7487.99 4494.97,7578.67ZM4694.52,7615.03C4660.35,7735.88 4563.39,7856.43 4179.1,7864.87C3868.01,7871.7 3673.93,7824.71 3659.58,7631.54C3725.6,7698.49 3831.65,7670.38 3953.16,7670.78C4235.11,7671.71 4557.2,7718.48 4694.52,7615.03ZM3604.84,7395.01C3752.51,7424.34 3879.9,7486.79 3927.13,7633.46L3945.15,7629.35C3866.07,7386.3 3564.41,7337.83 3199.69,7280.48C3225.9,7421.32 3319.83,7480.9 3504.53,7502.08C3630.76,7516.56 3701.85,7541.75 3769.02,7646.51L3807.62,7640.57C3768.47,7560.38 3697.05,7519.11 3620.26,7484.32C3694.94,7498.34 3769.55,7509.09 3846.61,7636.57L3880.23,7637.46C3820.11,7530.5 3707.28,7425.32 3604.84,7395.01ZM3478.51,7275.19C3428.84,7151.55 3327.33,7047.08 3114.89,6993.22C2991.92,6983.04 2883.55,6939.9 2847.09,6835.46C2799.37,6920.43 2830.27,7005.8 2942.75,7081.35C3022.47,7134.9 3261.03,7104.77 3316.23,7269.48L3345.17,7272.99C3314.76,7200.08 3255.72,7158 3189.58,7107.29C3264.24,7120.06 3331.5,7166.48 3375.81,7273.34L3420.91,7275.69C3387.89,7189.62 3317.61,7137.28 3247.79,7078.62C3317.28,7107.62 3394.62,7128.55 3454.07,7275.33L3478.51,7275.19ZM2547,6382.98C2545.26,6485.37 2561.93,6586.12 2718.48,6674.43C2841.41,6743.76 2927.1,6785.68 2951.73,6902.13L2992.58,6918.51C2998.47,6819.65 2937.17,6771.8 2882.14,6719.18C2947.47,6760.21 3022.28,6786.94 3026.85,6919.54L3056.68,6929.33C3074.24,6742.91 2937.27,6695.05 2838.72,6612.74C2960.12,6670.42 3100.84,6702.38 3093.15,6931.85L3120.97,6940.96C3122.86,6795.12 3039.72,6663.98 2819.07,6556.59C2697.98,6497.65 2602.87,6452.94 2547,6382.98ZM2818.83,6507.83C2823.2,6377.25 2766.97,6238.94 2618.87,6088.92C2517.77,6021.88 2432.45,5941.6 2377.09,5836.16C2323.26,5923.84 2325.17,6022.4 2472.31,6149.29C2571.38,6226.61 2637.83,6312.25 2632.68,6416.18L2680.13,6436.79C2675.87,6354.29 2633.2,6271.41 2577.45,6188.41C2631.3,6243.05 2691.7,6269.9 2714.21,6457.57L2750.04,6477.99C2753.53,6341.35 2691.93,6251.34 2630.21,6161.42C2692.53,6205.56 2775.14,6261.14 2784.14,6490L2818.83,6507.83ZM2280.47,5278.52C2401.76,5405.73 2525.95,5528.48 2598.4,5730.96C2624.97,5805.21 2627.86,5896.43 2568.39,5979.6L2547.56,5964.38C2603.51,5803.5 2565.17,5683.85 2486.99,5581.63C2533.06,5705.71 2556.32,5822.2 2508.55,5940.67C2510.03,5816.47 2484.55,5720.26 2436.48,5622.91C2464.16,5716.82 2493.57,5810.98 2461.33,5896.1C2460.45,5766.32 2402.39,5645.75 2301.37,5532.1C2234.94,5457.36 2230.69,5336.22 2280.47,5278.52ZM2276.57,4898.33C2189.83,4766.97 2231.02,4677.37 2308.53,4637.88C2343.24,4733.35 2409.72,4834.03 2441.28,4902.84C2587.14,5220.92 2497.9,5298.5 2451.12,5404.01L2433.27,5375.94C2520.34,5219.94 2503.76,5106.36 2430.29,5016.67C2461.6,5148.53 2475.75,5266.42 2395.41,5307.45C2444.4,5182.41 2402.55,5119.65 2372.52,5048.79C2420.43,5239.76 2356.47,5345.97 2354.96,5242.09C2353.17,5119.09 2378.94,5053.35 2276.57,4898.33ZM2370.55,4686.01C2401.39,4649.02 2419.37,4584.48 2411.93,4465.47C2441.24,4552.08 2445.38,4640.94 2422.2,4732.24C2470.41,4676.87 2481.83,4600.92 2487.56,4521.8C2512.93,4612.04 2507.29,4699.53 2475.12,4784.67C2552.83,4662.51 2540.92,4550.69 2520.17,4439.9C2458.74,4426.27 2403.77,4424.94 2350.38,4426.59C2391.8,4506.89 2397.06,4593.62 2370.55,4686.01ZM2373.87,6254.58C2436.76,6215.95 2423.79,6190.43 2341.74,6176.84C2284.95,6024.94 2250.33,5868.34 2220.16,5715.57C2188.4,5661.69 2189.82,5603.02 2187.55,5544.93C2131.4,5134.76 2152.95,4766.93 2202.88,4425.72C2283.57,4355.01 2408.2,4522.34 2320.84,4564.21C2213.02,4615.89 2144.75,4736.68 2251.12,4924.14C2285.85,4985.34 2343.75,5042.82 2329.81,5111.42C2318.91,5165.02 2171.61,5334.7 2215.58,5433.78C2248.39,5507.68 2280.54,5560.8 2346.14,5636.05C2384.4,5679.94 2399.59,5721.11 2383.73,5774.45C2221.99,5960.64 2320.68,6107.88 2552.31,6290.61C2468.9,6475.3 2521.66,6618.02 2826.74,6788.4C2764.42,6964.19 2827.41,7100.03 3184.36,7190.46C3140.91,7420.9 3278.93,7546.3 3602.72,7564.16C3607.1,7666.26 3639.05,7773.06 3712.56,7828.75C3515.03,7717.58 3241.94,7531.83 3030.32,7300.22C3062.08,7218.39 3044.11,7186.63 2961.68,7219.77C2753,6980.05 2528.59,6696.4 2373.87,6254.58ZM3591.18,2034.41C3592.61,2112.86 3574.77,2178.56 3477.88,2191.99C3262.73,2221.82 2979.29,2273.41 2670.19,2243.49L2698.17,2465.61L2668.38,2452.52C2644.64,2364.46 2612.7,2277.94 2556.75,2195.97C2637.75,2220.57 2746.56,2078.85 2899.87,2118.5C2966.34,2135.69 3114.41,2285.16 3246.36,2186.2C3333.34,2120.97 3461.99,2060.25 3591.18,2034.41ZM2168.4,1727.13C2208.34,1901.39 2220.02,2066.01 2228.3,2229.47L2330.6,2315.26L2236.44,2342.9L2244.52,2368.75L2402.79,2376.03L2361.05,2276.45C2260.43,2124.94 2233.44,1989.41 2411.51,1898.37C2520.55,1976.96 2612.37,1990.04 2682.34,1960.01C2957.75,1841.81 3111.53,1885.87 3223.56,1985.62C3378.32,1810.38 3503.85,1769.89 3620.36,1770.94L3641.35,1695.6C3145.66,1840.49 2588.18,1914.36 2168.4,1727.13ZM2389.5,1970.15C2281.7,1979.32 2294.05,2109.43 2436.85,2370.83L2476.07,2373.37C2456.92,2316.3 2431.04,2268.48 2402.57,2224.21C2446.09,2264.49 2488.02,2307.15 2513.91,2373.93C2577.55,2405.44 2533.46,2337.82 2405.1,2153.44C2481.03,2218.78 2561.97,2275.86 2591.43,2417.7L2619.78,2420.22C2606.15,2335.76 2591.95,2275.01 2449.71,2130.71C2399.22,2079.49 2394.59,2014.28 2389.5,1970.15ZM2457.97,1998.59C2544.06,2012.5 2648.9,2016.53 2732.62,1977.07C2854.55,1919.61 3054.36,1865.45 3164.92,1995.09C2959.47,1935.09 2870.46,1963.62 2791.65,1991.88C3003.47,1959.59 3078.73,2013.72 3106.43,2039.75L3046.27,2037.31C2931.18,2003.15 2865.41,2017.8 2802.99,2035.75C2896.72,2029.39 2973.56,2039.57 3030.01,2069.68L2975.47,2090.65C2915.47,2082.95 2842.29,2092.55 2797.82,2108.53C2714.34,2138.52 2631.13,2166.42 2552.29,2157.98L2514.88,2125.84C2591.14,2132.27 2653.47,2113.22 2707.58,2079.12C2638.97,2090.59 2570.57,2102.88 2494.47,2085.88C2470.38,2061.92 2449.86,2024.51 2457.97,1998.59ZM3032.13,2135.52C3145.96,2213.23 3248.64,2174.73 3347.18,2093.09C3421.93,2038.75 3506.6,2004.67 3599.51,1987.39C3550.3,1941.15 3427.48,2001.14 3281.14,2095.07C3360.53,2007.28 3462.21,1934.88 3607.1,1928.79C3624.91,1913.31 3623.83,1899.84 3614.14,1887.26C3541.05,1886.64 3448.35,1922.11 3336.82,1992.21C3397.39,1928.61 3458.74,1865.44 3609.81,1852.33C3628.37,1840.72 3631.73,1827.24 3616.75,1811.5C3464.38,1788.59 3357.49,1890.07 3286.54,1988.14C3240.92,2051.21 3131.78,2111.63 3032.13,2135.52ZM5554.03,2356.09L5559.01,2492.93L5434.16,2616.92L5435.21,2348.98L5554.03,2356.09ZM5266.05,2346.59L5265.07,2437.98C5236.29,2470.49 5199.94,2492.5 5155.28,2503L5156.88,2448.74L5266.05,2346.59ZM3396.51,2255.07L3327.58,2322.97L3325.18,2257.07L3396.51,2255.07ZM3164.47,2303.9L3077.72,2310.75L3063.69,2517.13C3103.47,2507.47 3139.04,2473.4 3172.08,2424.66C3176.05,2376.93 3174.38,2335.68 3164.47,2303.9ZM2910.03,2306.19L2917.83,2655.77L2881.51,2675.12L2881.62,2623.2C2907.38,2598.27 2888.9,2558.98 2830.75,2526.47L2816.99,2306.14C2843.68,2304.18 2875.65,2304.63 2910.03,2306.19ZM3487.83,4224.65C3468.24,4264.73 3441.93,4293.72 3406.94,4308.31L3406.44,4223.61L3487.83,4224.65ZM3249.88,4222.52L3262.22,4407.24C3228.1,4468.14 3190.62,4517.2 3142.63,4529.22L3140.69,4204.24C3170.99,4204.27 3207.57,4210.55 3249.88,4222.52ZM2938.5,4674.49C2952.82,4505.08 2950.01,4336.8 2935.47,4169.29L2863.89,4159.69L2852.52,4493.05L2795.98,4502.2L2788.34,4821.94L2938.5,4674.49ZM2938.6,5750.8L2943.51,6259.95C2910.83,6211.89 2885.01,6148.5 2861.66,6079.61L2812.73,6068.1L2838.17,6026.12L2834.5,5840.35C2858.49,5797.65 2894.89,5769.84 2938.6,5750.8ZM3241.26,5519.92C3187.39,5551.48 3139.28,5594.48 3115.84,5686.43L3106.39,6481.03L3205.66,6393.46L3230.63,6270.29C3247.95,6021.39 3250.82,5771.21 3241.26,5519.92ZM3518.53,5302.9L3427.72,5389.61L3382.58,6211.48L3473.86,6231.49C3515.6,5934.15 3521.81,5620.68 3518.53,5302.9ZM3729.51,5347.79L3722.82,5399.93L3686.6,5393.35L3662.38,6066.23L3774.46,5996.45C3817.58,5809.89 3827.61,5625.32 3803.16,5442.83C3781.88,5385.69 3756.87,5357.53 3729.51,5347.79ZM3732.59,6997.01L3724.91,7201.18L3618.62,7136.76L3629.29,7060.6L3732.59,6997.01ZM3936.71,6832.28L3908.55,6860.78L3892.71,7341.37L4001.58,7407.36L4011.18,7004.89C3976.54,7011.78 3948.2,7006.67 3924.4,6992.94C4040.39,6950.01 3972.21,6866.94 3936.71,6832.28ZM4181.83,7485.51L4292.44,7424.1L4315.43,6658.6C4291.93,6617.8 4270.81,6597.25 4250.78,6585.91L4184.46,6650.29L4181.83,7485.51ZM4551.48,7271.1L4466.55,7335.54L4485.36,6405.97L4579.49,6333.57L4551.48,7271.1ZM4872.64,6095.67L4767.73,6188.66L4741.53,7118.13L4856.56,7023.05L4872.64,6095.67ZM5026.66,5995.85L5018.74,6829.54L5107.16,6823.22L5132.59,6028.44C5111.54,6015.46 5089.21,6001.35 5059.32,5980.61L5026.66,5995.85ZM5286.92,6148.64L5293.24,6507.58L5439.74,6243.15C5387.51,6206.54 5336.83,6176.04 5286.92,6148.64ZM5798.65,4074.62L5810.38,4431.31L5747.33,4504.11L5732.4,4081.83L5798.65,4074.62ZM5568.21,4107.03L5573.1,4177.66L5455.01,4160.67L5468.46,4121.73L5568.21,4107.03ZM5466.48,4241.35L5464.73,4288.96L5564.07,4308.13L5569.35,4195.33L5549.55,4195.81L5466.48,4241.35ZM5569.08,4367.26L5562.2,4510.87L5455.74,4467.13L5454.47,4424.03L5531.62,4370.07L5569.08,4367.26ZM5568.11,4539.43C5561.99,4627.99 5546.57,4709.46 5460.37,4737.03L5455.98,4596.7C5489.52,4564.89 5525.87,4542.39 5568.11,4539.43ZM5284.99,4803.19C5289.51,4924.98 5182.19,4926.47 5187.17,4837.2L5284.99,4803.19ZM5718.11,5830.48C5967.93,5903.8 6165.52,5961.82 6345.25,5995.16C6265.19,6140 6060.79,6076.25 5829.86,5967.99L5828.98,6017.54C5501.17,5871.61 5292.27,5702.96 5064.18,5537.99L5035.74,5558.59C4930.28,5475.31 4794.64,5414.1 4659.24,5352.72C4773.42,5303.25 4920.23,5305.34 5061.59,5425.3C5249.25,5584.56 5606.05,5797.59 5718.11,5830.48ZM5072.01,5628.9C5167.44,5681.15 5352.49,5786.32 5318.51,5813.72C5266.83,5855.39 5141.99,5729.8 5072.01,5628.9ZM4958.02,5615.88C5052.33,5711.42 5216.17,5854.17 5189.15,5859.98C5128.74,5872.97 5024.13,5742.03 4958.02,5615.88ZM5186.43,5948.12C5192.35,5934.81 5372.58,6075.24 5502.29,6155.18C5375.24,6124.43 5170.64,5983.62 5186.43,5948.12ZM5284.5,5902.93C5321.75,5889.8 5525.41,6034.68 5668.65,6116.39C5509.82,6091.82 5230.72,5921.9 5284.5,5902.93ZM5388.36,5850.01C5399.72,5826.84 5649.35,5987.24 5778.58,6048.75C5628.1,6055.26 5366.18,5895.25 5388.36,5850.01ZM5885.67,6100.45C5894.26,6081.07 6055.51,6117.1 6150.01,6148.22C6065.72,6203.39 5861.71,6154.47 5885.67,6100.45ZM5984.46,6224.23C5895.15,6180.28 5761.68,6140.46 5753.23,6171.36C5744.71,6202.53 5902.38,6245.74 5984.46,6224.23ZM5857.91,6293.32C5768.73,6271.93 5615.2,6208 5601.85,6224.5C5574.26,6258.6 5760.61,6307.25 5857.91,6293.32ZM3663.89,6635.18C3644.7,6623.4 3627.08,6619.52 3612.89,6633.03C3588.25,6700.15 3610.55,6748.98 3679.76,6779.52C3649.76,6733.09 3642.25,6685.12 3663.89,6635.18ZM3519.97,6599.82C3505.28,6583.9 3485.88,6583.18 3469.15,6587.43C3440.64,6671.03 3449.79,6726.66 3510.2,6768.38C3475.47,6702.22 3482.1,6650.01 3519.97,6599.82ZM3387.78,6611.43C3415.5,6567.14 3448.36,6597.79 3439.26,6645.84C3416.98,6666.99 3409.78,6701.59 3426.32,6757.33C3393.98,6730.61 3340.24,6687.38 3387.78,6611.43ZM3378.15,6492.87C3386.82,6452.74 3348.85,6458.27 3321.34,6473.56C3279.17,6542.35 3298.58,6577.95 3349.32,6614.1C3328.05,6562.65 3339.64,6524.67 3378.15,6492.87ZM3241.72,6436.05C3195.42,6451.02 3217.58,6484.66 3222.96,6547.73C3177.18,6498.93 3146.46,6440.05 3214.66,6406.57C3235.35,6390.76 3258.28,6419.49 3241.72,6436.05ZM3346.33,4945.7C3262.01,4982.15 3195.76,5036.43 3141.11,5102.16C3251.38,5095.25 3381.44,5015.48 3346.33,4945.7ZM3387.03,4862.81C3244.1,4937.42 3140.03,4961.48 3073.26,4863.51C2904.05,5075.8 2902.4,5220.32 3061.76,5282.92C3048.17,5126.77 3173.81,5031.22 3387.03,4862.81ZM3620.17,4787.41C3543.66,4757.02 3459.19,4767.52 3368.13,4811.9C3184.53,4922.19 3083.72,4926.09 3103.91,4774.48C3108.57,4739.44 3240.45,4642.89 3502.5,4636.36C3692.42,4631.63 3888.08,4638.72 3864.64,4727.32C3867.94,4742.9 3874.1,4756.42 3895.23,4759.1C3956.09,4593.02 3941.72,4417.25 3904.81,4238.58C3958.67,4220.67 4017.73,4212.36 4062.17,4223.69C4079.59,4317.31 4066.51,4416.41 4028.46,4516.17C4052.65,4501.57 4076.44,4479.82 4099.58,4446.86C4089.9,4544.17 4068.74,4641.32 4037.49,4738.35C4053.51,4734.88 4070.45,4725.05 4088.97,4704.43C4019.83,4929.11 3961.61,5148.49 4064.41,5289.59C3909.47,5184.94 3816.61,5055.39 3866.05,4868.78C3773.03,4799.39 3673.28,4748.88 3566.64,4717.72C3590.97,4740.51 3609.02,4763.73 3620.17,4787.41ZM2661.52,4983.62C2958.5,4731.97 3243.12,4488.46 3566.75,4234.24C3631.49,4236.93 3724.37,4238.89 3782.52,4254.49C3819.51,4352.06 3843.38,4504.33 3822.37,4617.16L3752.66,4609.99L3745.51,4584.98C3678,4587.48 3616.34,4583.57 3549.06,4601.55L3549.7,4561.87C3386.28,4572.02 3212.16,4605.72 3072.67,4750.34C3059.26,4783.33 3054.38,4805.47 3053.14,4836.55C2840.99,5099.02 2854.81,5258.4 3089.38,5317.09C3077.78,5261.48 3091.2,5216.43 3127.2,5144.11C3246.55,5082.21 3477.98,5083.69 3589.27,5191.46L2798.09,5807.3C2722.14,5530.52 2686.07,5266.73 2661.52,4983.62ZM5790.5,4529.61C5776.52,4814.22 5770.56,5124.16 5730.88,5415.03L5435.48,5624.89C5273.82,5528.06 5106.6,5419.8 4971.56,5309.91C5034.95,5310.62 5100.91,5302.51 5170.2,5282.95C5132.99,5268.92 5101.75,5250.75 5083.61,5223.44C5136.9,5209.41 5190.99,5187.93 5245.92,5158.65C5208.74,5152.46 5178.58,5136.28 5158.7,5105.51C5206.14,5075.64 5256.9,5041.56 5297.07,4988.51L5250.81,4959.82C5428.94,4841.66 5609.03,4695.54 5790.5,4529.61ZM3581.06,2428.04C3577.84,2345.01 3584.73,2260.55 3594.12,2175.73C3369.26,2320.97 3096.45,2522.53 2909.38,2702.1C3108.17,2739.86 3369.43,2773.49 3595.3,2775.89C3528.99,2601.86 3476.84,2503.11 3521.48,2360.14L3581.06,2428.04ZM5811.67,2621.65L5387.64,2696.17C5503.11,2603.57 5616.17,2493.09 5732.6,2374.95C5772.05,2370.36 5814.66,2375.06 5864.88,2370.84C5825.93,2452.67 5794.75,2534.49 5811.67,2621.65ZM4045.74,6933.09C4039.83,6905.07 4027.82,6897.59 4009.71,6910.66C4010.94,6947.23 4002.07,6972.69 3967.86,6989.75C3999.84,6995.56 4027.52,6983.72 4045.74,6933.09ZM4022.63,6847.74C4132.21,6863.72 4137.26,6819.11 4079.39,6713.63C4045.47,6651.8 4023.1,6629.32 4072.66,6543.91C4116.42,6411.53 4071.94,6368.36 3996.81,6438.42C3962.46,6481.9 3923.62,6516.21 3858.39,6496.62C3720.75,6445.61 3584.53,6396.42 3612.69,6558.91C3646.57,6578.53 3659.95,6554.88 3672.44,6506.63C3718.76,6511.45 3765.22,6523.27 3811.86,6543.51C3825.03,6576.05 3846.62,6577.62 3874.28,6556.95C3887.16,6590.65 3914.82,6598.11 3953.1,6586.72C3959.32,6635.65 3968.43,6688.43 4015.22,6719.4C4034.17,6731.94 3992.09,6843.29 4022.63,6847.74ZM3557.8,6447.39C3531.38,6506.43 3542.34,6543.93 3516.01,6556.41C3454.62,6585.5 3477.2,6427.54 3557.8,6447.39ZM3417.86,6429.81C3396.89,6471.51 3315.74,6400.11 3386.58,6340.34C3481.27,6260.46 3545.39,6344.03 3502.44,6362.81C3461.68,6380.63 3437.69,6390.38 3417.86,6429.81ZM3381.28,6275.57C3347.13,6309.73 3335.1,6347.18 3296.38,6373.43C3206.64,6434.27 3264.08,6234.53 3381.28,6275.57ZM4084.54,5974.26C4086.59,6017.74 4065.66,6031.93 4051.47,5996.59C4030.4,5944.1 4013.2,6006.47 4024.08,6095.6C4023.6,6126.51 4011.22,6142.72 3986.46,6135.6C3936.64,6121.26 3930.09,6175.89 3926.03,6253.57C3869.18,6242.43 3821,6281.58 3771.28,6341.53C3894.28,6156.73 3971.5,5943.47 4004.78,5702.9C4037.03,5749.05 4070.2,5793.31 4106.47,5831.18C4080.16,5863.85 4074.41,5912.78 4084.54,5974.26ZM4091.57,6097.03C4117.9,6095.03 4119.53,6045.95 4090.59,6048.02C4073.72,6049.22 4062.2,6099.25 4091.57,6097.03ZM4016.31,6245.14C3985.5,6244.16 3995,6183.78 4023.22,6183.4C4054.47,6182.97 4044.77,6246.06 4016.31,6245.14ZM4060.94,6350.56C4125.82,6206.39 4178.83,6065.99 4168.74,5935.37C4156.05,5771.12 4269.52,5622.78 4381,5589.2C4388.62,5657.76 4289.14,5720.54 4282.72,5826.16L4330.27,5797.83C4310.54,5873.46 4294.26,5945.01 4293.74,5997.92C4256.49,6006.61 4257.39,6059.06 4276.48,6132.35C4285.3,6166.22 4257.25,6178.78 4235.67,6139.93C4216.74,6105.86 4215.09,6196.75 4229.17,6268.46C4233.05,6288.23 4211.87,6288.03 4192.56,6271.81C4172.95,6255.33 4174.41,6343.28 4173.3,6407.93C4158.81,6428.97 4128.63,6422.57 4060.94,6350.56ZM4341.84,5933.68C4371.74,5927.42 4400.19,5990.52 4395.8,6054.07C4352.85,6026.23 4301.89,5942.05 4341.84,5933.68ZM4339.3,6064.03C4314.23,6116.93 4350.47,6179.28 4412.44,6188.77L4339.3,6064.03ZM4298.48,6178.72C4327.95,6200.4 4347.3,6230.03 4351.84,6271.3C4317.85,6256.69 4299.15,6226.74 4298.48,6178.72ZM4268.89,6249.59C4298.17,6268.65 4315.7,6298.34 4310.03,6349.04C4283.55,6327.86 4268.14,6296.31 4268.89,6249.59ZM4235.9,6341.03C4271.89,6371.11 4285.19,6413.32 4270.52,6477.17C4226.13,6424.1 4203.68,6314.09 4235.9,6341.03ZM4206.12,5212.91C4166.11,5240.54 4161.05,5269.07 4170.81,5308.19C4178.13,5337.55 4217.23,5255.08 4206.12,5212.91ZM4237.73,5105.68C4190.89,5146.45 4170.77,5174.97 4150.3,5210.52C4147.54,5141.93 4168.29,5110.86 4237.73,5105.68ZM4162.45,5080.24C4229.12,5031.01 4305.27,4989.14 4404.82,4965.44C4262.6,4937.5 4179.11,4972.86 4162.45,5080.24ZM4169.2,4782.37C4237.86,4784.02 4303.44,4765.57 4365.31,4722.84C4382.17,4752.26 4349.52,4786.85 4262.49,4827.12C4242.23,4919.35 4205.73,4851.02 4169.2,4782.37ZM4178.28,4623.03C4254.97,4613.05 4307.98,4599.4 4378.43,4548.14C4406,4528.08 4483.09,4512.84 4502.37,4547.43C4503.79,4586.24 4478.12,4579.98 4400.86,4595.38C4419.95,4640.61 4422.52,4649.5 4349.1,4637.92C4317.94,4688.64 4239.81,4732.11 4209.78,4722.12C4180.85,4712.5 4168.02,4659.57 4178.28,4623.03ZM4524.4,4472.17C4481.94,4506.84 4617.89,4517.85 4687.14,4459.35C4711.31,4458.28 4750.57,4458.43 4782.88,4457.07C4754.03,4421.43 4759.03,4407.41 4782.03,4403.92C4891.03,4434.85 4928.17,4365.71 4872.25,4348.07C4785.72,4320.76 4769.2,4286.65 4827.22,4277.73C4921.97,4263.18 4963.78,4269.78 4943.91,4245.63C4911.75,4206.52 4862.72,4178.65 4810.87,4152.65C4733.29,4193.57 4662.62,4202.06 4594.83,4196.98C4617.04,4241.4 4568.64,4255.86 4493.14,4258.81C4398.97,4361.01 4324.36,4377.98 4258.26,4357.79C4317.41,4332.58 4355.65,4307.59 4317.89,4283.4C4389.76,4263.89 4438.76,4236.77 4437.42,4192.92C4295.97,4178.21 4187.59,4193.43 4134.19,4258.41C4137.98,4339.84 4152.83,4402.56 4212.97,4388.55C4187.18,4433.67 4195.16,4480.28 4221.12,4537.88C4234.07,4566.6 4414.2,4501.21 4414.54,4431.23C4497.85,4418.5 4562.2,4381.86 4525.05,4326.06C4585.58,4336.68 4642.57,4343.39 4693.58,4343.5C4688.28,4389.07 4598.98,4411.28 4524.4,4472.17ZM4956.66,4163.91C5006.02,4151.47 5055.74,4150.9 5105.93,4165.72C5026.01,4251.53 4967.25,4243.39 4956.66,4163.91ZM5039.19,4311.6C5103.27,4261.61 5166.44,4209.19 5253.97,4221.99C5306.68,4202.99 5349.95,4199.79 5368.63,4237.75C5386.42,4273.9 5299.73,4267.95 5235.46,4260.52C5247.51,4279.68 5249.39,4296.26 5236.41,4309.07C5144.53,4340.81 5077.11,4343.65 5039.19,4311.6ZM5065.2,4424.58C5177.79,4383.9 5286.96,4342.5 5379.68,4297.57C5428.77,4273.78 5509.45,4435.8 5285.62,4391.51C5310.8,4485.34 5193.9,4459.91 5065.2,4424.58ZM5181.43,4543.6C5226.74,4504.07 5423.51,4491 5431.62,4533.98C5440.62,4581.61 5157.07,4564.85 5181.43,4543.6ZM5050.03,4558.2C5104.46,4540.38 5164.51,4546.56 5160.06,4589.05C5155.74,4630.29 5085.76,4589.64 5050.03,4558.2ZM4951.65,4467.02C4977.86,4431.93 5030.84,4430.54 5037.66,4464.74C5046.44,4508.75 4992.93,4498.27 4951.65,4467.02ZM5016.94,4363.61C5016.94,4394.69 4954.14,4360.15 4919.73,4325.93C4972.43,4307.04 4993.83,4315.56 5016.94,4363.61ZM5005.56,4602.86C4989.68,4640.52 4930.35,4621.33 4950.29,4589.86C4964.64,4567.2 5014.24,4582.27 5005.56,4602.86ZM4540.38,4636.27C4610.96,4643.33 4686.48,4634.02 4771.77,4592.35C4845.8,4556.18 4958.89,4644.97 4795.15,4668.3C4757.34,4673.69 4749.94,4682.71 4760.03,4713.95C4711.46,4740.92 4632.27,4734.87 4528.12,4718.74C4487.06,4712.38 4507.23,4659.12 4540.38,4636.27ZM4320.86,357.682C4431.8,557.641 4530.27,775.471 4467.24,1224.61C4414.21,1288.66 4392.35,1354.71 4439.06,1425.18C4412.03,1494.25 4382.64,1561.84 4320.26,1608.85C4398.82,1603.82 4393.51,1764.8 4246.29,1880.37C4270.49,1907.75 4269.77,1931.68 4201.99,1989.42C4244.3,2009.78 4188.04,2101.71 4028.49,2268.64C4041.26,2222.01 4061.78,2163.28 4085.54,2099.48C3965.28,2217.48 3900.82,2380.96 3926.74,2613.58C3939.72,2554.06 3962.17,2509.29 4002.09,2447.43C3991.06,2578.74 3997.59,2705.92 4026.31,2800.3L3843.21,2803.48C3756.25,2654.28 3757.44,2443.1 3901.2,2131.7C3956.13,2012.71 3958.77,1924.04 3956.04,1830.23C3982.59,1860.78 3996.8,1910.94 3991.08,1980.03C4305.64,1513.76 4415.56,972.971 4320.86,357.682ZM3756.18,1862.02C3832.83,1790.8 3881.12,1672.18 3861.85,1652.33C3842.57,1632.49 3771.75,1779.68 3756.18,1862.02ZM3864.5,1827.92C3878.41,1841.41 3797.27,1954.81 3729.95,2059.96C3754.88,1969.93 3836.87,1801.13 3864.5,1827.92ZM3847.14,2002.65C3875.21,2015.99 3801.14,2115.4 3693.45,2216.84C3713.37,2150.76 3809.88,1984.93 3847.14,2002.65ZM4941.42,2760.08L5052.39,2758.19C5090.46,2724.92 5126.6,2691.53 5153.38,2657.58C5148.63,2680.43 5135.04,2706.82 5114.11,2736.16C5171.96,2703.19 5221.5,2652.79 5246.62,2551.27C5111.67,2583.6 5001.41,2643.63 4941.42,2760.08ZM5302.74,2132.42C5076.43,2267.04 4806.46,2349.54 4618.96,2510.74C4523.05,2593.2 4433.41,2691.37 4352.17,2792.41C4434.96,2818.66 4531.07,2800.5 4644.3,2725.3C4647.34,2700.33 4619.32,2704.93 4586.86,2713.74C4645.65,2693.07 4701.76,2669.36 4739.13,2624.34C4731.83,2605.3 4688.61,2611.17 4645.6,2628.41C4718.08,2586.72 4806.75,2568.55 4859.91,2501.62C4861.77,2476.56 4823.06,2492.36 4780.02,2498.25C4999.46,2390.52 5184.8,2272.06 5302.74,2132.42ZM4382.74,6455.58L4996.26,5957.3C4949.65,5934.02 4897.43,5918.98 4841.85,5908.89C4810.61,5970.38 4759.05,5973.65 4692.91,5935.13C4645.07,5933.4 4657.67,5945.24 4657.67,6001.43C4657.67,6057.62 4577.19,6065.09 4553.08,6175.08C4540.23,6233.76 4534.21,6231.22 4502.8,6187.26C4478.95,6153.89 4476.24,6205.09 4467.26,6294.43C4461.09,6355.84 4424.72,6381.44 4380.95,6349.49C4357.82,6332.61 4360.55,6398.94 4382.74,6455.58ZM4224.34,6569.73L4097.2,6681.62C4077.75,6644.48 4079.72,6597.53 4132.89,6527.15C4154.68,6498.3 4199.18,6535.02 4224.34,6569.73ZM3753.72,6427.74C3800.57,6448.4 3848.54,6467.41 3907.78,6469.61C3953.49,6441.96 3981.59,6410.78 4002.32,6378.13C3964.89,6302.12 3859.03,6412.37 3753.72,6427.74ZM3492.04,6278.49L3914.15,5948.38C3878.72,6076.64 3827.29,6222.96 3717.42,6337.17C3677.83,6385.18 3614.78,6377.74 3568.38,6376.1C3563.9,6334.6 3543.37,6300.07 3492.04,6278.49ZM3965.94,6751.86C4026.59,6667.84 3729.38,6597.86 3706.37,6664.85C3684.76,6727.74 3694.57,6771.88 3717.51,6808.17C3610.79,6828.6 3574.13,6747.74 3547.47,6652.41C3520.76,6697.57 3522.02,6751.09 3543.73,6810.72C3500.72,6809.59 3473.28,6786.15 3450.82,6755.58L3443.76,6812.54C3369.3,6768.85 3344.42,6705.55 3333.54,6647.93C3271.12,6615.26 3260.17,6564.45 3259.57,6509.42C3241.73,6533.09 3247.21,6560.16 3251.38,6584.67C3206.51,6572.16 3171.63,6546.47 3152.49,6500.03L3098.73,6552.86C3228.86,6754.24 3385.72,6930.05 3549.77,7083.84C3694.81,6980.67 3832.82,6879.24 3965.94,6751.86ZM4040.37,2698.79C4060.68,2603.02 4111.52,2517.19 4198.34,2443.08C4148.99,2552.64 4099.19,2658.84 4040.37,2698.79ZM4071.82,2481.52C4105.81,2399.83 4155.31,2307.17 4223.94,2272C4199.66,2342.62 4150.66,2412.51 4071.82,2481.52ZM4153.49,2247.95C4181.28,2178.15 4215.66,2116.46 4275.42,2086.05C4253.77,2155.02 4216.7,2211.81 4153.49,2247.95ZM4703.26,1458.3C4664.69,1558.65 4583.21,1650.7 4514.77,1746.4C4494.28,1775.06 4454.97,1813.55 4483.68,1828.21L4528.97,1823.06C4481.44,1929.65 4412.26,2018.71 4337.47,2103.23C4400.27,1802.82 4490.24,1487.23 4691.78,1108.93C4766.7,968.319 4838.07,714.503 4863.93,540.76C4876.32,739.513 4905.26,947.285 4732.42,1223.85C4759.07,1218.89 4783.32,1198.37 4805.86,1166.68C4799.53,1227.82 4697.79,1374.99 4582.42,1534.45C4602.03,1559.09 4646.9,1522.59 4703.26,1458.3ZM4717.62,1700.9C4942.48,1485.31 5047.78,1324.53 5117.21,1161.73C5117.42,1340.29 5000.32,1513.85 4838.19,1685.48L4907.82,1660.84C4843.72,1752.19 4758.61,1818.63 4674.54,1886.31C4719.95,1873.42 4758.35,1852.08 4790.37,1823.04C4722.33,1932.05 4625.25,2009.14 4528.61,2086.72C4576.72,2074.88 4620.06,2056.82 4657.78,2031.45C4572.7,2172.44 4455.77,2261.53 4335.96,2345.89C4475.88,2082.19 4522.32,1888.14 4717.62,1700.9ZM4720.03,2280.68L4638.69,2273.03C4728.31,2238.22 4823.44,2182.67 4884.31,2138.98L4813.09,2140.9C5243.04,1881.89 5254.22,1767.88 5249.44,1649.11C5051.41,1925.07 4986.98,1941.82 4713.88,2141.53C4511.43,2298.1 4354.65,2483 4213.84,2677.82C4293.46,2661.68 4390.56,2625.49 4586.39,2429.65C4555.81,2410.67 4516.85,2414.62 4468.7,2443.77C4533.54,2375.2 4625.61,2313.94 4720.03,2280.68ZM5034.44,2123.12L5081.76,2149.05C5047.7,2192.43 4989.13,2215.61 4926.49,2235.43C4959.15,2265.23 5012.1,2271.8 5196.31,2127.89C5164.64,2059.37 5105.32,2073.88 5034.44,2123.12ZM3592.55,4854.97C3593.03,4813.45 3744.4,4881.34 3748.28,4964.18C3723.66,4913.47 3592.4,4867.69 3592.55,4854.97ZM1494.77,2777.35L1490.34,2529.64C1690,2455.66 1912.85,2400.52 2182.94,2383.75L2167.5,2320.97L2265.39,2292L2177.8,2240.38C2164.03,2068.55 2144.35,1877.04 2116.2,1657.36C2509.51,1838.99 3065.59,1833.52 3638.12,1641.72C3659.98,1078.02 3435.48,798.52 3208.86,521.467C3604.12,600.413 3796.36,965.782 3849.7,1527.12C3913.88,1234.96 3912.15,929.543 3828,607.54C3963.17,740.238 4053.33,1055.65 4123.84,1450.75C4193.48,1297.27 4202.9,1089 4158.44,831.723C4222.47,869.987 4268.37,936.405 4295.25,1032.33C4286.26,783.623 4272.96,518.403 4252.05,224.084C4408.58,330.471 4531.01,579.478 4574.03,1160.61C4726.46,907.145 4819.24,644.949 4836.42,371.681C4999.65,551.267 4981.08,938.602 4756.59,1561.27C4915.43,1375.89 5061.69,1178.42 5147.39,922.659C5254.57,1032.76 5191.62,1241.9 4995.77,1722.95L5081.91,1752.26L5256.09,1560.51L5315.19,1462.93C5351.15,1543.81 5343.11,1663.39 5312.82,1802.55C5703.49,1875.25 6096.52,1925.98 6512.08,1765.45C6451.91,1929.92 6407.66,2113.88 6402.09,2345.21L6315.69,2381.4L6373.23,2414.74L6368.08,2580.53C6915.02,2647.8 7026.4,2815.57 6900.18,3038.15L6826.79,3214.56C7003.64,3278.69 7128.76,3386.12 7189.5,3580.87C6897.98,3825.66 6793.89,4225.01 6866.76,4732.55C6802.59,4786.06 6724.07,4822.41 6625.94,4835.29C6658.35,4945.24 6665.9,5111.9 6641.28,5248.01C6597.87,5196.05 6497.6,5037.54 6466.34,4985.03C6428.38,4895.2 6468.88,4815.8 6529.74,4739.1C6560.76,4700.01 6570.58,4654.63 6563.76,4601.06C6478.91,4661.37 6399.4,4683.18 6324.56,4694.48C6312.43,5102.53 6318.72,5514.3 6192.91,5899.35C6280.54,5952.91 6372.2,5968.56 6465.61,5967.66C6360.46,6118.94 6230.12,6248.92 6047.36,6334.55C5777.42,6816.47 5483.53,7290.99 4955.97,7693.29C4781.03,7826.69 4448.78,8000.81 4158.44,8109.25C3902.03,7993.13 3628.55,7861.57 3409.72,7677.41C3072.54,7453.15 2756.22,7159.51 2503.65,6653.97C2302.99,6256.29 2168.92,5816.29 2122.31,5320.7C2094.06,5044.93 2112.65,4744.14 2150.53,4433.06C2090.07,4429.35 2036.76,4430.61 1986.32,4434.88C1976.94,4487.57 1965.03,4535.65 1951.94,4586C1988.66,4903.61 1924.89,5143.89 1856.1,5350.87C1855.59,5132.55 1852.02,4923.2 1837.39,4746.42C1820.31,4659.11 1809.65,4554.55 1805.26,4450.78C1706.68,4467.76 1602.53,4498.37 1516.83,4529.58L1498.93,3455.56C1184.74,3580.03 1069.93,3216.88 1189.99,3034.52C1260.59,2927.27 1367.38,2843.37 1494.77,2777.35ZM1542.74,2754.09C1736.88,2663.58 1974.46,2607.24 2215,2561.87C2467.17,2688.66 2612.29,2811.65 2610.9,2891.84C2550.86,2900.32 2581.29,2943.05 2646,2982.55L2682.37,3247.11L2344.48,3523.41C2437.51,3578.61 2505.97,3726.4 2573.39,3911.59C2524.73,3935.66 2490.9,3941.42 2576.29,3952.06C2626.49,3958.32 2610.07,4006.36 2612.8,4091.34C2637.12,4137.83 2661.86,4177.83 2696.14,4222.45C2723.88,4258.57 2655.06,4228.97 2530.78,4167.86C2436.44,4173.55 2376.53,4150.19 2367.62,4104.85C2339.63,4131.15 2286.98,4135.44 2234.41,4145.06C2166.66,4158.14 2138.83,4164.64 2215,4089.98C2241.6,4063.91 2283.35,4046.97 2294.24,4013.38C2295.63,3702.91 2176.21,3640 2042.3,3606.65L2043.06,3768.77C1986.3,3811.72 1986.94,3843.01 2017.79,3868.14C2026.45,4048.7 2021.78,4209.43 1997.66,4367.81C2253.32,4334.38 2508.5,4334.13 2768.77,4414.94C2763.44,3813.5 2762.75,3210.78 2814.82,2593.41C2390.71,2348.87 1970.65,2403.37 1544.55,2546.23C1544.22,2615.3 1543.14,2684.81 1542.74,2754.09ZM1503.41,3163.78C1477.59,3161.83 1448.53,3167.42 1418.39,3187.92C1355.05,3231.01 1305.78,3188.59 1348.09,3126.64C1390.22,3064.94 1447.12,3045.09 1501.15,3054.02L1497.44,2873.95C1134.7,3055.97 1189.64,3484.18 1490.34,3400.2C1496.57,3398.46 1502.51,3396.56 1508.17,3394.51L1503.41,3163.78ZM1542.5,3066.45C1665.36,3119.61 1745.03,3311.23 1541.18,3438.16C1542,3728.18 1546.31,4013.39 1559.04,4306.34C1532.74,4345.87 1529.8,4372.05 1563.77,4380.08C1548.75,4443.91 1573.28,4462.36 1641.24,4430.97C1695.4,4419.69 1751.26,4406.57 1805.47,4396.65C1803.45,4300.34 1804.35,4200.58 1810.45,4094.03C1911.43,4106.53 1909.53,4090.15 1814,4013.27C1826.91,3758.52 1794.48,3579.92 1740.57,3435.24C1826.14,3443.66 1818.04,3410.56 1760.41,3356.45C1754.46,3183.09 1758.74,2990.36 1720.84,2804.52C1654.19,2814.32 1595.06,2842.1 1543.27,2863.09C1542.87,2932.3 1542.92,3000.57 1542.5,3066.45ZM1539.85,3171.69C1539.66,3241.52 1541.11,3311.99 1541.21,3381.65C1638.53,3324.65 1611.31,3208.2 1539.85,3171.69Z" transform="translate(-57.379 -4.394) scale(1.01961)" fill="#ffffff" class="color000 svgShape"></path></svg></g></svg>